<svg width="85" height="62" viewBox="0 0 85 62" fill="none" xmlns="http://www.w3.org/2000/svg">
<path d="M27.2176 8.04024C26.0331 10.3655 25.4408 13.0169 25.4408 15.9943C25.4408 18.9718 26.0331 21.6232 27.2176 23.9484C28.4303 26.2737 30.1506 28.0885 32.3786 29.3929C34.6065 30.669 37.2293 31.307 40.247 31.307C42.8416 31.307 45.1541 30.8249 47.1847 29.8608C49.2434 28.8683 50.9074 27.4788 52.1765 25.6924C53.4738 23.9059 54.3339 21.8217 54.757 19.4397H44.858C44.4068 20.4322 43.7581 21.212 42.9121 21.7791C42.0942 22.3179 41.1494 22.5873 40.0777 22.5873C38.4984 22.5873 37.2434 21.9918 36.3128 20.8008C35.4103 19.6098 34.9591 18.0077 34.9591 15.9943C34.9591 13.981 35.4103 12.3788 36.3128 11.1879C37.2434 9.99687 38.4984 9.40137 40.0777 9.40137C41.1494 9.40137 42.0942 9.68494 42.9121 10.2521C43.7581 10.7909 44.4068 11.5565 44.858 12.549H54.757C54.3339 10.167 53.4738 8.08276 52.1765 6.29628C50.9074 4.50981 49.2434 3.1345 47.1847 2.17037C45.1541 1.17788 42.8416 0.681641 40.247 0.681641C37.2293 0.681641 34.6065 1.33385 32.3786 2.63826C30.1506 3.91431 28.4303 5.71498 27.2176 8.04024Z" fill="#7D7D7D"/>
<path d="M74.5096 16.3771L64.5683 0.979388H55.177V31.0943H64.5683V15.9518L74.5096 31.0943H83.9009V0.979388H74.5096V16.3771Z" fill="#7D7D7D"/>
<path d="M23.802 28.4817C25.1762 27.0798 25.8633 25.2099 25.8633 22.872C25.8633 21.1422 25.3556 19.6251 24.3403 18.3207C23.3533 16.9879 21.9573 16.1089 20.1523 15.6835C21.6752 15.2865 22.8879 14.4925 23.7904 13.3016C24.7211 12.0822 25.1864 10.5935 25.1864 8.83535C25.1864 6.28324 24.3121 4.34079 22.5636 3.00802C20.8151 1.67525 18.4179 1.00886 15.3721 1.00886H1.3174L9.49191 10.9969V8.49507H13.13C13.976 8.49507 14.5965 8.67939 14.9913 9.04802C15.4144 9.38831 15.6259 9.92709 15.6259 10.6644C15.6259 11.3733 15.4144 11.8979 14.9913 12.2382C14.5965 12.5785 13.976 12.7486 13.13 12.7486H10.9255L23.802 28.4817Z" fill="#7D7D7D"/>
<path d="M0.100586 3.12655V31.1238H15.7951C18.3106 31.1238 20.368 30.6973 21.9673 29.8444L16.0284 22.588C15.9273 22.7846 15.7931 22.9501 15.6259 23.0847C15.231 23.3966 14.6106 23.5525 13.7645 23.5525H9.49191V19.299H13.3366L0.100586 3.12655Z" fill="#7D7D7D"/>
<path fill-rule="evenodd" clip-rule="evenodd" d="M6.75196 47.5823C5.53709 47.5823 4.41942 47.2952 3.39894 46.7211C2.3906 46.147 1.58879 45.353 0.99351 44.3391C0.398227 43.3253 0.100586 42.1831 0.100586 40.9128C0.100586 39.6424 0.398227 38.5002 0.99351 37.4864C1.58879 36.4725 2.3906 35.6846 3.39894 35.1227C4.41942 34.5486 5.53709 34.2616 6.75196 34.2616C7.96682 34.2616 9.07842 34.5486 10.0868 35.1227C11.0951 35.6846 11.8908 36.4725 12.474 37.4864C13.0692 38.5002 13.3669 39.6424 13.3669 40.9128C13.3669 42.1831 13.0692 43.3253 12.474 44.3391C11.8908 45.353 11.089 46.147 10.0685 46.7211C9.0602 47.2952 7.95467 47.5823 6.75196 47.5823ZM6.75196 43.7894C7.55377 43.7894 8.17335 43.5329 8.6107 43.0199C9.04805 42.4946 9.26672 41.7922 9.26672 40.9128C9.26672 40.021 9.04805 39.3187 8.6107 38.8056C8.17335 38.2804 7.55377 38.0177 6.75196 38.0177C5.938 38.0177 5.31235 38.2804 4.875 38.8056C4.43764 39.3187 4.21897 40.021 4.21897 40.9128C4.21897 41.7922 4.43764 42.4946 4.875 43.0199C5.31235 43.5329 5.938 43.7894 6.75196 43.7894Z" fill="#7D7D7D"/>
<path fill-rule="evenodd" clip-rule="evenodd" d="M17.5051 34.4814V41.7922C17.5051 42.3908 17.6326 42.8672 17.8877 43.2214C18.155 43.5635 18.5802 43.7345 19.1633 43.7345C19.7465 43.7345 20.1778 43.5635 20.4572 43.2214C20.7366 42.8672 20.8763 42.3908 20.8763 41.7922V34.4814H40.7021C42.0506 34.4814 43.2291 34.7563 44.2374 35.306C45.2579 35.8556 46.0415 36.6191 46.5881 37.5963C46.9545 38.2511 47.1981 38.9663 47.3189 39.7417C47.4479 38.9302 47.7155 38.1784 48.1219 37.4864C48.7171 36.4725 49.519 35.6846 50.5273 35.1227C51.5478 34.5486 52.6654 34.2616 53.8803 34.2616C55.0952 34.2616 56.2068 34.5486 57.2151 35.1227C58.2234 35.6846 59.0192 36.4725 59.6023 37.4864C60.0083 38.1778 60.2758 38.9288 60.4049 39.7395C60.534 38.9288 60.8016 38.1778 61.2075 37.4864C61.8028 36.4725 62.6046 35.6846 63.6129 35.1227C64.6334 34.5486 65.7511 34.2616 66.9659 34.2616C68.1808 34.2616 69.2924 34.5486 70.3007 35.1227C71.3091 35.6846 72.1048 36.4725 72.688 37.4864C73.2832 38.5002 73.5809 39.6424 73.5809 40.9128C73.5809 42.1831 73.2832 43.3253 72.688 44.3391C72.1048 45.353 71.303 46.147 70.2825 46.7211C69.2742 47.2952 68.1687 47.5823 66.9659 47.5823C65.7511 47.5823 64.6334 47.2952 63.6129 46.7211C62.6046 46.147 61.8028 45.353 61.2075 44.3391C60.8016 43.6477 60.534 42.8967 60.4049 42.086C60.2758 42.8967 60.0083 43.6477 59.6023 44.3391C59.0192 45.353 58.2174 46.147 57.1969 46.7211C56.1886 47.2952 55.083 47.5823 53.8803 47.5823C52.6654 47.5823 51.5478 47.2952 50.5273 46.7211C49.519 46.147 48.7171 45.353 48.1219 44.3391C47.7179 43.6511 47.451 42.904 47.3212 42.0978C47.2011 42.876 46.9568 43.5987 46.5881 44.2658C46.0415 45.2553 45.2579 46.037 44.2374 46.6112C43.2291 47.1731 42.0506 47.454 40.7021 47.454H35.3264V37.7063H32.0788V47.454H28.0334V37.7063H24.9036V41.7922C24.9036 43.026 24.6484 44.0826 24.1382 44.9621C23.628 45.8294 22.9294 46.4829 22.0426 46.9226C21.1557 47.3624 20.1656 47.5823 19.0722 47.5823C17.9789 47.5823 17.007 47.3624 16.1566 46.9226C15.3183 46.4829 14.6623 45.8294 14.1885 44.9621C13.7147 44.0948 13.4778 43.0382 13.4778 41.7922V34.4814H17.5051ZM40.3377 43.8261C41.2488 43.8261 41.9717 43.5757 42.5062 43.0748C43.0408 42.574 43.308 41.8594 43.308 40.9311C43.308 40.0027 43.0408 39.2881 42.5062 38.7873C41.9717 38.2865 41.2488 38.0361 40.3377 38.0361H39.3719V43.8261H40.3377ZM55.7391 43.0199C55.3017 43.5329 54.6821 43.7894 53.8803 43.7894C53.0664 43.7894 52.4407 43.5329 52.0034 43.0199C51.566 42.4946 51.3473 41.7922 51.3473 40.9128C51.3473 40.021 51.566 39.3187 52.0034 38.8056C52.4407 38.2804 53.0664 38.0177 53.8803 38.0177C54.6821 38.0177 55.3017 38.2804 55.7391 38.8056C56.1764 39.3187 56.3951 40.021 56.3951 40.9128C56.3951 41.7922 56.1764 42.4946 55.7391 43.0199ZM66.9659 43.7894C67.7678 43.7894 68.3873 43.5329 68.8247 43.0199C69.262 42.4946 69.4807 41.7922 69.4807 40.9128C69.4807 40.021 69.262 39.3187 68.8247 38.8056C68.3873 38.2804 67.7678 38.0177 66.9659 38.0177C66.152 38.0177 65.5263 38.2804 65.089 38.8056C64.6516 39.3187 64.433 40.021 64.433 40.9128C64.433 41.7922 64.6516 42.4946 65.089 43.0199C65.5263 43.5329 66.152 43.7894 66.9659 43.7894Z" fill="#7D7D7D"/>
<path fill-rule="evenodd" clip-rule="evenodd" d="M77.8284 42.8L80.252 47.454H84.6984L81.8921 42.4885C82.7911 42.1954 83.4775 41.7128 83.9513 41.041C84.4372 40.3692 84.6802 39.5996 84.6802 38.7323C84.6802 37.9261 84.4919 37.2054 84.1153 36.5702C83.7508 35.9228 83.1981 35.4159 82.457 35.0494C81.7159 34.6708 80.823 34.4814 79.7782 34.4814H73.7647V47.454H77.8102V42.8H77.8284ZM79.4138 40.0882H77.8102V37.8895H79.4138C79.7904 37.8895 80.0759 37.9872 80.2703 38.1826C80.4768 38.3781 80.58 38.6468 80.58 38.9889C80.58 39.3675 80.4829 39.6485 80.2885 39.8317C80.0941 40.0027 79.8025 40.0882 79.4138 40.0882Z" fill="#7D7D7D"/>
<path fill-rule="evenodd" clip-rule="evenodd" d="M17.9598 48.878C19.0046 48.878 19.8975 49.0673 20.6385 49.446C21.3796 49.8124 21.9324 50.3194 22.2968 50.9668C22.6734 51.602 22.8617 52.3226 22.8617 53.1289C22.8617 53.9961 22.6188 54.7657 22.1328 55.4375C21.659 56.1094 20.9726 56.5919 20.0736 56.885L22.3248 60.8682L26.6871 48.878H31.3522L35.6972 60.8669V48.878H39.7427V61.8505H31.7896L31.1518 59.89L29.1286 52.5792L26.8511 59.89L26.2133 61.8505H18.4336L16.0099 57.1965H15.9917V61.8505H11.9462V52.1028H8.69868V61.8505H4.65319V52.1028H1.26372V48.878H17.9598ZM17.5953 54.4847H15.9917V52.286H17.5953C17.9719 52.286 18.2574 52.3837 18.4518 52.5792C18.6583 52.7746 18.7616 53.0433 18.7616 53.3854C18.7616 53.764 18.6644 54.045 18.47 54.2282C18.2756 54.3992 17.9841 54.4847 17.5953 54.4847Z" fill="#7D7D7D"/>
<path d="M52.6676 61.8505H48.6221L44.3398 55.3276V61.8505H40.2943V48.878H44.3398L48.6221 55.5108V48.878H52.6676V61.8505Z" fill="#7D7D7D"/>
<path d="M57.2652 61.8505V48.878H53.2197V61.8505H57.2652Z" fill="#7D7D7D"/>
<path d="M70.1901 61.8505H66.1446L61.8622 55.3276V61.8505H57.8168V48.878H61.8622L66.1446 55.5108V48.878H70.1901V61.8505Z" fill="#7D7D7D"/>
<path d="M77.9767 52.7258C78.2683 52.8601 78.493 53.0556 78.651 53.3121H82.9151C82.7208 51.9073 82.089 50.7957 81.02 49.9773C79.963 49.1589 78.5902 48.7497 76.9016 48.7497C75.5774 48.7497 74.4233 49.0306 73.4392 49.5925C72.4552 50.1422 71.6959 50.9179 71.1614 51.9195C70.639 52.9212 70.3778 54.0633 70.3778 55.3459C70.3778 56.6285 70.639 57.7706 71.1614 58.7723C71.6959 59.7739 72.4552 60.5557 73.4392 61.1176C74.4354 61.6673 75.6017 61.9421 76.938 61.9421C78.4444 61.9421 79.6897 61.6001 80.6737 60.9161C81.6578 60.2198 82.4292 59.3892 82.988 58.4241V54.3565H76.4096V57.2332H79.635C79.064 57.9905 78.3108 58.3692 77.3754 58.3692C76.3913 58.3692 75.6624 58.1188 75.1886 57.618C74.7148 57.1171 74.4779 56.3598 74.4779 55.3459C74.4779 54.4664 74.6905 53.7763 75.1157 53.2754C75.5409 52.7624 76.1423 52.5059 76.9198 52.5059C77.3329 52.5059 77.6852 52.5792 77.9767 52.7258Z" fill="#7D7D7D"/>
</svg>
