<svg width="160" height="30" viewBox="0 0 160 30" fill="none" xmlns="http://www.w3.org/2000/svg">
<path d="M149.423 29.324C147.76 29.324 146.248 28.8934 144.886 28.0321C143.524 27.1708 142.432 26.0291 141.611 24.6069C140.81 23.1648 140.409 21.5724 140.409 19.8297C140.409 18.0871 140.81 16.4947 141.611 15.0526C142.432 13.6104 143.524 12.4687 144.886 11.6274C146.248 10.7661 147.76 10.3354 149.423 10.3354C150.585 10.3354 151.646 10.5458 152.608 10.9664C153.569 11.367 154.39 11.9278 155.071 12.6489V10.8162H159.578V28.8433H155.071V27.0106C154.39 27.7316 153.569 28.3025 152.608 28.7231C151.646 29.1237 150.585 29.324 149.423 29.324ZM150.054 24.7271C150.935 24.7271 151.736 24.5068 152.457 24.0661C153.178 23.6255 153.749 23.0346 154.17 22.2935C154.611 21.5523 154.831 20.7311 154.831 19.8297C154.831 18.9284 154.611 18.1072 154.17 17.366C153.749 16.6249 153.178 16.034 152.457 15.5934C151.736 15.1527 150.935 14.9324 150.054 14.9324C149.172 14.9324 148.371 15.1527 147.65 15.5934C146.929 16.034 146.348 16.6249 145.907 17.366C145.487 18.1072 145.277 18.9284 145.277 19.8297C145.277 20.7311 145.487 21.5523 145.907 22.2935C146.348 23.0346 146.929 23.6255 147.65 24.0661C148.371 24.5068 149.172 24.7271 150.054 24.7271Z" fill="#7D7D7D"/>
<path d="M130.257 29.3242C128.574 29.3242 127.052 28.8935 125.69 28.0322C124.328 27.1709 123.236 26.0292 122.415 24.607C121.613 23.1649 121.213 21.5725 121.213 19.8299C121.213 18.0872 121.613 16.4948 122.415 15.0527C123.236 13.6105 124.328 12.4688 125.69 11.6275C127.052 10.7662 128.574 10.3356 130.257 10.3356C131.218 10.3356 132.109 10.4758 132.931 10.7562C133.752 11.0366 134.493 11.4372 135.154 11.958V0H140.382V28.8434H135.875V27.0708C135.194 27.7718 134.373 28.3226 133.411 28.7232C132.45 29.1238 131.398 29.3242 130.257 29.3242ZM130.857 24.7272C131.739 24.7272 132.54 24.5069 133.261 24.0662C133.982 23.6256 134.553 23.0347 134.974 22.2936C135.414 21.5524 135.635 20.7312 135.635 19.8299C135.635 18.9285 135.414 18.1073 134.974 17.3661C134.553 16.625 133.982 16.0341 133.261 15.5935C132.54 15.1528 131.739 14.9325 130.857 14.9325C129.976 14.9325 129.175 15.1528 128.454 15.5935C127.733 16.0341 127.152 16.625 126.711 17.3661C126.291 18.1073 126.08 18.9285 126.08 19.8299C126.08 20.7312 126.291 21.5524 126.711 22.2936C127.152 23.0347 127.733 23.6256 128.454 24.0662C129.175 24.5069 129.976 24.7272 130.857 24.7272Z" fill="#7D7D7D"/>
<path d="M111.033 29.324C109.371 29.324 107.858 28.8934 106.496 28.0321C105.134 27.1708 104.043 26.0291 103.221 24.6069C102.42 23.1648 102.02 21.5724 102.02 19.8297C102.02 18.0871 102.42 16.4947 103.221 15.0526C104.043 13.6104 105.134 12.4687 106.496 11.6274C107.858 10.7661 109.371 10.3354 111.033 10.3354C112.195 10.3354 113.256 10.5458 114.218 10.9664C115.179 11.367 116.001 11.9278 116.682 12.6489V10.8162H121.188V28.8433H116.682V27.0106C116.001 27.7316 115.179 28.3025 114.218 28.7231C113.256 29.1237 112.195 29.324 111.033 29.324ZM111.664 24.7271C112.545 24.7271 113.347 24.5068 114.068 24.0661C114.789 23.6255 115.36 23.0346 115.78 22.2935C116.221 21.5523 116.441 20.7311 116.441 19.8297C116.441 18.9284 116.221 18.1072 115.78 17.366C115.36 16.6249 114.789 16.034 114.068 15.5934C113.347 15.1527 112.545 14.9324 111.664 14.9324C110.783 14.9324 109.982 15.1527 109.26 15.5934C108.539 16.034 107.958 16.6249 107.518 17.366C107.097 18.1072 106.887 18.9284 106.887 19.8297C106.887 20.7311 107.097 21.5523 107.518 22.2935C107.958 23.0346 108.539 23.6255 109.26 24.0661C109.982 24.5068 110.783 24.7271 111.664 24.7271Z" fill="#7D7D7D"/>
<path d="M96.7129 28.8434V0H101.941V28.8434H96.7129Z" fill="#7D7D7D"/>
<path d="M86.8831 29.4443C85.1004 29.4443 83.468 29.0137 81.9857 28.1524C80.5035 27.2911 79.3217 26.1294 78.4404 24.6671C77.5791 23.2049 77.1484 21.5925 77.1484 19.8299C77.1484 18.0472 77.5791 16.4348 78.4404 14.9926C79.3217 13.5304 80.5035 12.3686 81.9857 11.5073C83.468 10.646 85.1004 10.2154 86.8831 10.2154C88.6858 10.2154 90.3183 10.646 91.7805 11.5073C93.2627 12.3686 94.4345 13.5304 95.2958 14.9926C96.1771 16.4348 96.6177 18.0472 96.6177 19.8299C96.6177 21.5925 96.1771 23.2049 95.2958 24.6671C94.4345 26.1294 93.2627 27.2911 91.7805 28.1524C90.3183 29.0137 88.6858 29.4443 86.8831 29.4443ZM86.8831 24.7573C87.7845 24.7573 88.5957 24.537 89.3168 24.0963C90.0579 23.6556 90.6387 23.0647 91.0594 22.3236C91.5 21.5625 91.7204 20.7312 91.7204 19.8299C91.7204 18.9085 91.5 18.0772 91.0594 17.3361C90.6387 16.595 90.0579 16.0041 89.3168 15.5634C88.5957 15.1228 87.7845 14.9024 86.8831 14.9024C85.9817 14.9024 85.1605 15.1228 84.4194 15.5634C83.6983 16.0041 83.1174 16.595 82.6768 17.3361C82.2561 18.0772 82.0458 18.9085 82.0458 19.8299C82.0458 20.7312 82.2561 21.5625 82.6768 22.3236C83.1174 23.0647 83.6983 23.6556 84.4194 24.0963C85.1605 24.537 85.9817 24.7573 86.8831 24.7573Z" fill="#7D7D7D"/>
<path d="M68.9788 29.3242C67.837 29.3242 66.7855 29.1238 65.824 28.7232C64.8826 28.3226 64.0614 27.7718 63.3603 27.0708V28.8434H58.8535V0H64.0814V11.958C64.7424 11.4372 65.4835 11.0366 66.3047 10.7562C67.126 10.4758 68.0173 10.3356 68.9788 10.3356C70.6613 10.3356 72.1836 10.7662 73.5456 11.6275C74.9077 12.4688 75.9893 13.6105 76.7905 15.0527C77.6118 16.4948 78.0224 18.0872 78.0224 19.8299C78.0224 21.5725 77.6118 23.1649 76.7905 24.607C75.9893 26.0292 74.9077 27.1709 73.5456 28.0322C72.1836 28.8935 70.6613 29.3242 68.9788 29.3242ZM68.3779 24.7272C69.2592 24.7272 70.0604 24.5069 70.7815 24.0662C71.5026 23.6256 72.0734 23.0347 72.4941 22.2936C72.9347 21.5524 73.155 20.7312 73.155 19.8299C73.155 18.9285 72.9347 18.1073 72.4941 17.3661C72.0734 16.625 71.5026 16.0341 70.7815 15.5935C70.0604 15.1528 69.2592 14.9325 68.3779 14.9325C67.4965 14.9325 66.6953 15.1528 65.9742 15.5935C65.2532 16.0341 64.6723 16.625 64.2316 17.3661C63.811 18.1073 63.6007 18.9285 63.6007 19.8299C63.6007 20.7312 63.811 21.5524 64.2316 22.2936C64.6723 23.0347 65.2532 23.6256 65.9742 24.0662C66.6953 24.5069 67.4965 24.7272 68.3779 24.7272Z" fill="#7D7D7D"/>
<path d="M50.4818 29.4443C48.4587 29.4443 46.676 29.0237 45.1337 28.1824C43.5914 27.3412 42.3896 26.1894 41.5283 24.7272C40.667 23.245 40.2363 21.5525 40.2363 19.6496C40.2363 17.8269 40.657 16.2144 41.4982 14.8123C42.3395 13.3902 43.4712 12.2685 44.8933 11.4472C46.3355 10.626 47.9279 10.2154 49.6705 10.2154C51.4532 10.2154 53.0456 10.626 54.4477 11.4472C55.8498 12.2485 56.9515 13.3501 57.7527 14.7522C58.5739 16.1543 58.9846 17.7467 58.9846 19.5294V21.3622H47.988C47.4872 21.3622 47.0065 21.3321 46.5458 21.272C46.0851 21.2119 45.6244 21.1418 45.1637 21.0617C45.4041 22.2635 45.995 23.245 46.9364 24.0062C47.8979 24.7473 49.1197 25.1178 50.6019 25.1178C51.7437 25.1178 52.7652 24.8875 53.6666 24.4268C54.5879 23.9661 55.3391 23.3952 55.9199 22.7142L57.0617 27.4013C56.1603 28.0823 55.1388 28.5931 53.997 28.9336C52.8754 29.2741 51.7036 29.4443 50.4818 29.4443ZM45.0436 17.907C46.0451 17.6866 47.0266 17.5765 47.988 17.5765H51.1728C51.7336 17.5765 52.2644 17.5965 52.7652 17.6366C53.2659 17.6766 53.7367 17.7467 54.1773 17.8469C53.8769 16.7653 53.326 15.914 52.5248 15.293C51.7437 14.6721 50.7722 14.3616 49.6104 14.3616C48.5088 14.3616 47.5473 14.6821 46.7261 15.3231C45.9249 15.944 45.364 16.8053 45.0436 17.907Z" fill="#7D7D7D"/>
<path d="M33.6375 28.8434V14.9625H30.2725V10.8163H33.7277V4.80725H38.7753V10.8163H42.3506V14.9625H38.8654V28.8434H33.6375Z" fill="#7D7D7D"/>
<path d="M20.4912 29.4442C19.2293 29.4442 18.0375 29.1438 16.9158 28.5429C15.7941 27.9219 14.8827 27.0306 14.1817 25.8688C13.5007 24.687 13.1602 23.2649 13.1602 21.6024V10.8162H18.388V20.9114C18.388 21.9129 18.6885 22.8042 19.2894 23.5854C19.9103 24.3666 20.7716 24.7572 21.8733 24.7572C22.7746 24.7572 23.5758 24.4367 24.2769 23.7957C24.998 23.1347 25.3585 22.1933 25.3585 20.9715V10.8162H30.5864V28.8433H25.8392V26.9505C25.1983 27.7517 24.4071 28.3726 23.4657 28.8133C22.5443 29.2339 21.5528 29.4442 20.4912 29.4442Z" fill="#7D7D7D"/>
<path d="M0 28.8434V1.80267H14.4217V6.30946H5.22787V10.636H13.5204V15.1428H5.22787V28.8434H0Z" fill="#7D7D7D"/>
</svg>
