<svg width="96" height="72" viewBox="0 0 96 72" fill="none" xmlns="http://www.w3.org/2000/svg">
<path d="M43.093 32.3245H21.8037V36.7191H37.9171C37.7121 38.468 37.2083 39.4987 35.7687 41.4066L38.8937 44.8246C41.591 41.486 42.7977 39.1681 43.093 32.3245Z" fill="#7D7D7D"/>
<rect x="53.6396" y="17.5783" width="4.29691" height="53.5161" fill="#7D7D7D"/>
<rect x="54.7461" y="38.9777" width="4.2788" height="39.5857" transform="rotate(-90.167 54.7461 38.9777)" fill="#7D7D7D"/>
<rect x="61.4521" y="7.61725" width="4.29691" height="54.102" fill="#7D7D7D"/>
<rect x="82.9365" y="7.61725" width="4.29691" height="54.102" fill="#7D7D7D"/>
<rect x="91.335" width="4.29691" height="55.0786" fill="#7D7D7D"/>
<path d="M45.5344 32.8128C41.7109 50.2284 36.9907 55.7529 24.2451 58.4966V62.9888C39.7726 61.4263 47.5852 50.0004 50.0266 33.3987L45.5344 32.8128Z" fill="#7D7D7D"/>
<path d="M2.56484 46.6801C-9.15396 15.4787 22.3166 2.85543 35.8659 13.672L33.9616 15.4786L32.0573 17.2853C17.4088 9.57038 -0.853045 24.6096 6.76421 42.7738L4.37156 44.9222L2.56484 46.6801Z" fill="#7D7D7D"/>
<path d="M23.7568 57.2271C19.0693 57.7153 11.8426 58.3989 6.8621 50.7817L8.71771 49.3168L10.6708 47.852C11.2567 49.6098 15.4561 53.3208 22.7799 52.4419L23.2682 54.6881L23.7568 57.2271Z" fill="#7D7D7D"/>
</svg>
