<svg width="112" height="61" viewBox="0 0 112 61" fill="none" xmlns="http://www.w3.org/2000/svg">
<path d="M108.822 25.9842C108.822 27.9823 108.796 29.9626 108.744 31.9253C108.709 33.8703 108.648 35.833 108.56 37.8133L93.482 37.5481C94.0055 34.4184 94.4593 31.2976 94.8432 28.1856C95.2272 25.0559 95.4191 21.8997 95.4191 18.717C95.4191 18.4872 95.4104 18.1158 95.393 17.6031C95.3755 17.0903 95.3406 16.5156 95.2883 15.8791C95.2359 15.2249 95.1574 14.5618 95.0527 13.8899C94.9654 13.2003 94.8345 12.5726 94.66 12.0068C94.5029 11.441 94.3022 10.9813 94.0579 10.6276C93.831 10.2563 93.5518 10.0707 93.2202 10.0707C92.6268 10.0707 92.1207 10.2475 91.7019 10.6011C91.3005 10.9547 90.9602 11.4145 90.681 11.9803C90.4192 12.5284 90.2098 13.1473 90.0527 13.8369C89.8956 14.5265 89.7735 15.216 89.6862 15.9056C89.6164 16.5952 89.564 17.2494 89.5291 17.8683C89.5117 18.4695 89.503 18.9646 89.503 19.3536C89.4157 22.4832 89.3459 25.5952 89.2935 28.6895C89.2412 31.7662 89.1714 34.8781 89.0841 38.0255L75.7334 38.609C76.0824 32.3673 76.414 26.161 76.7282 19.9901C77.0597 13.8192 77.3215 7.61289 77.5135 1.37123L89.8694 0.734686L89.7647 4.97831C90.2534 4.37713 90.7769 3.81131 91.3354 3.28086C91.9113 2.75041 92.5221 2.29952 93.1679 1.9282C93.8136 1.53921 94.4942 1.23862 95.2097 1.02643C95.9427 0.796572 96.7106 0.681641 97.5134 0.681641C98.9968 0.681641 100.297 0.929185 101.414 1.42427C102.531 1.91936 103.491 2.59127 104.293 3.43999C105.096 4.28872 105.768 5.29658 106.309 6.46357C106.85 7.61289 107.286 8.84177 107.618 10.1502C107.95 11.4587 108.203 12.829 108.377 14.2612C108.552 15.6758 108.665 17.0726 108.718 18.4518C108.787 19.831 108.822 21.1659 108.822 22.4567C108.822 23.7475 108.822 24.9233 108.822 25.9842Z" fill="#7D7D7D"/>
<path d="M74.1581 19.2732C74.1581 20.8857 73.9758 22.4451 73.611 23.9513C73.2463 25.4398 72.7165 26.8396 72.0217 28.1509C71.3443 29.4622 70.5106 30.6672 69.5205 31.7658C68.5478 32.8467 67.4449 33.777 66.2116 34.5567C64.9958 35.3364 63.667 35.9478 62.2253 36.3908C60.7837 36.816 59.2552 37.0287 57.6398 37.0287C56.0765 37.0287 54.5828 36.8249 53.1585 36.4173C51.7516 36.0098 50.4315 35.4427 49.1982 34.7162C47.965 33.972 46.8447 33.086 45.8373 32.0582C44.8472 31.0127 43.9961 29.8609 43.2839 28.6028C42.5892 27.3269 42.042 25.9625 41.6425 24.5095C41.2604 23.0564 41.0693 21.5414 41.0693 19.9643C41.0693 18.4226 41.2517 16.9164 41.6165 15.4457C41.9812 13.9572 42.5023 12.5573 43.1797 11.246C43.8745 9.93472 44.7082 8.72975 45.6809 7.63111C46.6536 6.53247 47.7392 5.58444 48.9377 4.78704C50.1536 3.98964 51.465 3.36944 52.8719 2.92643C54.2788 2.48343 55.7639 2.26193 57.3271 2.26193C59.8457 2.26193 62.1385 2.66063 64.2055 3.45804C66.2898 4.25544 68.0615 5.39838 69.5205 6.88687C70.9969 8.35763 72.1346 10.1474 72.9336 12.256C73.75 14.347 74.1581 16.6861 74.1581 19.2732ZM62.5901 19.9643C62.5901 19.2023 62.4772 18.4669 62.2514 17.7581C62.043 17.0316 61.7303 16.3937 61.3134 15.8444C60.8966 15.2773 60.3755 14.8255 59.7502 14.4888C59.1423 14.1344 58.4388 13.9572 57.6398 13.9572C56.8234 13.9572 56.0939 14.1078 55.4512 14.409C54.8086 14.7103 54.2528 15.1267 53.7838 15.6583C53.3322 16.1722 52.9848 16.7835 52.7416 17.4923C52.4984 18.1834 52.3769 18.9188 52.3769 19.6985C52.3769 20.4427 52.4811 21.187 52.6895 21.9312C52.8979 22.6754 53.2106 23.3488 53.6275 23.9513C54.0443 24.5538 54.5567 25.0411 55.1646 25.4132C55.7899 25.7853 56.5108 25.9714 57.3271 25.9714C58.1435 25.9714 58.873 25.8119 59.5157 25.4929C60.1757 25.1562 60.7316 24.7132 61.1832 24.1639C61.6348 23.5969 61.9822 22.9501 62.2253 22.2236C62.4685 21.4971 62.5901 20.7439 62.5901 19.9643Z" fill="#7D7D7D"/>
<path d="M41.0657 2.26193L38.1335 38.0312L26.8848 38.609V2.99728L41.0657 2.26193Z" fill="#7D7D7D"/>
<path d="M25.3111 10.1767L13.2079 26.4765H24.8883L24.7297 37.6595L1.15763 38.609L0.100586 28.27L13.895 10.3349L1.26334 11.2844L1.15763 0.681641H24.8354L25.3111 10.1767Z" fill="#7D7D7D"/>
<path d="M111.973 43.782L105.82 53.5411L106.003 60.7333H99.2748L99.4319 53.5919L94.6406 44.1632L101.317 43.3499L103.411 48.8394L105.689 43.3499L111.973 43.782Z" fill="#7D7D7D"/>
<path d="M96.2156 48.3079C96.2156 48.9851 96.1532 49.6016 96.0286 50.1573C95.9129 50.7044 95.726 51.208 95.4678 51.6682C95.2096 52.1284 94.8758 52.5539 94.4663 52.9446C94.0568 53.3353 93.5628 53.7087 92.9841 54.0647L96.1622 59.5871L90.1533 60.7332L88.0969 55.1848L86.4411 55.2369L86.2008 60.6551H80.459C80.5035 58.6754 80.5436 56.7043 80.5792 54.742C80.6237 52.7796 80.6726 50.8086 80.726 48.8288C80.7438 47.8303 80.7617 46.8404 80.7795 45.8593C80.7973 44.8781 80.8329 43.8882 80.8863 42.8897C81.5094 42.6639 82.1237 42.4772 82.729 42.3296C83.3343 42.182 83.9397 42.0691 84.545 41.991C85.1593 41.9041 85.7779 41.8477 86.4011 41.8217C87.0331 41.7869 87.6785 41.7696 88.3373 41.7696C89.3521 41.7696 90.3313 41.9085 91.2749 42.1863C92.2275 42.4555 93.0687 42.8636 93.7987 43.4106C94.5286 43.9577 95.1117 44.6393 95.5479 45.4555C95.993 46.2717 96.2156 47.2225 96.2156 48.3079ZM90.2334 48.7246C90.2334 48.36 90.18 48.0257 90.0732 47.7218C89.9752 47.4179 89.8239 47.1574 89.6192 46.9403C89.4233 46.7145 89.1741 46.5409 88.8714 46.4193C88.5776 46.2891 88.2304 46.2239 87.8299 46.2239C87.6518 46.2239 87.4782 46.237 87.3091 46.263C87.14 46.2804 86.9753 46.3108 86.815 46.3542L86.6014 51.1993H86.9219C87.3046 51.1993 87.6919 51.1515 88.0836 51.056C88.4842 50.9605 88.8402 50.8129 89.1518 50.6132C89.4723 50.4135 89.7304 50.1573 89.9263 49.8448C90.131 49.5322 90.2334 49.1588 90.2334 48.7246Z" fill="#7D7D7D"/>
<path d="M78.8835 50.2752C78.8835 51.0815 78.7967 51.8611 78.623 52.6142C78.4493 53.3585 78.197 54.0584 77.8662 54.7141C77.5436 55.3697 77.1466 55.9722 76.6751 56.5215C76.2119 57.062 75.6867 57.5271 75.0995 57.917C74.5205 58.3068 73.8877 58.6125 73.2012 58.834C72.5147 59.0466 71.7869 59.1529 71.0176 59.1529C70.2732 59.1529 69.5619 59.051 68.8837 58.8473C68.2137 58.6435 67.5851 58.36 66.9979 57.9967C66.4106 57.6246 65.8771 57.1816 65.3974 56.6677C64.9259 56.145 64.5206 55.5691 64.1815 54.94C63.8507 54.3021 63.5901 53.6198 63.3999 52.8933C63.2179 52.1668 63.127 51.4093 63.127 50.6207C63.127 49.8499 63.2138 49.0968 63.3875 48.3614C63.5612 47.6172 63.8093 46.9172 64.1319 46.2616C64.4627 45.606 64.8598 45.0035 65.3229 44.4542C65.7861 43.9048 66.3031 43.4308 66.8738 43.0321C67.4528 42.6334 68.0772 42.3233 68.7472 42.1018C69.4172 41.8803 70.1244 41.7696 70.8688 41.7696C72.0681 41.7696 73.1599 41.9689 74.1442 42.3676C75.1367 42.7663 75.9803 43.3378 76.6751 44.082C77.3782 44.8174 77.9199 45.7123 78.3004 46.7666C78.6892 47.8121 78.8835 48.9816 78.8835 50.2752ZM73.3749 50.6207C73.3749 50.2397 73.3212 49.8721 73.2136 49.5177C73.1144 49.1544 72.9655 48.8354 72.767 48.5608C72.5685 48.2773 72.3204 48.0513 72.0226 47.883C71.7331 47.7058 71.3981 47.6172 71.0176 47.6172C70.6289 47.6172 70.2815 47.6925 69.9755 47.8431C69.6694 47.9937 69.4048 48.2019 69.1814 48.4677C68.9664 48.7247 68.801 49.0304 68.6852 49.3848C68.5694 49.7303 68.5115 50.098 68.5115 50.4878C68.5115 50.8599 68.5611 51.2321 68.6604 51.6042C68.7596 51.9763 68.9085 52.313 69.107 52.6142C69.3055 52.9155 69.5495 53.1591 69.839 53.3452C70.1368 53.5312 70.48 53.6243 70.8688 53.6243C71.2575 53.6243 71.6049 53.5445 71.9109 53.3851C72.2252 53.2167 72.4899 52.9952 72.705 52.7206C72.92 52.437 73.0854 52.1136 73.2012 51.7504C73.317 51.3871 73.3749 51.0106 73.3749 50.6207Z" fill="#7D7D7D"/>
<path d="M63.1272 41.7696L62.9985 47.5709L59.1638 47.735L58.7005 60.4322L53.2701 60.7332L52.7811 48.0361L48.9463 48.255L49.1007 41.7969L63.1272 41.7696Z" fill="#7D7D7D"/>
<path d="M48.9456 53.8824C48.9456 55.072 48.7291 56.1009 48.2961 56.9692C47.8721 57.8289 47.2857 58.5409 46.537 59.1053C45.7973 59.661 44.9267 60.0734 43.9254 60.3426C42.9331 60.6031 41.8641 60.7333 40.7185 60.7333C40.2764 60.7333 39.7893 60.6769 39.2571 60.564C38.7339 60.4511 38.2016 60.3122 37.6604 60.1472C37.1191 59.9736 36.5959 59.7912 36.0907 59.6002C35.5946 59.4005 35.1525 59.2138 34.7646 59.0401L35.36 53.9345C36.1268 54.3774 36.9748 54.716 37.9039 54.9505C38.8421 55.1762 39.7622 55.2891 40.6643 55.2891C40.8357 55.2891 41.0432 55.2847 41.2868 55.2761C41.5304 55.2587 41.7604 55.2196 41.9769 55.1588C42.2024 55.0894 42.3919 54.9895 42.5452 54.8593C42.6986 54.729 42.7752 54.5424 42.7752 54.2992C42.7752 54.1342 42.7211 53.9953 42.6129 53.8824C42.5046 53.7609 42.3648 53.6654 42.1934 53.5959C42.022 53.5178 41.828 53.4613 41.6115 53.4266C41.395 53.3832 41.183 53.3528 40.9756 53.3354C40.7681 53.318 40.5741 53.3094 40.3937 53.3094C40.2133 53.3094 40.069 53.3094 39.9607 53.3094C39.1849 53.3094 38.4768 53.1921 37.8363 52.9577C37.2048 52.7233 36.659 52.3933 36.199 51.9678C35.7479 51.5337 35.3961 51.0127 35.1435 50.4049C34.8909 49.7884 34.7646 49.1068 34.7646 48.3601C34.7646 47.3355 34.9766 46.4194 35.4006 45.6119C35.8336 44.7957 36.4065 44.1054 37.1191 43.541C37.8408 42.9679 38.6662 42.5294 39.5954 42.2255C40.5245 41.9216 41.4852 41.7697 42.4776 41.7697C42.9196 41.7697 43.3751 41.787 43.8442 41.8218C44.3133 41.8478 44.7779 41.8999 45.238 41.978C45.707 42.0562 46.1626 42.156 46.6046 42.2776C47.0467 42.3992 47.4661 42.5511 47.8631 42.7335L47.3489 48.0214C46.7354 47.8217 46.0904 47.6567 45.4139 47.5265C44.7463 47.3876 44.0923 47.3181 43.4518 47.3181C43.3345 47.3181 43.1812 47.3224 42.9917 47.3311C42.8113 47.3311 42.6174 47.3441 42.4099 47.3702C42.2114 47.3876 42.0085 47.4179 41.801 47.4614C41.5935 47.5048 41.4086 47.5656 41.2462 47.6437C41.0838 47.7132 40.953 47.8087 40.8538 47.9302C40.7546 48.0518 40.7094 48.1951 40.7185 48.3601C40.7275 48.5511 40.7997 48.6987 40.935 48.8029C41.0793 48.9071 41.2597 48.9852 41.4762 49.0373C41.7018 49.0807 41.9453 49.1024 42.2069 49.1024C42.4776 49.1024 42.7437 49.0981 43.0053 49.0894C43.2669 49.0721 43.5105 49.059 43.736 49.0504C43.9615 49.033 44.1464 49.0286 44.2908 49.0373C45.0124 49.0807 45.6619 49.2284 46.2393 49.4802C46.8166 49.732 47.3038 50.0663 47.7007 50.483C48.1066 50.8998 48.4133 51.3991 48.6208 51.9809C48.8373 52.5539 48.9456 53.1878 48.9456 53.8824Z" fill="#7D7D7D"/>
</svg>
