<svg width="69" height="45" viewBox="0 0 69 45" fill="none" xmlns="http://www.w3.org/2000/svg">
<path d="M6.94602 38L0.511364 16.1818H7.11648L10.0994 29.6051H10.2699L13.8068 16.1818H19.0057L22.5426 29.6477H22.7131L25.696 16.1818H32.3011L25.8665 38H20.1989L16.4915 25.8125H16.321L12.6136 38H6.94602ZM32.1187 38V16.1818H38.042V24.7045H45.883V16.1818H51.8062V38H45.883V29.4773H38.042V38H32.1187ZM52.5187 38V16.1818H67.8597V20.9545H58.442V24.7045H66.9222V29.4773H58.442V38H52.5187Z" fill="white"/>
<path d="M47.7074 14.1065C47.125 14.1065 46.5888 13.9538 46.0987 13.6484C45.6122 13.343 45.2216 12.8796 44.9268 12.2582C44.6357 11.6367 44.4901 10.8537 44.4901 9.90909C44.4901 8.92187 44.6428 8.11932 44.9482 7.50142C45.2571 6.88352 45.6548 6.43075 46.1413 6.14311C46.6314 5.85547 47.1463 5.71165 47.6861 5.71165C48.0909 5.71165 48.446 5.78267 48.7514 5.92472C49.0568 6.06321 49.3125 6.24964 49.5185 6.48402C49.7244 6.71484 49.8807 6.96875 49.9872 7.24574H50.0298V3.09091H52.9702V14H50.0511V12.6577H49.9872C49.8736 12.9347 49.7102 13.1832 49.4972 13.4034C49.2876 13.62 49.032 13.7923 48.7301 13.9201C48.4318 14.0444 48.0909 14.1065 47.7074 14.1065ZM48.794 11.848C49.0639 11.848 49.2947 11.7699 49.4865 11.6136C49.6818 11.4538 49.831 11.2301 49.9339 10.9425C50.0405 10.6513 50.0938 10.3068 50.0938 9.90909C50.0938 9.50426 50.0405 9.15803 49.9339 8.87038C49.831 8.57919 49.6818 8.35724 49.4865 8.20455C49.2947 8.0483 49.0639 7.97017 48.794 7.97017C48.5241 7.97017 48.2933 8.0483 48.1016 8.20455C47.9134 8.35724 47.7678 8.57919 47.6648 8.87038C47.5653 9.15803 47.5156 9.50426 47.5156 9.90909C47.5156 10.3139 47.5653 10.6619 47.6648 10.9531C47.7678 11.2408 47.9134 11.4627 48.1016 11.619C48.2933 11.7717 48.5241 11.848 48.794 11.848ZM56.6842 14.1491C55.8106 14.1491 55.0577 13.9822 54.4256 13.6484C53.7971 13.3111 53.3124 12.8281 52.9714 12.1996C52.6341 11.5675 52.4654 10.8111 52.4654 9.9304C52.4654 9.08523 52.6359 8.34659 52.9768 7.71449C53.3177 7.08239 53.7989 6.59055 54.4203 6.23899C55.0418 5.88743 55.7751 5.71165 56.6202 5.71165C57.2381 5.71165 57.7974 5.80753 58.2982 5.99929C58.7989 6.19105 59.2268 6.46982 59.5819 6.83558C59.937 7.1978 60.2104 7.63814 60.4022 8.15661C60.594 8.67507 60.6898 9.25923 60.6898 9.90909V10.5909H53.3816V8.97159H57.9839C57.9803 8.73722 57.92 8.53125 57.8028 8.35369C57.6891 8.17259 57.5347 8.03232 57.3393 7.93288C57.1476 7.8299 56.9292 7.77841 56.6842 7.77841C56.4462 7.77841 56.2278 7.8299 56.029 7.93288C55.8301 8.03232 55.6703 8.17081 55.5496 8.34837C55.4324 8.52592 55.3702 8.73366 55.3631 8.97159V10.7188C55.3631 10.9815 55.4182 11.2159 55.5283 11.4219C55.6384 11.6278 55.7964 11.7894 56.0023 11.9066C56.2083 12.0238 56.4569 12.0824 56.7481 12.0824C56.9505 12.0824 57.1352 12.054 57.3021 11.9972C57.4725 11.9403 57.6181 11.8587 57.7389 11.7521C57.8596 11.642 57.9484 11.5107 58.0052 11.358H60.6898C60.5975 11.9261 60.3791 12.4197 60.0347 12.8388C59.6902 13.2543 59.2339 13.5774 58.6657 13.8082C58.1011 14.0355 57.4406 14.1491 56.6842 14.1491ZM68.2803 5.81818L65.5318 14H62.1227L59.3741 5.81818H62.4636L63.7846 11.2301H63.8698L65.1909 5.81818H68.2803Z" fill="white"/>
</svg>
