<svg width="162" height="84" viewBox="0 0 162 84" fill="none" xmlns="http://www.w3.org/2000/svg">
<path fill-rule="evenodd" clip-rule="evenodd" d="M71.0578 46.129L74.0408 32.1731H90.66V15.767H77.4498L80.8589 0H63.8136L60.4045 15.767H42.7199L46.129 0H29.0836L25.6746 15.767H6.81814V32.1731H22.2655L19.2826 46.129H0V62.5352H15.767L12.2514 78.8348H29.2967L32.8123 62.5352H50.4969L46.9813 78.8348H64.0266L67.5422 62.5352H70.3457C70.395 69.19 72.3928 74.3834 76.3393 78.1153C80.4011 81.8944 85.7077 83.7839 92.259 83.7839C98.7448 83.7839 103.92 81.9595 107.786 78.3108C109.595 76.572 110.981 74.5119 111.944 72.1305V83.0998H125.701V56.9069H137.199C142.833 56.9069 147.485 55.9295 151.153 53.9748C154.888 52.0201 157.606 49.4465 159.31 46.2538C161.079 43.0611 161.963 39.6404 161.963 35.9917C161.963 31.952 161.013 28.3358 159.113 25.1431C157.279 21.9504 154.494 19.4419 150.76 17.6175C147.026 15.7932 142.506 14.881 137.199 14.881H113.584H111.944H99.7275V62.771C99.7275 65.5075 99.0724 67.6577 97.7621 69.2214C96.4518 70.7852 94.5519 71.5671 92.0624 71.5671C89.5074 71.5671 87.542 70.7526 86.1663 69.1237C84.856 67.4948 84.1681 65.2143 84.1026 62.2823H83.8419V46.129H71.0578ZM39.3109 32.1731H56.9954L54.0125 46.129H36.3279L39.3109 32.1731ZM145.061 43.3218C143.226 45.0158 140.409 45.8629 136.609 45.8629H125.701V26.0227H136.609C144.078 26.0227 147.812 29.3457 147.812 35.9917C147.812 39.1192 146.895 41.5625 145.061 43.3218Z" fill="#7D7D7D"/>
</svg>
