<svg width="204" height="67" viewBox="0 0 204 67" fill="none" xmlns="http://www.w3.org/2000/svg">
<path d="M14.7673 42.0665C5.45467 40.8627 1.39592 56.2746 0 66H54C53.0449 62.6569 49.9445 55.3781 45.1837 53.0075C39.2327 50.0443 39.6735 61.2133 30.8571 60.7574C22.0408 60.3015 25.3469 43.4341 14.7673 42.0665Z" fill="#7D7D7D"/>
<path d="M45.0632 53.5533C39.0309 50.6984 35.9368 59.8424 27 59.4032C30.5747 64.3571 47.6698 66.3348 54 65.9543C53.0318 62.7334 49.8891 55.8371 45.0632 53.5533Z" fill="#7D7D7D"/>
<path d="M75.3852 12.4129C75.0286 11.8339 74.5357 11.3894 73.9065 11.0792C73.2982 10.769 72.5745 10.614 71.7355 10.614C70.1834 10.614 68.9563 11.1102 68.0544 12.1027C67.1735 13.0953 66.733 14.429 66.733 16.1038C66.733 17.9855 67.2049 19.4226 68.1488 20.4151C69.1137 21.387 70.5085 21.8729 72.3333 21.8729C74.4938 21.8729 76.0354 20.9114 76.9583 18.9884H70.7602V14.6151H82.2755V20.5082C81.7931 21.6661 81.0799 22.7517 80.136 23.7649C79.2131 24.7781 78.0385 25.6155 76.6122 26.2772C75.1859 26.9182 73.5604 27.2387 71.7355 27.2387C69.5122 27.2387 67.5405 26.7735 65.8206 25.843C64.1216 24.8918 62.8002 23.5788 61.8563 21.9039C60.9334 20.2083 60.4719 18.275 60.4719 16.1038C60.4719 13.9534 60.9334 12.0407 61.8563 10.3658C62.8002 8.67027 64.1216 7.35724 65.8206 6.42675C67.5196 5.47558 69.4807 5 71.7041 5C74.4938 5 76.801 5.66168 78.6258 6.98505C80.4507 8.30841 81.5833 10.1177 82.0238 12.4129H75.3852Z" fill="#7D7D7D"/>
<path d="M91.0799 5.21711V17.9028C91.0799 19.0814 91.3525 19.9912 91.8979 20.6322C92.4642 21.2732 93.3137 21.5937 94.4464 21.5937C95.579 21.5937 96.4285 21.2732 96.9948 20.6322C97.5821 19.9706 97.8758 19.0607 97.8758 17.9028V5.21711H104.042V17.9028C104.042 19.9085 103.612 21.6248 102.752 23.0515C101.892 24.4576 100.718 25.5225 99.2287 26.2462C97.7604 26.9492 96.1244 27.3007 94.3205 27.3007C92.5166 27.3007 90.9016 26.9492 89.4753 26.2462C88.0699 25.5225 86.9583 24.4576 86.1402 23.0515C85.3432 21.6454 84.9447 19.9292 84.9447 17.9028V5.21711H91.0799Z" fill="#7D7D7D"/>
<path d="M113.604 5.21711V27.0836H107.438V5.21711H113.604Z" fill="#7D7D7D"/>
<path d="M131.148 23.5168H123.283L122.087 27.0836H115.606L123.692 5.21711H130.802L138.857 27.0836H132.344L131.148 23.5168ZM129.607 18.8643L127.216 11.7926L124.856 18.8643H129.607Z" fill="#7D7D7D"/>
<path d="M155.667 5.21711C157.995 5.21711 160.03 5.68236 161.771 6.61285C163.533 7.52266 164.885 8.80467 165.829 10.4589C166.773 12.1131 167.245 14.0051 167.245 16.1349C167.245 18.244 166.763 20.1256 165.798 21.7798C164.854 23.434 163.501 24.7367 161.739 25.6879C159.998 26.6184 157.974 27.0836 155.667 27.0836H146.889V5.21711H155.667ZM155.195 21.7178C156.999 21.7178 158.415 21.2319 159.442 20.26C160.47 19.2882 160.984 17.9131 160.984 16.1349C160.984 14.3359 160.47 12.9505 159.442 11.9787C158.415 10.9862 156.999 10.4899 155.195 10.4899H153.055V21.7178H155.195Z" fill="#7D7D7D"/>
<path d="M176.192 10.0867V13.6536H183.271V18.275H176.192V22.2141H184.214V27.0836H170.025V5.21711H184.214V10.0867H176.192Z" fill="#7D7D7D"/>
<path d="M77.9337 30.9164V35.7549H72.0187V52.7829H65.852V35.7549H60V30.9164H77.9337Z" fill="#7D7D7D"/>
<path d="M86.256 30.9164V43.602C86.256 44.7807 86.5287 45.6905 87.074 46.3315C87.6404 46.9725 88.4898 47.293 89.6225 47.293C90.7552 47.293 91.6046 46.9725 92.171 46.3315C92.7583 45.6698 93.0519 44.76 93.0519 43.602V30.9164H99.2186V43.602C99.2186 45.6078 98.7886 47.324 97.9286 48.7508C97.0686 50.1568 95.894 51.2217 94.4048 51.9454C92.9366 52.6485 91.3005 53 89.4966 53C87.6928 53 86.0777 52.6485 84.6514 51.9454C83.2461 51.2217 82.1344 50.1568 81.3164 48.7508C80.5193 47.3447 80.1208 45.6284 80.1208 43.602V30.9164H86.256Z" fill="#7D7D7D"/>
<path d="M113.846 52.7829L109.441 44.7186H108.781V52.7829H102.614V30.9164H112.336C114.119 30.9164 115.629 31.2265 116.866 31.8469C118.104 32.4465 119.037 33.2839 119.667 34.3592C120.296 35.4137 120.61 36.6027 120.61 37.9261C120.61 39.4148 120.191 40.7279 119.352 41.8651C118.534 42.9817 117.328 43.7778 115.734 44.2534L120.736 52.7829H113.846ZM108.781 40.5624H111.832C112.671 40.5624 113.301 40.366 113.72 39.9731C114.14 39.5803 114.349 39.0116 114.349 38.2672C114.349 37.5642 114.129 37.0162 113.689 36.6234C113.269 36.2098 112.65 36.003 111.832 36.003H108.781V40.5624Z" fill="#7D7D7D"/>
<path d="M129.581 30.9164V52.7829H123.415V30.9164H129.581Z" fill="#7D7D7D"/>
<path d="M141.462 53C138.882 53 136.764 52.4004 135.107 51.2011C133.45 49.9811 132.558 48.2442 132.432 45.9903H139.008C139.071 46.7554 139.302 47.3137 139.7 47.6652C140.099 48.0167 140.613 48.1925 141.242 48.1925C141.808 48.1925 142.27 48.0581 142.626 47.7893C143.004 47.4998 143.193 47.1069 143.193 46.6106C143.193 45.9696 142.889 45.4734 142.28 45.1219C141.672 44.7703 140.686 44.3775 139.323 43.9432C137.876 43.4676 136.701 43.0127 135.799 42.5785C134.918 42.1236 134.142 41.4723 133.471 40.6245C132.821 39.756 132.495 38.6291 132.495 37.2437C132.495 35.8376 132.852 34.6383 133.565 33.6458C134.278 32.6326 135.264 31.8675 136.523 31.3506C137.781 30.8337 139.207 30.5752 140.802 30.5752C143.381 30.5752 145.437 31.1748 146.968 32.3741C148.52 33.5528 149.349 35.2173 149.454 37.3678H142.752C142.731 36.7061 142.521 36.2098 142.123 35.879C141.745 35.5481 141.252 35.3827 140.644 35.3827C140.183 35.3827 139.805 35.5171 139.512 35.7859C139.218 36.0547 139.071 36.4373 139.071 36.9335C139.071 37.3471 139.228 37.7089 139.543 38.0191C139.879 38.3086 140.288 38.5671 140.77 38.7945C141.252 39.0013 141.966 39.2701 142.91 39.6009C144.315 40.0765 145.468 40.5521 146.37 41.0277C147.293 41.4826 148.08 42.1339 148.73 42.9817C149.401 43.8088 149.737 44.8634 149.737 46.1454C149.737 47.4481 149.401 48.6164 148.73 49.6502C148.08 50.6841 147.126 51.5009 145.867 52.1005C144.629 52.7002 143.161 53 141.462 53Z" fill="#7D7D7D"/>
<path d="M178.497 30.9164V52.7829H172.331V40.7175L168.146 52.7829H162.986L158.77 40.6245V52.7829H152.604V30.9164H160.06L165.629 45.1219L171.072 30.9164H178.497Z" fill="#7D7D7D"/>
<path d="M192.642 53C190.565 53 188.657 52.5244 186.916 51.5732C185.175 50.6014 183.791 49.2677 182.763 47.5721C181.756 45.8559 181.253 43.9225 181.253 41.7721C181.253 39.6216 181.756 37.6986 182.763 36.003C183.791 34.2868 185.175 32.9531 186.916 32.0019C188.657 31.0508 190.565 30.5752 192.642 30.5752C194.74 30.5752 196.648 31.0508 198.368 32.0019C200.109 32.9531 201.483 34.2868 202.49 36.003C203.497 37.6986 204 39.6216 204 41.7721C204 43.9225 203.497 45.8559 202.49 47.5721C201.483 49.2677 200.109 50.6014 198.368 51.5732C196.627 52.5244 194.719 53 192.642 53ZM192.642 47.355C194.215 47.355 195.453 46.8484 196.355 45.8352C197.278 44.822 197.739 43.4676 197.739 41.7721C197.739 40.0352 197.278 38.6704 196.355 37.6779C195.453 36.6647 194.215 36.1581 192.642 36.1581C191.048 36.1581 189.8 36.6647 188.898 37.6779C187.996 38.6704 187.545 40.0352 187.545 41.7721C187.545 43.4883 187.996 44.853 188.898 45.8662C189.8 46.8588 191.048 47.355 192.642 47.355Z" fill="#7D7D7D"/>
<path fill-rule="evenodd" clip-rule="evenodd" d="M31 49C36.3521 49 50 29.8365 50 19.221C50 8.60553 41.4934 0 31 0C20.5066 0 12 8.60553 12 19.221C12 29.8365 25.6479 49 31 49ZM30.7274 24.4692C34.0894 24.4692 36.8148 21.6964 36.8148 18.276C36.8148 14.8556 34.0894 12.0829 30.7274 12.0829C27.3655 12.0829 24.6401 14.8556 24.6401 18.276C24.6401 21.6964 27.3655 24.4692 30.7274 24.4692Z" fill="#7D7D7D"/>
<path d="M70.0577 66.9216L68.1706 63.6499H66.7635V66.9216H66V59.0896H68.2906C69.1414 59.0896 69.785 59.2988 70.2213 59.7171C70.6649 60.1354 70.8866 60.6844 70.8866 61.3641C70.8866 61.9318 70.7267 62.4174 70.4067 62.8207C70.094 63.2166 69.6286 63.4743 69.0105 63.5938L70.9739 66.9216H70.0577ZM66.7635 63.0112H68.3015C68.8978 63.0112 69.345 62.8618 69.6432 62.563C69.9486 62.2642 70.1013 61.8646 70.1013 61.3641C70.1013 60.8487 69.9559 60.4528 69.665 60.1765C69.3741 59.8926 68.916 59.7507 68.2906 59.7507H66.7635V63.0112Z" fill="#7D7D7D"/>
<path d="M77.5285 59.0896V66.9216H76.7649V59.0896H77.5285Z" fill="#7D7D7D"/>
<path d="M87.0456 67C86.3402 67 85.7003 66.8319 85.1258 66.4958C84.5514 66.1522 84.0969 65.6779 83.7624 65.0728C83.4352 64.4603 83.2715 63.7694 83.2715 63C83.2715 62.2306 83.4352 61.5434 83.7624 60.9384C84.0969 60.3259 84.5514 59.8515 85.1258 59.5154C85.7003 59.1718 86.3402 59 87.0456 59C87.7582 59 88.4018 59.1718 88.9763 59.5154C89.5507 59.8515 90.0016 60.3259 90.3288 60.9384C90.656 61.5434 90.8197 62.2306 90.8197 63C90.8197 63.7694 90.656 64.4603 90.3288 65.0728C90.0016 65.6779 89.5507 66.1522 88.9763 66.4958C88.4018 66.8319 87.7582 67 87.0456 67ZM87.0456 66.3165C87.6128 66.3165 88.1218 66.1821 88.5727 65.9132C89.0235 65.6443 89.3798 65.2596 89.6416 64.7591C89.9034 64.2512 90.0343 63.6648 90.0343 63C90.0343 62.3352 89.9034 61.7526 89.6416 61.2521C89.3798 60.7516 89.0235 60.3669 88.5727 60.098C88.1218 59.8291 87.6128 59.6947 87.0456 59.6947C86.4784 59.6947 85.9694 59.8291 85.5185 60.098C85.0677 60.3669 84.7114 60.7516 84.4496 61.2521C84.1878 61.7526 84.0569 62.3352 84.0569 63C84.0569 63.6648 84.1878 64.2512 84.4496 64.7591C84.7114 65.2596 85.0677 65.6443 85.5185 65.9132C85.9694 66.1821 86.4784 66.3165 87.0456 66.3165Z" fill="#7D7D7D"/>
<path d="M106.194 59.0896C107.038 59.0896 107.761 59.2465 108.365 59.5602C108.968 59.8739 109.43 60.3259 109.75 60.916C110.07 61.5061 110.23 62.2082 110.23 63.0224C110.23 63.8291 110.07 64.5275 109.75 65.1176C109.43 65.7003 108.968 66.1485 108.365 66.4622C107.761 66.7684 107.038 66.9216 106.194 66.9216H103.936V59.0896H106.194ZM106.194 66.2717C107.256 66.2717 108.063 65.9879 108.616 65.4202C109.175 64.845 109.455 64.0458 109.455 63.0224C109.455 61.9916 109.175 61.1886 108.616 60.6134C108.063 60.0308 107.256 59.7395 106.194 59.7395H104.7V66.2717H106.194Z" fill="#7D7D7D"/>
<path d="M116.764 59.7283V62.6527H119.655V63.3025H116.764V66.2717H119.982V66.9216H116.001V59.0784H119.982V59.7283H116.764Z" fill="#7D7D7D"/>
<path d="M136.729 59.0896V65.0168C136.729 65.6144 136.551 66.0962 136.194 66.4622C135.838 66.8207 135.362 67 134.766 67C134.147 67 133.653 66.8095 133.282 66.4286C132.919 66.0401 132.737 65.5173 132.737 64.8599H133.511C133.518 65.2857 133.62 65.6331 133.817 65.902C134.02 66.1709 134.337 66.3053 134.766 66.3053C135.173 66.3053 135.475 66.1821 135.671 65.9356C135.867 65.6891 135.965 65.3828 135.965 65.0168V59.0896H136.729Z" fill="#7D7D7D"/>
<path d="M147.43 65.0616H143.961L143.296 66.9216H142.488L145.27 59.1905H146.132L148.902 66.9216H148.095L147.43 65.0616ZM147.201 64.4118L145.695 60.1765L144.19 64.4118H147.201Z" fill="#7D7D7D"/>
<path d="M160.239 66.9216H159.475L155.254 60.3333V66.9216H154.491V59.0896H155.254L159.475 65.6667V59.0896H160.239V66.9216Z" fill="#7D7D7D"/>
<path d="M167.095 59.7283V62.6527H169.986V63.3025H167.095V66.2717H170.313V66.9216H166.331V59.0784H170.313V59.7283H167.095Z" fill="#7D7D7D"/>
<path d="M176.944 59.0896V66.9216H176.18V59.0896H176.944Z" fill="#7D7D7D"/>
<path d="M187.094 66.9216L185.207 63.6499H183.8V66.9216H183.036V59.0896H185.327C186.177 59.0896 186.821 59.2988 187.257 59.7171C187.701 60.1354 187.923 60.6844 187.923 61.3641C187.923 61.9318 187.763 62.4174 187.443 62.8207C187.13 63.2166 186.665 63.4743 186.047 63.5938L188.01 66.9216H187.094ZM183.8 63.0112H185.338C185.934 63.0112 186.381 62.8618 186.679 62.563C186.985 62.2642 187.137 61.8646 187.137 61.3641C187.137 60.8487 186.992 60.4528 186.701 60.1765C186.41 59.8926 185.952 59.7507 185.327 59.7507H183.8V63.0112Z" fill="#7D7D7D"/>
<path d="M197.226 67C196.521 67 195.881 66.8319 195.306 66.4958C194.732 66.1522 194.277 65.6779 193.943 65.0728C193.616 64.4603 193.452 63.7694 193.452 63C193.452 62.2306 193.616 61.5434 193.943 60.9384C194.277 60.3259 194.732 59.8515 195.306 59.5154C195.881 59.1718 196.521 59 197.226 59C197.939 59 198.582 59.1718 199.157 59.5154C199.731 59.8515 200.182 60.3259 200.509 60.9384C200.836 61.5434 201 62.2306 201 63C201 63.7694 200.836 64.4603 200.509 65.0728C200.182 65.6779 199.731 66.1522 199.157 66.4958C198.582 66.8319 197.939 67 197.226 67ZM197.226 66.3165C197.793 66.3165 198.302 66.1821 198.753 65.9132C199.204 65.6443 199.56 65.2596 199.822 64.7591C200.084 64.2512 200.215 63.6648 200.215 63C200.215 62.3352 200.084 61.7526 199.822 61.2521C199.56 60.7516 199.204 60.3669 198.753 60.098C198.302 59.8291 197.793 59.6947 197.226 59.6947C196.659 59.6947 196.15 59.8291 195.699 60.098C195.248 60.3669 194.892 60.7516 194.63 61.2521C194.368 61.7526 194.237 62.3352 194.237 63C194.237 63.6648 194.368 64.2512 194.63 64.7591C194.892 65.2596 195.248 65.6443 195.699 65.9132C196.15 66.1821 196.659 66.3165 197.226 66.3165Z" fill="#7D7D7D"/>
</svg>
