<svg width="219" height="71" viewBox="0 0 219 71" fill="none" xmlns="http://www.w3.org/2000/svg">
<path fill-rule="evenodd" clip-rule="evenodd" d="M35.4433 0.396751L36.4031 0L36.7224 0.988081L43.7191 22.6398L58.6252 68.7674L59.3466 71L57.2676 69.9116L0.76977 40.3357L0 39.9327L0.325345 39.1272L11.9153 10.433L12.066 10.0597L12.4381 9.9059L35.4433 0.396751ZM29.9277 25.0594L34.5053 2.85959L14.5694 11.1001L29.9277 25.0594ZM28.8892 26.7072L14.2121 13.3671L17.5206 32.9617L28.8892 26.7072ZM50.4604 64.1834L16.5871 35.5291L3.68379 39.6964L50.4604 64.1834ZM15.7159 33.7952L2.87228 37.9432L12.4236 14.2962L15.7159 33.7952ZM18.4833 34.621L53.4205 64.1754L30.206 28.1716L18.4833 34.621ZM36.0149 5.0369L31.7992 25.4819L41.599 22.3169L36.0149 5.0369ZM54.5454 62.3805L42.1886 24.1418L32.0096 27.4293L54.5454 62.3805ZM182.597 0L183.557 0.396751L206.562 9.9059L206.934 10.0597L207.085 10.433L218.675 39.1272L219 39.9327L218.23 40.3357L161.732 69.9116L159.653 71L160.375 68.7674L175.281 22.6398L182.278 0.988081L182.597 0ZM184.495 2.85959L189.072 25.0594L204.431 11.1001L184.495 2.85959ZM204.788 13.3671L190.111 26.7072L201.479 32.9617L204.788 13.3671ZM202.413 35.5291L168.54 64.1834L215.316 39.6964L202.413 35.5291ZM216.128 37.9432L203.284 33.7952L206.576 14.2962L216.128 37.9432ZM165.579 64.1754L200.517 34.621L188.794 28.1716L165.579 64.1754ZM187.201 25.4819L182.985 5.0369L177.401 22.3169L187.201 25.4819ZM176.811 24.1418L164.455 62.3805L186.99 27.4293L176.811 24.1418ZM65.4637 33.8836C65.3102 32.3275 65.2335 30.9249 65.2335 29.6756C65.2335 28.6894 65.2664 27.9004 65.3322 27.3087H64.5758C64.4224 28.8647 64.1812 30.0482 63.8524 30.8591C63.5235 31.6481 62.9974 32.2289 62.2739 32.6015C61.5724 32.9521 60.5421 33.1275 59.1828 33.1275H56.7823C55.9931 33.1275 55.4122 33.0727 55.0395 32.9631C54.6887 32.8316 54.4476 32.5796 54.316 32.207C54.1845 31.8344 54.1187 31.2317 54.1187 30.3989V22.5089H56.2891C57.166 22.5089 57.8456 22.7391 58.3279 23.1993C58.8321 23.6596 59.139 24.3499 59.2486 25.2704C59.3582 26.169 59.424 26.695 59.4459 26.8484H60.2023C60.0707 24.854 60.0049 23.2979 60.0049 22.1802V20.6022C60.0049 19.4626 60.0378 18.4325 60.1036 17.512H59.3473L59.2486 18.1695C59.1609 18.9146 59.0404 19.5393 58.8869 20.0433C58.7554 20.5255 58.4813 20.9529 58.0648 21.3255C57.6483 21.6761 57.0564 21.8515 56.2891 21.8515H54.1187V14.093C54.1187 13.2602 54.1845 12.6575 54.316 12.2849C54.4476 11.9123 54.6887 11.6713 55.0395 11.5617C55.4122 11.4302 55.9931 11.3644 56.7823 11.3644H59.5117C60.6736 11.3644 61.5395 11.5288 62.1095 11.8575C62.6795 12.1644 63.0851 12.6685 63.3262 13.3698C63.5674 14.0492 63.7647 15.1012 63.9181 16.5257H64.6745C64.6087 16.0217 64.5758 15.3423 64.5758 14.4875C64.5758 13.3479 64.6525 12.0548 64.806 10.6083C63.4468 10.6741 61.1559 10.7069 57.9333 10.7069C53.7241 10.7069 50.5453 10.6741 48.3969 10.6083V11.2658C49.1861 11.3096 49.7561 11.3973 50.1069 11.5288C50.4796 11.6603 50.7317 11.9123 50.8632 12.2849C50.9947 12.6575 51.0605 13.2602 51.0605 14.093V30.3989C51.0605 31.2317 50.9947 31.8344 50.8632 32.207C50.7317 32.5796 50.4796 32.8316 50.1069 32.9631C49.7561 33.0946 49.1861 33.1823 48.3969 33.2261V33.8836C50.5453 33.8178 53.7241 33.785 57.9333 33.785C61.4628 33.785 63.9729 33.8178 65.4637 33.8836ZM86.1271 13.5342C84.1979 11.5836 81.2932 10.6083 77.4129 10.6083C76.9087 10.6083 75.9112 10.6302 74.4205 10.6741L71.6253 10.7069C70.2661 10.7069 69.2029 10.6741 68.4356 10.6083V11.2658C69.2248 11.3096 69.7948 11.3973 70.1455 11.5288C70.5182 11.6603 70.7703 11.9123 70.9019 12.2849C71.0334 12.6575 71.0992 13.2602 71.0992 14.093V30.3989C71.0992 31.2317 71.0334 31.8344 70.9019 32.207C70.7703 32.5796 70.5182 32.8316 70.1455 32.9631C69.7948 33.0946 69.2248 33.1823 68.4356 33.2261V33.8836C69.3563 33.8178 70.7155 33.785 72.5132 33.785C73.0832 33.785 73.982 33.8069 75.2097 33.8507L77.1169 33.8836C79.5942 33.8836 81.7207 33.4014 83.4964 32.4371C85.2941 31.4509 86.6642 30.0592 87.6069 28.262C88.5496 26.4649 89.0209 24.3718 89.0209 21.983C89.0209 18.2791 88.0563 15.4628 86.1271 13.5342ZM75.0452 11.4302C75.396 11.2768 75.9112 11.2 76.5908 11.2C78.8488 11.2 80.6355 11.5945 81.9509 12.3835C83.2882 13.1725 84.2528 14.367 84.8447 15.9669C85.4366 17.5449 85.7325 19.5941 85.7325 22.1145C85.7325 24.6348 85.4585 26.706 84.9104 28.3278C84.3843 29.9496 83.4526 31.1879 82.1153 32.0426C80.778 32.8754 78.9475 33.2919 76.6237 33.2919C75.9221 33.2919 75.396 33.2151 75.0452 33.0617C74.7164 32.9083 74.4862 32.6344 74.3547 32.2399C74.2231 31.8454 74.1574 31.2536 74.1574 30.4646V14.0273C74.1574 13.2383 74.2231 12.6465 74.3547 12.252C74.4862 11.8575 74.7164 11.5836 75.0452 11.4302ZM103.807 33.0617C104.904 32.1851 105.649 31.144 106.044 29.9386L105.386 29.6756C104.838 30.8591 104.158 31.7029 103.347 32.207C102.536 32.7111 101.604 32.9631 100.552 32.9631C99.6969 32.9631 98.8748 32.6782 98.0856 32.1084C97.3183 31.5166 96.6935 30.6838 96.2112 29.6099C95.7508 28.536 95.5206 27.2758 95.5206 25.8293C95.5206 25.0403 95.5535 24.339 95.6193 23.7253H105.912C105.912 21.2926 105.375 19.4845 104.301 18.301C103.248 17.0956 101.736 16.4929 99.7627 16.4929C98.2719 16.4929 96.9675 16.8764 95.8495 17.6435C94.7314 18.3887 93.8655 19.4626 93.2517 20.8652C92.6378 22.2679 92.3309 23.9226 92.3309 25.8293C92.3309 27.5169 92.6269 29.0072 93.2188 30.3003C93.8326 31.5714 94.7095 32.5686 95.8495 33.2919C96.9895 33.9932 98.3377 34.3438 99.8942 34.3438C101.429 34.3438 102.733 33.9165 103.807 33.0617ZM96.9675 18.6297C97.7129 17.6216 98.6008 17.1175 99.6311 17.1175C100.683 17.1175 101.473 17.6873 101.999 18.827C102.547 19.9666 102.799 21.3912 102.755 23.1007H95.5864C95.7618 21.1282 96.2222 19.6379 96.9675 18.6297ZM116.397 16.8545C115.783 16.6134 115.082 16.4929 114.293 16.4929C112.89 16.4929 111.728 16.8545 110.807 17.5777C109.886 18.301 109.426 19.353 109.426 20.7337C109.426 21.5885 109.623 22.3336 110.018 22.9692C110.412 23.6048 110.895 24.1417 111.465 24.5801C112.057 25.0184 112.89 25.5773 113.964 26.2567C115.279 27.0895 116.222 27.8018 116.792 28.3935C117.384 28.9853 117.68 29.7085 117.68 30.5633C117.68 31.6372 117.384 32.4262 116.792 32.9302C116.2 33.4343 115.52 33.6863 114.753 33.6863C113.219 33.6863 112.133 33.1823 111.498 32.1741C110.862 31.144 110.423 29.5989 110.182 27.5388H109.426C109.426 30.6728 109.382 32.8645 109.294 34.1137H110.051C110.116 33.7192 110.204 33.4124 110.314 33.1932C110.445 32.9741 110.588 32.8645 110.741 32.8645C110.851 32.8645 110.95 32.9083 111.037 32.996C111.454 33.3466 111.903 33.6425 112.385 33.8836C113.131 34.1904 113.997 34.3438 114.983 34.3438C116.562 34.3438 117.888 33.9384 118.962 33.1275C120.058 32.3166 120.606 31.1879 120.606 29.7414C120.606 28.8866 120.409 28.1305 120.015 27.473C119.642 26.8155 119.149 26.2347 118.535 25.7307C117.921 25.2266 117.11 24.6458 116.101 23.9883C115.707 23.7253 115.411 23.539 115.214 23.4294C114.052 22.7062 113.208 22.0925 112.681 21.5885C112.155 21.0625 111.892 20.4159 111.892 19.6488C111.892 18.8599 112.144 18.2462 112.649 17.8079C113.153 17.3476 113.799 17.1175 114.589 17.1175C115.948 17.1175 116.967 17.5887 117.647 18.5311C118.348 19.4735 118.82 20.668 119.061 22.1145H119.817C119.817 19.4626 119.861 17.5997 119.949 16.5257H119.192C119.105 17.4901 118.864 17.9722 118.469 17.9722C118.316 17.9722 118.118 17.8846 117.877 17.7092C117.504 17.3805 117.011 17.0956 116.397 16.8545ZM128.343 9.35906C127.926 8.94265 127.433 8.73444 126.863 8.73444C126.293 8.73444 125.8 8.94265 125.383 9.35906C124.967 9.77547 124.759 10.2686 124.759 10.8384C124.759 11.4083 124.967 11.9014 125.383 12.3178C125.8 12.7342 126.293 12.9424 126.863 12.9424C127.433 12.9424 127.926 12.7342 128.343 12.3178C128.759 11.9014 128.968 11.4083 128.968 10.8384C128.968 10.2686 128.759 9.77547 128.343 9.35906ZM129.132 32.7001C128.759 32.3494 128.573 31.7248 128.573 30.8262V16.5915C127.674 16.8983 126.534 17.0517 125.153 17.0517C124.496 17.0517 123.816 17.0189 123.114 16.9531V17.6435C124.035 17.6435 124.682 17.8736 125.055 18.3339C125.427 18.7941 125.614 19.5283 125.614 20.5365V30.8262C125.614 31.7248 125.427 32.3494 125.055 32.7001C124.682 33.0289 124.035 33.1932 123.114 33.1932V33.8836C125.131 33.7959 126.458 33.7521 127.093 33.7521C127.729 33.7521 129.055 33.7959 131.072 33.8836V33.1932C130.152 33.1932 129.505 33.0289 129.132 32.7001ZM146.264 19.5173C146.549 19.7803 146.888 19.9118 147.283 19.9118C147.7 19.9118 148.072 19.7584 148.401 19.4516C148.752 19.1448 148.927 18.6845 148.927 18.0709C148.927 17.4572 148.752 16.986 148.401 16.6572C148.05 16.3285 147.59 16.1641 147.02 16.1641C146.384 16.1641 145.748 16.3614 145.113 16.7559C144.477 17.1285 143.951 17.6106 143.534 18.2024C142.548 17.0627 141.024 16.4929 138.963 16.4929C137.232 16.4929 135.839 16.9312 134.787 17.8079C133.735 18.6626 133.209 19.9557 133.209 21.6871C133.209 23.2431 133.636 24.4486 134.491 25.3033C135.368 26.158 136.53 26.6621 137.977 26.8155C136.837 27.4073 136.015 28.01 135.511 28.6236C135.028 29.2373 134.787 29.8838 134.787 30.5633C134.787 31.5495 135.171 32.207 135.938 32.5357C136.727 32.8645 137.769 33.0289 139.062 33.0289H141.495C142.92 33.0289 143.907 33.248 144.455 33.6863C145.025 34.1247 145.31 34.7383 145.31 35.5273C145.31 36.8862 144.707 37.8834 143.501 38.5189C142.296 39.1764 140.849 39.5052 139.161 39.5052C137.626 39.5052 136.398 39.2312 135.478 38.6833C134.579 38.1573 134.129 37.3902 134.129 36.3821C134.129 35.8122 134.272 35.2972 134.557 34.837C134.842 34.3767 135.226 34.0699 135.708 33.9165L135.511 33.3905C134.436 33.6973 133.592 34.1247 132.979 34.6726C132.387 35.2205 132.091 35.867 132.091 36.6122C132.091 37.7519 132.726 38.6066 133.998 39.1764C135.291 39.7682 136.892 40.064 138.799 40.064C140.662 40.064 142.252 39.7901 143.567 39.2422C144.883 38.6943 145.88 37.971 146.56 37.0724C147.239 36.1739 147.579 35.1986 147.579 34.1466C147.579 32.8535 147.086 31.8892 146.099 31.2536C145.135 30.5961 143.907 30.2674 142.416 30.2674H138.306C137.253 30.2674 136.727 29.9167 136.727 29.2154C136.727 28.7771 136.914 28.3826 137.286 28.0319C137.659 27.6812 138.207 27.2977 138.931 26.8813H138.963C140.695 26.8813 142.087 26.4539 143.14 25.5992C144.192 24.7225 144.718 23.4185 144.718 21.6871C144.718 20.5036 144.466 19.5283 143.962 18.7612C144.225 18.3229 144.521 17.9613 144.85 17.6764C145.178 17.3695 145.628 17.0956 146.198 16.8545C145.979 17.4243 145.869 17.9284 145.869 18.3667C145.869 18.8708 146.001 19.2544 146.264 19.5173ZM140.936 25.2704C140.498 25.9498 139.84 26.2895 138.963 26.2895C138.087 26.2895 137.418 25.9498 136.958 25.2704C136.519 24.5691 136.3 23.3746 136.3 21.6871C136.3 19.9995 136.519 18.816 136.958 18.1366C137.418 17.4353 138.087 17.0846 138.963 17.0846C139.84 17.0846 140.498 17.4353 140.936 18.1366C141.397 18.816 141.627 19.9995 141.627 21.6871C141.627 23.3746 141.397 24.5691 140.936 25.2704ZM164.656 17.7421C163.867 16.9093 162.705 16.4929 161.171 16.4929C159.943 16.4929 158.836 16.8107 157.849 17.4462C156.885 18.0599 156.128 19.0681 155.58 20.4707V16.5915C154.682 16.8983 153.542 17.0517 152.16 17.0517C151.503 17.0517 150.823 17.0189 150.122 16.9531V17.6435C151.042 17.6435 151.689 17.8736 152.062 18.3339C152.434 18.7941 152.621 19.5283 152.621 20.5365V30.8262C152.621 31.7248 152.434 32.3494 152.062 32.7001C151.689 33.0289 151.042 33.1932 150.122 33.1932V33.8836C152.138 33.7959 153.454 33.7521 154.068 33.7521C154.682 33.7521 155.909 33.7959 157.751 33.8836V33.1932C156.94 33.1932 156.37 33.0289 156.041 32.7001C155.734 32.3494 155.58 31.7248 155.58 30.8262V23.5281C155.58 22.4103 155.767 21.4022 156.139 20.5036C156.534 19.5831 157.082 18.8599 157.784 18.3339C158.485 17.8079 159.285 17.5449 160.184 17.5449C161.258 17.5449 161.971 17.8736 162.322 18.5311C162.672 19.1667 162.848 20.0981 162.848 21.3255V30.8262C162.848 31.7248 162.683 32.3494 162.354 32.7001C162.048 33.0289 161.488 33.1932 160.677 33.1932V33.8836C162.519 33.7959 163.747 33.7521 164.36 33.7521C164.974 33.7521 166.29 33.7959 168.306 33.8836V33.1932C167.386 33.1932 166.739 33.0289 166.366 32.7001C165.994 32.3494 165.807 31.7248 165.807 30.8262V22.0487C165.807 20.931 165.72 20.0433 165.544 19.3859C165.369 18.7284 165.073 18.1804 164.656 17.7421ZM94.4646 53.1975V45.9514H93.5055V53.1975C93.5055 53.6449 93.3822 54.0194 93.1355 54.3207C92.8889 54.6221 92.5098 54.7727 91.9983 54.7727C91.4594 54.7727 91.062 54.6084 90.8062 54.2796C90.5596 53.9509 90.4317 53.5262 90.4226 53.0057H89.4498C89.4498 53.8093 89.6781 54.4486 90.1349 54.9234C90.6007 55.3891 91.2219 55.622 91.9983 55.622C92.7473 55.622 93.3456 55.4028 93.7932 54.9645C94.2408 54.517 94.4646 53.928 94.4646 53.1975ZM98.7672 55.0056C99.4888 55.4165 100.293 55.622 101.179 55.622C102.074 55.622 102.882 55.4165 103.604 55.0056C104.326 54.5855 104.892 54.0057 105.303 53.266C105.714 52.5172 105.919 51.6725 105.919 50.7319C105.919 49.7913 105.714 48.9512 105.303 48.2115C104.892 47.4627 104.326 46.8828 103.604 46.4719C102.882 46.0518 102.074 45.8418 101.179 45.8418C100.293 45.8418 99.4888 46.0518 98.7672 46.4719C98.0456 46.8828 97.4747 47.4627 97.0545 48.2115C96.6435 48.9512 96.4379 49.7913 96.4379 50.7319C96.4379 51.6725 96.6435 52.5172 97.0545 53.266C97.4747 54.0057 98.0456 54.5855 98.7672 55.0056ZM103.097 54.2933C102.531 54.6221 101.891 54.7864 101.179 54.7864C100.466 54.7864 99.8268 54.6221 99.2605 54.2933C98.6942 53.9646 98.2466 53.4943 97.9177 52.8824C97.5889 52.2615 97.4245 51.5446 97.4245 50.7319C97.4245 49.9191 97.5889 49.2069 97.9177 48.595C98.2466 47.9832 98.6942 47.5129 99.2605 47.1842C99.8268 46.8554 100.466 46.691 101.179 46.691C101.891 46.691 102.531 46.8554 103.097 47.1842C103.663 47.5129 104.111 47.9832 104.44 48.595C104.769 49.2069 104.933 49.9191 104.933 50.7319C104.933 51.5446 104.769 52.2615 104.44 52.8824C104.111 53.4943 103.663 53.9646 103.097 54.2933ZM99.6989 45.4993L102.508 43.8693V43.0063L99.6989 44.7596V45.4993ZM108.634 55.5261V45.9514H107.674V55.5261H108.634ZM111.162 55.5261L111.998 53.2523H116.355L117.19 55.5261H118.204L114.724 46.0746H113.642L110.148 55.5261H111.162ZM114.176 47.28L116.067 52.4578H112.285L114.176 47.28ZM120.977 55.2932C121.461 55.5124 122.018 55.622 122.648 55.622C123.297 55.622 123.854 55.4987 124.32 55.2522C124.786 55.0056 125.138 54.6814 125.375 54.2796C125.613 53.8778 125.731 53.4532 125.731 53.0057C125.731 52.4213 125.599 51.9556 125.334 51.6085C125.069 51.2615 124.745 51.0058 124.361 50.8415C123.978 50.668 123.475 50.4945 122.854 50.321C122.315 50.1748 121.886 50.0379 121.566 49.91C121.255 49.7822 120.995 49.595 120.785 49.3484C120.575 49.1018 120.47 48.7777 120.47 48.3759C120.47 47.8462 120.662 47.4307 121.045 47.1294C121.429 46.8189 121.909 46.6636 122.484 46.6636C123.105 46.6636 123.598 46.8189 123.964 47.1294C124.329 47.4307 124.544 47.7777 124.608 48.1704H125.649C125.567 47.4855 125.252 46.9285 124.704 46.4993C124.165 46.0609 123.452 45.8418 122.566 45.8418C121.963 45.8418 121.429 45.9514 120.963 46.1705C120.497 46.3897 120.136 46.6956 119.881 47.0883C119.625 47.4718 119.497 47.9101 119.497 48.4033C119.497 48.9968 119.63 49.4671 119.894 49.8141C120.159 50.1611 120.479 50.4168 120.854 50.5812C121.228 50.7456 121.735 50.9145 122.374 51.088C122.922 51.2341 123.352 51.3711 123.662 51.499C123.973 51.6177 124.233 51.8049 124.443 52.0606C124.653 52.3071 124.758 52.6359 124.758 53.0468C124.758 53.5582 124.567 53.9828 124.183 54.3207C123.809 54.6495 123.297 54.8138 122.648 54.8138C121.945 54.8138 121.411 54.6403 121.045 54.2933C120.68 53.9372 120.474 53.5262 120.429 53.0605H119.415C119.433 53.5445 119.579 53.9828 119.853 54.3755C120.127 54.7682 120.502 55.0741 120.977 55.2932Z" fill="#7D7D7D"/>
</svg>
