<svg width="110" height="160" viewBox="0 0 110 160" fill="none" xmlns="http://www.w3.org/2000/svg">
<path fill-rule="evenodd" clip-rule="evenodd" d="M38.508 10.3443V0H0V10.3443H12.0177V41.6124H26.3612V10.3443H38.508ZM56.418 23.4511V0H42.1397V23.4511C42.1397 27.4478 42.9793 30.8371 44.659 33.6191C46.3395 36.4011 48.6651 38.4974 51.6368 39.9079C54.6522 41.3185 58.0984 42.0238 61.9748 42.0238C65.8512 42.0238 69.3619 41.3185 72.5064 39.9079C75.6508 38.4974 78.1271 36.4011 79.9365 33.6191C81.7454 30.7979 82.6501 27.4085 82.6501 23.4511V0H68.3712V23.4511C68.3712 25.3711 67.8758 26.8992 66.885 28.0355C65.8942 29.1326 64.365 29.6812 62.2974 29.6812C60.2305 29.6812 58.7228 29.1326 57.7751 28.0355C56.8703 26.8992 56.418 25.3711 56.418 23.4511ZM25.5855 93.3341L16.9924 78.4052H16.9279V93.3341H2.58448V51.7217H23.9057C27.6101 51.7217 30.776 52.3291 33.4035 53.5439C36.031 54.7195 37.991 56.3455 39.283 58.4221C40.6186 60.4595 41.286 62.7714 41.286 65.3573C41.286 68.1394 40.4243 70.6082 38.7015 72.7632C37.0218 74.9183 34.5878 76.4659 31.4004 77.4061L41.3506 93.3341H25.5855ZM16.9279 69.7066H22.6138C23.9918 69.7066 25.0255 69.4326 25.7152 68.8841C26.4042 68.2963 26.7483 67.3947 26.7483 66.1805C26.7483 65.0833 26.3827 64.221 25.65 63.5939C24.961 62.9669 23.9487 62.6537 22.6138 62.6537H16.9279V69.7066ZM60.2117 93.3341V51.7217H45.8682V93.3341H60.2117ZM84.5867 93.7452C79.1165 93.7452 74.5935 92.5892 71.0189 90.2779C67.4866 87.9267 65.5696 84.498 65.2685 79.9918H80.516C80.7318 82.3822 81.8946 83.5774 84.0052 83.5774C84.7802 83.5774 85.4269 83.4205 85.9438 83.1073C86.5037 82.7543 86.7833 82.2253 86.7833 81.5205C86.7833 80.5404 86.2019 79.7571 85.039 79.1693C83.8762 78.5423 82.0667 77.8368 79.6119 77.0535C76.6826 76.1127 74.2493 75.1921 72.3108 74.2911C70.4153 73.3895 68.7786 72.0772 67.4006 70.3531C66.022 68.6289 65.3545 66.415 65.3975 63.7114C65.3975 61.0079 66.151 58.7155 67.6587 56.8351C69.2094 54.9148 71.2985 53.4653 73.926 52.4858C76.5966 51.5058 79.5904 51.016 82.9069 51.016C88.5061 51.016 92.9431 52.1916 96.2165 54.5428C99.533 56.8939 101.277 60.2049 101.45 64.4758H86.0083C85.9653 63.3002 85.642 62.4574 85.039 61.9481C84.4361 61.4387 83.7034 61.1844 82.8424 61.1844C82.2394 61.1844 81.744 61.3799 81.3562 61.7722C80.9684 62.1246 80.7748 62.6339 80.7748 63.3002C80.7748 64.2404 81.3347 65.0243 82.4545 65.6514C83.6174 66.2385 85.4484 66.9636 87.9462 67.826C90.8325 68.8054 93.2012 69.7457 95.0537 70.6467C96.9485 71.5483 98.5853 72.8017 99.9639 74.4088C101.343 76.0152 102.031 78.033 102.031 80.462C102.031 83.0093 101.343 85.3016 99.9639 87.3389C98.5853 89.3371 96.5829 90.9043 93.9554 92.0406C91.3278 93.177 88.2049 93.7452 84.5867 93.7452ZM57.5673 145.055V103.443H40.058L30.2376 128.423L20.1584 103.443H2.58448V145.055H16.9279V124.308L23.9703 145.055H36.2461L43.2891 124.308V145.055H57.5673ZM86.3303 145.467C82.023 145.467 78.0599 144.546 74.4423 142.705C70.867 140.863 68.0244 138.316 65.9138 135.064C63.8031 131.812 62.7478 128.148 62.7478 124.073C62.7478 119.998 63.8031 116.334 65.9138 113.082C68.0244 109.83 70.867 107.302 74.4423 105.5C78.0599 103.659 82.023 102.738 86.3303 102.738C90.6375 102.738 94.5785 103.659 98.1537 105.5C101.729 107.302 104.55 109.83 106.618 113.082C108.728 116.334 109.784 119.998 109.784 124.073C109.784 128.148 108.728 131.812 106.618 135.064C104.55 138.316 101.707 140.863 98.0892 142.705C94.5139 144.546 90.5945 145.467 86.3303 145.467ZM86.3303 133.301C89.1729 133.301 91.3695 132.478 92.9202 130.832C94.4709 129.148 95.2466 126.894 95.2466 124.073C95.2466 121.213 94.4709 118.96 92.9202 117.314C91.3695 115.629 89.1729 114.787 86.3303 114.787C83.444 114.787 81.2258 115.629 79.6751 117.314C78.1244 118.96 77.3494 121.213 77.3494 124.073C77.3494 126.894 78.1244 129.148 79.6751 130.832C81.2258 132.478 83.444 133.301 86.3303 133.301ZM33.8067 153.433C33.225 154.107 32.9341 155 32.9341 156.112V156.205C32.9341 157.312 33.225 158.21 33.8067 158.897C34.3933 159.585 35.15 159.928 36.0768 159.928C37.0529 159.928 37.8146 159.625 38.3618 159.018L38.4283 159.795H39.6854V149.509H38.3174V153.286C37.7702 152.705 37.0283 152.415 36.0916 152.415C35.15 152.415 34.3884 152.754 33.8067 153.433ZM34.8641 158.181C34.4895 157.716 34.3021 157.074 34.3021 156.252C34.3021 155.333 34.4895 154.638 34.8641 154.17C35.2388 153.701 35.7613 153.466 36.4318 153.466C37.2797 153.466 37.9082 153.808 38.3174 154.491V157.819C37.9181 158.524 37.2846 158.877 36.417 158.877C35.7564 158.877 35.2388 158.645 34.8641 158.181ZM17.3093 159.795H18.6773V152.549H17.3093V159.795ZM17.398 150.118C17.2649 150.257 17.1984 150.426 17.1984 150.627C17.1984 150.828 17.2649 150.995 17.398 151.129C17.5361 151.263 17.7382 151.33 18.0044 151.33C18.2706 151.33 18.4727 151.263 18.6108 151.129C18.7488 150.995 18.8178 150.828 18.8178 150.627C18.8178 150.426 18.7488 150.257 18.6108 150.118C18.4727 149.98 18.2706 149.911 18.0044 149.911C17.7382 149.911 17.5361 149.98 17.398 150.118ZM9.4932 155.85H12.0222L14.3589 159.795H15.8822V159.714L13.3532 155.576C13.999 155.353 14.5018 155.016 14.8617 154.565C15.2265 154.114 15.4089 153.585 15.4089 152.978C15.4089 152.022 15.0811 151.295 14.4254 150.795C13.7747 150.295 12.843 150.045 11.6302 150.045H8.06604V159.795H9.4932V155.85ZM11.6746 154.799H9.4932V151.103H11.6672C12.4165 151.107 12.9884 151.27 13.3828 151.591C13.7821 151.913 13.9817 152.375 13.9817 152.978C13.9817 153.531 13.7722 153.973 13.3532 154.303C12.9391 154.634 12.3796 154.799 11.6746 154.799ZM20.5112 156.105C20.5112 155.395 20.664 154.757 20.9696 154.19C21.2802 153.623 21.7091 153.185 22.2563 152.877C22.8084 152.569 23.437 152.415 24.1419 152.415C25.2314 152.415 26.1114 152.757 26.7818 153.44C27.4572 154.123 27.7949 155.031 27.7949 156.165V156.252C27.7949 156.958 27.6445 157.591 27.3438 158.154C27.048 158.712 26.6216 159.147 26.0645 159.46C25.5124 159.772 24.8765 159.928 24.1567 159.928C23.0722 159.928 22.1922 159.587 21.5168 158.904C20.8464 158.221 20.5112 157.317 20.5112 156.192V156.105ZM21.8866 156.252C21.8866 157.056 22.0912 157.701 22.5003 158.187C22.9144 158.674 23.4666 158.917 24.1567 158.917C24.8518 158.917 25.4039 158.672 25.8131 158.181C26.2223 157.685 26.4269 156.993 26.4269 156.105C26.4269 155.31 26.2174 154.667 25.7983 154.176C25.3842 153.681 24.8321 153.433 24.1419 153.433C23.4666 153.433 22.9218 153.676 22.5077 154.163C22.0936 154.649 21.8866 155.346 21.8866 156.252ZM45.1352 159.928C44.0507 159.928 43.1683 159.607 42.488 158.964C41.8077 158.317 41.4675 157.453 41.4675 156.373V156.145C41.4675 155.426 41.6179 154.786 41.9186 154.223C42.2242 153.656 42.6482 153.214 43.1905 152.897C43.7377 152.576 44.3292 152.415 44.9652 152.415C46.0053 152.415 46.8138 152.725 47.3906 153.346C47.9674 153.966 48.2558 154.855 48.2558 156.011V156.527H42.8355C42.8552 157.241 43.0845 157.819 43.5232 158.261C43.9669 158.699 44.5289 158.917 45.2092 158.917C45.6923 158.917 46.1015 158.828 46.4367 158.649C46.7719 158.471 47.0652 158.234 47.3167 157.94L48.1522 158.529C47.4818 159.462 46.4761 159.928 45.1352 159.928ZM44.9652 153.433C44.413 153.433 43.9496 153.616 43.575 153.982C43.2003 154.344 42.9686 154.853 42.8799 155.509H46.8878V155.415C46.8483 154.786 46.661 154.299 46.3258 153.955C45.9906 153.607 45.537 153.433 44.9652 153.433ZM59.7544 150.045H58.3272V156.969C58.3223 157.571 58.1374 158.04 57.7726 158.375C57.4128 158.71 56.9395 158.877 56.3529 158.877C55.712 158.877 55.2215 158.721 54.8813 158.408C54.5461 158.096 54.3785 157.661 54.3785 157.103H52.9587C52.9587 157.995 53.257 158.69 53.8535 159.185C54.45 159.681 55.2831 159.928 56.3529 159.928C57.3832 159.928 58.2065 159.665 58.8227 159.138C59.4438 158.612 59.7544 157.882 59.7544 156.949V150.045ZM66.8976 159.795C66.8187 159.652 66.7546 159.397 66.7053 159.031C66.0694 159.629 65.3102 159.928 64.4278 159.928C63.639 159.928 62.9908 159.728 62.483 159.326C61.9802 158.92 61.7288 158.406 61.7288 157.786C61.7288 157.031 62.0443 156.446 62.6753 156.031C63.3112 155.612 64.2035 155.402 65.3521 155.402H66.6831V154.833C66.6831 154.399 66.5402 154.056 66.2543 153.801C65.9683 153.542 65.5468 153.413 64.9898 153.413C64.5017 153.413 64.0926 153.524 63.7623 153.748C63.432 153.971 63.2668 154.241 63.2668 154.558H61.8914C61.8914 154.196 62.0319 153.848 62.3129 153.513C62.5989 153.174 62.9834 152.906 63.4665 152.71C63.9545 152.513 64.4894 152.415 65.0711 152.415C65.993 152.415 66.7152 152.625 67.2377 153.045C67.7603 153.46 68.0314 154.033 68.0511 154.766V158.1C68.0511 158.766 68.1448 159.295 68.3321 159.687V159.795H66.8976ZM64.6274 158.85C65.0563 158.85 65.463 158.75 65.8476 158.549C66.2321 158.348 66.5106 158.087 66.6831 157.766V156.279H65.6109C63.9348 156.279 63.0968 156.723 63.0968 157.612C63.0968 158 63.2397 158.303 63.5256 158.522C63.8116 158.741 64.1788 158.85 64.6274 158.85ZM71.534 153.46L71.4896 152.549H70.1956V159.795H71.5636V154.632C71.7509 154.283 72.0122 154.002 72.3474 153.788C72.6826 153.574 73.0721 153.466 73.5158 153.466C74.063 153.466 74.4647 153.591 74.7211 153.841C74.9824 154.091 75.1155 154.478 75.1204 155V159.795H76.4884V155.007C76.4736 153.279 75.6208 152.415 73.9299 152.415C72.9439 152.415 72.1453 152.763 71.534 153.46ZM81.8717 159.928C80.7871 159.928 79.9047 159.607 79.2244 158.964C78.5441 158.317 78.204 157.453 78.204 156.373V156.145C78.204 155.426 78.3543 154.786 78.655 154.223C78.9607 153.656 79.3846 153.214 79.9269 152.897C80.4741 152.576 81.0657 152.415 81.7016 152.415C82.7418 152.415 83.5503 152.725 84.127 153.346C84.7038 153.966 84.9922 154.855 84.9922 156.011V156.527H79.572C79.5917 157.241 79.8209 157.819 80.2597 158.261C80.7033 158.699 81.2653 158.917 81.9456 158.917C82.4287 158.917 82.8379 158.828 83.1731 158.649C83.5084 158.471 83.8017 158.234 84.0531 157.94L84.8887 158.529C84.2182 159.462 83.2126 159.928 81.8717 159.928ZM81.7016 153.433C81.1495 153.433 80.6861 153.616 80.3114 153.982C79.9368 154.344 79.7051 154.853 79.6163 155.509H83.6242V155.415C83.5848 154.786 83.3974 154.299 83.0622 153.955C82.727 153.607 82.2735 153.433 81.7016 153.433ZM86.7004 159.795H88.0684V152.549H86.7004V159.795ZM86.7891 150.118C86.656 150.257 86.5894 150.426 86.5894 150.627C86.5894 150.828 86.656 150.995 86.7891 151.129C86.9271 151.263 87.1292 151.33 87.3955 151.33C87.6617 151.33 87.8638 151.263 88.0018 151.129C88.1398 150.995 88.2089 150.828 88.2089 150.627C88.2089 150.426 88.1398 150.257 88.0018 150.118C87.8638 149.98 87.6617 149.911 87.3955 149.911C87.1292 149.911 86.9271 149.98 86.7891 150.118ZM94.132 153.661C93.9249 153.629 93.7006 153.614 93.459 153.614C92.5618 153.614 91.953 153.96 91.6326 154.652V159.795H90.2646V152.549H91.5956L91.6178 153.386C92.0664 152.739 92.7023 152.415 93.5256 152.415C93.7918 152.415 93.9939 152.446 94.132 152.509V153.661ZM95.3447 154.19C95.039 154.757 94.8862 155.395 94.8862 156.105V156.192C94.8862 157.317 95.2214 158.221 95.8919 158.904C96.5672 159.587 97.4472 159.928 98.5317 159.928C99.2515 159.928 99.8874 159.772 100.44 159.46C100.997 159.147 101.423 158.712 101.719 158.154C102.02 157.591 102.17 156.958 102.17 156.252V156.165C102.17 155.031 101.832 154.123 101.157 153.44C100.486 152.757 99.6064 152.415 98.517 152.415C97.812 152.415 97.1835 152.569 96.6313 152.877C96.0841 153.185 95.6552 153.623 95.3447 154.19ZM96.8754 158.187C96.4662 157.701 96.2616 157.056 96.2616 156.252C96.2616 155.346 96.4687 154.649 96.8827 154.163C97.2968 153.676 97.8416 153.433 98.517 153.433C99.2071 153.433 99.7593 153.681 100.173 154.176C100.592 154.667 100.802 155.31 100.802 156.105C100.802 156.993 100.597 157.685 100.188 158.181C99.779 158.672 99.2268 158.917 98.5317 158.917C97.8416 158.917 97.2895 158.674 96.8754 158.187Z" fill="#7D7D7D"/>
</svg>
