<svg width="133" height="128" viewBox="0 0 133 128" fill="none" xmlns="http://www.w3.org/2000/svg">
<path d="M56.93 71.32H38.59L35.65 80H23.12L40.9 30.86H54.76L72.54 80H59.87L56.93 71.32ZM53.85 62.08L47.76 44.09L41.74 62.08H53.85Z" fill="#7D7D7D"/>
<path d="M7.485 105.14H3.555L2.925 107H0.24L4.05 96.47H7.02L10.83 107H8.115L7.485 105.14ZM6.825 103.16L5.52 99.305L4.23 103.16H6.825ZM17.0896 98.54C18.0696 98.54 18.8496 98.86 19.4296 99.5C20.0196 100.13 20.3146 101 20.3146 102.11V107H17.7646V102.455C17.7646 101.895 17.6196 101.46 17.3296 101.15C17.0396 100.84 16.6496 100.685 16.1596 100.685C15.6696 100.685 15.2796 100.84 14.9896 101.15C14.6996 101.46 14.5546 101.895 14.5546 102.455V107H11.9896V98.63H14.5546V99.74C14.8146 99.37 15.1646 99.08 15.6046 98.87C16.0446 98.65 16.5396 98.54 17.0896 98.54ZM21.587 102.8C21.587 101.94 21.747 101.185 22.067 100.535C22.397 99.885 22.842 99.385 23.402 99.035C23.962 98.685 24.587 98.51 25.277 98.51C25.827 98.51 26.327 98.625 26.777 98.855C27.237 99.085 27.597 99.395 27.857 99.785V95.9H30.422V107H27.857V105.8C27.617 106.2 27.272 106.52 26.822 106.76C26.382 107 25.867 107.12 25.277 107.12C24.587 107.12 23.962 106.945 23.402 106.595C22.842 106.235 22.397 105.73 22.067 105.08C21.747 104.42 21.587 103.66 21.587 102.8ZM27.857 102.815C27.857 102.175 27.677 101.67 27.317 101.3C26.967 100.93 26.537 100.745 26.027 100.745C25.517 100.745 25.082 100.93 24.722 101.3C24.372 101.66 24.197 102.16 24.197 102.8C24.197 103.44 24.372 103.95 24.722 104.33C25.082 104.7 25.517 104.885 26.027 104.885C26.537 104.885 26.967 104.7 27.317 104.33C27.677 103.96 27.857 103.455 27.857 102.815ZM40.1677 102.68C40.1677 102.92 40.1527 103.17 40.1227 103.43H34.3177C34.3577 103.95 34.5227 104.35 34.8127 104.63C35.1127 104.9 35.4777 105.035 35.9077 105.035C36.5477 105.035 36.9927 104.765 37.2427 104.225H39.9727C39.8327 104.775 39.5777 105.27 39.2077 105.71C38.8477 106.15 38.3927 106.495 37.8427 106.745C37.2927 106.995 36.6777 107.12 35.9977 107.12C35.1777 107.12 34.4477 106.945 33.8077 106.595C33.1677 106.245 32.6677 105.745 32.3077 105.095C31.9477 104.445 31.7677 103.685 31.7677 102.815C31.7677 101.945 31.9427 101.185 32.2927 100.535C32.6527 99.885 33.1527 99.385 33.7927 99.035C34.4327 98.685 35.1677 98.51 35.9977 98.51C36.8077 98.51 37.5277 98.68 38.1577 99.02C38.7877 99.36 39.2777 99.845 39.6277 100.475C39.9877 101.105 40.1677 101.84 40.1677 102.68ZM37.5427 102.005C37.5427 101.565 37.3927 101.215 37.0927 100.955C36.7927 100.695 36.4177 100.565 35.9677 100.565C35.5377 100.565 35.1727 100.69 34.8727 100.94C34.5827 101.19 34.4027 101.545 34.3327 102.005H37.5427ZM44.0858 100.025C44.3858 99.565 44.7608 99.205 45.2108 98.945C45.6608 98.675 46.1608 98.54 46.7108 98.54V101.255H46.0058C45.3658 101.255 44.8858 101.395 44.5658 101.675C44.2458 101.945 44.0858 102.425 44.0858 103.115V107H41.5208V98.63H44.0858V100.025ZM51.3418 107.12C50.6118 107.12 49.9618 106.995 49.3918 106.745C48.8218 106.495 48.3718 106.155 48.0418 105.725C47.7118 105.285 47.5268 104.795 47.4868 104.255H50.0218C50.0518 104.545 50.1868 104.78 50.4268 104.96C50.6668 105.14 50.9618 105.23 51.3118 105.23C51.6318 105.23 51.8768 105.17 52.0468 105.05C52.2268 104.92 52.3168 104.755 52.3168 104.555C52.3168 104.315 52.1918 104.14 51.9418 104.03C51.6918 103.91 51.2868 103.78 50.7268 103.64C50.1268 103.5 49.6268 103.355 49.2268 103.205C48.8268 103.045 48.4818 102.8 48.1918 102.47C47.9018 102.13 47.7568 101.675 47.7568 101.105C47.7568 100.625 47.8868 100.19 48.1468 99.8C48.4168 99.4 48.8068 99.085 49.3168 98.855C49.8368 98.625 50.4518 98.51 51.1618 98.51C52.2118 98.51 53.0368 98.77 53.6368 99.29C54.2468 99.81 54.5968 100.5 54.6868 101.36H52.3168C52.2768 101.07 52.1468 100.84 51.9268 100.67C51.7168 100.5 51.4368 100.415 51.0868 100.415C50.7868 100.415 50.5568 100.475 50.3968 100.595C50.2368 100.705 50.1568 100.86 50.1568 101.06C50.1568 101.3 50.2818 101.48 50.5318 101.6C50.7918 101.72 51.1918 101.84 51.7318 101.96C52.3518 102.12 52.8568 102.28 53.2468 102.44C53.6368 102.59 53.9768 102.84 54.2668 103.19C54.5668 103.53 54.7218 103.99 54.7318 104.57C54.7318 105.06 54.5918 105.5 54.3118 105.89C54.0418 106.27 53.6468 106.57 53.1268 106.79C52.6168 107.01 52.0218 107.12 51.3418 107.12ZM60.1111 107.12C59.2911 107.12 58.5511 106.945 57.8911 106.595C57.2411 106.245 56.7261 105.745 56.3461 105.095C55.9761 104.445 55.7911 103.685 55.7911 102.815C55.7911 101.955 55.9811 101.2 56.3611 100.55C56.7411 99.89 57.2611 99.385 57.9211 99.035C58.5811 98.685 59.3211 98.51 60.1411 98.51C60.9611 98.51 61.7011 98.685 62.3611 99.035C63.0211 99.385 63.5411 99.89 63.9211 100.55C64.3011 101.2 64.4911 101.955 64.4911 102.815C64.4911 103.675 64.2961 104.435 63.9061 105.095C63.5261 105.745 63.0011 106.245 62.3311 106.595C61.6711 106.945 60.9311 107.12 60.1111 107.12ZM60.1111 104.9C60.6011 104.9 61.0161 104.72 61.3561 104.36C61.7061 104 61.8811 103.485 61.8811 102.815C61.8811 102.145 61.7111 101.63 61.3711 101.27C61.0411 100.91 60.6311 100.73 60.1411 100.73C59.6411 100.73 59.2261 100.91 58.8961 101.27C58.5661 101.62 58.4011 102.135 58.4011 102.815C58.4011 103.485 58.5611 104 58.8811 104.36C59.2111 104.72 59.6211 104.9 60.1111 104.9ZM70.9519 98.54C71.9319 98.54 72.7119 98.86 73.2919 99.5C73.8819 100.13 74.1769 101 74.1769 102.11V107H71.6269V102.455C71.6269 101.895 71.4819 101.46 71.1919 101.15C70.9019 100.84 70.5119 100.685 70.0219 100.685C69.5319 100.685 69.1419 100.84 68.8519 101.15C68.5619 101.46 68.4169 101.895 68.4169 102.455V107H65.8519V98.63H68.4169V99.74C68.6769 99.37 69.0269 99.08 69.4669 98.87C69.9069 98.65 70.4019 98.54 70.9519 98.54ZM86.128 99.8C85.938 99.45 85.663 99.185 85.303 99.005C84.953 98.815 84.538 98.72 84.058 98.72C83.228 98.72 82.563 98.995 82.063 99.545C81.563 100.085 81.313 100.81 81.313 101.72C81.313 102.69 81.573 103.45 82.093 104C82.623 104.54 83.348 104.81 84.268 104.81C84.898 104.81 85.428 104.65 85.858 104.33C86.298 104.01 86.618 103.55 86.818 102.95H83.563V101.06H89.143V103.445C88.953 104.085 88.628 104.68 88.168 105.23C87.718 105.78 87.143 106.225 86.443 106.565C85.743 106.905 84.953 107.075 84.073 107.075C83.033 107.075 82.103 106.85 81.283 106.4C80.473 105.94 79.838 105.305 79.378 104.495C78.928 103.685 78.703 102.76 78.703 101.72C78.703 100.68 78.928 99.755 79.378 98.945C79.838 98.125 80.473 97.49 81.283 97.04C82.093 96.58 83.018 96.35 84.058 96.35C85.318 96.35 86.378 96.655 87.238 97.265C88.108 97.875 88.683 98.72 88.963 99.8H86.128ZM94.3738 107.12C93.5538 107.12 92.8138 106.945 92.1538 106.595C91.5038 106.245 90.9888 105.745 90.6088 105.095C90.2388 104.445 90.0538 103.685 90.0538 102.815C90.0538 101.955 90.2438 101.2 90.6238 100.55C91.0038 99.89 91.5238 99.385 92.1838 99.035C92.8438 98.685 93.5838 98.51 94.4038 98.51C95.2238 98.51 95.9638 98.685 96.6238 99.035C97.2838 99.385 97.8038 99.89 98.1838 100.55C98.5638 101.2 98.7538 101.955 98.7538 102.815C98.7538 103.675 98.5588 104.435 98.1688 105.095C97.7888 105.745 97.2638 106.245 96.5938 106.595C95.9338 106.945 95.1938 107.12 94.3738 107.12ZM94.3738 104.9C94.8638 104.9 95.2788 104.72 95.6188 104.36C95.9688 104 96.1438 103.485 96.1438 102.815C96.1438 102.145 95.9738 101.63 95.6338 101.27C95.3038 100.91 94.8938 100.73 94.4038 100.73C93.9038 100.73 93.4888 100.91 93.1588 101.27C92.8288 101.62 92.6638 102.135 92.6638 102.815C92.6638 103.485 92.8238 104 93.1438 104.36C93.4738 104.72 93.8838 104.9 94.3738 104.9ZM110.795 98.54C111.835 98.54 112.66 98.855 113.27 99.485C113.89 100.115 114.2 100.99 114.2 102.11V107H111.65V102.455C111.65 101.915 111.505 101.5 111.215 101.21C110.935 100.91 110.545 100.76 110.045 100.76C109.545 100.76 109.15 100.91 108.86 101.21C108.58 101.5 108.44 101.915 108.44 102.455V107H105.89V102.455C105.89 101.915 105.745 101.5 105.455 101.21C105.175 100.91 104.785 100.76 104.285 100.76C103.785 100.76 103.39 100.91 103.1 101.21C102.82 101.5 102.68 101.915 102.68 102.455V107H100.115V98.63H102.68V99.68C102.94 99.33 103.28 99.055 103.7 98.855C104.12 98.645 104.595 98.54 105.125 98.54C105.755 98.54 106.315 98.675 106.805 98.945C107.305 99.215 107.695 99.6 107.975 100.1C108.265 99.64 108.66 99.265 109.16 98.975C109.66 98.685 110.205 98.54 110.795 98.54ZM123.883 102.68C123.883 102.92 123.868 103.17 123.838 103.43H118.033C118.073 103.95 118.238 104.35 118.528 104.63C118.828 104.9 119.193 105.035 119.623 105.035C120.263 105.035 120.708 104.765 120.958 104.225H123.688C123.548 104.775 123.293 105.27 122.923 105.71C122.563 106.15 122.108 106.495 121.558 106.745C121.008 106.995 120.393 107.12 119.713 107.12C118.893 107.12 118.163 106.945 117.523 106.595C116.883 106.245 116.383 105.745 116.023 105.095C115.663 104.445 115.483 103.685 115.483 102.815C115.483 101.945 115.658 101.185 116.008 100.535C116.368 99.885 116.868 99.385 117.508 99.035C118.148 98.685 118.883 98.51 119.713 98.51C120.523 98.51 121.243 98.68 121.873 99.02C122.503 99.36 122.993 99.845 123.343 100.475C123.703 101.105 123.883 101.84 123.883 102.68ZM121.258 102.005C121.258 101.565 121.108 101.215 120.808 100.955C120.508 100.695 120.133 100.565 119.683 100.565C119.253 100.565 118.888 100.69 118.588 100.94C118.298 101.19 118.118 101.545 118.048 102.005H121.258ZM128.642 107.12C127.912 107.12 127.262 106.995 126.692 106.745C126.122 106.495 125.672 106.155 125.342 105.725C125.012 105.285 124.827 104.795 124.787 104.255H127.322C127.352 104.545 127.487 104.78 127.727 104.96C127.967 105.14 128.262 105.23 128.612 105.23C128.932 105.23 129.177 105.17 129.347 105.05C129.527 104.92 129.617 104.755 129.617 104.555C129.617 104.315 129.492 104.14 129.242 104.03C128.992 103.91 128.587 103.78 128.027 103.64C127.427 103.5 126.927 103.355 126.527 103.205C126.127 103.045 125.782 102.8 125.492 102.47C125.202 102.13 125.057 101.675 125.057 101.105C125.057 100.625 125.187 100.19 125.447 99.8C125.717 99.4 126.107 99.085 126.617 98.855C127.137 98.625 127.752 98.51 128.462 98.51C129.512 98.51 130.337 98.77 130.937 99.29C131.547 99.81 131.897 100.5 131.987 101.36H129.617C129.577 101.07 129.447 100.84 129.227 100.67C129.017 100.5 128.737 100.415 128.387 100.415C128.087 100.415 127.857 100.475 127.697 100.595C127.537 100.705 127.457 100.86 127.457 101.06C127.457 101.3 127.582 101.48 127.832 101.6C128.092 101.72 128.492 101.84 129.032 101.96C129.652 102.12 130.157 102.28 130.547 102.44C130.937 102.59 131.277 102.84 131.567 103.19C131.867 103.53 132.022 103.99 132.032 104.57C132.032 105.06 131.892 105.5 131.612 105.89C131.342 106.27 130.947 106.57 130.427 106.79C129.917 107.01 129.322 107.12 128.642 107.12Z" fill="#7D7D7D"/>
<path d="M44.28 117.03V122.18C44.28 122.753 44.1033 123.213 43.75 123.56C43.3967 123.9 42.93 124.07 42.35 124.07C41.7633 124.07 41.2933 123.897 40.94 123.55C40.5867 123.197 40.41 122.717 40.41 122.11H41.32C41.3267 122.45 41.4133 122.727 41.58 122.94C41.7533 123.153 42.01 123.26 42.35 123.26C42.69 123.26 42.9433 123.16 43.11 122.96C43.2767 122.753 43.36 122.493 43.36 122.18V117.03H44.28ZM53.5327 124.07C52.8861 124.07 52.2961 123.92 51.7627 123.62C51.2294 123.313 50.8061 122.89 50.4927 122.35C50.1861 121.803 50.0327 121.19 50.0327 120.51C50.0327 119.83 50.1861 119.22 50.4927 118.68C50.8061 118.133 51.2294 117.71 51.7627 117.41C52.2961 117.103 52.8861 116.95 53.5327 116.95C54.1861 116.95 54.7794 117.103 55.3127 117.41C55.8461 117.71 56.2661 118.13 56.5727 118.67C56.8794 119.21 57.0327 119.823 57.0327 120.51C57.0327 121.197 56.8794 121.81 56.5727 122.35C56.2661 122.89 55.8461 123.313 55.3127 123.62C54.7794 123.92 54.1861 124.07 53.5327 124.07ZM53.5327 123.28C54.0194 123.28 54.4561 123.167 54.8427 122.94C55.2361 122.713 55.5427 122.39 55.7627 121.97C55.9894 121.55 56.1027 121.063 56.1027 120.51C56.1027 119.95 55.9894 119.463 55.7627 119.05C55.5427 118.63 55.2394 118.307 54.8527 118.08C54.4661 117.853 54.0261 117.74 53.5327 117.74C53.0394 117.74 52.5994 117.853 52.2127 118.08C51.8261 118.307 51.5194 118.63 51.2927 119.05C51.0727 119.463 50.9627 119.95 50.9627 120.51C50.9627 121.063 51.0727 121.55 51.2927 121.97C51.5194 122.39 51.8261 122.713 52.2127 122.94C52.6061 123.167 53.0461 123.28 53.5327 123.28ZM54.5327 115.52L52.4027 116.66V115.98L54.5327 114.73V115.52ZM63.4441 117.03V124H62.5341V117.03H63.4441ZM73.415 122.45H70.375L69.815 124H68.855L71.375 117.07H72.425L74.935 124H73.975L73.415 122.45ZM73.155 121.71L71.895 118.19L70.635 121.71H73.155ZM82.5433 124.07C82.0833 124.07 81.6699 123.99 81.3033 123.83C80.9433 123.663 80.6599 123.437 80.4533 123.15C80.2466 122.857 80.1399 122.52 80.1333 122.14H81.1033C81.1366 122.467 81.2699 122.743 81.5033 122.97C81.7433 123.19 82.0899 123.3 82.5433 123.3C82.9766 123.3 83.3166 123.193 83.5633 122.98C83.8166 122.76 83.9433 122.48 83.9433 122.14C83.9433 121.873 83.8699 121.657 83.7233 121.49C83.5766 121.323 83.3933 121.197 83.1733 121.11C82.9533 121.023 82.6566 120.93 82.2833 120.83C81.8233 120.71 81.4533 120.59 81.1733 120.47C80.8999 120.35 80.6633 120.163 80.4633 119.91C80.2699 119.65 80.1733 119.303 80.1733 118.87C80.1733 118.49 80.2699 118.153 80.4633 117.86C80.6566 117.567 80.9266 117.34 81.2733 117.18C81.6266 117.02 82.0299 116.94 82.4833 116.94C83.1366 116.94 83.6699 117.103 84.0833 117.43C84.5033 117.757 84.7399 118.19 84.7933 118.73H83.7933C83.7599 118.463 83.6199 118.23 83.3733 118.03C83.1266 117.823 82.7999 117.72 82.3933 117.72C82.0133 117.72 81.7033 117.82 81.4633 118.02C81.2233 118.213 81.1033 118.487 81.1033 118.84C81.1033 119.093 81.1733 119.3 81.3133 119.46C81.4599 119.62 81.6366 119.743 81.8433 119.83C82.0566 119.91 82.3533 120.003 82.7333 120.11C83.1933 120.237 83.5633 120.363 83.8433 120.49C84.1233 120.61 84.3633 120.8 84.5633 121.06C84.7633 121.313 84.8633 121.66 84.8633 122.1C84.8633 122.44 84.7733 122.76 84.5933 123.06C84.4133 123.36 84.1466 123.603 83.7933 123.79C83.4399 123.977 83.0233 124.07 82.5433 124.07Z" fill="#7D7D7D"/>
<path d="M88.7499 45.6522C87.6005 44.1917 86.127 43.1892 84.3294 42.6446C82.5699 42.0461 80.5862 41.9357 78.3783 42.3135C74.5605 42.9667 71.718 44.755 69.851 47.6785C67.9761 50.5559 67.3967 54.0875 68.1129 58.2733C68.8763 62.7352 70.6704 66.0264 73.4952 68.1471C76.3581 70.2138 79.9054 70.8852 84.1373 70.1611C87.0352 69.6653 89.3471 68.5122 91.0732 66.7018C92.8453 64.8836 93.9552 62.5158 94.403 59.5985L79.4305 62.1603L77.9431 53.4666L103.61 49.075L105.487 60.0456C105.117 63.139 104.09 66.1317 102.407 69.0237C100.77 71.9077 98.4754 74.4072 95.5231 76.522C92.5708 78.6369 89.0708 80.0406 85.0229 80.7332C80.2391 81.5517 75.7842 81.2487 71.6582 79.8241C67.5703 78.3457 64.1496 75.9246 61.3962 72.5607C58.6888 69.1891 56.9259 65.1113 56.1074 60.3275C55.2888 55.5437 55.5958 51.1118 57.0282 47.0317C58.4988 42.8978 60.9199 39.4772 64.2916 36.7698C67.6554 34.0164 71.7293 32.2304 76.5131 31.4119C82.3088 30.4203 87.4247 30.989 91.8606 33.118C96.3426 35.2392 99.6525 38.6735 101.79 43.4209L88.7499 45.6522Z" fill="#7D7D7D"/>
</svg>
