<svg width="144" height="55" viewBox="0 0 144 55" fill="none" xmlns="http://www.w3.org/2000/svg">
<path d="M24.296 41.992L29.726 21.492L34.969 41.992H40.169L46.907 12.64H41.243L37.451 32.255L31.833 12.64H27.386L21.768 32.255L17.976 12.64H12.312L19.053 41.992H24.296Z" fill="white"/>
<path d="M55.895 30.101H66.428V41.992H71.999V12.64H66.428V24.765H55.895V12.64H50.371V41.992H55.895V30.101Z" fill="white"/>
<path d="M83.983 30.34H95.499V25.05H83.983V17.977H97.746V12.64H78.459V41.992H83.983V30.34Z" fill="white"/>
<path d="M0 0V54.3H110.947V0H0ZM106.266 36.655H95.031V49.669H4.681V4.728H106.266V36.655Z" fill="white"/>
<path d="M112.56 48.4C112.56 47.2533 112.773 46.2467 113.2 45.38C113.64 44.5133 114.233 43.8467 114.98 43.38C115.727 42.9133 116.56 42.68 117.48 42.68C118.213 42.68 118.88 42.8333 119.48 43.14C120.093 43.4467 120.573 43.86 120.92 44.38V39.2H124.34V54H120.92V52.4C120.6 52.9333 120.14 53.36 119.54 53.68C118.953 54 118.267 54.16 117.48 54.16C116.56 54.16 115.727 53.9267 114.98 53.46C114.233 52.98 113.64 52.3067 113.2 51.44C112.773 50.56 112.56 49.5467 112.56 48.4ZM120.92 48.42C120.92 47.5667 120.68 46.8933 120.2 46.4C119.733 45.9067 119.16 45.66 118.48 45.66C117.8 45.66 117.22 45.9067 116.74 46.4C116.273 46.88 116.04 47.5467 116.04 48.4C116.04 49.2533 116.273 49.9333 116.74 50.44C117.22 50.9333 117.8 51.18 118.48 51.18C119.16 51.18 119.733 50.9333 120.2 50.44C120.68 49.9467 120.92 49.2733 120.92 48.42Z" fill="#FF671F"/>
<path d="M134.134 48.24C134.134 48.56 134.114 48.8933 134.074 49.24H126.334C126.388 49.9333 126.608 50.4667 126.994 50.84C127.394 51.2 127.881 51.38 128.454 51.38C129.308 51.38 129.901 51.02 130.234 50.3H133.874C133.688 51.0333 133.348 51.6933 132.854 52.28C132.374 52.8667 131.768 53.3267 131.034 53.66C130.301 53.9933 129.481 54.16 128.574 54.16C127.481 54.16 126.508 53.9267 125.654 53.46C124.801 52.9933 124.134 52.3267 123.654 51.46C123.174 50.5933 122.934 49.58 122.934 48.42C122.934 47.26 123.168 46.2467 123.634 45.38C124.114 44.5133 124.781 43.8467 125.634 43.38C126.488 42.9133 127.468 42.68 128.574 42.68C129.654 42.68 130.614 42.9067 131.454 43.36C132.294 43.8133 132.948 44.46 133.414 45.3C133.894 46.14 134.134 47.12 134.134 48.24ZM130.634 47.34C130.634 46.7533 130.434 46.2867 130.034 45.94C129.634 45.5933 129.134 45.42 128.534 45.42C127.961 45.42 127.474 45.5867 127.074 45.92C126.688 46.2533 126.448 46.7267 126.354 47.34H130.634Z" fill="#FF671F"/>
<path d="M137.758 50.8L140.178 42.84H143.818L139.858 54H135.638L131.678 42.84H135.338L137.758 50.8Z" fill="#FF671F"/>
</svg>
