<svg width="205" height="96" viewBox="0 0 205 96" fill="none" xmlns="http://www.w3.org/2000/svg">
<path d="M38.4664 51.0853C38.8735 51.0853 39.2805 51.0853 39.6469 51.126C39.4433 49.9455 39.1584 46.7298 39.4026 46.3228C38.385 47.0147 38.0186 47.7881 37.9372 48.6837C37.8558 49.2128 37.8965 50.3933 37.8965 51.0853C38.1001 51.0039 38.2629 51.0039 38.4664 51.0853Z" fill="#7D7D7D"/>
<path d="M56.092 35.9429C56.4584 35.8615 57.1911 35.6987 57.1911 35.6987C56.4177 35.2102 55.6443 36.1058 56.092 35.9429Z" fill="#7D7D7D"/>
<path d="M74.2871 44.2466C75.1419 43.2289 75.4676 41.9671 75.3454 40.8273C74.2057 40.9087 73.0659 41.4786 72.2111 42.4555C72.2111 42.2927 72.1704 42.1299 72.1704 41.9671C72.089 40.868 71.6413 39.8911 70.9493 39.1991C71.3156 38.9549 71.5191 38.5478 71.4377 38.1001C71.3563 37.7337 71.1528 37.4488 70.8272 37.3267C70.9086 37.2453 70.99 37.1638 71.0307 37.0417C71.2749 37.2453 71.6413 37.3674 71.9669 37.286C72.5775 37.2045 72.9438 36.6347 72.8217 36.0648C72.7403 35.4949 72.1704 35.0879 71.6006 35.21C71.2749 35.2507 70.99 35.4949 70.8679 35.7799C70.7865 35.7392 70.6643 35.6577 70.5829 35.617C70.8272 35.3728 70.9493 35.0472 70.8679 34.6808C70.7458 34.1924 70.3794 33.8667 69.9316 33.826C70.9086 33.4597 71.8041 32.6863 72.3333 31.6279C72.9031 30.4475 72.9845 29.1449 72.5775 28.0459C71.4784 28.3715 70.5015 29.1856 69.8909 30.3254C69.8502 30.1625 69.8095 29.9997 69.7688 29.8369C69.4432 28.7379 68.7105 27.8423 67.815 27.3132C68.1813 26.9875 68.3034 26.4991 68.0999 26.0513C67.9371 25.7257 67.6521 25.4814 67.3265 25.4407C67.3672 25.3186 67.4079 25.2372 67.4486 25.1151C67.7336 25.2779 68.0592 25.3186 68.3848 25.1558C68.914 24.8709 69.1175 24.2603 68.8733 23.7311C68.6291 23.2019 68.0185 22.9984 67.4893 23.2426C67.1637 23.3648 66.9602 23.6497 66.8788 23.9753C66.7566 23.8939 66.6752 23.8532 66.5531 23.8532C66.7159 23.5683 66.7566 23.2019 66.5938 22.8763C66.3496 22.3878 65.8204 22.1843 65.332 22.3064C66.2682 21.6551 66.9602 20.6375 67.2044 19.3756C67.4486 18.0731 67.1637 16.8112 66.4717 15.875C65.4948 16.4856 64.7621 17.5439 64.5178 18.8058C64.4771 18.6837 64.355 18.5208 64.2736 18.3987C63.6223 17.4218 62.6861 16.8112 61.7092 16.5263C61.9534 16.1599 61.9127 15.6308 61.5871 15.2644C61.3428 14.9795 61.0172 14.8574 60.6916 14.8981C60.6916 14.8167 60.6916 14.6945 60.6916 14.5724C61.0172 14.6538 61.3835 14.5724 61.6278 14.3282C62.0755 13.9211 62.1162 13.2699 61.7092 12.8221C61.3021 12.3743 60.6508 12.3336 60.2031 12.7407C59.9181 12.9849 59.796 13.3106 59.8367 13.6362C59.7146 13.6362 59.6332 13.6362 59.5111 13.6362C59.5925 13.3106 59.5111 12.9442 59.2669 12.7C58.9412 12.3743 58.4528 12.2522 58.0457 12.4558C58.6156 11.6009 58.9005 10.5019 58.7377 9.36215C58.5749 8.05959 57.8829 6.96054 56.9467 6.26855C56.2547 7.16407 55.8476 8.38524 56.0104 9.68781C55.8883 9.56569 55.7662 9.48427 55.6441 9.36215C54.5858 8.58875 53.3239 8.26312 52.1842 8.46665C52.3063 9.6471 52.9169 10.7868 53.9752 11.6009C54.0973 11.7231 54.2601 11.8045 54.3822 11.8859C53.0797 12.0487 52.0213 12.7407 51.3293 13.6769C52.2249 14.4096 53.4867 14.776 54.7893 14.6131C55.8883 14.491 56.8246 13.9618 57.5165 13.2699C57.4351 13.5955 57.5165 13.9618 57.7608 14.2061C58.005 14.491 58.3306 14.6131 58.6563 14.5724C58.6563 14.6538 58.6563 14.776 58.6563 14.8981C58.3306 14.8167 57.9643 14.8981 57.7201 15.1423C57.2723 15.5494 57.2316 16.2006 57.6387 16.6484C58.0457 17.0962 58.697 17.1369 59.1448 16.7298C59.4297 16.4856 59.5518 16.1599 59.5111 15.8343C59.6332 15.8343 59.7553 15.8343 59.8774 15.8343C59.796 16.1599 59.8774 16.5263 60.1217 16.7705C60.4066 17.0962 60.8544 17.2183 61.2614 17.0554C61.18 18.0324 61.465 19.0907 62.0755 20.0269C62.1569 20.1898 62.2383 20.3119 62.3605 20.434C61.0986 20.2305 59.8367 20.5154 58.9005 21.2074C59.5518 22.1843 60.6101 22.917 61.9127 23.1612C63.0525 23.3648 64.1108 23.1612 65.0063 22.6728C64.7214 22.9984 64.5993 23.4462 64.8028 23.8532C64.9656 24.1789 65.2505 24.3824 65.5762 24.4638C65.4948 24.5452 65.4541 24.6673 65.4541 24.7894C65.1691 24.6266 64.8028 24.5859 64.4771 24.7487C63.948 24.993 63.7037 25.6035 63.948 26.1327C64.2329 26.6619 64.8435 26.9061 65.3727 26.6619C65.6983 26.4991 65.9018 26.2141 65.9832 25.8885C66.0646 25.9292 66.1868 25.9699 66.3089 26.0106C66.1461 26.2955 66.1054 26.6619 66.2682 26.9875C66.4717 27.3946 66.8787 27.6388 67.3265 27.5981C66.9602 28.5343 66.8787 29.6334 67.2451 30.7324C67.2858 30.8545 67.3265 31.0173 67.4079 31.1802C66.2275 30.6103 64.9656 30.5289 63.8666 30.9359C64.1922 32.035 65.0063 33.0526 66.1868 33.6632C67.1637 34.1517 68.2627 34.2738 69.2397 34.0702C68.9547 34.3145 68.7919 34.6808 68.8733 35.0879C68.9547 35.4542 69.1989 35.7392 69.4839 35.8613C69.4025 35.9427 69.3211 36.0241 69.2804 36.1462C69.0361 35.902 68.7105 35.7799 68.3441 35.8613C67.7336 35.9427 67.3672 36.5126 67.4893 37.0824C67.5707 37.6523 68.1406 38.0594 68.7105 37.9372C69.0768 37.8558 69.3618 37.6116 69.4839 37.3267C69.5653 37.4081 69.6467 37.4895 69.7688 37.5302C69.5246 37.7744 69.4025 38.1001 69.4839 38.4664C69.5653 38.8735 69.8502 39.1584 70.2166 39.2805C69.7281 40.0946 69.4839 41.1122 69.5653 42.1706C69.606 42.3334 69.606 42.4962 69.6467 42.659C68.6698 41.8449 67.4079 41.5193 66.2682 41.6414C66.3496 42.8219 66.9195 43.9616 67.9371 44.8164C68.8326 45.5491 69.8909 45.8748 70.9086 45.8748C70.5015 45.9969 70.1759 46.4039 70.1759 46.8517C70.1352 47.1773 70.3387 47.503 70.5829 47.7065C70.5015 47.7879 70.4201 47.8693 70.3387 47.9507C70.1352 47.7065 69.8502 47.503 69.4839 47.503C68.8733 47.4623 68.3848 47.9507 68.3848 48.5206C68.3441 49.1312 68.8326 49.6196 69.4025 49.6196C69.7281 49.6604 70.0538 49.4568 70.2573 49.2126C70.3387 49.294 70.4201 49.3754 70.5015 49.4568C70.2573 49.6604 70.0538 49.9453 70.0538 50.3116C70.0538 50.7594 70.298 51.1257 70.6236 51.2886C69.9316 51.9398 69.4432 52.8761 69.2804 53.9751C69.2804 54.1379 69.2397 54.3008 69.2397 54.4636C68.4256 53.4459 67.2858 52.8354 66.1461 52.7132C65.9425 53.853 66.2275 55.1149 67.0416 56.1732C67.7743 57.1094 68.7512 57.72 69.7688 57.9235C69.3211 57.9235 68.914 58.2492 68.7919 58.6969C68.7105 59.0226 68.7919 59.3889 68.9954 59.6331C68.914 59.6738 68.7919 59.7146 68.7105 59.796C68.5884 59.4703 68.3441 59.2261 67.9778 59.1447C67.4079 59.0226 66.838 59.3482 66.6752 59.9181C66.5124 60.4879 66.838 61.0578 67.4079 61.2206C67.7336 61.3428 68.0999 61.2206 68.3441 61.0171C68.3848 61.1392 68.4256 61.2614 68.507 61.3428C68.222 61.4649 67.9371 61.7091 67.8557 62.0755C67.7336 62.5232 67.9371 62.971 68.2627 63.2152C67.3672 63.7037 66.6345 64.4771 66.2275 65.5354C66.1461 65.6982 66.1054 65.861 66.0646 66.0239C65.5355 64.8434 64.5993 63.9886 63.5002 63.5816C63.0525 64.6399 63.0118 65.9425 63.5409 67.1636C64.0294 68.1812 64.8028 68.9953 65.6983 69.4431C65.2912 69.4024 64.8842 69.6059 64.6807 69.9723C64.5178 70.2979 64.5178 70.6643 64.64 70.9492C64.5178 70.9492 64.4364 70.9899 64.3143 71.0306C64.2736 70.705 64.1108 70.3793 63.7851 70.2165C63.2967 69.9316 62.6454 70.1351 62.3605 70.6236C62.0755 71.112 62.2383 71.7633 62.7675 72.0482C63.0932 72.2111 63.4595 72.2111 63.7444 72.0889C63.7444 72.2111 63.7852 72.3332 63.8259 72.4553C63.5002 72.496 63.1746 72.6588 63.0118 72.9845C62.8489 73.3508 62.8489 73.7579 63.0525 74.0835C62.1162 74.3277 61.2207 74.8976 60.5694 75.7524C60.4473 75.8745 60.3659 76.0374 60.2845 76.1595C60.1217 74.8976 59.4297 73.7986 58.4935 73.1066C57.7608 74.0021 57.3944 75.264 57.5572 76.5665C57.6794 77.747 58.2492 78.7239 59.0226 79.4159C58.6563 79.2124 58.1678 79.2938 57.8422 79.5787C57.598 79.8229 57.4758 80.1486 57.3944 80.1893C57.313 80.1893 57.1909 80.1893 57.0688 80.1893C57.1502 79.8636 57.0688 79.4973 56.8246 79.2531C56.4175 78.8053 55.7662 78.7646 55.3185 79.1717C54.8707 79.5787 54.83 80.23 55.237 80.6778C55.4813 80.922 55.8069 81.0441 56.1326 81.0034C56.1326 81.1255 56.1326 81.2476 56.1326 81.3697C55.8069 81.2883 55.4813 81.3697 55.1963 81.614C54.7486 82.021 54.7079 82.6723 55.1149 83.1201C55.522 83.5678 56.1733 83.6085 56.621 83.2015C56.8653 82.9573 56.9874 82.5909 56.9467 82.2653C57.0281 82.306 57.1502 82.306 57.2723 82.306C57.1909 82.6316 57.2723 82.9979 57.5165 83.2422C57.9236 83.6899 58.5749 83.7307 59.0226 83.3236C59.4704 82.9165 59.5111 82.2653 59.104 81.8175C58.8598 81.5733 58.5342 81.4512 58.2085 81.4919C58.2085 81.3697 58.2085 81.2883 58.2085 81.1662C58.5342 81.2476 58.9005 81.1662 59.1448 80.922C59.5518 80.5556 59.6332 79.9858 59.3076 79.538C60.1624 80.23 61.3835 80.5556 62.6047 80.3928C63.9073 80.23 65.0063 79.538 65.6983 78.6018C64.8435 77.8691 63.6223 77.462 62.3198 77.6249C62.4419 77.5027 62.5233 77.3806 62.6454 77.2585C63.2967 76.4037 63.6223 75.3861 63.6223 74.4091C64.0294 74.4906 64.4771 74.287 64.7214 73.88C64.8842 73.5543 64.8842 73.188 64.7621 72.9031C64.8842 72.9031 64.9656 72.8623 65.0877 72.8216C65.1284 73.1473 65.3319 73.4729 65.6169 73.6357C66.1053 73.9207 66.7566 73.7579 67.0416 73.2287C67.3265 72.7402 67.123 72.0889 66.6345 71.804C66.3496 71.6412 65.9832 71.6412 65.6983 71.7633C65.6983 71.6412 65.6576 71.5191 65.6169 71.4377C65.9425 71.397 66.2682 71.2341 66.431 70.9085C66.6752 70.4607 66.5938 69.9316 66.2275 69.6059C67.2451 69.9723 68.4255 69.9316 69.5653 69.4431C70.7865 68.9546 71.6413 67.9777 72.0483 66.8787C70.99 66.4309 69.6874 66.4309 68.507 66.9194C68.5884 66.7566 68.6291 66.6344 68.7105 66.4716C69.1175 65.4133 69.1175 64.3142 68.7919 63.3373C69.2397 63.3373 69.6467 63.0117 69.7688 62.5639C69.8909 62.2383 69.7688 61.8719 69.5653 61.6277C69.6467 61.587 69.7688 61.5463 69.8502 61.4649C69.9724 61.7905 70.2573 62.0347 70.5829 62.1162C71.1528 62.279 71.7227 61.9533 71.8855 61.3835C72.0483 60.8136 71.7227 60.2437 71.1528 60.0809C70.8272 59.9995 70.4608 60.0809 70.2166 60.2844C70.1759 60.1623 70.1352 60.0809 70.0538 59.9995C70.3794 59.8774 70.6236 59.5924 70.705 59.2668C70.8272 58.7376 70.5829 58.2085 70.0945 58.0049C71.1935 58.127 72.374 57.8421 73.3916 57.0687C74.4499 56.2953 75.0605 55.1149 75.1826 53.9751C74.0429 53.7716 72.8217 54.0565 71.7634 54.8299C71.8041 54.6671 71.8041 54.5043 71.8448 54.3415C71.9669 53.2831 71.7634 52.2248 71.2342 51.37C71.682 51.2479 72.0076 50.8815 72.0076 50.393C72.0076 50.0674 71.8448 49.7418 71.5599 49.5382C71.6413 49.4568 71.7227 49.3754 71.8041 49.294C72.0076 49.5789 72.2925 49.7418 72.6589 49.7418C73.2695 49.7825 73.7579 49.294 73.7579 48.7241C73.7986 48.1136 73.3102 47.6251 72.7403 47.6251C72.4147 47.6251 72.089 47.7879 71.8855 48.0321C71.8448 47.9507 71.7634 47.8693 71.682 47.7879C71.9262 47.5844 72.1297 47.2994 72.1297 46.9331C72.1297 46.4039 71.8041 45.9969 71.3156 45.8748C72.4147 45.7527 73.473 45.1828 74.2871 44.2466Z" fill="#7D7D7D"/>
<path d="M12.4151 83.3238C12.4558 83.2831 12.4965 83.2423 12.4965 83.1609C12.4965 83.1202 12.4965 83.1202 12.4965 83.0795C12.4965 83.0795 10.502 78.6427 10.1356 77.7878L15.0609 80.5965C15.7122 81.3699 16.4042 82.1433 17.1369 82.8353C17.5033 83.2016 18.1138 83.2016 18.5209 82.8353C18.8872 82.4689 18.8872 81.8177 18.5209 81.4513C17.7882 80.7186 17.0555 79.9045 16.3635 79.0904L15.9565 74.45C16.567 75.1827 19.742 78.8462 19.742 78.8462C19.7828 78.9276 19.9049 78.9276 19.9863 78.8869C20.0677 78.8462 20.0677 78.7241 20.027 78.6427L15.4273 70.7865C15.3866 70.7051 15.2645 70.6644 15.1831 70.7051L13.5141 71.3564C13.4327 71.3971 13.3513 71.4785 13.392 71.6007L15.3052 77.8286C12.9036 74.6943 10.8276 71.0308 9.2808 67.0417L10.217 62.1977C10.6241 63.0525 12.7814 67.5301 12.7814 67.5301C12.8222 67.6115 12.9443 67.6522 13.0257 67.6115C13.1071 67.5708 13.1885 67.4894 13.1478 67.3673L10.8276 58.575C10.7869 58.4936 10.7055 58.4121 10.6241 58.4529L8.83304 58.6157C8.75163 58.6157 8.67022 58.6971 8.67022 58.8192L8.71092 65.5356C7.32695 61.6686 6.43143 57.6388 5.98367 53.4868L8.18175 48.9278C8.34457 49.8641 9.3215 54.7487 9.3215 54.7487C9.36221 54.8301 9.44362 54.9115 9.52503 54.9115C9.60644 54.9115 9.68785 54.8301 9.68785 54.708V45.6307C9.68785 45.5493 9.60644 45.4679 9.52503 45.4272L7.734 45.1422C7.65259 45.1422 7.53047 45.1829 7.53047 45.2644L5.86156 51.8993C5.73944 50.5153 5.69873 49.0906 5.69873 47.666C5.69873 44.9387 5.90226 42.2929 6.26861 39.647L9.44362 35.78C9.40291 36.7163 9.15868 41.6823 9.15868 41.6823C9.15868 41.7637 9.24009 41.8451 9.3215 41.8858C9.40291 41.8858 9.52503 41.8451 9.52503 41.723L11.6824 32.89C11.7231 32.8085 11.6417 32.7271 11.5603 32.6864L9.89138 31.9944C9.80996 31.9537 9.68785 31.9944 9.64714 32.0759L6.47214 38.0188C7.24553 33.6634 8.5481 29.4707 10.3391 25.6851L14.6132 23.08C14.2875 23.9755 12.5372 28.6159 12.5372 28.6159C12.5372 28.6566 12.5372 28.6566 12.5372 28.6973C12.5372 28.7787 12.5779 28.8194 12.6186 28.8601C12.7 28.9008 12.8222 28.8601 12.8629 28.7787L17.6661 21.0447C17.7068 20.9633 17.7068 20.8819 17.6254 20.8005L16.2414 19.6608C16.16 19.5793 16.0786 19.62 15.9972 19.6608L11.1125 24.3826C12.6593 21.3297 14.4911 18.521 16.6484 16.038L23.5683 10.095C23.609 10.0543 23.609 10.0136 23.5683 9.9729C23.5276 9.9322 23.4869 9.9322 23.4462 9.9322C23.4462 9.9322 21.411 11.1126 19.8235 12.0082L24.3417 6.18731C24.3824 6.14661 24.3824 6.1059 24.3417 6.0652C24.301 6.02449 24.2603 6.02449 24.2196 6.0652L18.9279 11.0719C19.6606 9.44373 20.5562 7.32706 20.5562 7.32706C20.5562 7.28636 20.5562 7.24565 20.5154 7.20494C20.4747 7.16424 20.434 7.20494 20.3933 7.24565L15.1016 14.7761C12.9443 17.2998 11.0311 20.1899 9.40291 23.3242L11.1532 16.8928C11.1939 16.8114 11.1532 16.6893 11.0718 16.6893L9.44362 15.9566C9.36221 15.9159 9.24009 15.9566 9.19939 16.038L4.76251 24.0162C4.72181 24.0976 4.72181 24.2197 4.80322 24.2604C4.88463 24.3011 5.00675 24.3012 5.04745 24.2197C5.04745 24.2197 8.22246 20.5156 8.83304 19.7829L8.38528 25.4816C8.14105 26.0515 7.89682 26.5806 7.65259 27.1505C6.30931 30.4883 5.29168 34.0704 4.59969 37.7746L4.47758 30.8547C4.47758 30.7733 4.39617 30.6919 4.31476 30.6919L2.56443 30.4476C2.44231 30.4476 2.3609 30.4883 2.3609 30.5698L0.325642 39.4028C0.284936 39.4842 0.366347 39.6063 0.447758 39.647C0.529168 39.6877 0.651284 39.647 0.69199 39.5249C0.69199 39.5249 2.68655 35.088 3.0936 34.2332L4.31476 39.9727C3.94841 42.5371 3.78559 45.1422 3.78559 47.7474C3.78559 49.1721 3.82629 50.5967 3.94841 51.9807L2.15738 45.3458C2.11667 45.2644 2.03526 45.1829 1.95385 45.2236L0.162821 45.4272C0.0814103 45.4272 0 45.5086 0 45.6307L0.203526 54.708C0.203526 54.7894 0.284937 54.8708 0.366347 54.8708C0.447758 54.8708 0.569873 54.8301 0.569873 54.708C0.569873 54.708 1.42468 49.9048 1.5875 48.9685L4.19264 54.2195C4.6811 58.3714 5.57662 62.4013 6.9606 66.2683L3.45995 60.4474C3.41924 60.366 3.29713 60.3253 3.21572 60.366L1.5468 61.058C1.46539 61.0987 1.42468 61.1801 1.42468 61.3022L4.02982 69.9724C4.07053 70.0538 4.15194 70.1353 4.23335 70.0946C4.31476 70.0539 4.39617 70.0131 4.39617 69.891C4.39617 69.891 3.9077 65.0471 3.82629 64.1109L7.69329 68.4256C9.24009 72.2112 11.2346 75.7526 13.5548 78.8055L8.5481 74.4907C8.46669 74.45 8.38528 74.45 8.30387 74.4907L6.9606 75.6712C6.87919 75.7526 6.87919 75.834 6.91989 75.9154L12.1709 83.2831C12.2116 83.3238 12.3337 83.3645 12.4151 83.3238Z" fill="#7D7D7D"/>
<path d="M12.2523 47.7064C12.2523 67.2042 23.9754 83.0792 38.3444 83.0792C52.7133 83.0792 64.4365 67.2042 64.4365 47.7064C64.4365 28.2085 52.7133 12.3335 38.3444 12.3335C23.9347 12.3335 12.2523 28.2085 12.2523 47.7064ZM55.7255 24.3008L49.2127 32.0755L44.6944 31.9941L43.7582 16.689C43.7582 16.689 43.7582 15.6713 43.3104 14.8572C48.1136 16.2412 52.4284 19.6197 55.7255 24.3008ZM24.9931 37.9371C27.354 37.3265 32.7271 35.8204 35.8207 35.047C38.9143 34.2736 42.4963 32.9711 44.0838 32.9711C45.712 32.9711 45.8749 33.9073 46.2005 34.4772C46.5261 35.047 46.4854 35.9018 46.9332 36.7974C47.2995 37.53 47.9508 37.8557 48.3986 37.9778C48.5207 37.9778 48.6428 37.9778 48.7242 37.9778C48.3986 37.8557 48.1136 37.6929 48.0322 37.4079C48.5207 37.6522 49.9861 37.4893 50.8816 37.1637C51.7771 36.8788 53.8938 36.024 54.9928 35.6983C56.0919 35.3727 57.313 35.1691 57.5573 35.6983C59.0634 35.3727 59.5111 36.3903 59.6739 36.8788C59.7961 37.3672 59.9182 37.815 59.8775 38.3034C59.5518 38.0185 59.3076 37.8964 58.8191 37.8557C58.3714 37.8557 57.1502 38.1406 56.5803 38.3849C54.3008 39.3211 52.9169 40.7865 52.9169 40.7865C52.8762 40.7865 52.7133 40.9493 52.5098 41.1528C51.8585 41.8448 51.4515 42.4961 50.9223 42.8217C50.5967 43.066 49.9861 43.3102 48.7242 43.6765C47.4216 44.0429 45.3864 44.5721 44.2873 45.264C43.1883 45.956 41.8043 47.0144 41.6415 47.7471C41.5194 48.3169 41.1937 50.6778 41.4787 51.3698H41.438C47.3402 52.7538 51.6957 58.0455 51.6957 64.3548C51.6957 64.5176 51.6957 64.6805 51.6957 64.8433H59.2262C54.9928 74.6939 47.2181 81.2882 38.3444 81.2882C29.4299 81.2882 21.6552 74.6532 17.4219 64.8026H24.9931C24.9931 64.6397 24.9931 64.4769 24.9931 64.3141C24.9931 58.1269 29.2264 52.9166 34.9658 51.4105H35.1694C35.4543 51.3291 35.78 51.2477 36.1056 51.207C35.9835 50.4743 35.6171 49.0496 35.6171 48.3983C35.6578 47.5842 35.6578 46.7294 37.0418 45.5083C35.8207 45.9967 33.2155 47.6249 32.5235 49.2532C30.4883 49.5788 28.1681 49.3753 26.662 49.0089C25.3187 48.6833 23.5277 47.8692 22.9578 47.2993C24.4232 47.1365 27.354 45.956 28.9008 45.1012C30.244 44.3278 34.4367 42.2519 36.1056 41.9669L35.2508 42.0483C34.1517 42.1704 32.6864 42.9031 31.0581 43.2288C29.4706 43.5137 27.354 43.3102 28.1274 43.066C29.552 42.6182 31.4652 41.8855 32.4421 41.3563C28.2088 42.8624 26.1735 42.6589 25.3187 42.4961C25.0745 42.4554 24.9117 42.374 24.9931 42.3333C26.4585 41.9262 28.4123 41.2749 29.2264 40.7051C24.2604 42.2519 21.7366 41.682 21.6959 41.2749C21.6145 41.1935 25.7258 40.3387 26.4177 40.0945C25.6851 40.1759 23.6905 40.5422 21.5331 40.5422C21.2075 41.0714 20.6376 41.6413 19.9049 41.6413L14.6946 39.7281C17.2998 25.0335 26.9062 14.1245 38.3444 14.1245C39.2806 14.1245 40.1761 14.2059 41.0716 14.3281C40.2168 15.3457 40.0133 17.7066 40.0133 17.7066C40.0133 17.7066 38.9143 25.6034 38.4258 25.6441C36.3091 25.8883 36.0242 27.2316 36.0242 27.2316C36.0242 27.2316 34.8844 25.2778 33.5005 26.1733C32.4828 26.6617 31.5466 27.5573 31.5466 27.5573C31.5466 27.5573 29.7149 24.1787 27.1911 29.6332L22.6729 38.4256C23.5277 38.2627 24.3418 38.1406 24.9931 37.9371ZM55.1149 43.3509C55.0335 44.6535 53.3646 45.5083 51.7771 45.7118C50.1896 45.9153 45.997 45.5083 44.9386 45.4676C46.4447 44.7756 48.8056 44.2464 49.864 43.9208C50.8002 43.6358 51.6143 43.1474 52.2249 42.3333C52.2656 42.3333 52.2656 42.2926 52.2656 42.2926C52.5505 41.9262 52.6726 41.8448 52.7133 41.8041C53.9752 41.8041 55.1964 42.2111 55.1149 43.3509Z" fill="#7D7D7D"/>
<path d="M27.639 65.4134L27.5983 65.0063L28.2089 64.64L28.1682 64.2329L27.5576 64.5993C27.4355 64.3143 27.2319 64.2736 26.9877 64.2736C26.6621 64.3143 26.4178 64.4771 26.4585 65.0063L26.4992 65.8611L28.2496 65.739L28.2089 65.3727L27.639 65.4134ZM27.2319 65.4134L26.7435 65.4541L26.7028 65.0063C26.7028 64.8028 26.7435 64.6807 26.947 64.6807C27.1505 64.6807 27.2319 64.7621 27.2319 64.9656V65.4134Z" fill="#7D7D7D"/>
<path d="M27.9239 62.6861H27.5575L27.6797 61.7499L27.354 61.6685L27.1912 62.564H26.8655L27.0284 61.5871L26.7027 61.5464L26.4585 62.8897L28.1681 63.1746L28.4123 61.872L28.0867 61.7906L27.9239 62.6861Z" fill="#7D7D7D"/>
<path d="M29.145 59.8367L28.2902 58.9411L29.3485 59.4296L29.5114 59.104L27.9238 58.3306L27.7203 58.819L28.5751 59.7145H27.3133L27.1097 60.1216L28.6972 60.8543L28.8194 60.5287L27.761 60.0402L29.0229 60.1216L29.145 59.8367Z" fill="#7D7D7D"/>
<path d="M30.3254 57.8826L29.9183 57.557L30.2032 57.2313C30.5696 56.8243 30.4882 56.5393 30.2032 56.2951C29.9183 56.0509 29.6334 56.0509 29.3077 56.4579L28.7786 57.1092L30.0811 58.1675L30.3254 57.8826ZM29.3077 57.0278L29.5927 56.6614C29.7148 56.4579 29.8369 56.4579 29.9997 56.58C30.1625 56.7021 30.1218 56.8243 29.9997 56.9871L29.7148 57.3941L29.3077 57.0278Z" fill="#7D7D7D"/>
<path d="M32.4013 55.9288C33.0119 55.481 32.8491 55.1554 32.6456 54.8704L31.9943 54.0156L31.7093 54.2192L32.3199 55.074C32.4827 55.2775 32.5235 55.4403 32.2385 55.6438C31.9536 55.8474 31.8315 55.7659 31.6686 55.5624L31.0581 54.7076L30.7324 54.9518L31.3837 55.8474C31.5872 56.0916 31.8722 56.3765 32.4013 55.9288Z" fill="#7D7D7D"/>
<path d="M34.7622 54.6268C35.2099 54.4232 35.3727 54.2604 35.2506 53.8941C35.1692 53.6905 35.0471 53.5684 34.8436 53.6091C34.9657 53.487 35.0064 53.3649 34.925 53.1614C34.8029 52.8764 34.5993 52.8357 34.1516 52.9986L33.3782 53.2835L34.0295 54.9117L34.7622 54.6268ZM34.8843 54.0162C34.925 54.1383 34.8843 54.2197 34.6807 54.3011L34.2737 54.4639L34.1109 54.0976L34.5586 53.9348C34.7214 53.8941 34.8436 53.9348 34.8843 54.0162ZM33.8259 53.4463L34.233 53.2835C34.4365 53.2021 34.5179 53.2428 34.5586 53.3649C34.5993 53.487 34.5993 53.5684 34.3958 53.6498L33.948 53.772L33.8259 53.4463Z" fill="#7D7D7D"/>
<path d="M36.5127 52.3877H36.1464L36.3906 54.138L37.6525 53.9345L37.571 53.6089L36.7162 53.731L36.5127 52.3877Z" fill="#7D7D7D"/>
<path d="M38.6396 52.2234L38.5933 53.973L38.9595 53.9828L39.0059 52.2331L38.6396 52.2234Z" fill="#7D7D7D"/>
<path d="M40.9089 54.2197C41.3159 54.3011 41.5195 54.2197 41.6823 54.0976L41.4788 53.8126C41.3159 53.8941 41.1938 53.9348 40.9903 53.8941C40.5832 53.8126 40.5018 53.5684 40.5832 53.2428C40.6646 52.9171 40.8682 52.7543 41.2345 52.8357C41.3973 52.8764 41.5195 52.9578 41.6009 53.08L41.9265 52.8764C41.8044 52.6729 41.6416 52.5508 41.3159 52.4694C40.7461 52.3473 40.339 52.5508 40.2169 53.1614C40.0948 53.7312 40.2576 54.0569 40.9089 54.2197Z" fill="#7D7D7D"/>
<path d="M42.9441 54.5447L43.6361 54.9111L43.5954 55.2367L43.9618 55.3995L44.1246 53.5271L43.7582 53.3643L42.3743 54.5854L42.6999 54.7482L42.9441 54.5447ZM43.7582 53.8527L43.6768 54.5854L43.1884 54.3412L43.7582 53.8527Z" fill="#7D7D7D"/>
<path d="M45.7933 55.2777L45.3456 56.4582L45.5491 56.6617L46.6888 56.0919L45.9154 56.9874L46.2004 57.2723L47.3808 55.9697L46.9738 55.6441L45.834 56.1733L46.2818 54.9521L45.9154 54.6265L44.735 55.9697L45.0199 56.1733L45.7933 55.2777Z" fill="#7D7D7D"/>
<path d="M49.4976 63.9885L49.7826 63.9478L49.7011 63.093L49.3755 63.1337L49.4162 63.6222H49.3755C49.1313 63.6629 49.0092 63.5408 48.9684 63.2151C48.9277 62.8081 49.1313 62.6859 49.4976 62.6452C49.864 62.6045 50.0675 62.7674 50.1082 63.1337C50.1489 63.3779 50.0675 63.5001 49.9861 63.5815L50.271 63.8257C50.4338 63.6629 50.5152 63.4593 50.4745 63.093C50.4338 62.4824 50.1082 62.1975 49.4976 62.2382C48.9277 62.2789 48.6428 62.4824 48.6835 63.2151C48.7242 63.9071 49.0092 64.0699 49.4976 63.9885Z" fill="#7D7D7D"/>
<path d="M49.0092 65.1282L49.3755 65.2097L49.2534 66.0645L49.6197 66.1459L49.7419 65.2097L50.0675 65.3318L49.9454 66.2273H50.271L50.4745 64.9247L48.7242 64.7212L48.5614 66.0238L48.887 66.0645L49.0092 65.1282Z" fill="#7D7D7D"/>
<path d="M49.009 68.5886C49.3346 68.7107 49.5788 68.67 49.7824 68.1408L50.0673 67.3267L48.3984 66.7568L48.2763 67.1232L48.8054 67.3267L48.6833 67.6931L48.032 67.7745L47.9099 68.1815L48.6019 68.0594C48.6019 68.3443 48.7647 68.4665 49.009 68.5886ZM48.9683 67.8559L49.0904 67.4488L49.5788 67.6116L49.416 68.0187C49.3753 68.2222 49.2939 68.3036 49.0904 68.2222C48.9275 68.1001 48.8868 68.0594 48.9683 67.8559Z" fill="#7D7D7D"/>
<path d="M46.8517 69.9314L47.1366 70.1349L47.6251 69.3208L47.9507 69.5243L47.4623 70.2977L47.7472 70.5013L48.2357 69.6872L48.5206 69.8907L48.0321 70.7048L48.3578 70.9083L49.0091 69.7279L47.5437 68.873L46.8517 69.9314Z" fill="#7D7D7D"/>
<path d="M46.1598 70.8269L46.5669 71.234L46.2819 71.5189L45.6306 71.3561L45.3457 71.641L46.0377 71.8039C45.9156 72.0888 46.0377 72.2923 46.2005 72.4551C46.4447 72.6587 46.7297 72.7401 47.096 72.333L47.6659 71.7224L46.404 70.542L46.1598 70.8269ZM47.1774 71.8446L46.8518 72.1702C46.689 72.333 46.6076 72.333 46.4447 72.2109C46.3226 72.0481 46.3226 71.9667 46.4855 71.8039L46.8111 71.4782L47.1774 71.8446Z" fill="#7D7D7D"/>
<path d="M43.7175 72.8626L43.8804 73.1475L44.6538 72.659L44.898 72.944L44.1246 73.4732L44.3281 73.7581L45.1015 73.1882L45.2643 73.4732L44.5316 74.0023L44.6945 74.2873L45.7935 73.5546L44.7759 72.1299L43.7175 72.8626Z" fill="#7D7D7D"/>
<path d="M39.8911 74.2057L39.9725 74.7756L39.5654 74.8163L39.1584 74.2871L38.7513 74.3279L39.1584 74.8977C38.9142 75.0198 38.8328 75.2641 38.8735 75.5083C38.9142 75.8339 39.077 76.0782 39.6062 75.9968L40.461 75.9154L40.2574 74.165L39.8911 74.2057ZM39.5654 75.7118C39.3619 75.7525 39.2805 75.7118 39.2398 75.5083C39.2398 75.3048 39.3212 75.2641 39.5247 75.2234L39.9725 75.1827L40.0132 75.6711L39.5654 75.7118Z" fill="#7D7D7D"/>
<path d="M36.6755 74.5719L37.6117 74.694L37.571 75.0197L36.6755 74.979L36.6348 75.3046L37.5303 75.386L37.4896 75.7117L36.594 75.5895L36.5533 75.9966L37.8559 76.1187L38.0187 74.3684L36.7162 74.2056L36.6755 74.5719Z" fill="#7D7D7D"/>
<path d="M35.21 73.8801C34.8437 73.758 34.5994 73.8394 34.4366 73.9208L34.5994 74.2465C34.7622 74.1651 34.8844 74.1244 35.0879 74.2058C35.4949 74.3279 35.5763 74.5721 35.4542 74.8978C35.3728 75.2234 35.1693 75.3862 34.8029 75.2641C34.5994 75.2234 34.518 75.1013 34.4366 74.9792L34.111 75.142C34.1924 75.3455 34.3959 75.5084 34.6808 75.5898C35.21 75.7526 35.6171 75.5898 35.8206 74.9792C36.0241 74.4093 35.8613 74.0023 35.21 73.8801Z" fill="#7D7D7D"/>
<path d="M33.1748 72.9438L32.4828 74.165L31.9536 73.8801L31.7908 74.2057L33.2155 74.9791L33.3783 74.6942L32.8491 74.3685L33.5004 73.1474L33.1748 72.9438Z" fill="#7D7D7D"/>
<path d="M31.0988 71.4375L30.8953 71.7224L31.628 72.333L31.343 72.5772L30.651 72.0481L30.4475 72.2516L31.1395 72.8622L30.936 73.1471L30.2033 72.5365L29.9998 72.7808L30.9767 73.5949L32.1164 72.2516L31.0988 71.4375Z" fill="#7D7D7D"/>
<path d="M39.9725 59.8367L38.3443 58.6969L36.6754 59.8774L37.286 57.9235L35.6578 56.7024L37.6931 56.6617L38.3443 54.7485C33.2562 54.7485 29.1042 58.9005 29.1042 63.9886C29.1042 65.047 29.5113 66.7159 29.8369 67.7335C32.9712 63.4595 36.9604 60.7322 39.9725 59.8367Z" fill="#7D7D7D"/>
<path d="M41.0309 56.6619L39.4027 57.883L40.0133 59.7962C40.0947 59.7555 40.1761 59.7555 40.2575 59.7148C42.8219 58.9414 45.1014 58.7785 46.0377 58.7785C44.328 56.2955 41.5194 54.708 38.3444 54.708L38.9956 56.6212L41.0309 56.6619Z" fill="#7D7D7D"/>
<path d="M47.2181 62.1569C45.02 62.2383 36.6754 63.7037 31.5466 70.298L31.4244 70.4608C33.0526 71.8041 36.0648 73.188 38.3443 73.188C43.4325 73.188 47.5844 69.0361 47.5844 63.9479C47.5844 63.5002 47.3809 62.3604 47.3809 62.1162L47.2181 62.1569Z" fill="#7D7D7D"/>
<path d="M32.6861 67.4895L32.564 67.6116L32.8083 67.7744L32.8897 67.6523C33.4188 67.0824 33.3374 66.7568 32.849 66.3497C32.5233 66.0241 32.1977 66.0241 31.872 66.3904C31.5464 66.7568 31.5871 67.001 31.872 67.2452C32.1163 67.4488 32.3198 67.5302 32.6047 67.2045C32.7676 67.001 32.849 66.8789 32.8083 66.7568C32.9304 66.9603 33.0932 67.0417 32.6861 67.4895ZM32.4826 67.001C32.3198 67.1638 32.1977 67.1638 32.0756 67.0417C31.9535 66.9603 31.9127 66.8382 32.0756 66.6347C32.2384 66.4311 32.3605 66.4311 32.5233 66.5532C32.6454 66.6754 32.6047 66.8382 32.4826 67.001Z" fill="#7D7D7D"/>
<path d="M34.8843 65.7388L35.1692 65.4946L33.6224 64.7212L33.3782 64.9654L33.948 66.5936L34.1923 66.3494L34.1109 66.1052L34.64 65.6167L34.8843 65.7388ZM33.9888 65.7388L33.7445 65.0875L34.3551 65.4132L33.9888 65.7388Z" fill="#7D7D7D"/>
<path d="M35.9428 64.9251C36.3091 64.6808 36.4313 64.4773 36.2277 64.1924C36.0649 64.0296 35.9428 63.9482 35.78 64.0296C35.8614 63.9074 35.8614 63.7853 35.7393 63.6225C35.5764 63.419 35.3322 63.419 35.0066 63.6632L34.396 64.111L35.3729 65.3728L35.9428 64.9251ZM34.8438 64.111L35.1694 63.8667C35.3322 63.7853 35.3729 63.7853 35.4543 63.8667C35.5357 63.9482 35.5357 64.0296 35.3729 64.1517L35.0473 64.3959L34.8438 64.111ZM35.5357 64.3959C35.6986 64.2738 35.78 64.2738 35.8614 64.3959C35.9428 64.4773 35.9428 64.5587 35.78 64.6809L35.4136 64.9251L35.2101 64.6401L35.5357 64.3959Z" fill="#7D7D7D"/>
<path d="M37.4897 63.9072L37.8153 63.7037L37.2453 63.378C37.4489 63.1745 37.4081 62.971 37.286 62.7675C37.1639 62.5232 36.9197 62.4011 36.5126 62.6453L35.8615 63.0117L36.6755 64.355L36.9604 64.1921L36.6755 63.7444L36.9604 63.5816L37.4897 63.9072ZM36.8384 63.2966L36.472 63.5408L36.2277 63.1338L36.5941 62.9303C36.757 62.8082 36.879 62.8082 36.9604 62.971C37.0418 63.1338 37.0012 63.2152 36.8384 63.2966Z" fill="#7D7D7D"/>
<path d="M37.7243 61.9888L37.3965 62.1523L38.105 63.573L38.4328 63.4095L37.7243 61.9888Z" fill="#7D7D7D"/>
<path d="M39.7283 62.8082L39.6469 62.564L38.9142 62.8896L38.4257 61.6685L38.1001 61.7906L38.7107 63.2967L39.7283 62.8082Z" fill="#7D7D7D"/>
<path d="M39.9318 61.4647L40.176 61.3426L40.583 62.5638L40.868 62.4823L40.4202 60.9355L39.8503 61.1391L39.9318 61.4647Z" fill="#7D7D7D"/>
<path d="M41.1123 61.9533C41.153 62.1976 41.3566 62.3604 41.8857 62.279C42.4149 62.1569 42.4963 61.9126 42.4556 61.6684C42.3742 61.4649 42.2928 61.3021 42.0893 61.3021C42.2521 61.2206 42.2521 61.0578 42.2114 60.9357C42.1707 60.7322 42.0078 60.5694 41.5194 60.6915C41.0309 60.8136 40.9495 61.0171 40.9902 61.2206C41.0309 61.3835 41.1123 61.4649 41.2752 61.5056C41.0716 61.5463 41.0716 61.7498 41.1123 61.9533ZM42.0893 61.6684C42.13 61.8312 42.0486 61.9533 41.7636 61.994C41.5194 62.0347 41.438 61.9533 41.3973 61.8312C41.3566 61.6684 41.438 61.5463 41.6822 61.5056C41.9264 61.4649 42.0486 61.4649 42.0893 61.6684ZM41.5601 60.8543C41.7636 60.8136 41.845 60.8543 41.8857 60.9764C41.9264 61.0985 41.8857 61.1799 41.6415 61.2206C41.438 61.2614 41.3566 61.2206 41.3159 61.0985C41.2752 60.9764 41.3159 60.9357 41.5601 60.8543Z" fill="#7D7D7D"/>
<path d="M43.0662 61.6683L42.9033 61.709L42.9441 61.994L43.1069 61.9533C43.8803 61.8312 44.0024 61.5869 43.921 60.9356C43.8803 60.4472 43.636 60.2437 43.1476 60.3251C42.6591 60.4065 42.537 60.61 42.5777 60.9763C42.6184 61.302 42.7812 61.4648 43.1883 61.4241C43.4325 61.3834 43.5953 61.3427 43.636 61.2206C43.636 61.3834 43.636 61.5869 43.0662 61.6683ZM43.2697 61.1799C43.0255 61.2206 42.9441 61.0985 42.9033 60.9356C42.9033 60.7728 42.9441 60.6507 43.1883 60.61C43.3918 60.5693 43.5139 60.6507 43.5546 60.8542C43.5953 61.0578 43.4732 61.1392 43.2697 61.1799Z" fill="#7D7D7D"/>
<path d="M44.6944 61.0579L44.2059 61.5463V61.7905L45.3864 61.7091V61.4242L44.6944 61.4649L45.02 61.18C45.2643 60.9764 45.3457 60.8136 45.3457 60.5694C45.305 60.2438 45.1014 60.1216 44.7351 60.1623C44.4502 60.1623 44.2873 60.2438 44.1245 60.3252L44.2873 60.5694C44.3687 60.5287 44.5316 60.4473 44.6944 60.4473C44.8979 60.4473 44.9793 60.488 44.9793 60.6101C44.9793 60.8136 44.9386 60.8543 44.6944 61.0579Z" fill="#7D7D7D"/>
<path d="M35.4543 11.0718L39.0364 8.5481L42.6184 11.0718L41.3159 6.83848L44.8572 4.27405L40.4611 4.15194L39.0364 0L37.6524 4.15194L33.2562 4.27405L36.7569 6.83848L35.4543 11.0718Z" fill="#7D7D7D"/>
<path d="M39.4842 90.2844C39.1992 90.1216 38.9957 90.3658 38.6294 90.9357C38.263 91.5462 38.1409 91.7905 38.3851 91.994C38.6701 92.1568 38.8736 91.9533 39.2399 91.3427C39.647 90.7728 39.7691 90.4472 39.4842 90.2844Z" fill="#7D7D7D"/>
<path d="M36.3905 88.8189C36.5127 88.6154 36.5127 88.4526 36.3498 88.3711L36.1463 88.249L35.7393 88.9003L35.9428 89.0224C36.1056 89.1445 36.2684 88.941 36.3905 88.8189Z" fill="#7D7D7D"/>
<path d="M52.062 90.5693L51.7363 91.7905H52.2655L52.1027 90.5693H52.062Z" fill="#7D7D7D"/>
<path d="M45.1421 88.7373L44.8571 88.6152L44.0837 90.3249L44.328 90.447C44.6536 90.6098 44.8164 90.3656 45.1014 89.755C45.3049 89.2665 45.5084 88.8595 45.1421 88.7373Z" fill="#7D7D7D"/>
<path d="M21.2888 87.9233H21.0038L20.9631 89.7958H21.2481C21.6144 89.7958 21.6551 89.5516 21.6958 88.8596C21.6958 88.3304 21.6958 87.9233 21.2888 87.9233Z" fill="#7D7D7D"/>
<path d="M18.5209 89.3476L19.05 89.2662L18.643 88.1265L18.5209 89.3476Z" fill="#7D7D7D"/>
<path d="M23.9347 88.0043C23.6091 87.9636 23.5277 88.2485 23.4463 88.9405C23.3648 89.6325 23.3648 89.9174 23.6498 89.9988C23.9754 90.0395 24.0568 89.7546 24.1382 89.0626C24.2604 88.3299 24.2604 88.0043 23.9347 88.0043Z" fill="#7D7D7D"/>
<path d="M27.6389 88.8187L27.354 88.7373L26.8248 90.569L27.1098 90.6505C27.4354 90.7319 27.5982 90.5283 27.761 89.8364C27.8832 89.3479 28.0053 88.9408 27.6389 88.8187Z" fill="#7D7D7D"/>
<path d="M30.2034 89.6331C29.9184 89.511 29.7556 89.7959 29.4707 90.4472C29.2264 91.0985 29.145 91.3834 29.43 91.5055C29.7149 91.6276 29.8777 91.3427 30.1219 90.6914C30.4069 90.0401 30.4883 89.7552 30.2034 89.6331Z" fill="#7D7D7D"/>
<path d="M62.0347 88.8188C61.7498 88.9409 61.8312 89.2259 62.0754 89.8772C62.3603 90.5285 62.5232 90.7727 62.8081 90.6506C63.093 90.5285 63.0116 90.2435 62.7674 89.5922C62.4825 88.9409 62.3196 88.656 62.0347 88.8188Z" fill="#7D7D7D"/>
<path d="M53.6903 88.127C50.149 88.127 46.8111 87.1094 44.0025 85.359L41.8451 88.819L35.6172 84.9927C35.6172 84.9927 34.4774 86.8244 33.4598 88.4933C29.837 86.4988 25.6851 85.359 21.2482 85.359C16.3636 85.359 11.8046 86.743 7.93762 89.1446C7.93762 89.1446 10.7056 93.6222 11.5197 94.9655C14.3283 93.2151 17.6662 92.1975 21.2075 92.1975C24.7896 92.1975 28.0867 93.2151 30.8954 94.9655L33.0528 91.4648L39.1993 95.2504C39.5656 94.6805 40.5425 93.1337 41.3973 91.7905C45.0201 93.785 49.2127 94.9248 53.6496 94.9248C58.5342 94.9248 63.0932 93.5815 66.9602 91.1799C67.0009 91.2206 64.0702 86.4988 63.3782 85.359C60.5695 87.1094 57.2317 88.127 53.6903 88.127ZM12.3745 92.2789L11.194 89.8366L12.5373 89.1853L12.7001 89.5517L11.886 89.9587L12.171 90.5693L12.9444 90.2029L13.1072 90.5693L12.3338 90.9356L12.7001 91.6683L13.5549 91.2613L13.7178 91.6276L12.3745 92.2789ZM14.9389 91.2613C14.2469 91.5055 14.0027 91.1392 13.8806 90.6914L14.4098 90.4879C14.4912 90.7321 14.5726 90.9356 14.8575 90.8542C15.0203 90.7728 15.1017 90.6507 15.0203 90.4879C14.8575 89.9994 13.7585 90.3658 13.5142 89.5924C13.3921 89.1853 13.4735 88.7783 14.1248 88.5747C14.654 88.4119 14.9796 88.534 15.1425 89.1039L14.6133 89.2667C14.5319 89.0632 14.4505 88.9004 14.2469 88.9818C14.0841 89.0225 14.0027 89.1853 14.0434 89.3481C14.2062 89.8366 15.3053 89.4296 15.5495 90.2437C15.7937 90.8542 15.346 91.0985 14.9389 91.2613ZM17.2184 90.6507L16.6485 90.7728L16.1601 88.534L15.5495 88.6561L15.4681 88.2084L17.2591 87.8013L17.3405 88.2491L16.73 88.3712L17.2184 90.6507ZM19.4572 90.2844L19.213 89.7145L18.4396 89.7959L18.3582 90.4065L17.7883 90.4879L18.1953 87.6792L18.928 87.5978L19.9864 90.2029L19.4572 90.2844ZM21.3296 90.2437H20.3934L20.4341 87.5164H21.3704C22.103 87.5164 22.2659 88.0456 22.2252 88.9004C22.2659 89.2667 22.3066 90.2437 21.3296 90.2437ZM24.7082 89.1446C24.6268 89.8366 24.5047 90.5286 23.5684 90.4065C22.6322 90.2844 22.7136 89.5924 22.8357 88.9004C22.9579 88.1677 23.0393 87.5164 23.9755 87.6385C24.9117 87.7606 24.8303 88.4119 24.7082 89.1446ZM28.2902 89.9587C28.1681 90.3658 27.9646 91.302 27.0284 91.0171L26.1329 90.7728L26.8656 88.127L27.8018 88.4119C28.5345 88.6154 28.5345 89.1446 28.2902 89.9587ZM30.6919 90.8949C30.4069 91.5462 30.1627 92.1975 29.3079 91.8719C28.4531 91.5055 28.6973 90.8542 28.9822 90.2029C29.2672 89.511 29.5114 88.9004 30.3662 89.2667C31.221 89.6331 30.9768 90.2437 30.6919 90.8949ZM36.2278 90.0808C36.1464 90.2437 35.8614 90.6914 35.8614 90.8135L35.4137 90.5286C35.4137 90.3251 35.5358 90.203 35.6579 90.0401C35.8207 89.7552 36.0242 89.5517 35.6172 89.3074L35.4951 89.226L34.8845 90.1622L34.396 89.8366L35.8614 87.5164L36.7569 88.0863C37.0826 88.2898 37.164 88.6154 36.9198 89.0225C36.7162 89.3074 36.472 89.4703 36.1464 89.3074C36.2278 89.4296 36.5127 89.6331 36.2278 90.0808ZM36.3499 91.0985L37.8153 88.7783L38.3037 89.1039L36.8383 91.4241L36.3499 91.0985ZM39.7691 91.6683C39.4028 92.2789 38.9957 92.8488 38.2223 92.3603C37.4082 91.8719 37.8153 91.2613 38.1816 90.6507C38.5887 90.0401 38.955 89.4703 39.7284 89.9587C40.5018 90.4472 40.1355 91.0578 39.7691 91.6683ZM44.2467 90.8542L43.3919 90.4879L44.5316 88.0049L45.3865 88.4119C46.0784 88.7376 45.997 89.226 45.6307 89.9994C45.4679 90.3658 45.1422 91.2613 44.2467 90.8542ZM47.9509 89.7552L47.0554 89.4703L46.8518 90.1215L47.6659 90.3658L47.5438 90.7728L46.7297 90.5286L46.4855 91.302L47.381 91.5869L47.2589 91.994L45.7935 91.5462L46.6076 88.9411L48.0323 89.3888L47.9509 89.7552ZM49.6605 92.5231C48.8871 92.401 48.8871 92.0754 48.9685 91.4648L49.5384 91.5462C49.4977 91.7498 49.4163 92.0754 49.7012 92.1161C49.8233 92.1568 49.9454 92.0347 49.9454 91.9126L50.2711 89.7959L50.841 89.8773L50.5153 91.9533C50.4746 92.4824 50.0676 92.6046 49.6605 92.5231ZM52.4692 92.8081L52.347 92.1975L51.5736 92.1568L51.3701 92.7674L50.8003 92.7267L51.7365 90.0401L52.5099 90.0808L53.039 92.8488L52.4692 92.8081ZM54.9929 92.8081L54.1381 90.8542L54.2195 92.8488H53.6903L53.5682 90.1215L54.3416 90.0808L55.1557 91.9533L55.0743 90.0808L55.6035 90.0401L55.7256 92.7674L54.9929 92.8081ZM56.5397 92.686L56.1326 89.9994L57.598 89.7552L57.6794 90.1622L56.7839 90.2844L56.906 90.9356L57.7608 90.8135L57.8423 91.2206L56.9874 91.3427L57.1096 92.1161L58.0458 91.9533L58.1272 92.3603L56.5397 92.686ZM58.5342 92.3196L57.9644 89.6331L58.5342 89.511L59.1041 92.1975L58.5342 92.3196ZM60.9359 91.6683C60.8137 91.5462 60.773 91.3427 60.7323 91.1799C60.6509 90.8542 60.5695 90.61 60.1625 90.7321L59.9996 90.7728L60.3253 91.8719L59.7961 92.0347L59.0227 89.4296L60.0403 89.1039C60.4067 88.9818 60.7323 89.1446 60.8544 89.5924C60.9359 89.918 60.8952 90.2029 60.5695 90.3658C60.6916 90.3251 61.058 90.2437 61.1801 90.7321C61.2208 90.8949 61.3836 91.3834 61.465 91.4648L60.9359 91.6683ZM62.9711 90.9763C62.1163 91.3427 61.8314 90.6914 61.5464 90.0401C61.2615 89.3888 60.9766 88.7376 61.8721 88.3712C62.7269 88.0049 63.0118 88.6154 63.2968 89.3074C63.541 90.0401 63.8259 90.6507 62.9711 90.9763Z" fill="#7D7D7D"/>
<path d="M59.9182 89.5518L59.674 89.6332L59.8774 90.3659L60.1217 90.2845C60.3252 90.203 60.3252 89.9995 60.2845 89.8367C60.2438 89.6332 60.081 89.5518 59.9182 89.5518Z" fill="#7D7D7D"/>
<path d="M96.797 49.0497C98.9137 49.0497 100.623 48.7648 101.967 48.1542C103.31 47.5436 104.45 46.6481 105.386 45.4676C106.322 44.2872 106.973 42.7811 107.421 40.9901L101.071 39.0769C100.745 40.5423 100.257 41.6821 99.5243 42.4555C98.8323 43.2288 97.7739 43.6359 96.39 43.6359C94.9653 43.6359 93.8662 43.1474 93.0521 42.1705C92.238 41.1936 91.8717 39.4433 91.8717 36.8381C91.8717 34.7215 92.1973 33.2154 92.8486 32.2384C93.7034 30.9359 94.9653 30.2439 96.6342 30.2439C97.3669 30.2439 98.0182 30.4067 98.5881 30.6916C99.1579 30.9766 99.6871 31.4243 100.094 31.9535C100.338 32.2791 100.583 32.8083 100.786 33.541L107.177 32.1163C106.363 29.6333 105.101 27.8016 103.391 26.6211C101.682 25.4407 99.3615 24.8301 96.4307 24.8301C92.6451 24.8301 89.755 25.8884 87.679 27.9644C85.6031 30.0403 84.5854 33.0118 84.5854 36.9195C84.5854 39.8096 85.1553 42.2112 86.3358 44.0837C87.5162 45.9561 88.9002 47.2587 90.5284 47.9914C92.1566 48.6834 94.2733 49.0497 96.797 49.0497Z" fill="#7D7D7D"/>
<path d="M115.562 47.6249C117.312 48.5611 119.592 49.0496 122.36 49.0496C124.639 49.0496 126.593 48.8053 128.221 48.2762C129.85 47.747 131.763 46.7701 133.92 45.3047V35.2912H122.726V40.1758H127.57V42.3739C126.634 42.9438 125.779 43.3508 125.046 43.5544C124.314 43.7986 123.54 43.9207 122.726 43.9207C121.017 43.9207 119.673 43.3915 118.737 42.2925C117.801 41.1935 117.312 39.4024 117.312 36.838C117.312 34.4364 117.801 32.6861 118.737 31.587C119.673 30.488 120.935 29.9181 122.523 29.9181C123.581 29.9181 124.477 30.1623 125.169 30.6101C125.861 31.0578 126.349 31.7498 126.634 32.6454L133.635 31.3835C133.228 29.8774 132.577 28.6155 131.722 27.6386C130.867 26.6617 129.809 25.929 128.506 25.4405C127.204 24.9521 125.291 24.7485 122.686 24.7485C119.999 24.7485 117.842 25.1149 116.254 25.8883C114.219 26.8652 112.672 28.2899 111.614 30.203C110.555 32.0755 110.026 34.3143 110.026 36.8787C110.026 39.321 110.515 41.4784 111.492 43.3508C112.469 45.264 113.812 46.6887 115.562 47.6249Z" fill="#7D7D7D"/>
<path d="M157.977 43.3508H145.481V38.7104H156.756V33.9479H145.481V30.203H157.611V25.1963H138.194V48.6425H157.977V43.3508Z" fill="#7D7D7D"/>
<path d="M181.505 41.845C181.342 41.5194 181.016 41.0309 180.487 40.3797C179.999 39.7691 179.592 39.3213 179.347 39.1585C178.94 38.8736 178.33 38.5886 177.475 38.3037C178.533 38.0595 179.388 37.7338 180.039 37.3675C181.016 36.7976 181.79 36.0242 182.319 35.088C182.889 34.1518 183.133 33.012 183.133 31.7094C183.133 30.2033 182.767 28.9415 182.034 27.9239C181.301 26.9062 180.365 26.1735 179.185 25.8072C178.004 25.4408 176.294 25.2373 174.056 25.2373H161.966V48.6835H169.252V39.1178H169.904C170.555 39.1178 171.166 39.2806 171.695 39.647C172.061 39.9319 172.509 40.5425 172.997 41.438L176.864 48.6021H185.046L181.505 41.845ZM175.399 33.6633C175.114 34.0703 174.707 34.3146 174.218 34.396C173.282 34.5995 172.631 34.7216 172.305 34.7216H169.252V29.9184H172.427C173.73 29.9184 174.666 30.1219 175.114 30.529C175.602 30.936 175.847 31.5059 175.847 32.2793C175.847 32.8085 175.684 33.2562 175.399 33.6633Z" fill="#7D7D7D"/>
<path d="M203.648 44.0428C204.137 42.6588 204.34 40.6236 204.34 37.937V25.1963H197.095V39.6467C197.095 41.0713 196.891 42.089 196.525 42.6995C196.159 43.3101 195.548 43.5951 194.734 43.5951C194.205 43.5951 193.838 43.5137 193.553 43.3101C193.146 42.9845 192.861 42.5774 192.699 42.089C192.536 41.6005 192.454 40.8271 192.414 39.7688L185.494 40.705C185.616 42.5367 186.023 44.0428 186.756 45.264C187.448 46.4851 188.465 47.4214 189.768 48.0726C191.07 48.7239 192.902 49.0496 195.263 49.0496C197.502 49.0496 199.334 48.5611 200.758 47.5842C202.224 46.6073 203.201 45.4268 203.648 44.0428Z" fill="#7D7D7D"/>
<path d="M94.3141 59.5923L93.5 59.3888C93.3779 59.9179 93.1744 60.2843 92.8487 60.5692C92.5231 60.8134 92.1567 60.9763 91.6683 60.9763C91.3019 60.9763 90.9356 60.8948 90.6099 60.6913C90.2843 60.4878 90.0401 60.2029 89.8772 59.7958C89.7144 59.3888 89.633 58.941 89.633 58.4118C89.633 58.0048 89.7144 57.5977 89.8365 57.2314C89.9586 56.865 90.2029 56.5394 90.5285 56.2951C90.8542 56.0509 91.2612 55.9695 91.709 55.9695C92.116 55.9695 92.4824 56.0916 92.7266 56.2951C93.0115 56.4987 93.2151 56.8243 93.3372 57.2721L94.1513 57.0686C93.9885 56.4987 93.7035 56.0509 93.2558 55.7253C92.8487 55.3996 92.3196 55.2368 91.709 55.2368C91.1798 55.2368 90.6506 55.3589 90.2029 55.6032C89.7551 55.8474 89.3888 56.2137 89.1445 56.7022C88.9003 57.1907 88.7782 57.7605 88.7782 58.3711C88.7782 58.9817 88.9003 59.5109 89.1038 60.04C89.3074 60.5692 89.633 60.9356 90.0401 61.2205C90.4471 61.5054 91.017 61.6275 91.6683 61.6275C92.3196 61.6275 92.8487 61.4647 93.2965 61.0984C93.8256 60.8134 94.1106 60.2843 94.3141 59.5923Z" fill="#7D7D7D"/>
<path d="M97.0413 56.9873C96.4715 56.9873 96.0237 57.1501 95.6167 57.4758C95.1689 57.8828 94.9247 58.4934 94.9247 59.3075C94.9247 60.0809 95.1282 60.6508 95.4946 61.0578C95.9016 61.4649 96.3901 61.6684 97.0006 61.6684C97.4077 61.6684 97.7333 61.587 98.0997 61.3835C98.4253 61.2207 98.6696 60.9357 98.8731 60.6101C99.0359 60.2844 99.1173 59.8367 99.1173 59.2668C99.1173 58.5748 98.9138 58.0049 98.5474 57.5979C98.1404 57.1908 97.6519 56.9873 97.0413 56.9873ZM97.9776 60.6101C97.7333 60.895 97.4077 61.0578 97.0413 61.0578C96.675 61.0578 96.3494 60.895 96.1051 60.6101C95.8609 60.3251 95.7388 59.8774 95.7388 59.3075C95.7388 58.7376 95.8609 58.2899 96.1051 58.0049C96.3494 57.72 96.675 57.5979 97.0413 57.5979C97.4077 57.5979 97.7333 57.7607 97.9776 58.0456C98.2218 58.3306 98.3439 58.7376 98.3439 59.3075C98.3439 59.8774 98.2218 60.3251 97.9776 60.6101Z" fill="#7D7D7D"/>
<path d="M101.967 57.6388C102.17 57.6388 102.333 57.6795 102.496 57.7609C102.659 57.8423 102.74 57.9644 102.821 58.1272C102.862 58.29 102.903 58.4936 102.903 58.8192V61.5465H103.676V58.7785C103.676 58.4122 103.676 58.1679 103.636 58.0458C103.595 57.8423 103.513 57.6388 103.391 57.4759C103.269 57.3131 103.106 57.191 102.903 57.1096C102.659 57.0282 102.414 56.9468 102.17 56.9468C101.56 56.9468 101.071 57.191 100.745 57.6795V57.0282H100.053V61.5058H100.827V59.0634C100.827 58.4936 100.949 58.0865 101.193 57.883C101.437 57.6795 101.641 57.6388 101.967 57.6388Z" fill="#7D7D7D"/>
<path d="M106.159 60.9356C106.037 60.9356 105.956 60.9356 105.915 60.8949C105.874 60.8542 105.793 60.8135 105.793 60.7321C105.793 60.6507 105.752 60.5285 105.752 60.325V57.7199H106.526V57.1093H105.752V55.5625L104.979 56.0103V57.1093H104.409V57.7199H104.979V60.2843C104.979 60.7321 105.02 61.0577 105.06 61.1798C105.142 61.3019 105.223 61.4241 105.386 61.5055C105.549 61.5869 105.752 61.6276 106.037 61.6276C106.2 61.6276 106.403 61.5869 106.607 61.5462L106.485 60.8949C106.363 60.8949 106.241 60.9356 106.159 60.9356Z" fill="#7D7D7D"/>
<path d="M109.66 57.2315C109.416 57.0687 109.131 56.9873 108.887 56.9873C108.724 56.9873 108.561 57.028 108.398 57.1501C108.235 57.2315 108.072 57.4758 107.91 57.7607V57.0687H107.218V61.5463H107.991V59.1854C107.991 58.8598 108.032 58.5748 108.113 58.2899C108.154 58.1271 108.276 57.9642 108.398 57.8828C108.52 57.8014 108.683 57.72 108.846 57.72C109.049 57.72 109.212 57.7607 109.416 57.8828L109.66 57.2315Z" fill="#7D7D7D"/>
<path d="M111.94 56.9873C111.37 56.9873 110.922 57.1501 110.515 57.4758C110.067 57.8828 109.823 58.4934 109.823 59.3075C109.823 60.0809 110.026 60.6508 110.393 61.0578C110.8 61.4649 111.288 61.6684 111.899 61.6684C112.306 61.6684 112.632 61.587 112.998 61.3835C113.324 61.2207 113.568 60.9357 113.771 60.6101C113.934 60.2844 114.016 59.8367 114.016 59.2668C114.016 58.5748 113.812 58.0049 113.446 57.5979C113.039 57.1908 112.55 56.9873 111.94 56.9873ZM112.876 60.6101C112.632 60.895 112.306 61.0578 111.94 61.0578C111.573 61.0578 111.248 60.895 111.003 60.6101C110.759 60.3251 110.637 59.8774 110.637 59.3075C110.637 58.7376 110.759 58.2899 111.003 58.0049C111.248 57.72 111.573 57.5979 111.94 57.5979C112.306 57.5979 112.632 57.7607 112.876 58.0456C113.12 58.3306 113.242 58.7376 113.242 59.3075C113.242 59.8774 113.12 60.3251 112.876 60.6101Z" fill="#7D7D7D"/>
<path d="M115.684 55.3999H114.911V61.5871H115.684V55.3999Z" fill="#7D7D7D"/>
<path d="M120.447 59.7149V58.6972C120.447 58.3716 120.447 58.1274 120.406 58.0052C120.365 57.8017 120.284 57.6389 120.162 57.4761C120.04 57.354 119.877 57.2318 119.633 57.1504C119.388 57.069 119.063 57.0283 118.696 57.0283C118.33 57.0283 117.964 57.069 117.679 57.1911C117.394 57.3133 117.15 57.4354 117.028 57.6389C116.865 57.8424 116.743 58.0867 116.702 58.4123L117.435 58.4937C117.516 58.1681 117.638 57.9645 117.801 57.8424C117.964 57.7203 118.249 57.6389 118.574 57.6389C118.941 57.6389 119.226 57.7203 119.429 57.8831C119.592 58.0052 119.633 58.2088 119.633 58.5344C119.633 58.5751 119.633 58.6158 119.633 58.7379C119.348 58.8194 118.9 58.9415 118.289 58.9822C118.005 59.0229 117.76 59.0636 117.597 59.1043C117.394 59.145 117.231 59.2264 117.068 59.3485C116.905 59.4706 116.783 59.5928 116.661 59.7963C116.58 59.9591 116.498 60.1626 116.498 60.4069C116.498 60.7732 116.621 61.0988 116.905 61.3431C117.19 61.5873 117.557 61.7094 118.045 61.7094C118.33 61.7094 118.615 61.6687 118.9 61.5466C119.144 61.4652 119.429 61.2617 119.714 61.0581C119.755 61.2617 119.796 61.4652 119.877 61.628H120.65C120.569 61.4652 120.488 61.2617 120.447 61.0988C120.488 60.8546 120.447 60.4069 120.447 59.7149ZM119.714 59.5928C119.714 59.9184 119.673 60.1626 119.592 60.3661C119.47 60.5697 119.307 60.7732 119.104 60.8953C118.859 61.0174 118.615 61.0988 118.33 61.0988C118.045 61.0988 117.801 61.0174 117.638 60.8953C117.475 60.7732 117.394 60.6104 117.394 60.4069C117.394 60.2847 117.435 60.1626 117.516 60.0405C117.597 59.9184 117.679 59.837 117.801 59.7963C117.923 59.7556 118.167 59.6742 118.452 59.6335C119.022 59.552 119.429 59.4706 119.673 59.3485V59.5928H119.714Z" fill="#7D7D7D"/>
<path d="M124.517 57.598C124.395 57.4352 124.232 57.2723 123.988 57.1502C123.744 57.0281 123.54 56.9874 123.255 56.9874C122.889 56.9874 122.563 57.0688 122.238 57.2723C121.953 57.4759 121.709 57.7608 121.586 58.1272C121.424 58.4935 121.383 58.9006 121.383 59.3483C121.383 59.7961 121.464 60.2031 121.627 60.5695C121.79 60.9358 122.034 61.18 122.319 61.3836C122.604 61.5871 122.93 61.6685 123.296 61.6685C123.866 61.6685 124.273 61.465 124.558 61.0172V61.5871H125.25V55.3999H124.477V57.598H124.517ZM124.232 60.6509C123.988 60.9358 123.703 61.0579 123.377 61.0579C123.052 61.0579 122.767 60.9358 122.523 60.6509C122.278 60.3659 122.156 59.9182 122.156 59.3483C122.156 58.7377 122.278 58.3307 122.482 58.0457C122.685 57.7608 122.97 57.6387 123.337 57.6387C123.703 57.6387 123.988 57.8015 124.192 58.0865C124.436 58.3714 124.558 58.8191 124.558 59.4297C124.558 59.9589 124.436 60.3659 124.232 60.6509Z" fill="#7D7D7D"/>
<path d="M129.361 61.3835C129.687 61.2207 129.931 60.9357 130.135 60.6101C130.298 60.2844 130.379 59.8367 130.379 59.2668C130.379 58.5748 130.175 58.0049 129.809 57.5979C129.402 57.1908 128.914 56.9873 128.303 56.9873C127.733 56.9873 127.285 57.1501 126.878 57.4758C126.431 57.8828 126.186 58.4934 126.186 59.3075C126.186 60.0809 126.39 60.6508 126.756 61.0578C127.163 61.4649 127.652 61.6684 128.262 61.6684C128.669 61.6684 129.036 61.587 129.361 61.3835ZM126.96 59.3482C126.96 58.7783 127.082 58.3306 127.326 58.0456C127.57 57.7607 127.896 57.6386 128.262 57.6386C128.629 57.6386 128.954 57.8014 129.198 58.0864C129.443 58.3713 129.565 58.7783 129.565 59.3482C129.565 59.9181 129.443 60.3658 129.198 60.6508C128.954 60.9357 128.629 61.0985 128.262 61.0985C127.896 61.0985 127.57 60.9357 127.326 60.6508C127.082 60.3251 126.96 59.9181 126.96 59.3482Z" fill="#7D7D7D"/>
<path d="M133.432 57.9235L133.676 57.2315C133.432 57.0687 133.147 56.9873 132.903 56.9873C132.74 56.9873 132.577 57.028 132.414 57.1501C132.251 57.2315 132.089 57.4758 131.926 57.7607V57.0687H131.234V61.5463H132.007V59.1854C132.007 58.8598 132.048 58.5748 132.129 58.2899C132.17 58.1271 132.292 57.9642 132.414 57.8828C132.536 57.8014 132.699 57.72 132.862 57.72C133.066 57.7607 133.228 57.8421 133.432 57.9235Z" fill="#7D7D7D"/>
<path d="M134.897 55.3999H134.124V56.2547H134.897V55.3999Z" fill="#7D7D7D"/>
<path d="M134.897 57.1094H134.124V61.587H134.897V57.1094Z" fill="#7D7D7D"/>
<path d="M138.968 61.0174C139.009 61.221 139.049 61.4245 139.131 61.5873H139.904C139.823 61.4245 139.741 61.221 139.701 61.0581C139.66 60.8546 139.66 60.4069 139.66 59.7149V58.6972C139.66 58.3716 139.66 58.1274 139.619 58.0052C139.578 57.8017 139.497 57.6389 139.375 57.4761C139.253 57.354 139.09 57.2318 138.846 57.1504C138.602 57.069 138.276 57.0283 137.91 57.0283C137.543 57.0283 137.177 57.069 136.892 57.1911C136.607 57.3133 136.363 57.4354 136.241 57.6389C136.078 57.8424 135.956 58.0867 135.915 58.4123L136.648 58.4937C136.729 58.1681 136.851 57.9645 137.014 57.8424C137.177 57.7203 137.462 57.6389 137.787 57.6389C138.154 57.6389 138.439 57.7203 138.642 57.8831C138.805 58.0052 138.846 58.2088 138.846 58.5344C138.846 58.5751 138.846 58.6158 138.846 58.7379C138.561 58.8194 138.113 58.9415 137.502 58.9822C137.218 59.0229 136.973 59.0636 136.81 59.1043C136.607 59.145 136.444 59.2264 136.281 59.3485C136.118 59.4706 135.996 59.5928 135.874 59.7963C135.793 59.9591 135.711 60.1626 135.711 60.4069C135.711 60.7732 135.834 61.0988 136.118 61.3431C136.403 61.5873 136.77 61.7094 137.258 61.7094C137.543 61.7094 137.828 61.6687 138.113 61.5466C138.439 61.4245 138.683 61.2617 138.968 61.0174ZM136.851 60.8953C136.688 60.7732 136.607 60.6104 136.607 60.4069C136.607 60.2847 136.648 60.1626 136.729 60.0405C136.81 59.9184 136.892 59.837 137.014 59.7963C137.136 59.7556 137.38 59.6742 137.665 59.6335C138.235 59.552 138.642 59.4706 138.886 59.3485V59.6335C138.886 59.9591 138.846 60.2033 138.764 60.4069C138.642 60.6104 138.479 60.8139 138.276 60.936C138.032 61.0581 137.787 61.1396 137.502 61.1396C137.218 61.0988 136.973 61.0174 136.851 60.8953Z" fill="#7D7D7D"/>
<path d="M146.254 59.1443H148.086V60.2841C147.923 60.4469 147.638 60.569 147.312 60.7319C146.987 60.854 146.62 60.9354 146.254 60.9354C145.847 60.9354 145.481 60.854 145.114 60.6504C144.748 60.4876 144.463 60.2027 144.3 59.8363C144.097 59.47 144.015 59.0222 144.015 58.4524C144.015 58.0046 144.097 57.5975 144.259 57.1905C144.341 56.987 144.463 56.7834 144.666 56.5799C144.87 56.3764 145.073 56.2543 145.318 56.1322C145.603 56.01 145.928 55.9693 146.295 55.9693C146.62 55.9693 146.905 56.01 147.149 56.1322C147.394 56.2543 147.597 56.3764 147.76 56.5799C147.882 56.7427 148.004 57.0277 148.126 57.3126L148.859 57.1091C148.737 56.702 148.615 56.3357 148.371 56.0914C148.167 55.8472 147.882 55.6437 147.516 55.4809C147.149 55.318 146.742 55.2773 146.295 55.2773C145.684 55.2773 145.114 55.3995 144.666 55.6437C144.178 55.8879 143.812 56.295 143.567 56.8241C143.323 57.3533 143.201 57.9232 143.201 58.4931C143.201 59.1036 143.323 59.6328 143.567 60.162C143.812 60.6504 144.178 61.0168 144.707 61.3017C145.196 61.546 145.765 61.7088 146.376 61.7088C146.824 61.7088 147.272 61.6274 147.679 61.4645C148.086 61.3017 148.533 61.0575 148.94 60.7319V58.4524H146.335V59.1443H146.254Z" fill="#7D7D7D"/>
<path d="M153.866 59.3075C153.866 58.5748 153.662 58.0049 153.296 57.5979C152.93 57.1908 152.441 56.9873 151.831 56.9873C151.22 56.9873 150.691 57.1908 150.325 57.5979C149.917 58.0049 149.755 58.6155 149.755 59.3482C149.755 60.0809 149.958 60.6508 150.325 61.0578C150.691 61.4649 151.22 61.6684 151.871 61.6684C152.4 61.6684 152.808 61.5463 153.174 61.3021C153.54 61.0578 153.744 60.6915 153.866 60.2437L153.092 60.1623C152.97 60.488 152.808 60.7322 152.604 60.8543C152.4 60.9764 152.156 61.0578 151.871 61.0578C151.505 61.0578 151.179 60.9357 150.935 60.6508C150.691 60.4065 150.528 59.9995 150.528 59.511H153.866C153.866 59.4296 153.866 59.3889 153.866 59.3075ZM150.569 58.9005C150.609 58.4934 150.732 58.2085 150.976 57.9642C151.22 57.72 151.505 57.5979 151.871 57.5979C152.238 57.5979 152.563 57.7607 152.808 58.0456C152.97 58.2492 153.052 58.5341 153.092 58.9005H150.569Z" fill="#7D7D7D"/>
<path d="M155.942 57.1503C155.779 57.2317 155.616 57.4759 155.453 57.7609V57.0689H154.761V61.5465H155.535V59.1856C155.535 58.8599 155.575 58.575 155.657 58.2901C155.698 58.1272 155.82 57.9644 155.942 57.883C156.064 57.8016 156.227 57.7202 156.39 57.7202C156.593 57.7202 156.756 57.7609 156.959 57.883L157.204 57.191C156.959 57.0282 156.674 56.9468 156.43 56.9468C156.267 56.9875 156.105 57.0282 155.942 57.1503Z" fill="#7D7D7D"/>
<path d="M161.315 59.7149V58.6972C161.315 58.3716 161.315 58.1274 161.274 58.0052C161.233 57.8017 161.152 57.6389 161.03 57.4761C160.908 57.354 160.745 57.2318 160.501 57.1504C160.257 57.069 159.931 57.0283 159.565 57.0283C159.198 57.0283 158.832 57.069 158.547 57.1911C158.262 57.3133 158.018 57.4354 157.896 57.6389C157.733 57.8424 157.611 58.0867 157.57 58.4123L158.303 58.4937C158.384 58.1681 158.506 57.9645 158.669 57.8424C158.832 57.7203 159.117 57.6389 159.442 57.6389C159.809 57.6389 160.094 57.7203 160.297 57.8831C160.46 58.0052 160.501 58.2088 160.501 58.5344C160.501 58.5751 160.501 58.6158 160.501 58.7379C160.216 58.8194 159.768 58.9415 159.157 58.9822C158.873 59.0229 158.628 59.0636 158.465 59.1043C158.262 59.145 158.099 59.2264 157.936 59.3485C157.774 59.4706 157.651 59.5928 157.529 59.7963C157.448 59.9591 157.366 60.1626 157.366 60.4069C157.366 60.7732 157.489 61.0988 157.774 61.3431C158.058 61.5873 158.425 61.7094 158.913 61.7094C159.198 61.7094 159.483 61.6687 159.768 61.5466C160.012 61.4652 160.297 61.2617 160.582 61.0581C160.623 61.2617 160.664 61.4652 160.745 61.628H161.518C161.437 61.4652 161.356 61.2617 161.315 61.0988C161.315 60.8546 161.315 60.4069 161.315 59.7149ZM160.541 59.5928C160.541 59.9184 160.501 60.1626 160.419 60.3661C160.297 60.5697 160.134 60.7732 159.931 60.8953C159.687 61.0174 159.442 61.0988 159.157 61.0988C158.873 61.0988 158.628 61.0174 158.465 60.8953C158.303 60.7732 158.221 60.6104 158.221 60.4069C158.221 60.2847 158.262 60.1626 158.343 60.0405C158.425 59.9184 158.506 59.837 158.628 59.7963C158.75 59.7556 158.995 59.6742 159.28 59.6335C159.849 59.552 160.257 59.4706 160.501 59.3485V59.5928H160.541Z" fill="#7D7D7D"/>
<path d="M163.228 55.3999H162.455V61.5871H163.228V55.3999Z" fill="#7D7D7D"/>
<path d="M169.659 57.598C169.537 57.4352 169.375 57.2723 169.13 57.1502C168.886 57.0281 168.683 56.9874 168.398 56.9874C168.031 56.9874 167.706 57.0688 167.38 57.2723C167.095 57.4759 166.851 57.7608 166.729 58.1272C166.566 58.4935 166.525 58.9006 166.525 59.3483C166.525 59.7961 166.607 60.2031 166.769 60.5695C166.932 60.9358 167.176 61.18 167.461 61.3836C167.746 61.5871 168.072 61.6685 168.438 61.6685C169.008 61.6685 169.415 61.465 169.7 61.0172V61.5871H170.392V55.3999H169.619V57.598H169.659ZM169.375 60.6509C169.13 60.9358 168.845 61.0579 168.52 61.0579C168.194 61.0579 167.909 60.9358 167.665 60.6509C167.421 60.3659 167.299 59.9182 167.299 59.3483C167.299 58.7377 167.421 58.3307 167.624 58.0457C167.828 57.7608 168.113 57.6387 168.479 57.6387C168.845 57.6387 169.13 57.8015 169.334 58.0865C169.578 58.3714 169.7 58.8191 169.7 59.4297C169.741 59.9589 169.619 60.3659 169.375 60.6509Z" fill="#7D7D7D"/>
<path d="M173.445 56.9873C172.875 56.9873 172.427 57.1501 172.02 57.4758C171.573 57.8828 171.328 58.4934 171.328 59.3075C171.328 60.0809 171.532 60.6508 171.898 61.0578C172.305 61.4649 172.794 61.6684 173.404 61.6684C173.811 61.6684 174.137 61.587 174.503 61.3835C174.829 61.2207 175.073 60.9357 175.277 60.6101C175.44 60.2844 175.521 59.8367 175.521 59.2668C175.521 58.5748 175.317 58.0049 174.951 57.5979C174.544 57.1908 174.056 56.9873 173.445 56.9873ZM174.381 60.6101C174.137 60.895 173.811 61.0578 173.445 61.0578C173.079 61.0578 172.753 60.895 172.509 60.6101C172.265 60.3251 172.142 59.8774 172.142 59.3075C172.142 58.7376 172.265 58.2899 172.509 58.0049C172.753 57.72 173.079 57.5979 173.445 57.5979C173.811 57.5979 174.137 57.7607 174.381 58.0456C174.625 58.3306 174.748 58.7376 174.748 59.3075C174.748 59.8774 174.625 60.3251 174.381 60.6101Z" fill="#7D7D7D"/>
<path d="M179.754 58.7377H183.174V58.005H179.754V56.1326H183.418V55.3999H178.94V61.5871H183.54V60.8544H179.754V58.7377Z" fill="#7D7D7D"/>
<path d="M187.325 59.2261C187.122 59.1447 186.756 59.0226 186.186 58.8597C185.819 58.7783 185.575 58.6969 185.534 58.6562C185.412 58.6155 185.29 58.5341 185.25 58.4527C185.168 58.3713 185.168 58.2899 185.168 58.1678C185.168 58.0049 185.25 57.8828 185.372 57.7607C185.534 57.6386 185.779 57.5979 186.104 57.5979C186.389 57.5979 186.633 57.6793 186.796 57.8014C186.959 57.9235 187.041 58.1271 187.081 58.3306L187.814 58.2492C187.773 57.9642 187.692 57.72 187.57 57.5572C187.448 57.3944 187.244 57.2315 187 57.1501C186.756 57.0687 186.43 56.9873 186.064 56.9873C185.819 56.9873 185.616 57.028 185.412 57.0687C185.209 57.1094 185.046 57.1908 184.924 57.2722C184.761 57.3944 184.639 57.5165 184.558 57.6793C184.476 57.8421 184.435 58.0456 184.435 58.2492C184.435 58.4527 184.476 58.6562 184.598 58.8597C184.72 59.0226 184.883 59.1854 185.087 59.2668C185.29 59.3889 185.697 59.511 186.226 59.6331C186.633 59.7553 186.918 59.8367 187 59.8774C187.163 59.9588 187.203 60.1216 187.203 60.2844C187.203 60.488 187.122 60.6508 186.959 60.7729C186.796 60.895 186.511 60.9764 186.186 60.9764C185.819 60.9764 185.575 60.895 185.372 60.7322C185.168 60.5694 185.046 60.3251 185.005 60.0402L184.273 60.1623C184.354 60.6508 184.558 60.9764 184.842 61.2207C185.127 61.4649 185.575 61.587 186.186 61.587C186.552 61.587 186.837 61.5056 187.122 61.3835C187.407 61.2614 187.61 61.0985 187.773 60.8543C187.936 60.6508 187.977 60.4066 187.977 60.1216C187.977 59.8774 187.936 59.6331 187.814 59.4703C187.692 59.3075 187.529 59.3075 187.325 59.2261Z" fill="#7D7D7D"/>
<path d="M190.256 60.9356C190.134 60.9356 190.053 60.9356 190.012 60.8949C189.971 60.8542 189.89 60.8135 189.89 60.7321C189.89 60.6507 189.849 60.5285 189.849 60.325V57.7199H190.623V57.1093H189.849V55.5625L189.076 56.0103V57.1093H188.506V57.7199H189.076V60.2843C189.076 60.7321 189.117 61.0577 189.157 61.1798C189.239 61.3019 189.32 61.4241 189.483 61.5055C189.646 61.5869 189.849 61.6276 190.134 61.6276C190.297 61.6276 190.501 61.5869 190.704 61.5462L190.582 60.8949C190.419 60.8949 190.338 60.9356 190.256 60.9356Z" fill="#7D7D7D"/>
<path d="M194.938 59.7149V58.6972C194.938 58.3716 194.938 58.1274 194.897 58.0052C194.856 57.8017 194.775 57.6389 194.653 57.4761C194.53 57.354 194.368 57.2318 194.123 57.1504C193.879 57.069 193.554 57.0283 193.187 57.0283C192.821 57.0283 192.455 57.069 192.17 57.1911C191.885 57.3133 191.64 57.4354 191.518 57.6389C191.355 57.8424 191.233 58.0867 191.193 58.4123L191.925 58.4937C192.007 58.1681 192.129 57.9645 192.292 57.8424C192.455 57.7203 192.739 57.6389 193.065 57.6389C193.431 57.6389 193.716 57.7203 193.92 57.8831C194.083 58.0052 194.123 58.2088 194.123 58.5344C194.123 58.5751 194.123 58.6158 194.123 58.7379C193.838 58.8194 193.391 58.9415 192.78 58.9822C192.495 59.0229 192.251 59.0636 192.088 59.1043C191.885 59.145 191.722 59.2264 191.559 59.3485C191.396 59.4706 191.274 59.5928 191.152 59.7963C191.071 59.9591 190.989 60.1626 190.989 60.4069C190.989 60.7732 191.111 61.0988 191.396 61.3431C191.681 61.5873 192.047 61.7094 192.536 61.7094C192.821 61.7094 193.106 61.6687 193.391 61.5466C193.635 61.4652 193.92 61.2617 194.205 61.0581C194.246 61.2617 194.286 61.4652 194.368 61.628H195.141C195.06 61.4652 194.978 61.2617 194.938 61.0988C194.978 60.8546 194.938 60.4069 194.938 59.7149ZM194.164 59.5928C194.164 59.9184 194.123 60.1626 194.042 60.3661C193.92 60.5697 193.757 60.7732 193.554 60.8953C193.309 61.0174 193.065 61.0988 192.78 61.0988C192.495 61.0988 192.251 61.0174 192.088 60.8953C191.925 60.7732 191.844 60.6104 191.844 60.4069C191.844 60.2847 191.885 60.1626 191.966 60.0405C192.047 59.9184 192.129 59.837 192.251 59.7963C192.373 59.7556 192.617 59.6742 192.902 59.6335C193.472 59.552 193.879 59.4706 194.123 59.3485V59.5928H194.164Z" fill="#7D7D7D"/>
<path d="M198.967 57.598C198.845 57.4352 198.682 57.2723 198.438 57.1502C198.194 57.0281 197.99 56.9874 197.705 56.9874C197.339 56.9874 197.013 57.0688 196.688 57.2723C196.403 57.4759 196.159 57.7608 196.036 58.1272C195.874 58.4935 195.833 58.9006 195.833 59.3483C195.833 59.7961 195.914 60.2031 196.077 60.5695C196.24 60.9358 196.484 61.18 196.769 61.3836C197.054 61.5871 197.38 61.6685 197.746 61.6685C198.316 61.6685 198.723 61.465 199.008 61.0172V61.5871H199.7V55.3999H198.926V57.598H198.967ZM198.682 60.6509C198.438 60.9358 198.153 61.0579 197.827 61.0579C197.502 61.0579 197.217 60.9358 196.973 60.6509C196.728 60.3659 196.606 59.9182 196.606 59.3483C196.606 58.7377 196.728 58.3307 196.932 58.0457C197.135 57.7608 197.42 57.6387 197.787 57.6387C198.153 57.6387 198.438 57.8015 198.642 58.0865C198.886 58.3714 199.008 58.8191 199.008 59.4297C199.049 59.9589 198.926 60.3659 198.682 60.6509Z" fill="#7D7D7D"/>
<path d="M204.259 57.5979C203.852 57.1908 203.363 56.9873 202.753 56.9873C202.183 56.9873 201.735 57.1501 201.328 57.4758C200.88 57.8828 200.636 58.4934 200.636 59.3075C200.636 60.0809 200.84 60.6508 201.206 61.0578C201.613 61.4649 202.102 61.6684 202.712 61.6684C203.119 61.6684 203.445 61.587 203.811 61.3835C204.137 61.2207 204.381 60.9357 204.585 60.6101C204.747 60.2844 204.829 59.8367 204.829 59.2668C204.829 58.5748 204.666 58.0049 204.259 57.5979ZM203.689 60.6101C203.445 60.895 203.119 61.0578 202.753 61.0578C202.387 61.0578 202.061 60.895 201.817 60.6101C201.572 60.3251 201.45 59.8774 201.45 59.3075C201.45 58.7376 201.572 58.2899 201.817 58.0049C202.061 57.72 202.387 57.5979 202.753 57.5979C203.119 57.5979 203.445 57.7607 203.689 58.0456C203.933 58.3306 204.055 58.7376 204.055 59.3075C204.055 59.8774 203.933 60.3251 203.689 60.6101Z" fill="#7D7D7D"/>
<path d="M91.831 67.9779C91.7088 67.815 91.546 67.6522 91.3018 67.5301C91.0576 67.408 90.854 67.3673 90.5691 67.3673C90.2028 67.3673 89.8771 67.4487 89.5515 67.6522C89.2665 67.8558 89.0223 68.1407 88.9002 68.507C88.7374 68.8734 88.6967 69.2804 88.6967 69.7282C88.6967 70.176 88.7781 70.583 88.9409 70.9494C89.1037 71.3157 89.3479 71.5599 89.6329 71.7635C89.9178 71.967 90.2435 72.0484 90.6098 72.0484C91.1797 72.0484 91.5867 71.8449 91.8717 71.3971V71.967H92.5637V65.7798H91.7903V67.9779H91.831ZM91.546 71.0308C91.3018 71.3157 91.0169 71.4378 90.6912 71.4378C90.3656 71.4378 90.0806 71.3157 89.8364 71.0308C89.5922 70.7458 89.4701 70.2981 89.4701 69.7282C89.4701 69.1176 89.5922 68.7106 89.7957 68.4256C89.9992 68.1407 90.2842 68.0186 90.6505 68.0186C91.0169 68.0186 91.3018 68.1814 91.5053 68.4663C91.7496 68.7513 91.8717 69.199 91.8717 69.8096C91.8717 70.3388 91.7495 70.7458 91.546 71.0308Z" fill="#7D7D7D"/>
<path d="M95.576 67.3672C95.0061 67.3672 94.5584 67.53 94.1513 67.8557C93.7036 68.2627 93.4594 68.8733 93.4594 69.6874C93.4594 70.4608 93.6629 71.0307 94.0292 71.4377C94.4363 71.8448 94.9247 72.0483 95.5353 72.0483C95.9424 72.0483 96.268 71.9669 96.6344 71.7634C96.96 71.6005 97.2042 71.3156 97.4078 70.99C97.5706 70.6643 97.652 70.2166 97.652 69.6467C97.652 68.9547 97.4485 68.3848 97.0821 67.9778C96.7158 67.5707 96.2273 67.3672 95.576 67.3672ZM96.553 70.99C96.3087 71.2749 95.9831 71.4377 95.6167 71.4377C95.2504 71.4377 94.9247 71.2749 94.6805 70.99C94.4363 70.705 94.3142 70.2573 94.3142 69.6874C94.3142 69.1175 94.4363 68.6698 94.6805 68.3848C94.9247 68.0999 95.2504 67.9778 95.6167 67.9778C95.9831 67.9778 96.3087 68.1406 96.553 68.4255C96.7972 68.7105 96.9193 69.1175 96.9193 69.6874C96.9193 70.2573 96.7972 70.705 96.553 70.99Z" fill="#7D7D7D"/>
<path d="M104.775 69.4433C104.653 69.3618 104.49 69.2397 104.287 69.1176C104.897 69.0362 105.304 68.8327 105.589 68.5477C105.874 68.2628 105.996 67.8965 105.996 67.4487C105.996 67.1231 105.915 66.7974 105.752 66.5125C105.589 66.2275 105.345 66.024 105.06 65.9426C104.775 65.8205 104.368 65.7798 103.798 65.7798H101.071V71.967H101.885V69.199H102.821C103.025 69.199 103.188 69.199 103.269 69.2397C103.391 69.2804 103.513 69.3211 103.635 69.4025C103.758 69.484 103.88 69.6061 104.043 69.8096C104.205 70.0131 104.409 70.2981 104.653 70.6644L105.467 71.967H106.485L105.427 70.2981C105.264 69.9317 105.019 69.6468 104.775 69.4433ZM103.676 68.507H101.926V66.4718H103.88C104.327 66.4718 104.694 66.5532 104.897 66.7567C105.101 66.9602 105.223 67.2045 105.223 67.4894C105.223 67.6929 105.182 67.8558 105.06 68.0593C104.938 68.2221 104.775 68.3442 104.572 68.4256C104.327 68.4663 104.043 68.507 103.676 68.507Z" fill="#7D7D7D"/>
<path d="M107.991 67.4893H107.218V71.9668H107.991V67.4893Z" fill="#7D7D7D"/>
<path d="M107.991 65.7798H107.218V66.6346H107.991V65.7798Z" fill="#7D7D7D"/>
<path d="M110.963 67.3672C110.393 67.3672 109.945 67.53 109.538 67.8557C109.09 68.2627 108.846 68.8733 108.846 69.6874C108.846 70.4608 109.049 71.0307 109.416 71.4377C109.823 71.8448 110.311 72.0483 110.922 72.0483C111.329 72.0483 111.654 71.9669 112.021 71.7634C112.346 71.6005 112.591 71.3156 112.794 70.99C112.957 70.6643 113.038 70.2166 113.038 69.6467C113.038 68.9547 112.835 68.3848 112.469 67.9778C112.102 67.5707 111.573 67.3672 110.963 67.3672ZM111.899 70.99C111.654 71.2749 111.329 71.4377 110.963 71.4377C110.596 71.4377 110.271 71.2749 110.026 70.99C109.782 70.705 109.66 70.2573 109.66 69.6874C109.66 69.1175 109.782 68.6698 110.026 68.3848C110.271 68.0999 110.596 67.9778 110.963 67.9778C111.329 67.9778 111.654 68.1406 111.899 68.4255C112.143 68.7105 112.265 69.1175 112.265 69.6874C112.265 70.2573 112.143 70.705 111.899 70.99Z" fill="#7D7D7D"/>
<path d="M119.226 67.9779C119.104 67.815 118.941 67.6522 118.697 67.5301C118.452 67.408 118.249 67.3673 117.964 67.3673C117.598 67.3673 117.272 67.4487 116.946 67.6522C116.661 67.8558 116.417 68.1407 116.295 68.507C116.132 68.8734 116.091 69.2804 116.091 69.7282C116.091 70.176 116.173 70.583 116.336 70.9494C116.498 71.3157 116.743 71.5599 117.028 71.7635C117.313 71.967 117.638 72.0484 118.005 72.0484C118.574 72.0484 118.981 71.8449 119.266 71.3971V71.967H119.958V65.7798H119.185V67.9779H119.226ZM118.941 71.0308C118.697 71.3157 118.412 71.4378 118.086 71.4378C117.76 71.4378 117.475 71.3157 117.231 71.0308C116.987 70.7458 116.865 70.2981 116.865 69.7282C116.865 69.1176 116.987 68.7106 117.19 68.4256C117.394 68.1407 117.679 68.0186 118.045 68.0186C118.412 68.0186 118.697 68.1814 118.9 68.4663C119.144 68.7513 119.266 69.199 119.266 69.8096C119.266 70.3388 119.144 70.7458 118.941 71.0308Z" fill="#7D7D7D"/>
<path d="M123.011 67.3672C122.401 67.3672 121.871 67.5707 121.505 67.9778C121.098 68.3848 120.935 68.9954 120.935 69.7281C120.935 70.4608 121.139 71.0307 121.505 71.4377C121.871 71.8448 122.401 72.0483 123.052 72.0483C123.581 72.0483 123.988 71.9262 124.354 71.6819C124.721 71.4377 124.924 71.0714 125.046 70.6236L124.273 70.5422C124.151 70.8678 123.988 71.1121 123.785 71.2342C123.581 71.3563 123.337 71.4377 123.052 71.4377C122.685 71.4377 122.36 71.3156 122.116 71.0307C121.871 70.7864 121.709 70.3794 121.709 69.8909H125.046C125.046 69.8095 125.046 69.7281 125.046 69.6874C125.046 68.9547 124.843 68.3848 124.477 67.9778C124.11 67.5707 123.622 67.3672 123.011 67.3672ZM121.749 69.2803C121.79 68.8733 121.912 68.5883 122.156 68.3441C122.401 68.0999 122.685 67.9778 123.052 67.9778C123.418 67.9778 123.744 68.1406 123.988 68.4255C124.151 68.6291 124.232 68.914 124.273 69.2803H121.749Z" fill="#7D7D7D"/>
<path d="M130.623 70.013C130.623 70.3793 130.583 70.6236 130.542 70.7864C130.501 70.9492 130.379 71.0713 130.216 71.1527C130.053 71.2342 129.891 71.2749 129.687 71.2749C129.402 71.2749 129.199 71.1934 129.036 71.0306C128.873 70.8678 128.791 70.5422 128.751 70.0537L128.018 70.1351C128.018 70.7457 128.14 71.2342 128.425 71.5191C128.71 71.8447 129.117 72.0076 129.687 72.0076C130.053 72.0076 130.379 71.9261 130.623 71.804C130.908 71.6412 131.112 71.4377 131.234 71.1527C131.356 70.8678 131.437 70.4608 131.437 69.9316V65.6982H130.623V70.013Z" fill="#7D7D7D"/>
<path d="M136.322 70.0943V69.0766C136.322 68.751 136.322 68.5068 136.281 68.3846C136.241 68.1811 136.159 68.0183 136.037 67.8555C135.915 67.7334 135.752 67.6112 135.508 67.5298C135.264 67.4484 134.938 67.4077 134.572 67.4077C134.205 67.4077 133.839 67.4484 133.554 67.5705C133.269 67.6926 133.025 67.8148 132.903 68.0183C132.74 68.2218 132.618 68.466 132.577 68.7917L133.31 68.8731C133.391 68.5475 133.513 68.3439 133.676 68.2218C133.839 68.0997 134.124 68.0183 134.449 68.0183C134.816 68.0183 135.101 68.0997 135.304 68.2625C135.467 68.3846 135.508 68.5882 135.508 68.9138C135.508 68.9545 135.508 68.9952 135.508 69.1173C135.223 69.1987 134.775 69.3209 134.165 69.3616C133.88 69.4023 133.635 69.443 133.473 69.4837C133.269 69.5244 133.106 69.6058 132.943 69.7279C132.781 69.85 132.658 69.9721 132.536 70.1757C132.455 70.3385 132.374 70.542 132.374 70.7863C132.374 71.1526 132.496 71.4782 132.781 71.7225C133.066 71.9667 133.432 72.0888 133.92 72.0888C134.205 72.0888 134.49 72.0481 134.775 71.926C135.019 71.8446 135.304 71.6411 135.589 71.4375C135.63 71.6411 135.671 71.8446 135.752 72.0074H136.525C136.444 71.8446 136.363 71.6411 136.322 71.4782C136.322 71.234 136.322 70.7863 136.322 70.0943ZM135.549 69.9721C135.549 70.2978 135.508 70.542 135.426 70.7455C135.304 70.9491 135.141 71.1526 134.938 71.2747C134.694 71.3968 134.45 71.4782 134.165 71.4782C133.88 71.4782 133.635 71.3968 133.473 71.2747C133.31 71.1526 133.228 70.9898 133.228 70.7863C133.228 70.6641 133.269 70.542 133.35 70.4199C133.432 70.2978 133.513 70.2164 133.635 70.1757C133.758 70.135 134.002 70.0536 134.287 70.0128C134.857 69.9314 135.264 69.85 135.508 69.7279V69.9721H135.549Z" fill="#7D7D7D"/>
<path d="M140.881 67.8964C140.759 67.7335 140.596 67.6114 140.392 67.53C140.148 67.4486 139.904 67.3672 139.66 67.3672C139.049 67.3672 138.561 67.6114 138.235 68.0999V67.4486H137.543V71.9262H138.316V69.4839C138.316 68.914 138.439 68.5069 138.683 68.3034C138.927 68.0999 139.212 67.9778 139.538 67.9778C139.741 67.9778 139.904 68.0185 140.067 68.0999C140.23 68.1813 140.311 68.3034 140.392 68.4662C140.433 68.6291 140.474 68.8326 140.474 69.1582V71.8855H141.247V69.1175C141.247 68.7512 141.247 68.5069 141.207 68.3848C141.044 68.222 140.962 68.0592 140.881 67.8964Z" fill="#7D7D7D"/>
<path d="M144.137 67.3672C143.527 67.3672 142.997 67.5707 142.631 67.9778C142.224 68.3848 142.061 68.9954 142.061 69.7281C142.061 70.4608 142.265 71.0307 142.631 71.4377C142.997 71.8448 143.527 72.0483 144.178 72.0483C144.707 72.0483 145.114 71.9262 145.481 71.6819C145.847 71.4377 146.05 71.0714 146.173 70.6236L145.399 70.5422C145.277 70.8678 145.114 71.1121 144.911 71.2342C144.707 71.3563 144.463 71.4377 144.178 71.4377C143.812 71.4377 143.486 71.3156 143.242 71.0307C142.997 70.7864 142.835 70.3794 142.835 69.8909H146.173C146.173 69.8095 146.173 69.7281 146.173 69.6874C146.173 68.9547 145.969 68.3848 145.603 67.9778C145.236 67.5707 144.748 67.3672 144.137 67.3672ZM142.875 69.2803C142.916 68.8733 143.038 68.5883 143.282 68.3441C143.527 68.0999 143.812 67.9778 144.178 67.9778C144.544 67.9778 144.87 68.1406 145.114 68.4255C145.277 68.6291 145.358 68.914 145.399 69.2803H142.875Z" fill="#7D7D7D"/>
<path d="M147.882 67.4893H147.109V71.9668H147.882V67.4893Z" fill="#7D7D7D"/>
<path d="M147.882 65.7798H147.109V66.6346H147.882V65.7798Z" fill="#7D7D7D"/>
<path d="M150.202 67.5302C150.04 67.6116 149.877 67.8558 149.714 68.1408V67.4488H149.022V71.9264H149.795V69.5654C149.795 69.2398 149.836 68.9549 149.917 68.6699C149.958 68.5071 150.08 68.3443 150.202 68.2629C150.325 68.1815 150.487 68.1001 150.65 68.1001C150.854 68.1001 151.017 68.1408 151.22 68.2629L151.464 67.5709C151.22 67.4081 150.935 67.3267 150.691 67.3267C150.528 67.3674 150.365 67.4081 150.202 67.5302Z" fill="#7D7D7D"/>
<path d="M153.744 67.3672C153.174 67.3672 152.726 67.53 152.319 67.8557C151.871 68.2627 151.627 68.8733 151.627 69.6874C151.627 70.4608 151.831 71.0307 152.197 71.4377C152.604 71.8448 153.093 72.0483 153.703 72.0483C154.11 72.0483 154.436 71.9669 154.802 71.7634C155.128 71.6005 155.372 71.3156 155.576 70.99C155.738 70.6643 155.82 70.2166 155.82 69.6467C155.82 68.9547 155.616 68.3848 155.25 67.9778C154.843 67.5707 154.354 67.3672 153.744 67.3672ZM154.68 70.99C154.436 71.2749 154.11 71.4377 153.744 71.4377C153.378 71.4377 153.052 71.2749 152.808 70.99C152.563 70.705 152.441 70.2573 152.441 69.6874C152.441 69.1175 152.563 68.6698 152.808 68.3848C153.052 68.0999 153.378 67.9778 153.744 67.9778C154.11 67.9778 154.436 68.1406 154.68 68.4255C154.924 68.7105 155.046 69.1175 155.046 69.6874C155.046 70.2573 154.924 70.705 154.68 70.99Z" fill="#7D7D7D"/>
</svg>
