<svg width="205" height="35" viewBox="0 0 205 35" fill="none" xmlns="http://www.w3.org/2000/svg">
<path fill-rule="evenodd" clip-rule="evenodd" d="M1.70985 9.94075C0.569951 12.0947 0 14.5544 0 17.3199C0 20.112 0.569951 22.5983 1.70985 24.7788C2.87627 26.9327 4.51985 28.6212 6.64059 29.8444C8.76134 31.041 11.2002 31.6393 13.9572 31.6393C17.4564 31.6393 20.399 30.7086 22.7848 28.8472C25.1706 26.9593 26.7082 24.4065 27.3974 21.1889H19.0072C18.5035 22.2526 17.801 23.0636 16.8997 23.622C16.0249 24.1805 15.0043 24.4597 13.8379 24.4597C12.0352 24.4597 10.5905 23.8215 9.5036 22.5451C8.44323 21.2421 7.91304 19.5004 7.91304 17.3199C7.91304 15.166 8.44323 13.4508 9.5036 12.1744C10.5905 10.8715 12.0352 10.22 13.8379 10.22C15.0043 10.22 16.0249 10.4992 16.8997 11.0576C17.801 11.616 18.5035 12.4271 19.0072 13.4907H27.3974C26.7082 10.2731 25.1706 7.73367 22.7848 5.87227C20.399 3.98428 17.4564 3.04028 13.9572 3.04028C11.2002 3.04028 8.76134 3.65189 6.64059 4.87509C4.51985 6.0717 2.87627 7.76026 1.70985 9.94075ZM72.1124 21.1156L77.9147 31.6394H85.585L79.1468 20.5993C81.1869 19.9904 82.7236 18.9579 83.7569 17.5018C84.8167 16.0457 85.3465 14.391 85.3465 12.5377C85.3465 10.8963 84.9624 9.41369 84.194 8.08994C83.4257 6.73972 82.2599 5.68073 80.6967 4.91295C79.16 4.14518 77.2921 3.7613 75.093 3.7613H63.687V31.6394H70.4829V21.1156H72.1124ZM74.6956 16.3104H70.4829V9.40045H74.6956C75.9409 9.40045 76.8682 9.70491 77.4776 10.3138C78.1135 10.9228 78.4314 11.7567 78.4314 12.8157C78.4314 13.9277 78.1135 14.7881 77.4776 15.397C76.8682 16.0059 75.9409 16.3104 74.6956 16.3104ZM96.4086 31.6394V3.7613H89.6126V31.6394H96.4086ZM121.403 3.7613V9.20189H114.011V31.6394H107.215V9.20189H99.8233V3.7613H121.403ZM133.239 21.1156L139.042 31.6394H146.712L140.274 20.5993C142.314 19.9904 143.851 18.9579 144.884 17.5018C145.944 16.0457 146.474 14.391 146.474 12.5377C146.474 10.8963 146.089 9.41369 145.321 8.08994C144.553 6.73972 143.387 5.68073 141.824 4.91295C140.287 4.14518 138.419 3.7613 136.22 3.7613H124.814V31.6394H131.61V21.1156H133.239ZM135.823 16.3104H131.61V9.40045H135.823C137.068 9.40045 137.995 9.70491 138.605 10.3138C139.241 10.9228 139.558 11.7567 139.558 12.8157C139.558 13.9277 139.241 14.7881 138.605 15.397C137.995 16.0059 137.068 16.3104 135.823 16.3104ZM168.107 26.715L162.963 12.5377L156.025 31.6394H148.912L159.006 3.7613H166.875L176.97 31.6394H169.776L168.107 26.715ZM198.204 31.6394H205V3.7613H198.204V21.0362L186.838 3.7613H180.042V31.6394H186.838V14.4439L198.204 31.6394Z" fill="#7D7D7D"/>
<path fill-rule="evenodd" clip-rule="evenodd" d="M42.1106 0H49.1127V4.32361C50.927 4.81801 52.5871 5.68735 54.0049 6.8434L57.9406 4.9094L61.0246 11.2059L58.12 12.6333C58.6348 14.0529 58.9155 15.5851 58.9155 17.1829C58.9155 19.119 58.5033 20.9586 57.762 22.6185L61.2837 25.8214L56.5767 31.0137L53.3158 28.048C51.1595 29.5847 48.5262 30.4935 45.6818 30.5082L44.7572 34.8476L37.9094 33.3839L38.9082 28.6957C37.3072 27.7585 35.9192 26.4957 34.8348 24.9981L29.9901 25.9818L28.5991 19.1081L32.3576 18.345C32.3246 17.9621 32.3077 17.5745 32.3077 17.1829C32.3077 15.3843 32.6635 13.6689 33.3084 12.1034L29.857 9.32081L34.2475 3.85738L37.5894 6.55167C38.9227 5.54066 40.4522 4.77551 42.1106 4.32361V0ZM42.1106 14.7282V9.6265C39.2677 10.9502 37.2967 13.836 37.2967 17.1829C37.2967 21.7826 41.0194 25.5113 45.6116 25.5113C50.2038 25.5113 53.9266 21.7826 53.9266 17.1829C53.9266 13.836 51.9555 10.9502 49.1127 9.6265V14.7282L45.6116 17.1829L42.1106 14.7282Z" fill="#7D7D7D"/>
</svg>
