<svg width="70" height="51" viewBox="0 0 70 51" fill="none" xmlns="http://www.w3.org/2000/svg">
<path d="M29.7117 23.0135H20.0996L18.5587 27.5628H11.9917L21.3103 1.80823H28.5744L37.893 27.5628H31.2526L29.7117 23.0135ZM28.0975 18.1708L24.9057 8.74215L21.7505 18.1708H28.0975Z" fill="#7D7D7D"/>
<path d="M67.2963 41.7765C66.9137 41.7765 66.573 41.711 66.2743 41.5799C65.9756 41.4489 65.7397 41.2707 65.5668 41.0453C65.3938 40.8147 65.2968 40.5579 65.2759 40.2749H66.6045C66.6202 40.4269 66.691 40.5501 66.8167 40.6444C66.9425 40.7387 67.0971 40.7859 67.2806 40.7859C67.4483 40.7859 67.5767 40.7545 67.6658 40.6916C67.7601 40.6234 67.8073 40.537 67.8073 40.4321C67.8073 40.3064 67.7418 40.2146 67.6108 40.157C67.4797 40.0941 67.2675 40.026 66.974 39.9526C66.6595 39.8792 66.3975 39.8032 66.1878 39.7246C65.9782 39.6407 65.7974 39.5123 65.6454 39.3394C65.4934 39.1612 65.4174 38.9227 65.4174 38.624C65.4174 38.3724 65.4855 38.1444 65.6218 37.94C65.7633 37.7304 65.9677 37.5653 66.235 37.4447C66.5075 37.3242 66.8299 37.2639 67.202 37.2639C67.7523 37.2639 68.1847 37.4002 68.4991 37.6727C68.8188 37.9453 69.0023 38.3069 69.0494 38.7576H67.8073C67.7863 38.6056 67.7182 38.4851 67.6029 38.396C67.4928 38.3069 67.3461 38.2623 67.1627 38.2623C67.0054 38.2623 66.8849 38.2938 66.801 38.3567C66.7172 38.4143 66.6752 38.4956 66.6752 38.6004C66.6752 38.7262 66.7408 38.8205 66.8718 38.8834C67.008 38.9463 67.2177 39.0092 67.5007 39.0721C67.8257 39.1559 68.0903 39.2398 68.2947 39.3237C68.4991 39.4023 68.6773 39.5333 68.8293 39.7167C68.9865 39.8949 69.0678 40.136 69.073 40.44C69.073 40.6968 68.9996 40.9274 68.8529 41.1318C68.7114 41.331 68.5044 41.4882 68.2318 41.6035C67.9645 41.7188 67.6527 41.7765 67.2963 41.7765Z" fill="#7D7D7D"/>
<path d="M64.8024 39.4494C64.8024 39.5752 64.7945 39.7062 64.7788 39.8425H61.7364C61.7573 40.1151 61.8438 40.3247 61.9958 40.4714C62.153 40.613 62.3443 40.6837 62.5697 40.6837C62.9051 40.6837 63.1384 40.5422 63.2694 40.2592H64.7002C64.6268 40.5474 64.4932 40.8069 64.2993 41.0375C64.1106 41.2681 63.8721 41.4489 63.5838 41.5799C63.2956 41.711 62.9733 41.7765 62.6169 41.7765C62.1871 41.7765 61.8045 41.6847 61.4691 41.5013C61.1337 41.3179 60.8716 41.0558 60.6829 40.7152C60.4942 40.3745 60.3999 39.9762 60.3999 39.5202C60.3999 39.0642 60.4916 38.6659 60.6751 38.3252C60.8637 37.9846 61.1258 37.7225 61.4612 37.5391C61.7966 37.3556 62.1819 37.2639 62.6169 37.2639C63.0414 37.2639 63.4188 37.353 63.7489 37.5312C64.0791 37.7094 64.3359 37.9636 64.5194 38.2938C64.7081 38.624 64.8024 39.0092 64.8024 39.4494ZM63.4266 39.0957C63.4266 38.8651 63.348 38.6816 63.1908 38.5454C63.0335 38.4091 62.837 38.341 62.6011 38.341C62.3758 38.341 62.1845 38.4065 62.0273 38.5375C61.8753 38.6685 61.7809 38.8546 61.7442 39.0957H63.4266Z" fill="#7D7D7D"/>
<path d="M57.9422 37.2797C58.4872 37.2797 58.9196 37.4448 59.2393 37.7749C59.5643 38.1051 59.7268 38.5637 59.7268 39.1507V41.7136H58.3903V39.3315C58.3903 39.0485 58.3143 38.831 58.1623 38.679C58.0155 38.5218 57.8111 38.4432 57.5491 38.4432C57.287 38.4432 57.08 38.5218 56.928 38.679C56.7813 38.831 56.7079 39.0485 56.7079 39.3315V41.7136H55.3714V39.3315C55.3714 39.0485 55.2954 38.831 55.1434 38.679C54.9967 38.5218 54.7923 38.4432 54.5302 38.4432C54.2682 38.4432 54.0612 38.5218 53.9092 38.679C53.7624 38.831 53.6891 39.0485 53.6891 39.3315V41.7136H52.3447V37.3268H53.6891V37.8771C53.8253 37.6937 54.0035 37.5496 54.2236 37.4448C54.4438 37.3347 54.6927 37.2797 54.9705 37.2797C55.3007 37.2797 55.5942 37.3504 55.851 37.4919C56.113 37.6334 56.3174 37.8352 56.4642 38.0973C56.6162 37.8562 56.8232 37.6596 57.0853 37.5076C57.3473 37.3557 57.633 37.2797 57.9422 37.2797Z" fill="#7D7D7D"/>
<path d="M49.3359 41.7765C48.9061 41.7765 48.5183 41.6847 48.1724 41.5013C47.8317 41.3179 47.5618 41.0558 47.3627 40.7152C47.1687 40.3745 47.0718 39.9762 47.0718 39.5202C47.0718 39.0695 47.1714 38.6738 47.3705 38.3331C47.5697 37.9872 47.8422 37.7225 48.1881 37.5391C48.534 37.3556 48.9219 37.2639 49.3516 37.2639C49.7814 37.2639 50.1692 37.3556 50.5152 37.5391C50.8611 37.7225 51.1336 37.9872 51.3328 38.3331C51.5319 38.6738 51.6315 39.0695 51.6315 39.5202C51.6315 39.9709 51.5293 40.3692 51.3249 40.7152C51.1257 41.0558 50.8506 41.3179 50.4994 41.5013C50.1535 41.6847 49.7657 41.7765 49.3359 41.7765ZM49.3359 40.613C49.5927 40.613 49.8102 40.5186 49.9884 40.3299C50.1719 40.1413 50.2636 39.8713 50.2636 39.5202C50.2636 39.169 50.1745 38.8991 49.9963 38.7104C49.8233 38.5218 49.6084 38.4274 49.3516 38.4274C49.0896 38.4274 48.8721 38.5218 48.6991 38.7104C48.5262 38.8939 48.4397 39.1638 48.4397 39.5202C48.4397 39.8713 48.5236 40.1413 48.6913 40.3299C48.8642 40.5186 49.0791 40.613 49.3359 40.613Z" fill="#7D7D7D"/>
<path d="M45.0145 37.94C44.9149 37.7566 44.7708 37.6177 44.5821 37.5233C44.3987 37.4238 44.1812 37.374 43.9296 37.374C43.4946 37.374 43.1461 37.5181 42.884 37.8064C42.622 38.0894 42.491 38.4693 42.491 38.9463C42.491 39.4547 42.6272 39.853 42.8998 40.1412C43.1775 40.4243 43.5575 40.5658 44.0397 40.5658C44.3699 40.5658 44.6477 40.4819 44.873 40.3142C45.1036 40.1465 45.2713 39.9054 45.3762 39.5909H43.6702V38.6004H46.5947V39.8504C46.4951 40.1858 46.3248 40.4976 46.0837 40.7859C45.8479 41.0742 45.5465 41.3074 45.1796 41.4856C44.8128 41.6638 44.3987 41.7529 43.9375 41.7529C43.3924 41.7529 42.905 41.6349 42.4752 41.3991C42.0507 41.158 41.7179 40.8252 41.4768 40.4007C41.241 39.9762 41.123 39.4914 41.123 38.9463C41.123 38.4012 41.241 37.9164 41.4768 37.4919C41.7179 37.0621 42.0507 36.7293 42.4752 36.4935C42.8998 36.2524 43.3846 36.1318 43.9296 36.1318C44.59 36.1318 45.1456 36.2917 45.5963 36.6114C46.0523 36.9311 46.3536 37.374 46.5004 37.94H45.0145Z" fill="#7D7D7D"/>
<path d="M37.0606 37.2797C37.5743 37.2797 37.9831 37.4474 38.287 37.7828C38.5963 38.113 38.7509 38.569 38.7509 39.1507V41.7136H37.4144V39.3315C37.4144 39.038 37.3384 38.8101 37.1864 38.6476C37.0344 38.4851 36.83 38.4039 36.5732 38.4039C36.3164 38.4039 36.112 38.4851 35.96 38.6476C35.808 38.8101 35.732 39.038 35.732 39.3315V41.7136H34.3877V37.3268H35.732V37.9086C35.8683 37.7147 36.0517 37.5627 36.2823 37.4526C36.5129 37.3373 36.7724 37.2797 37.0606 37.2797Z" fill="#7D7D7D"/>
<path d="M31.3789 41.7765C30.9491 41.7765 30.5613 41.6847 30.2154 41.5013C29.8747 41.3179 29.6048 41.0558 29.4056 40.7152C29.2117 40.3745 29.1147 39.9762 29.1147 39.5202C29.1147 39.0695 29.2143 38.6738 29.4135 38.3331C29.6126 37.9872 29.8852 37.7225 30.2311 37.5391C30.577 37.3556 30.9648 37.2639 31.3946 37.2639C31.8244 37.2639 32.2122 37.3556 32.5581 37.5391C32.904 37.7225 33.1766 37.9872 33.3757 38.3331C33.5749 38.6738 33.6745 39.0695 33.6745 39.5202C33.6745 39.9709 33.5723 40.3692 33.3679 40.7152C33.1687 41.0558 32.8935 41.3179 32.5424 41.5013C32.1965 41.6847 31.8087 41.7765 31.3789 41.7765ZM31.3789 40.613C31.6357 40.613 31.8532 40.5186 32.0314 40.3299C32.2148 40.1413 32.3066 39.8713 32.3066 39.5202C32.3066 39.169 32.2175 38.8991 32.0393 38.7104C31.8663 38.5218 31.6514 38.4274 31.3946 38.4274C31.1326 38.4274 30.9151 38.5218 30.7421 38.7104C30.5691 38.8939 30.4827 39.1638 30.4827 39.5202C30.4827 39.8713 30.5665 40.1413 30.7342 40.3299C30.9072 40.5186 31.1221 40.613 31.3789 40.613Z" fill="#7D7D7D"/>
<path d="M26.7831 41.7765C26.4005 41.7765 26.0599 41.711 25.7611 41.5799C25.4624 41.4489 25.2265 41.2707 25.0536 41.0453C24.8806 40.8147 24.7837 40.5579 24.7627 40.2749H26.0913C26.107 40.4269 26.1778 40.5501 26.3036 40.6444C26.4294 40.7387 26.584 40.7859 26.7674 40.7859C26.9351 40.7859 27.0635 40.7545 27.1526 40.6916C27.247 40.6234 27.2941 40.537 27.2941 40.4321C27.2941 40.3064 27.2286 40.2146 27.0976 40.157C26.9666 40.0941 26.7543 40.026 26.4608 39.9526C26.1463 39.8792 25.8843 39.8032 25.6746 39.7246C25.465 39.6407 25.2842 39.5123 25.1322 39.3394C24.9802 39.1612 24.9042 38.9227 24.9042 38.624C24.9042 38.3724 24.9723 38.1444 25.1086 37.94C25.2501 37.7304 25.4545 37.5653 25.7218 37.4447C25.9943 37.3242 26.3167 37.2639 26.6888 37.2639C27.2391 37.2639 27.6715 37.4002 27.9859 37.6727C28.3057 37.9453 28.4891 38.3069 28.5363 38.7576H27.2941C27.2732 38.6056 27.205 38.4851 27.0897 38.396C26.9797 38.3069 26.8329 38.2623 26.6495 38.2623C26.4922 38.2623 26.3717 38.2938 26.2878 38.3567C26.204 38.4143 26.1621 38.4956 26.1621 38.6004C26.1621 38.7262 26.2276 38.8205 26.3586 38.8834C26.4949 38.9463 26.7045 39.0092 26.9875 39.0721C27.3125 39.1559 27.5771 39.2398 27.7815 39.3237C27.9859 39.4023 28.1641 39.5333 28.3161 39.7167C28.4734 39.8949 28.5546 40.136 28.5598 40.44C28.5598 40.6968 28.4865 40.9274 28.3397 41.1318C28.1982 41.331 27.9912 41.4882 27.7187 41.6035C27.4514 41.7188 27.1395 41.7765 26.7831 41.7765Z" fill="#7D7D7D"/>
<path d="M22.9796 38.058C23.1368 37.8169 23.3334 37.6282 23.5692 37.4919C23.8051 37.3504 24.0671 37.2797 24.3554 37.2797V38.7026H23.9859C23.6504 38.7026 23.3989 38.776 23.2312 38.9227C23.0634 39.0642 22.9796 39.3158 22.9796 39.6774V41.7136H21.6353V37.3268H22.9796V38.058Z" fill="#7D7D7D"/>
<path d="M20.9264 39.4494C20.9264 39.5752 20.9186 39.7062 20.9028 39.8425H17.8604C17.8814 40.1151 17.9678 40.3247 18.1198 40.4714C18.2771 40.613 18.4684 40.6837 18.6937 40.6837C19.0292 40.6837 19.2624 40.5422 19.3934 40.2592H20.8242C20.7508 40.5474 20.6172 40.8069 20.4233 41.0375C20.2346 41.2681 19.9961 41.4489 19.7079 41.5799C19.4196 41.711 19.0973 41.7765 18.7409 41.7765C18.3111 41.7765 17.9285 41.6847 17.5931 41.5013C17.2577 41.3179 16.9956 41.0558 16.8069 40.7152C16.6183 40.3745 16.5239 39.9762 16.5239 39.5202C16.5239 39.0642 16.6156 38.6659 16.7991 38.3252C16.9878 37.9846 17.2498 37.7225 17.5852 37.5391C17.9207 37.3556 18.3059 37.2639 18.7409 37.2639C19.1654 37.2639 19.5428 37.353 19.873 37.5312C20.2031 37.7094 20.46 37.9636 20.6434 38.2938C20.8321 38.624 20.9264 39.0092 20.9264 39.4494ZM19.5506 39.0957C19.5506 38.8651 19.472 38.6816 19.3148 38.5454C19.1576 38.4091 18.961 38.341 18.7252 38.341C18.4998 38.341 18.3085 38.4065 18.1513 38.5375C17.9993 38.6685 17.9049 38.8546 17.8683 39.0957H19.5506Z" fill="#7D7D7D"/>
<path d="M11.188 39.5124C11.188 39.0617 11.2718 38.666 11.4396 38.3253C11.6125 37.9847 11.8457 37.7226 12.1392 37.5392C12.4327 37.3558 12.7603 37.264 13.1219 37.264C13.4102 37.264 13.6722 37.3243 13.9081 37.4449C14.1492 37.5654 14.3379 37.7279 14.4741 37.9323V35.8961H15.8185V41.7137H14.4741V41.0848C14.3483 41.2944 14.1675 41.4621 13.9317 41.5879C13.7011 41.7137 13.4312 41.7766 13.1219 41.7766C12.7603 41.7766 12.4327 41.6849 12.1392 41.5014C11.8457 41.3128 11.6125 41.0481 11.4396 40.7074C11.2718 40.3615 11.188 39.9632 11.188 39.5124ZM14.4741 39.5203C14.4741 39.1849 14.3798 38.9202 14.1911 38.7263C14.0077 38.5324 13.7823 38.4354 13.515 38.4354C13.2477 38.4354 13.0197 38.5324 12.8311 38.7263C12.6476 38.915 12.5559 39.177 12.5559 39.5124C12.5559 39.8479 12.6476 40.1152 12.8311 40.3143C13.0197 40.5082 13.2477 40.6052 13.515 40.6052C13.7823 40.6052 14.0077 40.5082 14.1911 40.3143C14.3798 40.1204 14.4741 39.8557 14.4741 39.5203Z" fill="#7D7D7D"/>
<path d="M8.83114 37.2797C9.34477 37.2797 9.75357 37.4474 10.0576 37.7828C10.3668 38.113 10.5214 38.569 10.5214 39.1507V41.7136H9.18491V39.3315C9.18491 39.038 9.10892 38.8101 8.95693 38.6476C8.80494 38.4851 8.60054 38.4039 8.34372 38.4039C8.08691 38.4039 7.88251 38.4851 7.73052 38.6476C7.57853 38.8101 7.50253 39.038 7.50253 39.3315V41.7136H6.1582V37.3268H7.50253V37.9086C7.6388 37.7147 7.82224 37.5627 8.05285 37.4526C8.28345 37.3373 8.54288 37.2797 8.83114 37.2797Z" fill="#7D7D7D"/>
<path d="M3.79715 40.7388H1.73741L1.40722 41.7137H0L1.99684 36.1948H3.55344L5.55028 41.7137H4.12733L3.79715 40.7388ZM3.45124 39.7011L2.76728 37.6807L2.09118 39.7011H3.45124Z" fill="#7D7D7D"/>
<path d="M43.1357 50.6601C42.8946 50.6601 42.6779 50.6182 42.4858 50.5343C42.2971 50.447 42.1486 50.3282 42.0403 50.1779C41.932 50.0242 41.8761 49.8477 41.8726 49.6486H42.3809C42.3984 49.8198 42.4683 49.9648 42.5906 50.0836C42.7164 50.1989 42.8981 50.2565 43.1357 50.2565C43.3628 50.2565 43.541 50.2006 43.6702 50.0888C43.803 49.9735 43.8694 49.8268 43.8694 49.6486C43.8694 49.5088 43.831 49.3952 43.7541 49.3079C43.6772 49.2205 43.5811 49.1542 43.4658 49.1087C43.3505 49.0633 43.1951 49.0144 42.9994 48.962C42.7583 48.8991 42.5644 48.8362 42.4176 48.7733C42.2744 48.7104 42.1503 48.6126 42.0455 48.4798C41.9442 48.3435 41.8935 48.1619 41.8935 47.9347C41.8935 47.7356 41.9442 47.5591 42.0455 47.4054C42.1468 47.2517 42.2883 47.1329 42.47 47.049C42.6552 46.9651 42.8666 46.9232 43.1042 46.9232C43.4466 46.9232 43.7261 47.0088 43.9428 47.18C44.1629 47.3512 44.2869 47.5784 44.3149 47.8614H43.7908C43.7733 47.7216 43.6999 47.5993 43.5707 47.4945C43.4414 47.3862 43.2702 47.332 43.057 47.332C42.8579 47.332 42.6954 47.3844 42.5696 47.4893C42.4438 47.5906 42.3809 47.7338 42.3809 47.919C42.3809 48.0518 42.4176 48.1601 42.491 48.244C42.5679 48.3278 42.6605 48.3925 42.7688 48.4379C42.8806 48.4798 43.0361 48.5287 43.2352 48.5846C43.4763 48.651 43.6702 48.7174 43.817 48.7838C43.9637 48.8467 44.0895 48.9463 44.1943 49.0825C44.2992 49.2153 44.3516 49.397 44.3516 49.6276C44.3516 49.8058 44.3044 49.9735 44.2101 50.1307C44.1157 50.288 43.976 50.4155 43.7908 50.5133C43.6056 50.6112 43.3872 50.6601 43.1357 50.6601Z" fill="#7D7D7D"/>
<path d="M38.3513 49.811H36.7581L36.4646 50.6234H35.9614L37.2822 46.9913H37.8325L39.148 50.6234H38.6448L38.3513 49.811ZM38.2151 49.4232L37.5547 47.5783L36.8943 49.4232H38.2151Z" fill="#7D7D7D"/>
<path d="M33.1254 46.9705V50.6235H32.6484V46.9705H33.1254Z" fill="#7D7D7D"/>
<path d="M27.931 50.66C27.5921 50.66 27.2829 50.5814 27.0034 50.4242C26.7239 50.2635 26.502 50.0416 26.3378 49.7586C26.177 49.4721 26.0967 49.1506 26.0967 48.7942C26.0967 48.4378 26.177 48.1181 26.3378 47.8351C26.502 47.5486 26.7239 47.3267 27.0034 47.1695C27.2829 47.0088 27.5921 46.9284 27.931 46.9284C28.2735 46.9284 28.5844 47.0088 28.864 47.1695C29.1435 47.3267 29.3636 47.5469 29.5243 47.8299C29.6851 48.1129 29.7654 48.4343 29.7654 48.7942C29.7654 49.1541 29.6851 49.4756 29.5243 49.7586C29.3636 50.0416 29.1435 50.2635 28.864 50.4242C28.5844 50.5814 28.2735 50.66 27.931 50.66ZM27.931 50.246C28.1861 50.246 28.415 50.1866 28.6176 50.0678C28.8238 49.949 28.9845 49.7795 29.0998 49.5594C29.2186 49.3393 29.278 49.0842 29.278 48.7942C29.278 48.5007 29.2186 48.2457 29.0998 48.029C28.9845 47.8089 28.8255 47.6394 28.6229 47.5206C28.4202 47.4018 28.1896 47.3425 27.931 47.3425C27.6725 47.3425 27.4419 47.4018 27.2392 47.5206C27.0366 47.6394 26.8759 47.8089 26.7571 48.029C26.6417 48.2457 26.5841 48.5007 26.5841 48.7942C26.5841 49.0842 26.6417 49.3393 26.7571 49.5594C26.8759 49.7795 27.0366 49.949 27.2392 50.0678C27.4454 50.1866 27.676 50.246 27.931 50.246ZM28.4552 46.1789L27.3388 46.7764V46.42L28.4552 45.7649V46.1789Z" fill="#7D7D7D"/>
<path d="M23.0815 46.9705V49.6696C23.0815 49.9701 22.9889 50.2112 22.8037 50.3929C22.6186 50.5711 22.374 50.6602 22.07 50.6602C21.7625 50.6602 21.5162 50.5693 21.331 50.3876C21.1458 50.2024 21.0532 49.9509 21.0532 49.6329H21.5302C21.5337 49.8111 21.5791 49.9561 21.6664 50.0679C21.7573 50.1797 21.8918 50.2356 22.07 50.2356C22.2482 50.2356 22.381 50.1832 22.4683 50.0784C22.5557 49.9701 22.5993 49.8338 22.5993 49.6696V46.9705H23.0815Z" fill="#7D7D7D"/>
<path d="M46.3886 9.56093C45.7862 8.79552 45.0139 8.2701 44.0718 7.98465C43.1497 7.67097 42.11 7.61312 40.9528 7.81112C38.9519 8.15348 37.4621 9.09075 36.4836 10.6229C35.5009 12.131 35.1973 13.9819 35.5726 16.1758C35.9728 18.5142 36.9131 20.2392 38.3935 21.3506C39.894 22.4339 41.7532 22.7857 43.9711 22.4062C45.4899 22.1464 46.7016 21.542 47.6063 20.5932C48.535 19.6402 49.1168 18.3993 49.3514 16.8703L41.5043 18.213L40.7247 13.6566L54.1769 11.3549L55.1607 17.1046C54.9666 18.7259 54.4286 20.2944 53.5465 21.8101C52.6885 23.3216 51.4858 24.6316 49.9385 25.74C48.3912 26.8484 46.5568 27.5841 44.4353 27.9471C41.9281 28.3761 39.5932 28.2173 37.4308 27.4707C35.2883 26.6958 33.4955 25.4269 32.0524 23.6639C30.6334 21.8968 29.7095 19.7596 29.2805 17.2524C28.8515 14.7451 29.0124 12.4223 29.7631 10.284C30.5338 8.11738 31.8028 6.3246 33.5699 4.90563C35.3329 3.46255 37.468 2.52652 39.9752 2.09754C43.0128 1.57781 45.6941 1.87586 48.019 2.99171C50.368 4.10343 52.1027 5.90337 53.2232 8.39153L46.3886 9.56093Z" fill="#7D7D7D"/>
</svg>
