<svg width="118" height="55" viewBox="0 0 118 55" fill="none" xmlns="http://www.w3.org/2000/svg">
<path d="M22.3164 29.581C22.549 29.581 22.7816 29.581 22.991 29.6042C22.8747 28.9296 22.7118 27.0918 22.8514 26.8592C22.2699 27.2546 22.0605 27.6966 22.0139 28.2085C21.9674 28.5108 21.9907 29.1855 21.9907 29.581C22.107 29.5344 22.2001 29.5344 22.3164 29.581Z" fill="#7D7D7D"/>
<path d="M32.3898 20.9272C32.5992 20.8807 33.018 20.7877 33.018 20.7877C32.576 20.5085 32.134 21.0203 32.3898 20.9272Z" fill="#7D7D7D"/>
<path d="M42.7877 25.6727C43.2762 25.0911 43.4623 24.37 43.3925 23.7186C42.7412 23.7651 42.0898 24.0908 41.6013 24.6491C41.6013 24.5561 41.578 24.463 41.578 24.37C41.5315 23.7419 41.2756 23.1836 40.8802 22.7881C41.0895 22.6485 41.2058 22.4159 41.1593 22.16C41.1127 21.9506 40.9965 21.7878 40.8104 21.718C40.8569 21.6715 40.9034 21.6249 40.9267 21.5552C41.0662 21.6715 41.2756 21.7413 41.4617 21.6948C41.8107 21.6482 42.02 21.3226 41.9502 20.9969C41.9037 20.6712 41.578 20.4386 41.2524 20.5084C41.0662 20.5316 40.9034 20.6712 40.8336 20.834C40.7871 20.8108 40.7173 20.7642 40.6708 20.741C40.8104 20.6014 40.8801 20.4153 40.8336 20.2059C40.7639 19.9268 40.5545 19.7407 40.2985 19.7174C40.8569 19.5081 41.3687 19.0661 41.6711 18.4612C41.9967 17.7866 42.0433 17.0422 41.8107 16.4141C41.1825 16.6002 40.6242 17.0655 40.2753 17.7168C40.252 17.6238 40.2288 17.5307 40.2055 17.4377C40.0194 16.8096 39.6007 16.2978 39.0889 15.9954C39.2983 15.8093 39.368 15.5301 39.2517 15.2742C39.1587 15.0882 38.9958 14.9485 38.8098 14.9253C38.833 14.8555 38.8563 14.809 38.8795 14.7392C39.0424 14.8322 39.2285 14.8555 39.4146 14.7625C39.717 14.5996 39.8333 14.2507 39.6937 13.9483C39.5542 13.6458 39.2052 13.5295 38.9028 13.6691C38.7167 13.7389 38.6004 13.9017 38.5539 14.0878C38.4841 14.0413 38.4375 14.018 38.3678 14.018C38.4608 13.8552 38.4841 13.6458 38.391 13.4597C38.2515 13.1806 37.949 13.0643 37.6699 13.1341C38.2049 12.7618 38.6004 12.1803 38.74 11.4591C38.8795 10.7148 38.7167 9.99359 38.3212 9.45856C37.763 9.80751 37.3442 10.4123 37.2046 11.1335C37.1813 11.0637 37.1116 10.9706 37.065 10.9008C36.6928 10.3425 36.1578 9.99359 35.5995 9.83077C35.7391 9.62138 35.7158 9.319 35.5297 9.10961C35.3901 8.94679 35.204 8.87701 35.018 8.90027C35.018 8.85375 35.018 8.78391 35.018 8.71413C35.204 8.76065 35.4134 8.71413 35.553 8.57458C35.8088 8.34192 35.8321 7.96977 35.5995 7.71385C35.3669 7.45794 34.9946 7.43468 34.7388 7.66733C34.5759 7.80689 34.5061 7.99303 34.5294 8.1791C34.4596 8.1791 34.4131 8.1791 34.3433 8.1791C34.3898 7.99303 34.3433 7.78363 34.2038 7.64407C34.0176 7.45794 33.7385 7.38816 33.5058 7.50451C33.8315 7.01595 33.9944 6.38788 33.9013 5.73652C33.8083 4.99212 33.4128 4.36402 32.8778 3.96855C32.4823 4.48033 32.2497 5.17822 32.3427 5.92263C32.2729 5.85283 32.2031 5.80631 32.1334 5.73652C31.5285 5.29453 30.8074 5.10843 30.156 5.22474C30.2258 5.89936 30.5748 6.55069 31.1796 7.01595C31.2494 7.08578 31.3424 7.1323 31.4122 7.17882C30.6678 7.27186 30.063 7.66733 29.6675 8.20236C30.1793 8.6211 30.9004 8.83049 31.6448 8.73739C32.2729 8.66762 32.808 8.36518 33.2034 7.96977C33.1569 8.15584 33.2034 8.36518 33.343 8.5048C33.4826 8.66762 33.6687 8.73739 33.8548 8.71413C33.8548 8.76065 33.8548 8.83049 33.8548 8.90027C33.6687 8.85375 33.4593 8.90027 33.3198 9.03983C33.0639 9.27248 33.0406 9.64464 33.2733 9.90055C33.5058 10.1565 33.8781 10.1797 34.134 9.94707C34.2968 9.80751 34.3666 9.62138 34.3433 9.4353C34.4131 9.4353 34.4829 9.4353 34.5527 9.4353C34.5061 9.62138 34.5527 9.83077 34.6923 9.97033C34.8551 10.1565 35.111 10.2262 35.3436 10.1331C35.2971 10.6915 35.46 11.2963 35.8088 11.8313C35.8554 11.9244 35.9019 11.9942 35.9717 12.064C35.2506 11.9477 34.5294 12.1105 33.9944 12.506C34.3666 13.0643 34.9714 13.483 35.7158 13.6226C36.3672 13.7389 36.972 13.6226 37.4838 13.3434C37.321 13.5295 37.2512 13.7854 37.3675 14.018C37.4605 14.2042 37.6233 14.3205 37.8095 14.367C37.763 14.4135 37.7397 14.4833 37.7397 14.5531C37.5768 14.46 37.3675 14.4368 37.1813 14.5298C36.879 14.6694 36.7394 15.0183 36.879 15.3208C37.0418 15.6232 37.3907 15.7627 37.6932 15.6232C37.8792 15.5301 37.9955 15.3673 38.0421 15.1812C38.0886 15.2045 38.1584 15.2277 38.2282 15.251C38.1352 15.4138 38.1119 15.6232 38.2049 15.8093C38.3212 16.0419 38.5538 16.1815 38.8098 16.1582C38.6004 16.6932 38.5538 17.3214 38.7632 17.9494C38.7865 18.0192 38.8097 18.1123 38.8563 18.2054C38.1817 17.8797 37.4605 17.8331 36.8324 18.0657C37.0185 18.6939 37.4838 19.2754 38.1584 19.6244C38.7167 19.9035 39.3448 19.9733 39.9031 19.857C39.7403 19.9966 39.6472 20.2059 39.6937 20.4386C39.7403 20.6479 39.8798 20.8108 40.0427 20.8806C39.9962 20.9271 39.9497 20.9736 39.9264 21.0434C39.7868 20.9038 39.6007 20.834 39.3913 20.8806C39.0424 20.9271 38.833 21.2528 38.9028 21.5784C38.9493 21.9041 39.275 22.1368 39.6007 22.0669C39.81 22.0204 39.9729 21.8808 40.0427 21.718C40.0892 21.7646 40.1357 21.8111 40.2055 21.8343C40.0659 21.9739 39.9962 22.16 40.0427 22.3694C40.0892 22.602 40.252 22.7648 40.4614 22.8346C40.1822 23.2999 40.0427 23.8814 40.0892 24.4863C40.1125 24.5793 40.1125 24.6724 40.1357 24.7654C39.5774 24.3001 38.8563 24.1141 38.2049 24.1838C38.2515 24.8585 38.5772 25.5098 39.1587 25.9983C39.6705 26.4171 40.2753 26.6032 40.8569 26.6032C40.6242 26.673 40.4382 26.9056 40.4382 27.1615C40.4149 27.3476 40.5312 27.5337 40.6708 27.65C40.6242 27.6965 40.5777 27.743 40.5312 27.7896C40.4149 27.65 40.252 27.5337 40.0427 27.5337C39.6937 27.5104 39.4146 27.7896 39.4146 28.1153C39.3913 28.4642 39.6705 28.7433 39.9962 28.7433C40.1822 28.7666 40.3684 28.6503 40.4847 28.5107C40.5312 28.5572 40.5777 28.6038 40.6242 28.6503C40.4847 28.7666 40.3684 28.9295 40.3684 29.1388C40.3684 29.3947 40.5079 29.604 40.694 29.6971C40.2985 30.0693 40.0194 30.6044 39.9264 31.2325C39.9264 31.3255 39.9031 31.4186 39.9031 31.5116C39.4379 30.93 38.7865 30.5811 38.1352 30.5113C38.0188 31.1627 38.1817 31.8838 38.6469 32.4887C39.0657 33.0237 39.624 33.3726 40.2055 33.4889C39.9496 33.4889 39.717 33.6751 39.6472 33.9309C39.6007 34.1171 39.6472 34.3264 39.7635 34.466C39.717 34.4892 39.6472 34.5125 39.6007 34.5591C39.5309 34.3729 39.3913 34.2334 39.182 34.1868C38.8563 34.1171 38.5306 34.3031 38.4375 34.6288C38.3445 34.9545 38.5306 35.2802 38.8563 35.3732C39.0424 35.443 39.2517 35.3732 39.3913 35.2569C39.4146 35.3267 39.4379 35.3965 39.4844 35.443C39.3215 35.5128 39.1587 35.6524 39.1122 35.8618C39.0424 36.1176 39.1587 36.3735 39.3448 36.5131C38.833 36.7923 38.4143 37.2343 38.1817 37.8391C38.1352 37.9321 38.1119 38.0252 38.0886 38.1183C37.7862 37.4436 37.2512 36.9551 36.6231 36.7225C36.3672 37.3273 36.3439 38.0717 36.6463 38.7696C36.9255 39.3511 37.3675 39.8164 37.8792 40.0723C37.6466 40.049 37.414 40.1653 37.2977 40.3747C37.2046 40.5608 37.2046 40.7702 37.2744 40.933C37.2046 40.933 37.1581 40.9563 37.0883 40.9795C37.065 40.7935 36.972 40.6073 36.7859 40.5143C36.5068 40.3515 36.1345 40.4678 35.9717 40.7469C35.8088 41.0261 35.9019 41.3983 36.2043 41.5611C36.3905 41.6542 36.5998 41.6542 36.7626 41.5843C36.7626 41.6542 36.7859 41.724 36.8092 41.7937C36.6231 41.817 36.437 41.91 36.3439 42.0962C36.2508 42.3055 36.2508 42.5382 36.3672 42.7242C35.8321 42.8638 35.3203 43.1895 34.9481 43.678C34.8783 43.7478 34.8318 43.8409 34.7853 43.9107C34.6923 43.1895 34.2968 42.5614 33.7618 42.166C33.343 42.6777 33.1336 43.3989 33.2267 44.1433C33.2965 44.8179 33.6221 45.3762 34.0641 45.7717C33.8548 45.6554 33.5756 45.7019 33.3896 45.8647C33.25 46.0043 33.1802 46.1904 33.1336 46.2137C33.0871 46.2137 33.0173 46.2137 32.9476 46.2137C32.9941 46.0275 32.9476 45.8182 32.808 45.6786C32.5753 45.4227 32.2031 45.3995 31.9473 45.6321C31.6914 45.8647 31.6681 46.2369 31.9007 46.4928C32.0403 46.6324 32.2264 46.7022 32.4125 46.6789C32.4125 46.7487 32.4125 46.8185 32.4125 46.8883C32.2264 46.8417 32.0403 46.8883 31.8774 47.0279C31.6216 47.2605 31.5983 47.6327 31.8309 47.8886C32.0636 48.1444 32.4358 48.1677 32.6916 47.9351C32.8313 47.7956 32.901 47.5862 32.8778 47.4001C32.9243 47.4233 32.9941 47.4233 33.0639 47.4233C33.0173 47.6094 33.0639 47.8188 33.2034 47.9584C33.4361 48.2142 33.8083 48.2375 34.0641 48.0049C34.3201 47.7722 34.3433 47.4001 34.1107 47.1442C33.9711 47.0046 33.785 46.9348 33.5989 46.9581C33.5989 46.8883 33.5989 46.8417 33.5989 46.772C33.785 46.8185 33.9944 46.772 34.134 46.6324C34.3666 46.423 34.4131 46.0974 34.227 45.8415C34.7155 46.2369 35.4134 46.423 36.1113 46.33C36.8557 46.2369 37.4838 45.8414 37.8792 45.3064C37.3907 44.8877 36.6928 44.655 35.9485 44.7481C36.0182 44.6783 36.0648 44.6085 36.1345 44.5387C36.5068 44.0502 36.6928 43.4687 36.6928 42.9103C36.9255 42.9569 37.1813 42.8405 37.321 42.6079C37.414 42.4218 37.414 42.2125 37.3442 42.0497C37.414 42.0497 37.4605 42.0263 37.5303 42.0031C37.5536 42.1892 37.6699 42.3753 37.8327 42.4683C38.1118 42.6312 38.4841 42.5382 38.6469 42.2357C38.8098 41.9566 38.6935 41.5844 38.4143 41.4215C38.2515 41.3285 38.0421 41.3285 37.8792 41.3983C37.8792 41.3285 37.856 41.2587 37.8327 41.2122C38.0188 41.1889 38.2049 41.0958 38.298 40.9098C38.4375 40.6538 38.391 40.3515 38.1817 40.1653C38.7632 40.3747 39.4378 40.3515 40.0892 40.0723C40.7871 39.7931 41.2756 39.2348 41.5082 38.6068C40.9034 38.3508 40.159 38.3508 39.4844 38.63C39.5309 38.537 39.5542 38.4671 39.6007 38.3741C39.8333 37.7693 39.8333 37.1412 39.6472 36.5829C39.9031 36.5829 40.1357 36.3968 40.2055 36.1409C40.2753 35.9548 40.2055 35.7454 40.0892 35.6059C40.1357 35.5826 40.2055 35.5593 40.252 35.5128C40.3219 35.6989 40.4847 35.8385 40.6708 35.885C40.9965 35.9781 41.3221 35.7919 41.4152 35.4663C41.5082 35.1406 41.3221 34.8149 40.9965 34.7219C40.8104 34.6754 40.601 34.7219 40.4614 34.8382C40.4382 34.7684 40.4149 34.7219 40.3684 34.6754C40.5545 34.6056 40.694 34.4427 40.7405 34.2566C40.8104 33.9542 40.6708 33.6518 40.3916 33.5355C41.0197 33.6052 41.6944 33.4424 42.2759 33.0004C42.8807 32.5584 43.2297 31.8838 43.2994 31.2325C42.6481 31.1162 41.9502 31.279 41.3454 31.721C41.3687 31.6279 41.3687 31.5349 41.3919 31.4419C41.4617 30.837 41.3454 30.2322 41.043 29.7437C41.2989 29.6739 41.485 29.4645 41.485 29.1853C41.485 28.9992 41.3919 28.8132 41.2291 28.6968C41.2756 28.6503 41.3221 28.6038 41.3687 28.5572C41.485 28.7201 41.6478 28.8132 41.8572 28.8132C42.2061 28.8364 42.4852 28.5572 42.4852 28.2316C42.5085 27.8827 42.2294 27.6035 41.9037 27.6035C41.7176 27.6035 41.5315 27.6965 41.4152 27.8361C41.3919 27.7896 41.3454 27.743 41.2989 27.6965C41.4384 27.5802 41.5547 27.4174 41.5547 27.208C41.5547 26.9056 41.3687 26.673 41.0895 26.6032C41.7176 26.5334 42.3224 26.2077 42.7877 25.6727Z" fill="#7D7D7D"/>
<path d="M7.42863 48.005C7.45188 47.9818 7.47514 47.9584 7.47514 47.9119C7.47514 47.8887 7.47514 47.8887 7.47514 47.8654C7.47514 47.8654 6.3353 45.3298 6.12591 44.8412L8.94068 46.4464C9.31289 46.8884 9.70836 47.3304 10.1271 47.7258C10.3365 47.9352 10.6854 47.9352 10.918 47.7258C11.1274 47.5164 11.1274 47.1443 10.918 46.9349C10.4993 46.5162 10.0806 46.0509 9.6851 45.5857L9.45251 42.9337C9.8014 43.3524 11.6159 45.4461 11.6159 45.4461C11.6392 45.4926 11.709 45.4926 11.7555 45.4694C11.802 45.4461 11.802 45.3763 11.7788 45.3298L9.15007 40.84C9.12681 40.7935 9.05703 40.7703 9.01051 40.7935L8.05669 41.1657C8.01018 41.189 7.96366 41.2355 7.98692 41.3054L9.08029 44.8645C7.7078 43.0733 6.52138 40.9797 5.6374 38.6999L6.17243 35.9316C6.40508 36.4201 7.63796 38.979 7.63796 38.979C7.66128 39.0256 7.73106 39.0488 7.77758 39.0256C7.8241 39.0023 7.87062 38.9558 7.84736 38.886L6.52138 33.8613C6.49812 33.8148 6.4516 33.7682 6.40508 33.7915L5.38151 33.8845C5.33498 33.8845 5.28846 33.9311 5.28846 34.0008L5.31172 37.8392C4.52079 35.6292 4.00901 33.3262 3.75312 30.9534L5.0093 28.348C5.10235 28.8831 5.66066 31.6746 5.66066 31.6746C5.68392 31.7211 5.73045 31.7676 5.77697 31.7676C5.8235 31.7676 5.87002 31.7211 5.87002 31.6513V26.4637C5.87002 26.4172 5.8235 26.3707 5.77697 26.3474L4.75341 26.1845C4.70689 26.1845 4.6371 26.2078 4.6371 26.2544L3.68333 30.0462C3.61354 29.2552 3.59027 28.441 3.59027 27.6269C3.59027 26.0682 3.70659 24.5562 3.91596 23.0441L5.73045 20.8341C5.70718 21.3692 5.56761 24.2072 5.56761 24.2072C5.56761 24.2538 5.61413 24.3003 5.66066 24.3235C5.70718 24.3235 5.77697 24.3003 5.77697 24.2305L7.00989 19.1825C7.03315 19.1359 6.98663 19.0894 6.94011 19.0661L5.98634 18.6707C5.93981 18.6474 5.87002 18.6707 5.84676 18.7173L4.03227 22.1136C4.47426 19.6245 5.21867 17.2284 6.24221 15.065L8.68482 13.5762C8.49869 14.0879 7.4984 16.7399 7.4984 16.7399C7.4984 16.7632 7.4984 16.7632 7.4984 16.7864C7.4984 16.8329 7.52166 16.8562 7.54492 16.8794C7.59144 16.9027 7.66128 16.8794 7.68454 16.8329L10.4295 12.413C10.4528 12.3665 10.4528 12.32 10.4063 12.2735L9.61532 11.6221C9.56881 11.5755 9.52229 11.5988 9.47577 11.6221L6.6842 14.3206C7.56818 12.5759 8.61504 10.9707 9.84792 9.55172L13.8026 6.15535C13.8258 6.13209 13.8258 6.10883 13.8026 6.08557C13.7793 6.06231 13.7561 6.06231 13.7328 6.06231C13.7328 6.06231 12.5697 6.7369 11.6625 7.24873L14.2446 3.92213C14.2678 3.89887 14.2678 3.87561 14.2446 3.85235C14.2213 3.82908 14.1981 3.82908 14.1748 3.85235L11.1506 6.71364C11.5694 5.78315 12.0812 4.57349 12.0812 4.57349C12.0812 4.55023 12.0812 4.52697 12.0579 4.5037C12.0346 4.48044 12.0114 4.5037 11.9881 4.52697L8.96394 8.83056C7.73106 10.2728 6.63768 11.9245 5.70718 13.7157L6.70746 10.0402C6.73072 9.99372 6.70746 9.92394 6.66094 9.92394L5.73045 9.5052C5.68392 9.48194 5.61413 9.5052 5.59087 9.55172L3.05523 14.1112C3.03197 14.1577 3.03197 14.2275 3.0785 14.2508C3.12502 14.274 3.19481 14.2741 3.21807 14.2275C3.21807 14.2275 5.03257 12.1106 5.38151 11.6919L5.12562 14.9487C4.98604 15.2744 4.84646 15.5767 4.70689 15.9024C3.93922 17.81 3.35765 19.8571 2.96218 21.974L2.8924 18.0193C2.8924 17.9728 2.84587 17.9263 2.79935 17.9263L1.79905 17.7867C1.72926 17.7867 1.68273 17.81 1.68273 17.8565L0.519598 22.9045C0.496335 22.951 0.54286 23.0208 0.589386 23.0441C0.635911 23.0673 0.7057 23.0441 0.728963 22.9743C0.728963 22.9743 1.86884 20.4386 2.10146 19.9501L2.79935 23.2302C2.58998 24.6957 2.49693 26.1845 2.49693 27.6734C2.49693 28.4876 2.52019 29.3017 2.58998 30.0927L1.56642 26.3009C1.54316 26.2544 1.49663 26.2078 1.45011 26.2311L0.426547 26.3474C0.380021 26.3474 0.333496 26.3939 0.333496 26.4637L0.44981 31.6513C0.44981 31.6978 0.496335 31.7444 0.54286 31.7444C0.589386 31.7444 0.659174 31.7211 0.659174 31.6513C0.659174 31.6513 1.14769 28.9063 1.24074 28.3712L2.72956 31.3721C3.00871 33.7449 3.52049 36.048 4.31142 38.2579L2.31083 34.9313C2.28756 34.8848 2.21778 34.8616 2.17125 34.8848L1.21748 35.2803C1.17095 35.3035 1.14769 35.3501 1.14769 35.4198L2.63651 40.3748C2.65977 40.4213 2.7063 40.4679 2.75282 40.4446C2.79935 40.4214 2.84587 40.3981 2.84587 40.3283C2.84587 40.3283 2.56671 37.56 2.52019 37.025L4.73015 39.4908C5.61413 41.6543 6.75398 43.6781 8.07995 45.4228L5.21867 42.957C5.17214 42.9337 5.12562 42.9337 5.07909 42.957L4.31142 43.6316C4.2649 43.6781 4.2649 43.7247 4.28816 43.7712L7.28907 47.9818C7.31233 48.005 7.38211 48.0283 7.42863 48.005Z" fill="#7D7D7D"/>
<path d="M7.33594 27.65C7.33594 38.7928 14.0356 47.8652 22.2474 47.8652C30.4591 47.8652 37.1588 38.7928 37.1588 27.65C37.1588 16.5071 30.4591 7.43463 22.2474 7.43463C14.0123 7.43463 7.33594 16.5071 7.33594 27.65ZM32.1805 14.2738L28.4585 18.717L25.8763 18.6705L25.3413 9.92376C25.3413 9.92376 25.3413 9.34216 25.0854 8.87691C27.8304 9.66785 30.2962 11.5986 32.1805 14.2738ZM14.6172 22.0669C15.9664 21.7179 19.0371 20.8572 20.8051 20.4152C22.5731 19.9732 24.6201 19.2289 25.5274 19.2289C26.4579 19.2289 26.551 19.7639 26.7371 20.0896C26.9231 20.4152 26.8999 20.9037 27.1558 21.4156C27.3651 21.8342 27.7373 22.0204 27.9933 22.0901C28.063 22.0901 28.1328 22.0901 28.1793 22.0901C27.9933 22.0204 27.8304 21.9273 27.7839 21.7644C28.063 21.9041 28.9005 21.811 29.4123 21.6249C29.924 21.4621 31.1337 20.9736 31.7618 20.7874C32.3899 20.6013 33.0878 20.485 33.2274 20.7874C34.0881 20.6013 34.344 21.1829 34.437 21.4621C34.5068 21.7412 34.5766 21.9971 34.5533 22.2762C34.3672 22.1134 34.2277 22.0436 33.9485 22.0204C33.6926 22.0204 32.9947 22.1832 32.669 22.3228C31.3663 22.8578 30.5754 23.6953 30.5754 23.6953C30.5522 23.6953 30.4591 23.7883 30.3428 23.9046C29.9706 24.3001 29.738 24.6723 29.4355 24.8584C29.2494 24.998 28.9005 25.1376 28.1793 25.3469C27.4349 25.5563 26.2718 25.8587 25.6437 26.2541C25.0156 26.6496 24.2247 27.2545 24.1316 27.6732C24.0618 27.9989 23.8757 29.3481 24.0386 29.7436H24.0153C27.3884 30.5345 29.8775 33.5587 29.8775 37.1644C29.8775 37.2574 29.8775 37.3505 29.8775 37.4436H34.1811C31.7618 43.0731 27.3186 46.8417 22.2474 46.8417C17.1528 46.8417 12.7096 43.0498 10.2903 37.4203H14.6172C14.6172 37.3272 14.6172 37.2342 14.6172 37.1411C14.6172 33.6052 17.0365 30.6275 20.3165 29.7668H20.4329C20.5957 29.7203 20.7818 29.6738 20.9679 29.6505C20.8981 29.2318 20.6887 28.4176 20.6887 28.0454C20.712 27.5801 20.712 27.0916 21.5029 26.3938C20.8051 26.6729 19.3162 27.6034 18.9208 28.5339C17.7577 28.72 16.4317 28.6037 15.571 28.3943C14.8033 28.2082 13.7797 27.743 13.454 27.4173C14.2915 27.3243 15.9664 26.6496 16.8504 26.1611C17.618 25.7191 20.0141 24.5328 20.9679 24.3699L20.4794 24.4164C19.8513 24.4862 19.0139 24.9049 18.0833 25.091C17.1761 25.2539 15.9664 25.1376 16.4084 24.998C17.2226 24.7421 18.316 24.3234 18.8742 24.0209C16.4549 24.8817 15.2918 24.7654 14.8033 24.6723C14.6637 24.6491 14.5707 24.6025 14.6172 24.5793C15.4547 24.3466 16.5712 23.9744 17.0365 23.6488C14.1985 24.5328 12.7561 24.2071 12.7329 23.9744C12.6864 23.9279 15.0359 23.4394 15.4313 23.2998C15.0127 23.3463 13.8728 23.5557 12.6398 23.5557C12.4538 23.8581 12.1281 24.1838 11.7093 24.1838L8.73169 23.0904C10.2205 14.6926 15.7105 8.45817 22.2474 8.45817C22.7824 8.45817 23.2942 8.50469 23.8059 8.57453C23.3174 9.15608 23.2011 10.5053 23.2011 10.5053C23.2011 10.5053 22.5731 15.0183 22.2939 15.0415C21.0842 15.1811 20.9214 15.9488 20.9214 15.9488C20.9214 15.9488 20.27 14.8322 19.4791 15.344C18.8975 15.6231 18.3625 16.1349 18.3625 16.1349C18.3625 16.1349 17.3157 14.2041 15.8733 17.3213L13.2912 22.3461C13.7797 22.253 14.245 22.1832 14.6172 22.0669ZM31.8316 25.1608C31.785 25.9052 30.8313 26.3938 29.924 26.5101C29.0168 26.6264 26.6208 26.3938 26.0159 26.3705C26.8766 25.975 28.2258 25.6726 28.8307 25.4865C29.3657 25.3236 29.831 25.0445 30.18 24.5793C30.2032 24.5793 30.2032 24.556 30.2032 24.556C30.366 24.3466 30.4358 24.3001 30.4591 24.2768C31.1802 24.2768 31.8781 24.5094 31.8316 25.1608Z" fill="#7D7D7D"/>
<path d="M16.1293 37.7694L16.1061 37.5367L16.455 37.3274L16.4318 37.0947L16.0828 37.3041C16.013 37.1412 15.8967 37.118 15.7571 37.118C15.571 37.1412 15.4314 37.2343 15.4547 37.5367L15.4779 38.0252L16.4783 37.9554L16.455 37.7461L16.1293 37.7694ZM15.8967 37.7694L15.6176 37.7926L15.5943 37.5367C15.5943 37.4204 15.6176 37.3506 15.7339 37.3506C15.8502 37.3506 15.8967 37.3972 15.8967 37.5135V37.7694Z" fill="#7D7D7D"/>
<path d="M16.2916 36.2107H16.0822L16.152 35.6757L15.9659 35.6292L15.8728 36.141H15.6867L15.7798 35.5827L15.5937 35.5594L15.4541 36.3271L16.4311 36.4899L16.5707 35.7455L16.3846 35.699L16.2916 36.2107Z" fill="#7D7D7D"/>
<path d="M16.9898 34.5823L16.5013 34.0705L17.1061 34.3497L17.1992 34.1636L16.2919 33.7216L16.1756 34.0007L16.6641 34.5125H15.943L15.8267 34.7451L16.7339 35.1639L16.8037 34.9778L16.1989 34.6986L16.92 34.7451L16.9898 34.5823Z" fill="#7D7D7D"/>
<path d="M17.6643 33.4656L17.4316 33.2795L17.5944 33.0933C17.8038 32.8607 17.7573 32.6979 17.5944 32.5583C17.4316 32.4188 17.2688 32.4188 17.0826 32.6514L16.7803 33.0236L17.5246 33.6284L17.6643 33.4656ZM17.0826 32.977L17.2455 32.7677C17.3153 32.6514 17.3851 32.6514 17.4781 32.7211C17.5712 32.7909 17.5479 32.8607 17.4781 32.9538L17.3153 33.1864L17.0826 32.977Z" fill="#7D7D7D"/>
<path d="M18.8502 32.349C19.1992 32.0931 19.1062 31.907 18.9899 31.7442L18.6176 31.2556L18.4548 31.372L18.8037 31.8605C18.8968 31.9768 18.9201 32.0699 18.7572 32.1861C18.5944 32.3025 18.5246 32.2559 18.4315 32.1396L18.0826 31.6511L17.8965 31.7907L18.2687 32.3025C18.385 32.4421 18.5479 32.6049 18.8502 32.349Z" fill="#7D7D7D"/>
<path d="M20.1996 31.6049C20.4555 31.4886 20.5485 31.3955 20.4788 31.1862C20.4322 31.0698 20.3625 31 20.2462 31.0233C20.3159 30.9535 20.3392 30.8837 20.2927 30.7674C20.2229 30.6046 20.1065 30.5813 19.8507 30.6744L19.4087 30.8372L19.7809 31.7677L20.1996 31.6049ZM20.2694 31.256C20.2927 31.3257 20.2694 31.3723 20.1531 31.4188L19.9205 31.5118L19.8274 31.3025L20.0833 31.2094C20.1763 31.1862 20.2462 31.2094 20.2694 31.256ZM19.6645 30.9303L19.8972 30.8372C20.0135 30.7907 20.06 30.814 20.0833 30.8837C20.1065 30.9535 20.1065 31 19.9902 31.0466L19.7343 31.1164L19.6645 30.9303Z" fill="#7D7D7D"/>
<path d="M21.2001 30.3253H20.9907L21.1303 31.3256L21.8514 31.2093L21.8049 31.0232L21.3164 31.093L21.2001 30.3253Z" fill="#7D7D7D"/>
<path d="M22.4156 30.2314L22.3892 31.2313L22.5984 31.2369L22.625 30.2369L22.4156 30.2314Z" fill="#7D7D7D"/>
<path d="M23.7128 31.3722C23.9454 31.4188 24.0617 31.3722 24.1548 31.3025L24.0385 31.1396C23.9454 31.1862 23.8756 31.2094 23.7593 31.1862C23.5266 31.1396 23.4801 31 23.5266 30.814C23.5732 30.6278 23.6895 30.5348 23.8988 30.5813C23.9919 30.6046 24.0617 30.6511 24.1082 30.7209L24.2943 30.6046C24.2245 30.4883 24.1315 30.4185 23.9454 30.372C23.6197 30.3022 23.3871 30.4185 23.3173 30.7674C23.2475 31.0931 23.3406 31.2792 23.7128 31.3722Z" fill="#7D7D7D"/>
<path d="M24.8754 31.558L25.2709 31.7673L25.2477 31.9534L25.457 32.0465L25.5501 30.9764L25.3407 30.8834L24.5498 31.5812L24.7359 31.6742L24.8754 31.558ZM25.3407 31.1625L25.2942 31.5812L25.0151 31.4417L25.3407 31.1625Z" fill="#7D7D7D"/>
<path d="M26.5037 31.9769L26.2479 32.6515L26.3642 32.7678L27.0155 32.4422L26.5735 32.954L26.7364 33.1168L27.411 32.3723L27.1784 32.1863L26.527 32.4887L26.7829 31.7908L26.5735 31.6047L25.8989 32.3723L26.0617 32.4887L26.5037 31.9769Z" fill="#7D7D7D"/>
<path d="M28.6212 36.955L28.7841 36.9318L28.7375 36.4433L28.5515 36.4665L28.5747 36.7457H28.5515C28.4119 36.7689 28.3421 36.6992 28.3188 36.513C28.2956 36.2804 28.4119 36.2106 28.6212 36.1873C28.8306 36.1641 28.9469 36.2572 28.9702 36.4665C28.9935 36.6061 28.9469 36.6759 28.9004 36.7224L29.0632 36.862C29.1563 36.7689 29.2028 36.6526 29.1795 36.4433C29.1563 36.0943 28.9702 35.9315 28.6212 35.9547C28.2956 35.978 28.1327 36.0943 28.156 36.513C28.1793 36.9085 28.3421 37.0015 28.6212 36.955Z" fill="#7D7D7D"/>
<path d="M28.3419 37.6064L28.5512 37.653L28.4814 38.1415L28.6907 38.188L28.7606 37.653L28.9467 37.7227L28.8769 38.2345H29.063L29.1793 37.4901L28.179 37.3738L28.0859 38.1182L28.272 38.1415L28.3419 37.6064Z" fill="#7D7D7D"/>
<path d="M28.342 39.584C28.5281 39.6538 28.6676 39.6305 28.784 39.3281L28.9468 38.8628L27.993 38.5371L27.9233 38.7465L28.2256 38.8628L28.1559 39.0722L27.7836 39.1187L27.7139 39.3513L28.1093 39.2816C28.1093 39.4444 28.2024 39.5142 28.342 39.584ZM28.3187 39.1653L28.3885 38.9326L28.6676 39.0257L28.5746 39.2583C28.5513 39.3746 28.5048 39.4211 28.3885 39.3746C28.2954 39.3048 28.2722 39.2816 28.3187 39.1653Z" fill="#7D7D7D"/>
<path d="M27.1089 40.3514L27.2717 40.4677L27.5509 40.0025L27.737 40.1187L27.4578 40.5607L27.6207 40.6771L27.8998 40.2118L28.0626 40.3281L27.7835 40.7934L27.9696 40.9097L28.3418 40.2351L27.5044 39.7465L27.1089 40.3514Z" fill="#7D7D7D"/>
<path d="M26.7138 40.8631L26.9464 41.0958L26.7836 41.2586L26.4114 41.1656L26.2485 41.3284L26.644 41.4215C26.5742 41.5843 26.644 41.7006 26.737 41.7936C26.8766 41.91 27.0395 41.9565 27.2488 41.7239L27.5745 41.3749L26.8533 40.7003L26.7138 40.8631ZM27.2953 41.4447L27.1093 41.6308C27.0162 41.7239 26.9697 41.7239 26.8766 41.6541C26.8068 41.561 26.8068 41.5145 26.8999 41.4215L27.086 41.2353L27.2953 41.4447Z" fill="#7D7D7D"/>
<path d="M25.3179 42.0265L25.411 42.1893L25.853 41.9102L25.9925 42.073L25.5505 42.3755L25.6668 42.5383L26.1088 42.2126L26.2019 42.3755L25.7831 42.6778L25.8762 42.8407L26.5043 42.422L25.9227 41.6078L25.3179 42.0265Z" fill="#7D7D7D"/>
<path d="M23.1309 42.7941L23.1774 43.1198L22.9447 43.1431L22.7121 42.8406L22.4795 42.864L22.7121 43.1896C22.5726 43.2594 22.5261 43.399 22.5493 43.5385C22.5726 43.7246 22.6656 43.8642 22.9681 43.8177L23.4566 43.7712L23.3402 42.7709L23.1309 42.7941ZM22.9447 43.6548C22.8284 43.6781 22.7819 43.6548 22.7587 43.5385C22.7587 43.4222 22.8052 43.399 22.9215 43.3757L23.1774 43.3525L23.2007 43.6316L22.9447 43.6548Z" fill="#7D7D7D"/>
<path d="M21.2935 43.0033L21.8285 43.0731L21.8052 43.2593L21.2935 43.236L21.2702 43.4221L21.782 43.4686L21.7587 43.6547L21.2469 43.5849L21.2236 43.8175L21.9681 43.8873L22.0611 42.887L21.3167 42.794L21.2935 43.0033Z" fill="#7D7D7D"/>
<path d="M20.4557 42.608C20.2464 42.5383 20.1068 42.5848 20.0137 42.6313L20.1068 42.8174C20.1998 42.7709 20.2696 42.7477 20.3859 42.7942C20.6185 42.8639 20.665 43.0035 20.5953 43.1896C20.5487 43.3757 20.4324 43.4688 20.2231 43.399C20.1068 43.3757 20.0602 43.3059 20.0137 43.2362L19.8276 43.3292C19.8742 43.4455 19.9905 43.5386 20.1533 43.5851C20.4557 43.6782 20.6884 43.5851 20.8047 43.2362C20.921 42.9105 20.8279 42.6779 20.4557 42.608Z" fill="#7D7D7D"/>
<path d="M19.2929 42.073L18.8974 42.7709L18.595 42.608L18.502 42.7941L19.3162 43.2361L19.4092 43.0733L19.1068 42.8872L19.479 42.1893L19.2929 42.073Z" fill="#7D7D7D"/>
<path d="M18.1066 41.2121L17.9903 41.3749L18.409 41.7239L18.2461 41.8634L17.8507 41.5611L17.7344 41.6773L18.1298 42.0263L18.0135 42.1891L17.5948 41.8402L17.4785 41.9798L18.0368 42.445L18.6881 41.6773L18.1066 41.2121Z" fill="#7D7D7D"/>
<path d="M23.1779 34.5823L22.2474 33.931L21.2937 34.6056L21.6426 33.489L20.7121 32.7911L21.8753 32.7679L22.2474 31.6745C19.3396 31.6745 16.9668 34.0473 16.9668 36.9551C16.9668 37.56 17.1995 38.5138 17.3855 39.0953C19.1768 36.6527 21.4566 35.0941 23.1779 34.5823Z" fill="#7D7D7D"/>
<path d="M23.7824 32.7679L22.8519 33.4658L23.2008 34.5592C23.2474 34.5359 23.2939 34.5359 23.3404 34.5127C24.8059 34.0707 26.1086 33.9776 26.6437 33.9776C25.6667 32.5585 24.0616 31.6513 22.2471 31.6513L22.6192 32.7447L23.7824 32.7679Z" fill="#7D7D7D"/>
<path d="M27.3185 35.9083C26.0623 35.9548 21.2934 36.7923 18.3623 40.5609L18.2925 40.6539C19.223 41.4216 20.9444 42.2125 22.2471 42.2125C25.155 42.2125 27.5278 39.8397 27.5278 36.9318C27.5278 36.676 27.4115 36.0246 27.4115 35.885L27.3185 35.9083Z" fill="#7D7D7D"/>
<path d="M19.0137 38.9558L18.9439 39.0256L19.0835 39.1187L19.1301 39.0489C19.4324 38.7232 19.3859 38.5371 19.1068 38.3045C18.9207 38.1184 18.7346 38.1184 18.5485 38.3277C18.3624 38.5371 18.3856 38.6767 18.5485 38.8162C18.6881 38.9326 18.8044 38.9791 18.9672 38.793C19.0603 38.6767 19.1068 38.6069 19.0835 38.5371C19.1533 38.6534 19.2464 38.6999 19.0137 38.9558ZM18.8974 38.6767C18.8044 38.7697 18.7346 38.7697 18.6648 38.6999C18.595 38.6534 18.5717 38.5836 18.6648 38.4673C18.7579 38.351 18.8276 38.351 18.9207 38.4208C18.9905 38.4906 18.9672 38.5836 18.8974 38.6767Z" fill="#7D7D7D"/>
<path d="M20.2694 37.9553L20.4322 37.8158L19.5482 37.3738L19.4087 37.5133L19.7343 38.4438L19.8739 38.3043L19.8274 38.1647L20.1298 37.8856L20.2694 37.9553ZM19.7576 37.9553L19.618 37.5831L19.967 37.7693L19.7576 37.9553Z" fill="#7D7D7D"/>
<path d="M20.8742 37.4903C21.0836 37.3507 21.1534 37.2344 21.037 37.0716C20.944 36.9785 20.8742 36.932 20.7812 36.9785C20.8277 36.9087 20.8277 36.8389 20.7579 36.7459C20.6648 36.6296 20.5253 36.6296 20.3392 36.7691L19.9902 37.025L20.5485 37.7461L20.8742 37.4903ZM20.2461 37.025L20.4322 36.8854C20.5253 36.8389 20.5485 36.8389 20.595 36.8854C20.6416 36.932 20.6416 36.9785 20.5485 37.0483L20.3624 37.1879L20.2461 37.025ZM20.6416 37.1879C20.7347 37.1181 20.7812 37.1181 20.8277 37.1879C20.8742 37.2344 20.8742 37.2809 20.7812 37.3507L20.5718 37.4903L20.4555 37.3274L20.6416 37.1879Z" fill="#7D7D7D"/>
<path d="M21.7581 36.9086L21.9442 36.7923L21.6185 36.6062C21.7349 36.4899 21.7116 36.3736 21.6418 36.2573C21.572 36.1176 21.4324 36.0479 21.1998 36.1874L20.8276 36.3968L21.2929 37.1645L21.4557 37.0714L21.2929 36.8156L21.4557 36.7225L21.7581 36.9086ZM21.3859 36.5596L21.1765 36.6992L21.037 36.4666L21.2463 36.3503C21.3394 36.2805 21.4092 36.2805 21.4557 36.3736C21.5022 36.4666 21.479 36.5131 21.3859 36.5596Z" fill="#7D7D7D"/>
<path d="M21.8929 35.8122L21.7056 35.9056L22.1105 36.7176L22.2978 36.6241L21.8929 35.8122Z" fill="#7D7D7D"/>
<path d="M23.0374 36.2805L22.9909 36.1409L22.5722 36.327L22.293 35.6292L22.1069 35.6989L22.4559 36.5597L23.0374 36.2805Z" fill="#7D7D7D"/>
<path d="M23.1545 35.5127L23.294 35.443L23.5266 36.1409L23.6895 36.0943L23.4336 35.2103L23.1079 35.3267L23.1545 35.5127Z" fill="#7D7D7D"/>
<path d="M23.8289 35.7919C23.8522 35.9315 23.9685 36.0246 24.2709 35.9781C24.5733 35.9083 24.6199 35.7687 24.5966 35.6291C24.5501 35.5128 24.5036 35.4198 24.3873 35.4198C24.4803 35.3732 24.4803 35.2802 24.457 35.2104C24.4338 35.0941 24.3407 35.001 24.0616 35.0708C23.7824 35.1406 23.7359 35.2569 23.7591 35.3732C23.7824 35.4663 23.8289 35.5128 23.922 35.5361C23.8056 35.5593 23.8056 35.6756 23.8289 35.7919ZM24.3873 35.6291C24.4105 35.7221 24.364 35.7919 24.2011 35.8152C24.0616 35.8384 24.015 35.7919 23.9918 35.7221C23.9685 35.6291 24.015 35.5593 24.1546 35.5361C24.2942 35.5128 24.364 35.5128 24.3873 35.6291ZM24.0848 35.1639C24.2011 35.1406 24.2476 35.1639 24.2709 35.2336C24.2942 35.3034 24.2709 35.3499 24.1313 35.3732C24.015 35.3965 23.9685 35.3732 23.9453 35.3034C23.922 35.2336 23.9453 35.2104 24.0848 35.1639Z" fill="#7D7D7D"/>
<path d="M24.9454 35.629L24.8523 35.6523L24.8757 35.8152L24.9687 35.7919C25.4107 35.7221 25.4805 35.5825 25.434 35.2103C25.4107 34.9312 25.2711 34.8149 24.992 34.8614C24.7128 34.9079 24.643 35.0242 24.6663 35.2336C24.6895 35.4197 24.7826 35.5127 25.0152 35.4895C25.1548 35.4662 25.2478 35.443 25.2711 35.3732C25.2711 35.4662 25.2711 35.5825 24.9454 35.629ZM25.0617 35.3499C24.9222 35.3732 24.8757 35.3034 24.8523 35.2103C24.8523 35.1173 24.8757 35.0475 25.0152 35.0242C25.1315 35.001 25.2013 35.0475 25.2246 35.1638C25.2478 35.2801 25.178 35.3267 25.0617 35.3499Z" fill="#7D7D7D"/>
<path d="M25.876 35.2802L25.5968 35.5594V35.6989L26.2715 35.6524V35.4896L25.876 35.5128L26.0621 35.35C26.2017 35.2337 26.2482 35.1406 26.2482 35.0011C26.2249 34.815 26.1086 34.7452 25.8992 34.7684C25.7364 34.7684 25.6433 34.815 25.5503 34.8615L25.6433 35.0011C25.6899 34.9778 25.7829 34.9313 25.876 34.9313C25.9923 34.9313 26.0388 34.9545 26.0388 35.0243C26.0388 35.1406 26.0155 35.1639 25.876 35.2802Z" fill="#7D7D7D"/>
<path d="M20.5951 6.71358L22.6422 5.27131L24.6893 6.71358L23.9449 4.29427L25.9687 2.82872L23.4564 2.75894L22.6422 0.386139L21.8513 2.75894L19.3389 2.82872L21.3395 4.29427L20.5951 6.71358Z" fill="#7D7D7D"/>
<path d="M22.898 51.9829C22.7351 51.8899 22.6188 52.0295 22.4095 52.3552C22.2001 52.7041 22.1303 52.8437 22.2699 52.96C22.4327 53.053 22.549 52.9367 22.7584 52.5878C22.991 52.2621 23.0608 52.076 22.898 51.9829Z" fill="#7D7D7D"/>
<path d="M21.1311 51.146C21.2011 51.0295 21.2011 50.9363 21.1078 50.8897L20.9913 50.8197L20.7583 51.1926L20.8748 51.2625C20.968 51.3324 21.0612 51.2159 21.1311 51.146Z" fill="#7D7D7D"/>
<path d="M30.087 52.1458L29.9009 52.8437H30.2033L30.1103 52.1458H30.087Z" fill="#7D7D7D"/>
<path d="M26.1317 51.0988L25.9688 51.029L25.5269 52.0061L25.6665 52.0759C25.8525 52.1689 25.9456 52.0294 26.1085 51.6804C26.2248 51.4012 26.3411 51.1686 26.1317 51.0988Z" fill="#7D7D7D"/>
<path d="M12.5001 50.6336H12.3372L12.314 51.7037H12.4768C12.6862 51.7037 12.7094 51.5642 12.7327 51.1687C12.7327 50.8663 12.7327 50.6336 12.5001 50.6336Z" fill="#7D7D7D"/>
<path d="M10.9185 51.4475L11.2208 51.401L10.9882 50.7497L10.9185 51.4475Z" fill="#7D7D7D"/>
<path d="M14.012 50.6799C13.8259 50.6566 13.7794 50.8194 13.7329 51.2149C13.6863 51.6104 13.6863 51.7732 13.8492 51.8197C14.0352 51.843 14.0818 51.6802 14.1283 51.2847C14.1981 50.8659 14.1981 50.6799 14.012 50.6799Z" fill="#7D7D7D"/>
<path d="M16.1288 51.1453L15.966 51.0988L15.6636 52.1456L15.8264 52.1922C16.0125 52.2387 16.1056 52.1223 16.1986 51.7269C16.2684 51.4477 16.3382 51.2151 16.1288 51.1453Z" fill="#7D7D7D"/>
<path d="M17.5946 51.6107C17.4317 51.5409 17.3387 51.7038 17.1759 52.076C17.0363 52.4482 16.9897 52.611 17.1526 52.6808C17.3154 52.7506 17.4085 52.5877 17.548 52.2155C17.7109 51.8433 17.7574 51.6805 17.5946 51.6107Z" fill="#7D7D7D"/>
<path d="M35.7859 51.1454C35.623 51.2152 35.6696 51.378 35.8091 51.7503C35.9719 52.1225 36.065 52.262 36.2279 52.1923C36.3907 52.1225 36.3442 51.9596 36.2046 51.5874C36.0418 51.2152 35.9487 51.0524 35.7859 51.1454Z" fill="#7D7D7D"/>
<path d="M31.0169 50.75C28.9931 50.75 27.0855 50.1684 25.4804 49.1681L24.2475 51.1455L20.6883 48.9588C20.6883 48.9588 20.0369 50.0056 19.4553 50.9593C17.3849 49.8195 15.0122 49.1681 12.4765 49.1681C9.68501 49.1681 7.07958 49.9591 4.86963 51.3315C4.86963 51.3315 6.45151 53.8905 6.91676 54.6581C8.52185 53.6578 10.4294 53.0763 12.4533 53.0763C14.5004 53.0763 16.3847 53.6578 17.9898 54.6581L19.2227 52.6575L22.7354 54.821C22.9448 54.4953 23.5031 53.6113 23.9916 52.8437C26.062 53.9835 28.458 54.6349 30.9937 54.6349C33.7852 54.6349 36.3906 53.8672 38.6005 52.4947C38.6238 52.518 36.9489 49.8195 36.5535 49.1681C34.9483 50.1684 33.0408 50.75 31.0169 50.75ZM7.40527 53.1228L6.73062 51.727L7.49831 51.3548L7.59135 51.5642L7.1261 51.7968L7.28897 52.1458L7.73096 51.9364L7.824 52.1458L7.38201 52.3551L7.59135 52.7738L8.07986 52.5412L8.17295 52.7506L7.40527 53.1228ZM8.8708 52.5412C8.47533 52.6808 8.33577 52.4714 8.26599 52.2155L8.56843 52.0992C8.61495 52.2388 8.66147 52.3551 8.82428 52.3086C8.91732 52.2621 8.96384 52.1923 8.91732 52.0992C8.82428 51.8201 8.19621 52.0295 8.0566 51.5875C7.98682 51.3548 8.03334 51.1222 8.40555 51.0059C8.70799 50.9128 8.89406 50.9826 8.98716 51.3083L8.68473 51.4013C8.63821 51.285 8.59169 51.192 8.47533 51.2385C8.38229 51.2618 8.33577 51.3548 8.35903 51.4478C8.45207 51.727 9.0802 51.4944 9.21976 51.9597C9.35931 52.3086 9.10346 52.4482 8.8708 52.5412ZM10.1735 52.1923L9.84783 52.262L9.56871 50.9826L9.21976 51.0524L9.17324 50.7965L10.1968 50.5639L10.2433 50.8198L9.8944 50.8896L10.1735 52.1923ZM11.453 51.9829L11.3134 51.6572L10.8714 51.7038L10.8249 52.0527L10.4992 52.0992L10.7318 50.4941L11.1505 50.4476L11.7554 51.9364L11.453 51.9829ZM12.523 51.9597H11.988L12.0113 50.401H12.5464C12.965 50.401 13.0581 50.7035 13.0349 51.192C13.0581 51.4013 13.0814 51.9597 12.523 51.9597ZM14.4539 51.3315C14.4074 51.727 14.3376 52.1225 13.8025 52.0527C13.2675 51.9829 13.314 51.5875 13.3838 51.192C13.4536 50.7733 13.5001 50.401 14.0351 50.4708C14.5702 50.5406 14.5237 50.9128 14.4539 51.3315ZM16.501 51.7968C16.4312 52.0295 16.3149 52.5645 15.7799 52.4017L15.2681 52.262L15.6868 50.75L16.2218 50.9128C16.6406 51.0291 16.6406 51.3315 16.501 51.7968ZM17.8735 52.3318C17.7106 52.704 17.5711 53.0763 17.0826 52.8902C16.5941 52.6808 16.7336 52.3086 16.8964 51.9364C17.0593 51.5409 17.1989 51.192 17.6874 51.4013C18.1759 51.6107 18.0363 51.9597 17.8735 52.3318ZM21.0372 51.8666C20.9907 51.9597 20.8278 52.2155 20.8278 52.2853L20.572 52.1225C20.572 52.0062 20.6418 51.9364 20.7115 51.8433C20.8046 51.6805 20.9209 51.5642 20.6883 51.4246L20.6185 51.3781L20.2695 51.9131L19.9904 51.727L20.8278 50.401L21.3396 50.7267C21.5257 50.843 21.5723 51.0291 21.4327 51.2618C21.3164 51.4246 21.1768 51.5177 20.9907 51.4246C21.0372 51.4944 21.2001 51.6107 21.0372 51.8666ZM21.107 52.4482L21.9445 51.1222L22.2236 51.3083L21.3861 52.6343L21.107 52.4482ZM23.0611 52.7738C22.8517 53.1228 22.6191 53.4485 22.1771 53.1693C21.7118 52.8902 21.9445 52.5412 22.1538 52.1923C22.3865 51.8433 22.5958 51.5177 23.0378 51.7968C23.4798 52.076 23.2705 52.4249 23.0611 52.7738ZM25.62 52.3086L25.1315 52.0992L25.7828 50.6802L26.2714 50.9128C26.6668 51.099 26.6203 51.3781 26.4109 51.8201C26.3179 52.0295 26.1317 52.5412 25.62 52.3086ZM27.7369 51.6805L27.2251 51.5177L27.1088 51.8898L27.574 52.0295L27.5042 52.262L27.039 52.1225L26.8994 52.5645L27.4112 52.7273L27.3414 52.96L26.504 52.704L26.9692 51.2153L27.7834 51.4711L27.7369 51.6805ZM28.7139 53.2623C28.2719 53.1926 28.2719 53.0065 28.3184 52.6575L28.6441 52.704C28.6209 52.8204 28.5744 53.0065 28.7372 53.0297C28.807 53.053 28.8767 52.9832 28.8767 52.9134L29.0629 51.7038L29.3886 51.7503L29.2024 52.9367C29.1792 53.2391 28.9466 53.3089 28.7139 53.2623ZM30.3191 53.4252L30.2492 53.0763L29.8072 53.053L29.6909 53.402L29.3653 53.3787L29.9003 51.8433L30.3423 51.8666L30.6447 53.4485L30.3191 53.4252ZM31.7613 53.4252L31.2728 52.3086L31.3193 53.4485H31.0169L30.9471 51.8898L31.3891 51.8666L31.8544 52.9367L31.8079 51.8666L32.1103 51.8433L32.1801 53.402L31.7613 53.4252ZM32.6453 53.3554L32.4127 51.8201L33.2501 51.6805L33.2967 51.9131L32.7849 51.9829L32.8547 52.3551L33.3432 52.2853L33.3897 52.518L32.9012 52.5877L32.971 53.0297L33.506 52.9367L33.5526 53.1693L32.6453 53.3554ZM33.7852 53.146L33.4595 51.6107L33.7852 51.5409L34.1109 53.0763L33.7852 53.146ZM35.1577 52.7738C35.0879 52.704 35.0646 52.5877 35.0414 52.4947C34.9948 52.3086 34.9483 52.169 34.7157 52.2388L34.6226 52.262L34.8088 52.8902L34.5063 52.9832L34.0643 51.4944L34.6459 51.3083C34.8553 51.2385 35.0414 51.3315 35.1111 51.5875C35.1577 51.7735 35.1345 51.9364 34.9483 52.0295C35.0181 52.0062 35.2275 51.9597 35.2973 52.2388C35.3205 52.3318 35.4136 52.611 35.4601 52.6575L35.1577 52.7738ZM36.3208 52.3784C35.8323 52.5877 35.6695 52.2155 35.5066 51.8433C35.3438 51.4711 35.181 51.099 35.6927 50.8896C36.1813 50.6802 36.3441 51.0291 36.5069 51.4246C36.6465 51.8433 36.8093 52.1923 36.3208 52.3784Z" fill="#7D7D7D"/>
<path d="M34.5768 51.5642L34.437 51.6108L34.5535 52.0303L34.6933 51.9837C34.8098 51.9371 34.8098 51.8205 34.7865 51.7273C34.7632 51.6108 34.67 51.5642 34.5768 51.5642Z" fill="#7D7D7D"/>
<path d="M55.6522 28.4176C56.8618 28.4176 57.8387 28.2548 58.6068 27.9059C59.3743 27.5569 60.0258 27.0452 60.5607 26.3705C61.0956 25.6959 61.4677 24.8352 61.7237 23.8116L58.0947 22.7183C57.9084 23.5557 57.6295 24.2071 57.2108 24.6491C56.8153 25.091 56.2105 25.3237 55.4196 25.3237C54.6054 25.3237 53.9772 25.0445 53.512 24.4862C53.0467 23.9279 52.8374 22.9277 52.8374 21.4388C52.8374 20.2292 53.0235 19.3685 53.3957 18.8101C53.8842 18.0658 54.6054 17.6703 55.5591 17.6703C55.9779 17.6703 56.3501 17.7633 56.6758 17.9261C57.0014 18.089 57.3038 18.3449 57.5364 18.6473C57.6758 18.8334 57.8158 19.1358 57.9319 19.5545L61.5843 18.7403C61.1191 17.3213 60.3978 16.2745 59.4206 15.5999C58.4439 14.9253 57.1178 14.5763 55.4428 14.5763C53.2794 14.5763 51.6277 15.1811 50.4413 16.3676C49.2549 17.5539 48.6733 19.2521 48.6733 21.4853C48.6733 23.137 48.999 24.5095 49.6737 25.5796C50.3483 26.6497 51.1392 27.3941 52.0697 27.8128C53.0002 28.2083 54.2099 28.4176 55.6522 28.4176Z" fill="#7D7D7D"/>
<path d="M66.3767 27.6034C67.3768 28.1384 68.6798 28.4176 70.2617 28.4176C71.5641 28.4176 72.6808 28.278 73.6112 27.9756C74.5421 27.6732 75.6354 27.1149 76.8681 26.2774V20.5548H70.4708V23.3463H73.2391V24.6025C72.7042 24.9282 72.2156 25.1608 71.7967 25.2771C71.3784 25.4167 70.936 25.4865 70.4708 25.4865C69.4942 25.4865 68.7261 25.184 68.1912 24.556C67.6562 23.9279 67.3768 22.9043 67.3768 21.4388C67.3768 20.0663 67.6562 19.066 68.1912 18.4379C68.7261 17.8098 69.4473 17.4841 70.3548 17.4841C70.9595 17.4841 71.4715 17.6237 71.867 17.8796C72.2625 18.1354 72.5414 18.5309 72.7042 19.0427L76.7052 18.3216C76.4726 17.4608 76.1006 16.7397 75.612 16.1814C75.1234 15.6231 74.5187 15.2044 73.7741 14.9252C73.03 14.6461 71.9367 14.5297 70.448 14.5297C68.9124 14.5297 67.6797 14.7391 66.7721 15.1811C65.6092 15.7394 64.7251 16.5536 64.1204 17.6469C63.5152 18.717 63.2129 19.9965 63.2129 21.462C63.2129 22.8578 63.4923 24.0907 64.0507 25.1608C64.609 26.2542 65.3766 27.0684 66.3767 27.6034Z" fill="#7D7D7D"/>
<path d="M90.6159 25.1608H83.4745V22.5088H89.9181V19.7871H83.4745V17.6469H90.4067V14.7856H79.3101V28.1849H90.6159V25.1608Z" fill="#7D7D7D"/>
<path d="M104.062 24.3002C103.969 24.1141 103.783 23.835 103.481 23.4628C103.202 23.1139 102.969 22.8579 102.829 22.7649C102.596 22.6021 102.248 22.4392 101.759 22.2764C102.364 22.1368 102.853 21.9507 103.225 21.7414C103.783 21.4157 104.225 20.9737 104.528 20.4386C104.853 19.9036 104.993 19.2522 104.993 18.5078C104.993 17.6471 104.784 16.926 104.365 16.3444C103.946 15.7628 103.411 15.3441 102.737 15.1347C102.062 14.9253 101.084 14.8091 99.8053 14.8091H92.896V28.2084H97.0599V22.7416H97.4325C97.8045 22.7416 98.1537 22.8347 98.456 23.0441C98.6652 23.2069 98.9212 23.5558 99.2001 24.0676L101.41 28.1618H106.086L104.062 24.3002ZM100.573 19.6244C100.41 19.857 100.177 19.9967 99.8979 20.0432C99.363 20.1595 98.991 20.2293 98.8046 20.2293H97.0599V17.4843H98.8744C99.619 17.4843 100.154 17.6006 100.41 17.8332C100.689 18.0658 100.829 18.3915 100.829 18.8335C100.829 19.1359 100.736 19.3918 100.573 19.6244Z" fill="#7D7D7D"/>
<path d="M116.717 25.5562C116.996 24.7653 117.112 23.6022 117.112 22.0668V14.7856H112.972V23.0439C112.972 23.858 112.855 24.4397 112.646 24.7886C112.437 25.1375 112.088 25.3004 111.622 25.3004C111.32 25.3004 111.11 25.2539 110.947 25.1375C110.715 24.9514 110.552 24.7188 110.459 24.4397C110.366 24.1605 110.319 23.7185 110.297 23.1137L106.342 23.6487C106.412 24.6955 106.644 25.5562 107.063 26.2541C107.458 26.952 108.04 27.4871 108.784 27.8592C109.528 28.2314 110.575 28.4176 111.925 28.4176C113.204 28.4176 114.251 28.1384 115.065 27.5801C115.903 27.0218 116.461 26.3472 116.717 25.5562Z" fill="#7D7D7D"/>
<path d="M54.2335 34.4427L53.7683 34.3264C53.6985 34.6287 53.5822 34.8381 53.3961 35.001C53.21 35.1405 53.0006 35.2336 52.7215 35.2336C52.5121 35.2336 52.3028 35.187 52.1166 35.0707C51.9305 34.9544 51.791 34.7916 51.6979 34.559C51.6049 34.3264 51.5583 34.0705 51.5583 33.768C51.5583 33.5354 51.6049 33.3028 51.6746 33.0934C51.7444 32.884 51.884 32.698 52.0701 32.5583C52.2562 32.4188 52.4888 32.3723 52.7448 32.3723C52.9774 32.3723 53.1867 32.442 53.3263 32.5583C53.4891 32.6747 53.6055 32.8608 53.6753 33.1167L54.1405 33.0004C54.0475 32.6747 53.8846 32.4188 53.6287 32.2327C53.3961 32.0466 53.0937 31.9535 52.7448 31.9535C52.4423 31.9535 52.1399 32.0233 51.884 32.1629C51.6281 32.3025 51.4188 32.5118 51.2792 32.791C51.1396 33.0702 51.0698 33.3958 51.0698 33.7448C51.0698 34.0937 51.1396 34.3962 51.2559 34.6985C51.3723 35.001 51.5583 35.2104 51.791 35.3732C52.0236 35.536 52.3493 35.6058 52.7215 35.6058C53.0937 35.6058 53.3961 35.5127 53.652 35.3034C53.9544 35.1405 54.1172 34.8381 54.2335 34.4427Z" fill="#7D7D7D"/>
<path d="M55.7917 32.9539C55.466 32.9539 55.2101 33.047 54.9775 33.2331C54.7216 33.4657 54.582 33.8146 54.582 34.2799C54.582 34.7219 54.6983 35.0476 54.9077 35.2802C55.1403 35.5128 55.4195 35.6291 55.7684 35.6291C56.001 35.6291 56.1871 35.5826 56.3965 35.4663C56.5826 35.3733 56.7222 35.2104 56.8385 35.0243C56.9316 34.8382 56.9781 34.5823 56.9781 34.2566C56.9781 33.8612 56.8618 33.5355 56.6524 33.3029C56.4198 33.0702 56.1406 32.9539 55.7917 32.9539ZM56.3267 35.0243C56.1871 35.1871 56.001 35.2802 55.7917 35.2802C55.5823 35.2802 55.3962 35.1871 55.2566 35.0243C55.1171 34.8614 55.0473 34.6056 55.0473 34.2799C55.0473 33.9542 55.1171 33.6983 55.2566 33.5355C55.3962 33.3727 55.5823 33.3029 55.7917 33.3029C56.001 33.3029 56.1871 33.3959 56.3267 33.5587C56.4663 33.7216 56.5361 33.9542 56.5361 34.2799C56.5361 34.6056 56.4663 34.8614 56.3267 35.0243Z" fill="#7D7D7D"/>
<path d="M58.6065 33.3262C58.7225 33.3262 58.8157 33.3495 58.9089 33.396C59.002 33.4425 59.0483 33.5123 59.0946 33.6053C59.118 33.6984 59.1414 33.8147 59.1414 34.0008V35.5594H59.5832V33.9776C59.5832 33.7682 59.5832 33.6286 59.5604 33.5588C59.5369 33.4425 59.4901 33.3262 59.4203 33.2331C59.3506 33.1401 59.2575 33.0703 59.1414 33.0238C59.002 32.9773 58.862 32.9308 58.7225 32.9308C58.3739 32.9308 58.0945 33.0703 57.9082 33.3495V32.9773H57.5127V35.5362H57.955V34.1404C57.955 33.8147 58.0248 33.5821 58.1642 33.4658C58.3036 33.3495 58.4202 33.3262 58.6065 33.3262Z" fill="#7D7D7D"/>
<path d="M61.003 35.2103C60.9333 35.2103 60.887 35.2103 60.8636 35.1871C60.8402 35.1638 60.7939 35.1406 60.7939 35.094C60.7939 35.0475 60.7704 34.9777 60.7704 34.8614V33.3726H61.2128V33.0236H60.7704V32.1396L60.3287 32.3956V33.0236H60.0029V33.3726H60.3287V34.8381C60.3287 35.094 60.3521 35.2801 60.375 35.3499C60.4218 35.4197 60.4681 35.4895 60.5613 35.536C60.6544 35.5825 60.7704 35.6058 60.9333 35.6058C61.0265 35.6058 61.1425 35.5825 61.2591 35.5593L61.1893 35.1871C61.1196 35.1871 61.0499 35.2103 61.003 35.2103Z" fill="#7D7D7D"/>
<path d="M63.0035 33.0935C62.864 33.0004 62.7012 32.9539 62.5617 32.9539C62.4686 32.9539 62.3754 32.9772 62.2823 33.047C62.1891 33.0935 62.096 33.2331 62.0034 33.3959V33.0004H61.6079V35.5593H62.0497V34.2101C62.0497 34.024 62.0731 33.8612 62.1194 33.6983C62.1428 33.6053 62.2125 33.5122 62.2823 33.4657C62.352 33.4192 62.4451 33.3727 62.5383 33.3727C62.6543 33.3727 62.7475 33.3959 62.864 33.4657L63.0035 33.0935Z" fill="#7D7D7D"/>
<path d="M64.307 32.9539C63.9813 32.9539 63.7252 33.047 63.4926 33.2331C63.2366 33.4657 63.0972 33.8146 63.0972 34.2799C63.0972 34.7219 63.2132 35.0476 63.4229 35.2802C63.6555 35.5128 63.9344 35.6291 64.2836 35.6291C64.5162 35.6291 64.7025 35.5826 64.9117 35.4663C65.098 35.3733 65.2374 35.2104 65.3534 35.0243C65.4466 34.8382 65.4934 34.5823 65.4934 34.2566C65.4934 33.8612 65.3768 33.5355 65.1677 33.3029C64.9351 33.0702 64.6556 32.9539 64.307 32.9539ZM64.8419 35.0243C64.7025 35.1871 64.5162 35.2802 64.307 35.2802C64.0973 35.2802 63.9115 35.1871 63.7715 35.0243C63.6321 34.8614 63.5624 34.6056 63.5624 34.2799C63.5624 33.9542 63.6321 33.6983 63.7715 33.5355C63.9115 33.3727 64.0973 33.3029 64.307 33.3029C64.5162 33.3029 64.7025 33.3959 64.8419 33.5587C64.9814 33.7216 65.0511 33.9542 65.0511 34.2799C65.0511 34.6056 64.9814 34.8614 64.8419 35.0243Z" fill="#7D7D7D"/>
<path d="M66.4457 32.0467H66.0039V35.5827H66.4457V32.0467Z" fill="#7D7D7D"/>
<path d="M69.1684 34.5127V33.9311C69.1684 33.745 69.1684 33.6055 69.145 33.5356C69.1216 33.4193 69.0753 33.3263 69.0056 33.2333C68.9358 33.1635 68.8427 33.0937 68.7032 33.0471C68.5632 33.0006 68.3775 32.9774 68.1678 32.9774C67.9586 32.9774 67.7494 33.0006 67.5866 33.0704C67.4237 33.1402 67.2842 33.21 67.2145 33.3263C67.1214 33.4426 67.0516 33.5822 67.0282 33.7683L67.4471 33.8148C67.4934 33.6287 67.5631 33.5124 67.6563 33.4426C67.7494 33.3728 67.9123 33.3263 68.098 33.3263C68.3078 33.3263 68.4707 33.3728 68.5867 33.4659C68.6798 33.5356 68.7032 33.652 68.7032 33.8381C68.7032 33.8613 68.7032 33.8846 68.7032 33.9544C68.5404 34.001 68.2843 34.0707 67.9352 34.094C67.7729 34.1173 67.6328 34.1405 67.5397 34.1638C67.4237 34.187 67.3305 34.2336 67.2374 34.3033C67.1442 34.3731 67.0745 34.4429 67.0048 34.5592C66.9585 34.6523 66.9116 34.7686 66.9116 34.9082C66.9116 35.1175 66.9819 35.3036 67.1442 35.4432C67.3071 35.5828 67.5168 35.6526 67.7957 35.6526C67.9586 35.6526 68.1215 35.6293 68.2843 35.5595C68.4238 35.513 68.5867 35.3967 68.7495 35.2804C68.773 35.3967 68.7964 35.513 68.8427 35.606H69.2845C69.2382 35.513 69.1919 35.3967 69.1684 35.3036C69.1919 35.1641 69.1684 34.9082 69.1684 34.5127ZM68.7495 34.4429C68.7495 34.629 68.7261 34.7686 68.6798 34.8849C68.6101 35.0012 68.5169 35.1175 68.4009 35.1873C68.2609 35.2571 68.1215 35.3036 67.9586 35.3036C67.7957 35.3036 67.6563 35.2571 67.5631 35.1873C67.47 35.1175 67.4237 35.0245 67.4237 34.9082C67.4237 34.8384 67.4471 34.7686 67.4934 34.6988C67.5397 34.629 67.5866 34.5825 67.6563 34.5592C67.726 34.536 67.8654 34.4895 68.0283 34.4662C68.3541 34.4196 68.5867 34.3731 68.7261 34.3033V34.4429H68.7495Z" fill="#7D7D7D"/>
<path d="M71.4937 33.3029C71.424 33.2099 71.3308 33.1168 71.1914 33.047C71.0519 32.9772 70.9353 32.954 70.7725 32.954C70.5633 32.954 70.377 33.0005 70.1913 33.1168C70.0284 33.2331 69.8889 33.396 69.8186 33.6054C69.7261 33.8147 69.7026 34.0473 69.7026 34.3032C69.7026 34.5591 69.7489 34.7917 69.8421 35.0011C69.9352 35.2104 70.0747 35.35 70.2376 35.4664C70.4004 35.5827 70.5867 35.6292 70.7959 35.6292C71.1216 35.6292 71.3542 35.5129 71.5171 35.257V35.5827H71.9126V32.0467H71.4708V33.3029H71.4937ZM71.3308 35.0476C71.1914 35.2104 71.0285 35.2802 70.8422 35.2802C70.6565 35.2802 70.4936 35.2104 70.3541 35.0476C70.2141 34.8848 70.1444 34.6289 70.1444 34.3032C70.1444 33.9542 70.2141 33.7217 70.3307 33.5588C70.4467 33.396 70.6096 33.3262 70.8193 33.3262C71.0285 33.3262 71.1914 33.4192 71.308 33.5821C71.4474 33.7449 71.5171 34.0008 71.5171 34.3497C71.5171 34.6522 71.4474 34.8848 71.3308 35.0476Z" fill="#7D7D7D"/>
<path d="M74.2627 35.4663C74.449 35.3733 74.5885 35.2104 74.7051 35.0243C74.7982 34.8382 74.8445 34.5823 74.8445 34.2566C74.8445 33.8612 74.7279 33.5355 74.5188 33.3029C74.2862 33.0702 74.0073 32.9539 73.6581 32.9539C73.3323 32.9539 73.0763 33.047 72.8437 33.2331C72.5883 33.4657 72.4482 33.8146 72.4482 34.2799C72.4482 34.7219 72.5648 35.0476 72.774 35.2802C73.0066 35.5128 73.286 35.6291 73.6347 35.6291C73.8673 35.6291 74.077 35.5826 74.2627 35.4663ZM72.8906 34.3032C72.8906 33.9775 72.9603 33.7216 73.0997 33.5587C73.2392 33.3959 73.4255 33.3261 73.6347 33.3261C73.8444 33.3261 74.0301 33.4192 74.1696 33.582C74.3096 33.7449 74.3793 33.9775 74.3793 34.3032C74.3793 34.6288 74.3096 34.8847 74.1696 35.0476C74.0301 35.2104 73.8444 35.3034 73.6347 35.3034C73.4255 35.3034 73.2392 35.2104 73.0997 35.0476C72.9603 34.8614 72.8906 34.6288 72.8906 34.3032Z" fill="#7D7D7D"/>
<path d="M76.5887 33.4889L76.7281 33.0935C76.5887 33.0004 76.4258 32.9539 76.2863 32.9539C76.1932 32.9539 76.1 32.9772 76.0069 33.047C75.9137 33.0935 75.8211 33.2331 75.728 33.3959V33.0004H75.3325V35.5593H75.7743V34.2101C75.7743 34.024 75.7977 33.8612 75.844 33.6983C75.8674 33.6053 75.9372 33.5122 76.0069 33.4657C76.0766 33.4192 76.1698 33.3727 76.2629 33.3727C76.3795 33.3959 76.4721 33.4424 76.5887 33.4889Z" fill="#7D7D7D"/>
<path d="M77.4269 32.0467H76.9844V32.5361H77.4269V32.0467Z" fill="#7D7D7D"/>
<path d="M77.4261 33.0237H76.9844V35.5826H77.4261V33.0237Z" fill="#7D7D7D"/>
<path d="M79.7525 35.2571C79.7759 35.3734 79.7988 35.4897 79.8456 35.5828H80.2874C80.2411 35.4897 80.1942 35.3735 80.1714 35.2804C80.1479 35.1641 80.1479 34.9082 80.1479 34.5127V33.9311C80.1479 33.745 80.1479 33.6055 80.1245 33.5356C80.1011 33.4193 80.0548 33.3263 79.9851 33.2333C79.9153 33.1635 79.8222 33.0937 79.6827 33.0471C79.5433 33.0006 79.357 32.9774 79.1478 32.9774C78.9381 32.9774 78.7289 33.0006 78.566 33.0704C78.4032 33.1402 78.2637 33.21 78.194 33.3263C78.1009 33.4426 78.0311 33.5822 78.0077 33.7683L78.4266 33.8148C78.4729 33.6287 78.5426 33.5124 78.6358 33.4426C78.7289 33.3728 78.8918 33.3263 79.0775 33.3263C79.2873 33.3263 79.4501 33.3728 79.5662 33.4659C79.6593 33.5356 79.6827 33.652 79.6827 33.8381C79.6827 33.8613 79.6827 33.8846 79.6827 33.9544C79.5199 34.001 79.2638 34.0707 78.9147 34.094C78.7524 34.1173 78.6123 34.1405 78.5192 34.1638C78.4032 34.187 78.31 34.2336 78.2169 34.3033C78.1237 34.3731 78.054 34.4429 77.9843 34.5592C77.938 34.6523 77.8911 34.7686 77.8911 34.9082C77.8911 35.1175 77.9614 35.3036 78.1237 35.4432C78.2866 35.5828 78.4963 35.6526 78.7752 35.6526C78.9381 35.6526 79.101 35.6293 79.2638 35.5595C79.4501 35.4897 79.5896 35.3967 79.7525 35.2571ZM78.5426 35.1873C78.4495 35.1175 78.4032 35.0245 78.4032 34.9082C78.4032 34.8384 78.4266 34.7686 78.4729 34.6988C78.5192 34.629 78.5661 34.5825 78.6358 34.5592C78.7055 34.536 78.8449 34.4895 79.0078 34.4662C79.3336 34.4196 79.5662 34.3731 79.7056 34.3033V34.4662C79.7056 34.6523 79.6827 34.7918 79.6359 34.9082C79.5662 35.0245 79.473 35.1408 79.357 35.2106C79.2175 35.2804 79.0775 35.3269 78.9147 35.3269C78.7524 35.3036 78.6123 35.2571 78.5426 35.1873Z" fill="#7D7D7D"/>
<path d="M83.9166 34.1866H84.9636V34.838C84.8705 34.9311 84.7076 35.0008 84.5213 35.0939C84.3355 35.1637 84.1258 35.2102 83.9166 35.2102C83.684 35.2102 83.4749 35.1637 83.2651 35.0474C83.056 34.9543 82.8931 34.7915 82.7999 34.5821C82.6839 34.3728 82.6371 34.1169 82.6371 33.7912C82.6371 33.5353 82.6839 33.3027 82.7765 33.0701C82.8234 32.9538 82.8931 32.8374 83.0091 32.7211C83.1257 32.6048 83.2417 32.535 83.3817 32.4653C83.5446 32.3954 83.7303 32.3722 83.9401 32.3722C84.1258 32.3722 84.2887 32.3954 84.4281 32.4653C84.5681 32.535 84.6841 32.6048 84.7773 32.7211C84.847 32.8141 84.9168 32.977 84.9865 33.1398L85.4054 33.0235C85.3356 32.7909 85.2659 32.5816 85.1265 32.4419C85.0099 32.3024 84.847 32.1861 84.6379 32.093C84.4281 31.9999 84.1955 31.9767 83.9401 31.9767C83.5909 31.9767 83.2651 32.0465 83.0091 32.1861C82.7302 32.3256 82.5211 32.5583 82.381 32.8607C82.2416 33.1631 82.1719 33.4888 82.1719 33.8145C82.1719 34.1634 82.2416 34.4658 82.381 34.7682C82.5211 35.0474 82.7302 35.2568 83.0325 35.4196C83.312 35.5592 83.6372 35.6522 83.9864 35.6522C84.2424 35.6522 84.4984 35.6057 84.731 35.5126C84.9636 35.4196 85.2191 35.28 85.4517 35.0939V33.7912H83.9629V34.1866H83.9166Z" fill="#7D7D7D"/>
<path d="M88.2669 34.2799C88.2669 33.8612 88.1503 33.5355 87.9411 33.3029C87.732 33.0702 87.4525 32.9539 87.1039 32.9539C86.7547 32.9539 86.4524 33.0702 86.2432 33.3029C86.0101 33.5355 85.9175 33.8844 85.9175 34.3032C85.9175 34.7219 86.0335 35.0476 86.2432 35.2802C86.4524 35.5128 86.7547 35.6291 87.1268 35.6291C87.4291 35.6291 87.6622 35.5594 87.8714 35.4198C88.0806 35.2802 88.1972 35.0708 88.2669 34.8149L87.8245 34.7684C87.7548 34.9545 87.6622 35.0941 87.5457 35.1639C87.4291 35.2337 87.2896 35.2802 87.1268 35.2802C86.9176 35.2802 86.7313 35.2104 86.5918 35.0476C86.4524 34.908 86.3592 34.6754 86.3592 34.3962H88.2669C88.2669 34.3497 88.2669 34.3264 88.2669 34.2799ZM86.3827 34.0473C86.4055 33.8146 86.4758 33.6518 86.6153 33.5122C86.7547 33.3726 86.9176 33.3029 87.1268 33.3029C87.3365 33.3029 87.5222 33.3959 87.6622 33.5587C87.7548 33.6751 87.8017 33.8379 87.8245 34.0473H86.3827Z" fill="#7D7D7D"/>
<path d="M89.4533 33.0471C89.3601 33.0936 89.2669 33.2331 89.1738 33.396V33.0005H88.7783V35.5594H89.2207V34.2102C89.2207 34.0241 89.2435 33.8613 89.2904 33.6984C89.3138 33.6053 89.3835 33.5123 89.4533 33.4658C89.523 33.4193 89.6161 33.3727 89.7093 33.3727C89.8253 33.3727 89.9184 33.396 90.0345 33.4658L90.1745 33.0703C90.0345 32.9773 89.8716 32.9308 89.7321 32.9308C89.639 32.954 89.5464 32.9773 89.4533 33.0471Z" fill="#7D7D7D"/>
<path d="M92.5239 34.5127V33.9311C92.5239 33.745 92.5239 33.6055 92.5005 33.5356C92.4771 33.4193 92.4308 33.3263 92.361 33.2333C92.2913 33.1635 92.1982 33.0937 92.0587 33.0471C91.9193 33.0006 91.733 32.9774 91.5238 32.9774C91.3141 32.9774 91.1049 33.0006 90.942 33.0704C90.7791 33.1402 90.6397 33.21 90.57 33.3263C90.4768 33.4426 90.4071 33.5822 90.3837 33.7683L90.8026 33.8148C90.8489 33.6287 90.9186 33.5124 91.0117 33.4426C91.1049 33.3728 91.2678 33.3263 91.4535 33.3263C91.6632 33.3263 91.8261 33.3728 91.9421 33.4659C92.0353 33.5356 92.0587 33.652 92.0587 33.8381C92.0587 33.8613 92.0587 33.8846 92.0587 33.9544C91.8958 34.001 91.6398 34.0707 91.2906 34.094C91.1283 34.1173 90.9883 34.1405 90.8952 34.1638C90.7791 34.187 90.686 34.2336 90.5928 34.3033C90.5003 34.3731 90.43 34.4429 90.3602 34.5592C90.314 34.6523 90.2671 34.7686 90.2671 34.9082C90.2671 35.1175 90.3374 35.3036 90.5003 35.4432C90.6626 35.5828 90.8723 35.6526 91.1512 35.6526C91.3141 35.6526 91.4769 35.6293 91.6398 35.5595C91.7793 35.513 91.9421 35.3967 92.105 35.2804C92.1284 35.3967 92.1519 35.513 92.1982 35.606H92.6399C92.5936 35.513 92.5473 35.3967 92.5239 35.3036C92.5239 35.1641 92.5239 34.9082 92.5239 34.5127ZM92.0816 34.4429C92.0816 34.629 92.0587 34.7686 92.0119 34.8849C91.9421 35.0012 91.849 35.1175 91.733 35.1873C91.5935 35.2571 91.4535 35.3036 91.2906 35.3036C91.1283 35.3036 90.9883 35.2571 90.8952 35.1873C90.8026 35.1175 90.7557 35.0245 90.7557 34.9082C90.7557 34.8384 90.7791 34.7686 90.8254 34.6988C90.8723 34.629 90.9186 34.5825 90.9883 34.5592C91.058 34.536 91.1981 34.4895 91.3609 34.4662C91.6861 34.4196 91.9193 34.3731 92.0587 34.3033V34.4429H92.0816Z" fill="#7D7D7D"/>
<path d="M93.6171 32.0467H93.1753V35.5827H93.6171V32.0467Z" fill="#7D7D7D"/>
<path d="M97.2925 33.3029C97.2228 33.2099 97.1302 33.1168 96.9902 33.047C96.8508 32.9772 96.7347 32.954 96.5719 32.954C96.3621 32.954 96.1764 33.0005 95.9901 33.1168C95.8272 33.2331 95.6878 33.396 95.6181 33.6054C95.5249 33.8147 95.5015 34.0473 95.5015 34.3032C95.5015 34.5591 95.5483 34.7917 95.6409 35.0011C95.7341 35.2104 95.8735 35.35 96.0364 35.4664C96.1993 35.5827 96.3856 35.6292 96.5947 35.6292C96.9205 35.6292 97.1531 35.5129 97.316 35.257V35.5827H97.7114V32.0467H97.2697V33.3029H97.2925ZM97.1302 35.0476C96.9902 35.2104 96.8273 35.2802 96.6416 35.2802C96.4553 35.2802 96.2924 35.2104 96.153 35.0476C96.0135 34.8848 95.9438 34.6289 95.9438 34.3032C95.9438 33.9542 96.0135 33.7217 96.1295 33.5588C96.2461 33.396 96.409 33.3262 96.6182 33.3262C96.8273 33.3262 96.9902 33.4192 97.1068 33.5821C97.2462 33.7449 97.316 34.0008 97.316 34.3497C97.3394 34.6522 97.2697 34.8848 97.1302 35.0476Z" fill="#7D7D7D"/>
<path d="M99.4559 32.9539C99.1302 32.9539 98.8742 33.047 98.6416 33.2331C98.3861 33.4657 98.2461 33.8146 98.2461 34.2799C98.2461 34.7219 98.3627 35.0476 98.5718 35.2802C98.8044 35.5128 99.0839 35.6291 99.4325 35.6291C99.6651 35.6291 99.8514 35.5826 100.061 35.4663C100.247 35.3733 100.386 35.2104 100.503 35.0243C100.596 34.8382 100.642 34.5823 100.642 34.2566C100.642 33.8612 100.526 33.5355 100.317 33.3029C100.084 33.0702 99.8051 32.9539 99.4559 32.9539ZM99.9909 35.0243C99.8514 35.1871 99.6651 35.2802 99.4559 35.2802C99.2468 35.2802 99.0605 35.1871 98.921 35.0243C98.7816 34.8614 98.7113 34.6056 98.7113 34.2799C98.7113 33.9542 98.7816 33.6983 98.921 33.5355C99.0605 33.3727 99.2468 33.3029 99.4559 33.3029C99.6651 33.3029 99.8514 33.3959 99.9909 33.5587C100.13 33.7216 100.201 33.9542 100.201 34.2799C100.201 34.6056 100.13 34.8614 99.9909 35.0243Z" fill="#7D7D7D"/>
<path d="M103.061 33.9542H105.015V33.5355H103.061V32.4655H105.155V32.0467H102.596V35.5827H105.225V35.1639H103.061V33.9542Z" fill="#7D7D7D"/>
<path d="M107.388 34.2334C107.272 34.1869 107.063 34.1171 106.737 34.024C106.528 33.9775 106.388 33.9309 106.365 33.9077C106.295 33.8844 106.225 33.8379 106.202 33.7914C106.156 33.7449 106.156 33.6983 106.156 33.6286C106.156 33.5355 106.202 33.4657 106.272 33.3959C106.365 33.3261 106.505 33.3029 106.69 33.3029C106.853 33.3029 106.993 33.3494 107.086 33.4192C107.179 33.4889 107.226 33.6053 107.249 33.7216L107.668 33.6751C107.644 33.5122 107.598 33.3727 107.528 33.2796C107.459 33.1866 107.342 33.0935 107.203 33.047C107.063 33.0004 106.877 32.9539 106.668 32.9539C106.528 32.9539 106.412 32.9772 106.295 33.0004C106.179 33.0237 106.086 33.0702 106.016 33.1167C105.923 33.1866 105.853 33.2564 105.807 33.3494C105.76 33.4424 105.737 33.5587 105.737 33.6751C105.737 33.7914 105.76 33.9077 105.83 34.024C105.9 34.1171 105.993 34.2101 106.109 34.2566C106.225 34.3264 106.458 34.3962 106.76 34.466C106.993 34.5358 107.156 34.5823 107.203 34.6056C107.296 34.6521 107.319 34.7451 107.319 34.8382C107.319 34.9545 107.272 35.0476 107.179 35.1174C107.086 35.1871 106.923 35.2337 106.737 35.2337C106.528 35.2337 106.388 35.1871 106.272 35.0941C106.156 35.0011 106.086 34.8614 106.062 34.6986L105.644 34.7684C105.69 35.0476 105.807 35.2337 105.969 35.3733C106.132 35.5128 106.388 35.5826 106.737 35.5826C106.946 35.5826 107.109 35.5361 107.272 35.4663C107.435 35.3965 107.551 35.3034 107.644 35.1639C107.737 35.0476 107.761 34.908 107.761 34.7451C107.761 34.6056 107.737 34.466 107.668 34.3729C107.598 34.2799 107.505 34.2799 107.388 34.2334Z" fill="#7D7D7D"/>
<path d="M109.063 35.2103C108.993 35.2103 108.947 35.2103 108.924 35.1871C108.9 35.1638 108.854 35.1406 108.854 35.094C108.854 35.0475 108.831 34.9777 108.831 34.8614V33.3726H109.273V33.0236H108.831V32.1396L108.389 32.3956V33.0236H108.063V33.3726H108.389V34.8381C108.389 35.094 108.412 35.2801 108.435 35.3499C108.482 35.4197 108.528 35.4895 108.621 35.536C108.714 35.5825 108.831 35.6058 108.993 35.6058C109.087 35.6058 109.203 35.5825 109.319 35.5593L109.249 35.1871C109.156 35.1871 109.11 35.2103 109.063 35.2103Z" fill="#7D7D7D"/>
<path d="M111.739 34.5127V33.9311C111.739 33.745 111.739 33.6055 111.716 33.5356C111.692 33.4193 111.646 33.3263 111.576 33.2333C111.506 33.1635 111.413 33.0937 111.273 33.0471C111.134 33.0006 110.948 32.9774 110.739 32.9774C110.529 32.9774 110.32 33.0006 110.157 33.0704C109.994 33.1402 109.854 33.21 109.785 33.3263C109.692 33.4426 109.622 33.5822 109.599 33.7683L110.017 33.8148C110.064 33.6287 110.134 33.5124 110.227 33.4426C110.32 33.3728 110.483 33.3263 110.669 33.3263C110.878 33.3263 111.041 33.3728 111.157 33.4659C111.251 33.5356 111.273 33.652 111.273 33.8381C111.273 33.8613 111.273 33.8846 111.273 33.9544C111.111 34.001 110.855 34.0707 110.506 34.094C110.343 34.1173 110.204 34.1405 110.11 34.1638C109.994 34.187 109.901 34.2336 109.808 34.3033C109.715 34.3731 109.645 34.4429 109.576 34.5592C109.529 34.6523 109.482 34.7686 109.482 34.9082C109.482 35.1175 109.552 35.3036 109.715 35.4432C109.878 35.5828 110.087 35.6526 110.367 35.6526C110.529 35.6526 110.692 35.6293 110.855 35.5595C110.995 35.513 111.157 35.3967 111.32 35.2804C111.344 35.3967 111.367 35.513 111.413 35.606H111.855C111.809 35.513 111.762 35.3967 111.739 35.3036C111.762 35.1641 111.739 34.9082 111.739 34.5127ZM111.297 34.4429C111.297 34.629 111.273 34.7686 111.227 34.8849C111.157 35.0012 111.064 35.1175 110.948 35.1873C110.808 35.2571 110.669 35.3036 110.506 35.3036C110.343 35.3036 110.204 35.2571 110.11 35.1873C110.017 35.1175 109.971 35.0245 109.971 34.9082C109.971 34.8384 109.994 34.7686 110.041 34.6988C110.087 34.629 110.134 34.5825 110.204 34.5592C110.273 34.536 110.413 34.4895 110.576 34.4662C110.901 34.4196 111.134 34.3731 111.273 34.3033V34.4429H111.297Z" fill="#7D7D7D"/>
<path d="M114.042 33.3029C113.972 33.2099 113.879 33.1168 113.739 33.047C113.6 32.9772 113.483 32.954 113.32 32.954C113.111 32.954 112.925 33.0005 112.739 33.1168C112.576 33.2331 112.437 33.396 112.367 33.6054C112.274 33.8147 112.25 34.0473 112.25 34.3032C112.25 34.5591 112.297 34.7917 112.39 35.0011C112.483 35.2104 112.623 35.35 112.785 35.4664C112.948 35.5827 113.135 35.6292 113.344 35.6292C113.67 35.6292 113.902 35.5129 114.065 35.257V35.5827H114.46V32.0467H114.018V33.3029H114.042ZM113.879 35.0476C113.739 35.2104 113.576 35.2802 113.39 35.2802C113.204 35.2802 113.041 35.2104 112.902 35.0476C112.762 34.8848 112.692 34.6289 112.692 34.3032C112.692 33.9542 112.762 33.7217 112.879 33.5588C112.995 33.396 113.157 33.3262 113.367 33.3262C113.576 33.3262 113.739 33.4192 113.856 33.5821C113.995 33.7449 114.065 34.0008 114.065 34.3497C114.088 34.6522 114.018 34.8848 113.879 35.0476Z" fill="#7D7D7D"/>
<path d="M117.066 33.3029C116.834 33.0702 116.554 32.9539 116.205 32.9539C115.88 32.9539 115.624 33.047 115.391 33.2331C115.135 33.4657 114.996 33.8146 114.996 34.2799C114.996 34.7219 115.112 35.0476 115.321 35.2802C115.554 35.5128 115.833 35.6291 116.182 35.6291C116.415 35.6291 116.601 35.5826 116.81 35.4663C116.996 35.3733 117.136 35.2104 117.252 35.0243C117.345 34.8382 117.392 34.5823 117.392 34.2566C117.392 33.8612 117.299 33.5355 117.066 33.3029ZM116.74 35.0243C116.601 35.1871 116.415 35.2802 116.205 35.2802C115.996 35.2802 115.81 35.1871 115.671 35.0243C115.531 34.8614 115.461 34.6056 115.461 34.2799C115.461 33.9542 115.531 33.6983 115.671 33.5355C115.81 33.3727 115.996 33.3029 116.205 33.3029C116.415 33.3029 116.601 33.3959 116.74 33.5587C116.88 33.7216 116.95 33.9542 116.95 34.2799C116.95 34.6056 116.88 34.8614 116.74 35.0243Z" fill="#7D7D7D"/>
<path d="M52.8142 39.235C52.7443 39.1419 52.6513 39.0488 52.5117 38.979C52.3722 38.9093 52.2558 38.886 52.093 38.886C51.8837 38.886 51.6975 38.9325 51.5115 39.0488C51.3486 39.1652 51.209 39.328 51.1392 39.5373C51.0462 39.7467 51.0229 39.9793 51.0229 40.2352C51.0229 40.4912 51.0695 40.7238 51.1625 40.9331C51.2555 41.1425 51.3951 41.282 51.558 41.3984C51.7208 41.5147 51.9069 41.5612 52.1163 41.5612C52.442 41.5612 52.6746 41.4449 52.8374 41.189V41.5147H53.2329V37.9788H52.7909V39.235H52.8142ZM52.6513 40.9797C52.5117 41.1425 52.3489 41.2123 52.1628 41.2123C51.9767 41.2123 51.8138 41.1425 51.6743 40.9797C51.5347 40.8168 51.4649 40.5609 51.4649 40.2352C51.4649 39.8863 51.5347 39.6537 51.651 39.4908C51.7673 39.328 51.9302 39.2582 52.1395 39.2582C52.3489 39.2582 52.5117 39.3513 52.628 39.5141C52.7677 39.6769 52.8374 39.9328 52.8374 40.2818C52.8374 40.5842 52.7676 40.8168 52.6513 40.9797Z" fill="#7D7D7D"/>
<path d="M54.9542 38.8859C54.6286 38.8859 54.3727 38.979 54.14 39.1651C53.8842 39.3977 53.7446 39.7467 53.7446 40.2119C53.7446 40.6539 53.8609 40.9796 54.0703 41.2122C54.3029 41.4449 54.582 41.5612 54.931 41.5612C55.1636 41.5612 55.3497 41.5146 55.5591 41.3983C55.7452 41.3052 55.8848 41.1424 56.0011 40.9563C56.0941 40.7702 56.1407 40.5143 56.1407 40.1887C56.1407 39.7932 56.0244 39.4675 55.815 39.2349C55.6056 39.0022 55.3265 38.8859 54.9542 38.8859ZM55.5126 40.9563C55.373 41.1192 55.1869 41.2122 54.9775 41.2122C54.7682 41.2122 54.582 41.1192 54.4425 40.9563C54.3029 40.7935 54.2331 40.5376 54.2331 40.2119C54.2331 39.8862 54.3029 39.6304 54.4425 39.4675C54.582 39.3047 54.7682 39.2349 54.9775 39.2349C55.1869 39.2349 55.373 39.3279 55.5126 39.4907C55.6522 39.6536 55.7219 39.8862 55.7219 40.2119C55.7219 40.5376 55.6522 40.7935 55.5126 40.9563Z" fill="#7D7D7D"/>
<path d="M60.212 40.0724C60.1423 40.0258 60.0491 39.9561 59.9331 39.8863C60.2817 39.8398 60.5143 39.7235 60.6772 39.5606C60.8401 39.3978 60.9098 39.1884 60.9098 38.9325C60.9098 38.7464 60.8635 38.5603 60.7704 38.3975C60.6772 38.2346 60.5378 38.1183 60.3749 38.0718C60.212 38.002 59.9794 37.9788 59.6537 37.9788H58.0952V41.5147H58.5604V39.9328H59.0953C59.2119 39.9328 59.3051 39.9328 59.3514 39.9561C59.4211 39.9793 59.4908 40.0026 59.5605 40.0491C59.6308 40.0957 59.7005 40.1655 59.7937 40.2818C59.8863 40.3981 60.0029 40.5609 60.1423 40.7703L60.6075 41.5147H61.1893L60.5846 40.5609C60.4915 40.3515 60.3515 40.1887 60.212 40.0724ZM59.584 39.5373H58.5838V38.3742H59.7005C59.956 38.3742 60.1657 38.4208 60.2817 38.537C60.3983 38.6533 60.468 38.793 60.468 38.9558C60.468 39.0721 60.4446 39.1652 60.3749 39.2815C60.3052 39.3745 60.212 39.4443 60.096 39.4908C59.956 39.5141 59.7937 39.5373 59.584 39.5373Z" fill="#7D7D7D"/>
<path d="M62.0497 38.9557H61.6079V41.5145H62.0497V38.9557Z" fill="#7D7D7D"/>
<path d="M62.0505 37.9788H61.6079V38.4681H62.0505V37.9788Z" fill="#7D7D7D"/>
<path d="M63.7479 38.8859C63.4222 38.8859 63.1662 38.979 62.9336 39.1651C62.6775 39.3977 62.5381 39.7467 62.5381 40.2119C62.5381 40.6539 62.6541 40.9796 62.8638 41.2122C63.0964 41.4449 63.3753 41.5612 63.7245 41.5612C63.9571 41.5612 64.1428 41.5146 64.3526 41.3983C64.5383 41.3052 64.6783 41.1424 64.7943 40.9563C64.8875 40.7702 64.9338 40.5143 64.9338 40.1887C64.9338 39.7932 64.8178 39.4675 64.6086 39.2349C64.3989 39.0022 64.0965 38.8859 63.7479 38.8859ZM64.2829 40.9563C64.1428 41.1192 63.9571 41.2122 63.7479 41.2122C63.5382 41.2122 63.3525 41.1192 63.2124 40.9563C63.073 40.7935 63.0033 40.5376 63.0033 40.2119C63.0033 39.8862 63.073 39.6304 63.2124 39.4675C63.3525 39.3047 63.5382 39.2349 63.7479 39.2349C63.9571 39.2349 64.1428 39.3279 64.2829 39.4907C64.4223 39.6536 64.492 39.8862 64.492 40.2119C64.492 40.5376 64.4223 40.7935 64.2829 40.9563Z" fill="#7D7D7D"/>
<path d="M68.4698 39.235C68.4001 39.1419 68.307 39.0488 68.1675 38.979C68.0275 38.9093 67.9115 38.886 67.7486 38.886C67.5395 38.886 67.3532 38.9325 67.1668 39.0488C67.004 39.1652 66.8645 39.328 66.7948 39.5373C66.7017 39.7467 66.6782 39.9793 66.6782 40.2352C66.6782 40.4912 66.7251 40.7238 66.8182 40.9331C66.9108 41.1425 67.0508 41.282 67.2137 41.3984C67.3766 41.5147 67.5623 41.5612 67.7721 41.5612C68.0972 41.5612 68.3298 41.4449 68.4927 41.189V41.5147H68.8882V37.9788H68.4464V39.235H68.4698ZM68.307 40.9797C68.1675 41.1425 68.0047 41.2123 67.8183 41.2123C67.632 41.2123 67.4692 41.1425 67.3297 40.9797C67.1903 40.8168 67.1206 40.5609 67.1206 40.2352C67.1206 39.8863 67.1903 39.6537 67.3063 39.4908C67.4229 39.328 67.5857 39.2582 67.7949 39.2582C68.0047 39.2582 68.1675 39.3513 68.2835 39.5141C68.423 39.6769 68.4927 39.9328 68.4927 40.2818C68.4927 40.5842 68.423 40.8168 68.307 40.9797Z" fill="#7D7D7D"/>
<path d="M70.6332 38.8859C70.2846 38.8859 69.9817 39.0022 69.7725 39.2349C69.5399 39.4675 69.4468 39.8164 69.4468 40.2352C69.4468 40.6539 69.5634 40.9796 69.7725 41.2122C69.9817 41.4449 70.2846 41.5612 70.6566 41.5612C70.9589 41.5612 71.1915 41.4914 71.4007 41.3518C71.6104 41.2122 71.7265 41.0029 71.7962 40.7469L71.3544 40.7004C71.2847 40.8865 71.1915 41.0261 71.0755 41.0959C70.9589 41.1657 70.8195 41.2122 70.6566 41.2122C70.4469 41.2122 70.2612 41.1424 70.1217 40.9796C69.9817 40.84 69.8891 40.6074 69.8891 40.3282H71.7962C71.7962 40.2817 71.7962 40.2352 71.7962 40.2119C71.7962 39.7932 71.6802 39.4675 71.471 39.2349C71.2613 39.0022 70.9824 38.8859 70.6332 38.8859ZM69.912 39.9793C69.9354 39.7467 70.0051 39.5838 70.1446 39.4442C70.2846 39.3047 70.4469 39.2349 70.6566 39.2349C70.8658 39.2349 71.0521 39.3279 71.1915 39.4907C71.2847 39.6071 71.331 39.7699 71.3544 39.9793H69.912Z" fill="#7D7D7D"/>
<path d="M74.9834 40.398C74.9834 40.6074 74.9605 40.747 74.9371 40.84C74.9136 40.933 74.8439 41.0028 74.7508 41.0493C74.6576 41.0959 74.565 41.1192 74.4484 41.1192C74.2856 41.1192 74.1696 41.0726 74.0764 40.9796C73.9832 40.8865 73.9364 40.7005 73.9135 40.4213L73.4946 40.4678C73.4946 40.8168 73.5643 41.0959 73.7272 41.2587C73.8901 41.4448 74.1227 41.5379 74.4484 41.5379C74.6576 41.5379 74.8439 41.4913 74.9834 41.4216C75.1462 41.3285 75.2628 41.2122 75.3325 41.0493C75.4023 40.8865 75.4486 40.6539 75.4486 40.3515V37.9321H74.9834V40.398Z" fill="#7D7D7D"/>
<path d="M78.2406 40.4445V39.8629C78.2406 39.6768 78.2406 39.5372 78.2172 39.4674C78.1943 39.3511 78.1475 39.258 78.0778 39.165C78.008 39.0952 77.9149 39.0254 77.7754 38.9789C77.636 38.9323 77.4497 38.9091 77.2405 38.9091C77.0308 38.9091 76.8216 38.9323 76.6587 39.0021C76.4959 39.0719 76.3564 39.1417 76.2867 39.258C76.1935 39.3743 76.1238 39.5139 76.1004 39.7L76.5193 39.7466C76.5656 39.5605 76.6353 39.4441 76.7285 39.3743C76.8216 39.3046 76.9845 39.258 77.1702 39.258C77.38 39.258 77.5428 39.3046 77.6589 39.3976C77.752 39.4674 77.7754 39.5837 77.7754 39.7698C77.7754 39.7931 77.7754 39.8163 77.7754 39.8861C77.6126 39.9326 77.3565 40.0025 77.0079 40.0257C76.845 40.049 76.705 40.0722 76.6125 40.0955C76.4959 40.1188 76.4027 40.1653 76.3096 40.2351C76.217 40.3048 76.1467 40.3746 76.077 40.491C76.0307 40.584 75.9844 40.7003 75.9844 40.8399C75.9844 41.0493 76.0541 41.2353 76.217 41.375C76.3799 41.5145 76.589 41.5843 76.8679 41.5843C77.0308 41.5843 77.1937 41.561 77.3565 41.4913C77.496 41.4447 77.6589 41.3284 77.8217 41.2121C77.8452 41.3284 77.8686 41.4447 77.9149 41.5378H78.3566C78.3103 41.4447 78.2641 41.3284 78.2406 41.2353C78.2406 41.0958 78.2406 40.8399 78.2406 40.4445ZM77.7989 40.3746C77.7989 40.5608 77.7754 40.7003 77.7286 40.8166C77.6588 40.933 77.5657 41.0493 77.4497 41.119C77.3102 41.1888 77.1708 41.2353 77.0079 41.2353C76.845 41.2353 76.705 41.1888 76.6125 41.119C76.5193 41.0493 76.4724 40.9562 76.4724 40.8399C76.4724 40.7701 76.4959 40.7003 76.5422 40.6305C76.589 40.5608 76.6353 40.5142 76.705 40.491C76.7753 40.4677 76.9148 40.4212 77.0776 40.3979C77.4034 40.3514 77.636 40.3048 77.7754 40.2351V40.3746H77.7989Z" fill="#7D7D7D"/>
<path d="M80.8461 39.1884C80.7764 39.0953 80.6832 39.0255 80.5667 38.979C80.4272 38.9325 80.2878 38.8859 80.1483 38.8859C79.7991 38.8859 79.5203 39.0255 79.3339 39.3047V38.9325H78.9385V41.4914H79.3802V40.0956C79.3802 39.7699 79.4505 39.5373 79.59 39.421C79.7294 39.3047 79.8923 39.2349 80.0786 39.2349C80.1946 39.2349 80.2878 39.2582 80.3809 39.3047C80.4741 39.3512 80.5204 39.421 80.5667 39.514C80.5901 39.6071 80.6135 39.7234 80.6135 39.9095V41.4681H81.0553V39.8862C81.0553 39.6769 81.0553 39.5373 81.0324 39.4675C80.9393 39.3745 80.8924 39.2814 80.8461 39.1884Z" fill="#7D7D7D"/>
<path d="M82.7069 38.8859C82.3583 38.8859 82.0554 39.0022 81.8463 39.2349C81.6137 39.4675 81.5205 39.8164 81.5205 40.2352C81.5205 40.6539 81.6371 40.9796 81.8463 41.2122C82.0554 41.4449 82.3583 41.5612 82.7303 41.5612C83.0327 41.5612 83.2653 41.4914 83.475 41.3518C83.6842 41.2122 83.8002 41.0029 83.8705 40.7469L83.4281 40.7004C83.3584 40.8865 83.2653 41.0261 83.1493 41.0959C83.0327 41.1657 82.8932 41.2122 82.7303 41.2122C82.5212 41.2122 82.3349 41.1424 82.1954 40.9796C82.0554 40.84 81.9628 40.6074 81.9628 40.3282H83.8705C83.8705 40.2817 83.8705 40.2352 83.8705 40.2119C83.8705 39.7932 83.7539 39.4675 83.5447 39.2349C83.335 39.0022 83.0561 38.8859 82.7069 38.8859ZM81.9857 39.9793C82.0091 39.7467 82.0789 39.5838 82.2183 39.4442C82.3583 39.3047 82.5212 39.2349 82.7303 39.2349C82.9395 39.2349 83.1258 39.3279 83.2653 39.4907C83.3584 39.6071 83.4047 39.7699 83.4281 39.9793H81.9857Z" fill="#7D7D7D"/>
<path d="M84.847 38.9557H84.4053V41.5145H84.847V38.9557Z" fill="#7D7D7D"/>
<path d="M84.8478 37.9788H84.4053V38.4681H84.8478V37.9788Z" fill="#7D7D7D"/>
<path d="M86.1729 38.9791C86.0803 39.0256 85.9872 39.1652 85.894 39.328V38.9326H85.4985V41.4915H85.9403V40.1422C85.9403 39.9561 85.9637 39.7933 86.01 39.6304C86.0335 39.5374 86.1032 39.4443 86.1729 39.3978C86.2432 39.3513 86.3358 39.3048 86.4289 39.3048C86.5455 39.3048 86.6387 39.328 86.7547 39.3978L86.8941 39.0023C86.7547 38.9093 86.5918 38.8628 86.4523 38.8628C86.3592 38.886 86.266 38.9093 86.1729 38.9791Z" fill="#7D7D7D"/>
<path d="M88.1972 38.8859C87.8714 38.8859 87.6154 38.979 87.3828 39.1651C87.1267 39.3977 86.9873 39.7467 86.9873 40.2119C86.9873 40.6539 87.1039 40.9796 87.3131 41.2122C87.5457 41.4449 87.8251 41.5612 88.1737 41.5612C88.4063 41.5612 88.5926 41.5146 88.8018 41.3983C88.9881 41.3052 89.1275 41.1424 89.2441 40.9563C89.3367 40.7702 89.3836 40.5143 89.3836 40.1887C89.3836 39.7932 89.267 39.4675 89.0578 39.2349C88.8252 39.0022 88.5458 38.8859 88.1972 38.8859ZM88.7321 40.9563C88.5926 41.1192 88.4063 41.2122 88.1972 41.2122C87.988 41.2122 87.8017 41.1192 87.6622 40.9563C87.5222 40.7935 87.4525 40.5376 87.4525 40.2119C87.4525 39.8862 87.5222 39.6304 87.6622 39.4675C87.8017 39.3047 87.988 39.2349 88.1972 39.2349C88.4063 39.2349 88.5926 39.3279 88.7321 39.4907C88.8715 39.6536 88.9412 39.8862 88.9412 40.2119C88.9412 40.5376 88.8715 40.7935 88.7321 40.9563Z" fill="#7D7D7D"/>
</svg>
