<svg width="111" height="26" viewBox="0 0 111 26" fill="none" xmlns="http://www.w3.org/2000/svg">
<path d="M36.4783 4.99464C37.4298 4.99464 38.2607 5.18818 38.9702 5.57527C39.696 5.96236 40.2524 6.47041 40.6395 7.09943V5.18818H44.7765V18.6637C44.7765 19.9056 44.5266 21.0265 44.0265 22.0265C43.5427 23.0426 42.7927 23.849 41.7766 24.4458C40.7767 25.0426 39.5266 25.3409 38.0267 25.3409C36.0266 25.3409 34.4057 24.8651 33.1639 23.9136C31.922 22.9781 31.2123 21.7039 31.0349 20.0911H35.1235C35.2524 20.6072 35.559 21.0104 36.0429 21.3007C36.5267 21.6072 37.1236 21.7604 37.8331 21.7604C38.6878 21.7604 39.3652 21.5104 39.8654 21.0104C40.3814 20.5265 40.6395 19.7443 40.6395 18.6637V16.7524C40.2362 17.3814 39.6798 17.8976 38.9702 18.3008C38.2607 18.6879 37.4298 18.8814 36.4783 18.8814C35.3655 18.8814 34.3573 18.5992 33.4542 18.0347C32.551 17.454 31.8333 16.6395 31.301 15.5912C30.7849 14.5267 30.5269 13.3009 30.5269 11.9138C30.5269 10.5268 30.7849 9.30904 31.301 8.26069C31.8333 7.21234 32.551 6.40588 33.4542 5.84139C34.3573 5.2769 35.3655 4.99464 36.4783 4.99464ZM40.6395 11.938C40.6395 10.9058 40.3492 10.0913 39.7686 9.49453C39.2042 8.89776 38.5105 8.59939 37.688 8.59939C36.8654 8.59939 36.1638 8.89776 35.5832 9.49453C35.0188 10.0752 34.7364 10.8816 34.7364 11.9138C34.7364 12.9461 35.0188 13.7686 35.5832 14.3815C36.1638 14.9783 36.8654 15.2767 37.688 15.2767C38.5105 15.2767 39.2042 14.9783 39.7686 14.3815C40.3492 13.7847 40.6395 12.9703 40.6395 11.938ZM58.8015 11.7203C58.8015 12.1074 58.7774 12.5106 58.729 12.9299H49.3663C49.4306 13.7686 49.6967 14.4138 50.1647 14.8654C50.6485 15.3009 51.2371 15.5186 51.9307 15.5186C52.9627 15.5186 53.6806 15.0831 54.0839 14.2122H58.487C58.261 15.0993 57.8497 15.8976 57.2532 16.6073C56.6726 17.3169 55.9385 17.8734 55.0516 18.2766C54.1644 18.6798 53.1725 18.8814 52.0759 18.8814C50.7532 18.8814 49.5757 18.5992 48.5437 18.0347C47.5114 17.4702 46.7051 16.6637 46.1244 15.6154C45.5438 14.567 45.2535 13.3412 45.2535 11.938C45.2535 10.5348 45.5355 9.30904 46.1002 8.26069C46.6809 7.21234 47.4872 6.40588 48.5195 5.84139C49.5515 5.2769 50.737 4.99464 52.0759 4.99464C53.3823 4.99464 54.5436 5.26881 55.5597 5.8172C56.5758 6.36558 57.3659 7.14781 57.9306 8.16392C58.5112 9.18002 58.8015 10.3655 58.8015 11.7203ZM54.5678 10.6316C54.5678 9.92195 54.3258 9.35743 53.842 8.9381C53.3581 8.51876 52.7533 8.30908 52.0275 8.30908C51.3339 8.30908 50.7453 8.51067 50.2614 8.9139C49.7935 9.31713 49.5031 9.88967 49.3905 10.6316H54.5678ZM75.2338 1.70439L69.2097 18.6879H64.0324L58.0084 1.70439H62.4115L66.6211 14.5267L70.8548 1.70439H75.2338ZM87.9945 11.7203C87.9945 12.1074 87.9703 12.5106 87.922 12.9299H78.5593C78.6239 13.7686 78.89 14.4138 79.3576 14.8654C79.8415 15.3009 80.4304 15.5186 81.1237 15.5186C82.1561 15.5186 82.8739 15.0831 83.2769 14.2122H87.68C87.4543 15.0993 87.0431 15.8976 86.4462 16.6073C85.8656 17.3169 85.1318 17.8734 84.2446 18.2766C83.3578 18.6798 82.3659 18.8814 81.2689 18.8814C79.9466 18.8814 78.7691 18.5992 77.7367 18.0347C76.7047 17.4702 75.898 16.6637 75.3174 15.6154C74.7368 14.567 74.4465 13.3412 74.4465 11.938C74.4465 10.5348 74.7288 9.30904 75.2932 8.26069C75.8739 7.21234 76.6805 6.40588 77.7125 5.84139C78.7449 5.2769 79.9303 4.99464 81.2689 4.99464C82.5753 4.99464 83.7366 5.26881 84.7527 5.8172C85.7688 6.36558 86.5592 7.14781 87.1236 8.16392C87.7042 9.18002 87.9945 10.3655 87.9945 11.7203ZM83.7608 10.6316C83.7608 9.92195 83.5188 9.35743 83.035 8.9381C82.5511 8.51876 81.9463 8.30908 81.2205 8.30908C80.5272 8.30908 79.9383 8.51067 79.4544 8.9139C78.9868 9.31713 78.6965 9.88967 78.5835 10.6316H83.7608ZM96.7092 5.04302C98.2897 5.04302 99.5477 5.55913 100.483 6.59138C101.435 7.60748 101.911 9.01067 101.911 10.801V18.6879H97.7979V11.3574C97.7979 10.4542 97.5639 9.7526 97.0963 9.2526C96.6287 8.7526 95.9997 8.50262 95.2092 8.50262C94.4188 8.50262 93.7898 8.7526 93.3222 9.2526C92.8546 9.7526 92.6206 10.4542 92.6206 11.3574V18.6879H88.4836V5.18818H92.6206V6.97846C93.0398 6.38169 93.6045 5.91397 94.3141 5.57527C95.0236 5.22043 95.822 5.04302 96.7092 5.04302ZM110.616 15.1799V18.6879H108.511C107.011 18.6879 105.842 18.325 105.003 17.5992C104.164 16.8573 103.745 15.6557 103.745 13.9944V8.62359H102.1V5.18818H103.745V1.89794H107.882V5.18818H110.592V8.62359H107.882V14.0428C107.882 14.446 107.979 14.7364 108.173 14.9138C108.366 15.0912 108.689 15.1799 109.14 15.1799H110.616Z" fill="#7D7D7D"/>
<path fill-rule="evenodd" clip-rule="evenodd" d="M10.4085 0.607925C10.7903 0.607925 11.0997 0.917399 11.0997 1.29915V18.7959C11.0997 19.1776 10.7903 19.4871 10.4085 19.4871C10.0268 19.4871 9.71729 19.1776 9.71729 18.7959V1.29915C9.71729 0.917399 10.0268 0.607925 10.4085 0.607925Z" fill="#7D7D7D"/>
<path fill-rule="evenodd" clip-rule="evenodd" d="M2.63251 1.9904C2.55804 1.9904 2.48663 2.01997 2.43398 2.07263C2.38134 2.12527 2.35171 2.19673 2.35171 2.27121V5.28837C2.35136 5.35102 2.37292 5.41182 2.41264 5.46022C2.45239 5.50867 2.50783 5.54172 2.56927 5.55359C2.57341 5.55439 2.57754 5.55523 2.58166 5.5561C3.61087 5.77463 4.53381 6.34001 5.19602 7.15761C5.85824 7.97517 6.21957 8.99538 6.21957 10.0475C6.21957 11.0997 5.85823 12.1199 5.19601 12.9375C4.5338 13.7551 3.61087 14.3204 2.58166 14.539C2.57754 14.5398 2.57341 14.5407 2.56927 14.5415C2.50784 14.5533 2.45243 14.5863 2.41268 14.6348C2.37296 14.6832 2.35135 14.744 2.3517 14.8067L2.35172 14.8105L2.35171 17.8238C2.35171 17.8983 2.3813 17.9697 2.43394 18.0224C2.48659 18.075 2.55804 18.1047 2.63251 18.1047H25.9615C26.036 18.1047 26.1074 18.0751 26.16 18.0224C26.2127 17.9698 26.2423 17.8983 26.2423 17.8238V14.8105L26.2423 14.8067C26.2426 14.744 26.2211 14.6832 26.1814 14.6349C26.1417 14.5865 26.0862 14.5533 26.0247 14.5415C26.0206 14.5407 26.0164 14.5398 26.0123 14.539C24.9831 14.3204 24.0602 13.755 23.398 12.9375C22.7358 12.1199 22.3744 11.0997 22.3744 10.0475C22.3744 8.99538 22.7358 7.97516 23.398 7.15759C24.0602 6.34 24.9831 5.77463 26.0123 5.5561C26.0164 5.55523 26.0206 5.55439 26.0247 5.55358C26.0862 5.54171 26.1416 5.50871 26.1813 5.46032C26.221 5.41193 26.2426 5.35104 26.2423 5.28839L26.2423 5.28455V2.27121C26.2423 2.19672 26.2127 2.12529 26.16 2.07266C26.1074 2.01997 26.036 1.9904 25.9615 1.9904H2.63251ZM1.45643 1.09509C1.76836 0.783158 2.19141 0.607941 2.63251 0.607941H25.9615C26.4026 0.607941 26.8257 0.783177 27.1376 1.09511C27.4495 1.40704 27.6247 1.83011 27.6247 2.27121V5.28286C27.6264 5.66716 27.4939 6.04005 27.25 6.33721C27.0074 6.633 26.6695 6.83524 26.2944 6.90949C25.5771 7.063 24.934 7.45764 24.4723 8.02772C24.0095 8.59911 23.7569 9.31216 23.7569 10.0475C23.7569 10.7829 24.0094 11.4959 24.4723 12.0673C24.934 12.6374 25.5771 13.0321 26.2944 13.1856C26.6695 13.2598 27.0074 13.4621 27.25 13.7578C27.4939 14.055 27.6264 14.4279 27.6247 14.8122V17.8238C27.6247 18.2649 27.4495 18.688 27.1376 18.9999C26.8257 19.3119 26.4026 19.4871 25.9615 19.4871H2.63251C2.19141 19.4871 1.76836 19.3119 1.45643 19C1.14449 18.688 0.969253 18.265 0.969253 17.8238V14.8122C0.967632 14.4279 1.10012 14.055 1.34394 13.7579C1.58661 13.4621 1.92442 13.2598 2.29959 13.1856C3.01688 13.0321 3.65999 12.6374 4.12174 12.0673C4.58455 11.4959 4.83711 10.7829 4.83711 10.0475C4.83711 9.31216 4.58457 8.59912 4.12175 8.02774C3.66 7.45765 3.01688 7.063 2.29959 6.90949C1.92442 6.83522 1.58661 6.63295 1.34394 6.33719M1.45643 1.09509C1.14451 1.40701 0.969253 1.83012 0.969253 2.27121V5.28289C0.967632 5.66716 1.10014 6.04006 1.34394 6.33719M1.45643 1.09509C1.45644 1.09508 1.45642 1.09511 1.45643 1.09509Z" fill="#7D7D7D"/>
</svg>
