<svg width="118" height="39" viewBox="0 0 118 39" fill="none" xmlns="http://www.w3.org/2000/svg">
<path d="M9.06881 24.0377C3.7467 23.3497 1.42715 32.1575 0.629395 37.7155H31.49C30.9441 35.8049 29.1723 31.6452 26.4515 30.2904C23.0505 28.597 23.3025 34.9799 18.264 34.7194C13.2255 34.4589 15.115 24.8193 9.06881 24.0377Z" fill="#7D7D7D"/>
<path d="M26.383 30.6023C22.9356 28.9708 21.1673 34.1965 16.0601 33.9455C18.103 36.7766 27.8727 37.9068 31.4903 37.6894C30.937 35.8487 29.141 31.9075 26.383 30.6023Z" fill="#7D7D7D"/>
<path d="M43.711 7.09091C43.5072 6.76003 43.2255 6.50596 42.8659 6.32871C42.5183 6.15145 42.1047 6.06282 41.6252 6.06282C40.7382 6.06282 40.0369 6.34643 39.5215 6.91365C39.018 7.48087 38.7663 8.24307 38.7663 9.20025C38.7663 10.2756 39.036 11.0969 39.5754 11.6641C40.1268 12.2195 40.924 12.4972 41.9669 12.4972C43.2015 12.4972 44.0826 11.9477 44.61 10.8487H41.0678V8.34942H47.6487V11.7173C47.373 12.379 46.9655 12.9994 46.426 13.5785C45.8986 14.1575 45.2273 14.6361 44.4122 15.0142C43.5971 15.3806 42.6681 15.5637 41.6252 15.5637C40.3546 15.5637 39.2278 15.2979 38.2449 14.7661C37.2739 14.2225 36.5187 13.4721 35.9793 12.5149C35.4519 11.5459 35.1882 10.441 35.1882 9.20025C35.1882 7.97128 35.4519 6.8782 35.9793 5.92102C36.5187 4.95202 37.2739 4.20164 38.2449 3.66987C39.2158 3.12628 40.3366 2.85449 41.6072 2.85449C43.2015 2.85449 44.5201 3.23264 45.563 3.98893C46.6058 4.74522 47.2531 5.77921 47.5049 7.09091H43.711Z" fill="#7D7D7D"/>
<path d="M52.6803 2.97857V10.2283C52.6803 10.9019 52.8362 11.4219 53.1478 11.7882C53.4715 12.1545 53.957 12.3377 54.6043 12.3377C55.2516 12.3377 55.737 12.1545 56.0607 11.7882C56.3963 11.41 56.5642 10.8901 56.5642 10.2283V2.97857H60.0883V10.2283C60.0883 11.3746 59.8426 12.3554 59.3511 13.1708C58.8597 13.9743 58.1884 14.5829 57.3373 14.9965C56.4982 15.3983 55.5632 15.5992 54.5323 15.5992C53.5015 15.5992 52.5785 15.3983 51.7633 14.9965C50.9602 14.5829 50.3249 13.9743 49.8574 13.1708C49.4019 12.3672 49.1741 11.3864 49.1741 10.2283V2.97857H52.6803Z" fill="#7D7D7D"/>
<path d="M65.5529 2.97857V15.4751H62.0287V2.97857H65.5529Z" fill="#7D7D7D"/>
<path d="M75.5792 13.4367H71.084L70.4008 15.4751H66.6968L71.3178 2.97857H75.3814L79.9844 15.4751H76.2625L75.5792 13.4367ZM74.6981 10.7778L73.3316 6.73639L71.9831 10.7778H74.6981Z" fill="#7D7D7D"/>
<path d="M89.5913 2.97857C90.9218 2.97857 92.0846 3.24445 93.0795 3.77622C94.0864 4.29617 94.8596 5.02883 95.399 5.97419C95.9384 6.91956 96.2081 8.00082 96.2081 9.21798C96.2081 10.4233 95.9324 11.4987 95.381 12.444C94.8416 13.3894 94.0685 14.1339 93.0615 14.6775C92.0666 15.2092 90.9099 15.4751 89.5913 15.4751H84.5747V2.97857H89.5913ZM89.3216 12.4086C90.3525 12.4086 91.1616 12.1309 91.749 11.5755C92.3363 11.0201 92.63 10.2342 92.63 9.21798C92.63 8.18989 92.3363 7.39815 91.749 6.84275C91.1616 6.27553 90.3525 5.99192 89.3216 5.99192H88.0989V12.4086H89.3216Z" fill="#7D7D7D"/>
<path d="M101.321 5.76149V7.79993H105.367V10.441H101.321V12.6922H105.906V15.4751H97.7968V2.97857H105.906V5.76149H101.321Z" fill="#7D7D7D"/>
<path d="M45.1674 17.6655V20.4307H41.787V30.162H38.2628V20.4307H34.9185V17.6655H45.1674Z" fill="#7D7D7D"/>
<path d="M49.9236 17.6655V24.9152C49.9236 25.5888 50.0794 26.1088 50.391 26.4751C50.7147 26.8414 51.2002 27.0246 51.8475 27.0246C52.4948 27.0246 52.9803 26.8414 53.3039 26.4751C53.6395 26.097 53.8074 25.577 53.8074 24.9152V17.6655H57.3316V24.9152C57.3316 26.0615 57.0858 27.0423 56.5944 27.8577C56.1029 28.6613 55.4316 29.2698 54.5805 29.6834C53.7414 30.0852 52.8064 30.2861 51.7756 30.2861C50.7447 30.2861 49.8217 30.0852 49.0065 29.6834C48.2034 29.2698 47.5681 28.6613 47.1006 27.8577C46.6451 27.0541 46.4173 26.0733 46.4173 24.9152V17.6655H49.9236Z" fill="#7D7D7D"/>
<path d="M65.691 30.162L63.1737 25.5534H62.7961V30.162H59.2719V17.6655H64.8279C65.8468 17.6655 66.7099 17.8427 67.4171 18.1973C68.1244 18.5399 68.6578 19.0185 69.0174 19.633C69.377 20.2357 69.5568 20.9152 69.5568 21.6715C69.5568 22.5223 69.3171 23.2727 68.8376 23.9226C68.3701 24.5607 67.6808 25.0157 66.7698 25.2875L69.6287 30.162H65.691ZM62.7961 23.1781H64.5402C65.0197 23.1781 65.3793 23.0659 65.6191 22.8414C65.8588 22.6168 65.9787 22.2919 65.9787 21.8664C65.9787 21.4647 65.8528 21.1515 65.6011 20.927C65.3613 20.6906 65.0077 20.5725 64.5402 20.5725H62.7961V23.1781Z" fill="#7D7D7D"/>
<path d="M74.6837 17.6655V30.162H71.1595V17.6655H74.6837Z" fill="#7D7D7D"/>
<path d="M81.4735 30.2861C79.9991 30.2861 78.7884 29.9434 77.8414 29.258C76.8944 28.5608 76.385 27.5682 76.313 26.2801H80.071C80.1069 26.7173 80.2388 27.0364 80.4665 27.2373C80.6943 27.4382 80.988 27.5386 81.3476 27.5386C81.6713 27.5386 81.935 27.4618 82.1387 27.3082C82.3545 27.1428 82.4624 26.9182 82.4624 26.6346C82.4624 26.2683 82.2886 25.9847 81.941 25.7838C81.5933 25.5829 81.0299 25.3584 80.2508 25.1102C79.4237 24.8384 78.7524 24.5785 78.237 24.3303C77.7335 24.0703 77.29 23.6981 76.9064 23.2136C76.5348 22.7173 76.349 22.0732 76.349 21.2815C76.349 20.4779 76.5528 19.7926 76.9603 19.2253C77.3679 18.6463 77.9313 18.2091 78.6505 17.9136C79.3697 17.6182 80.1849 17.4705 81.0959 17.4705C82.5703 17.4705 83.745 17.8132 84.6201 18.4986C85.5071 19.1722 85.9806 20.1234 86.0405 21.3524H82.2107C82.1987 20.9743 82.0788 20.6906 81.8511 20.5016C81.6353 20.3125 81.3536 20.218 81.006 20.218C80.7423 20.218 80.5265 20.2948 80.3587 20.4484C80.1908 20.602 80.1069 20.8206 80.1069 21.1042C80.1069 21.3406 80.1968 21.5474 80.3766 21.7246C80.5684 21.8901 80.8022 22.0378 81.0779 22.1678C81.3536 22.286 81.7612 22.4396 82.3006 22.6286C83.1037 22.9004 83.763 23.1722 84.2784 23.444C84.8059 23.704 85.2554 24.0762 85.627 24.5607C86.0106 25.0334 86.2024 25.6361 86.2024 26.3687C86.2024 27.1132 86.0106 27.7809 85.627 28.3717C85.2554 28.9626 84.71 29.4294 83.9907 29.7721C83.2835 30.1148 82.4444 30.2861 81.4735 30.2861Z" fill="#7D7D7D"/>
<path d="M102.639 17.6655V30.162H99.1145V23.2668L96.7231 30.162H93.7743L91.3649 23.2136V30.162H87.8407V17.6655H92.1021L95.2847 25.7838L98.3953 17.6655H102.639Z" fill="#7D7D7D"/>
<path d="M110.722 30.2861C109.536 30.2861 108.445 30.0143 107.45 29.4707C106.455 28.9153 105.664 28.1531 105.076 27.1841C104.501 26.2033 104.213 25.0984 104.213 23.8694C104.213 22.6405 104.501 21.5415 105.076 20.5725C105.664 19.5917 106.455 18.8295 107.45 18.2859C108.445 17.7423 109.536 17.4705 110.722 17.4705C111.921 17.4705 113.012 17.7423 113.995 18.2859C114.99 18.8295 115.775 19.5917 116.35 20.5725C116.926 21.5415 117.213 22.6405 117.213 23.8694C117.213 25.0984 116.926 26.2033 116.35 27.1841C115.775 28.1531 114.99 28.9153 113.995 29.4707C113 30.0143 111.909 30.2861 110.722 30.2861ZM110.722 27.06C111.621 27.06 112.329 26.7705 112.844 26.1915C113.371 25.6125 113.635 24.8384 113.635 23.8694C113.635 22.8768 113.371 22.0969 112.844 21.5297C112.329 20.9506 111.621 20.6611 110.722 20.6611C109.811 20.6611 109.098 20.9506 108.583 21.5297C108.067 22.0969 107.809 22.8768 107.809 23.8694C107.809 24.8503 108.067 25.6302 108.583 26.2092C109.098 26.7764 109.811 27.06 110.722 27.06Z" fill="#7D7D7D"/>
<path fill-rule="evenodd" clip-rule="evenodd" d="M18.3456 28.0001C21.4043 28.0001 29.204 17.0483 29.204 10.9817C29.204 4.91503 24.3425 -0.00296021 18.3456 -0.00296021C12.3488 -0.00296021 7.4873 4.91503 7.4873 10.9817C7.4873 17.0483 15.287 28.0001 18.3456 28.0001ZM18.1899 13.981C20.1112 13.981 21.6687 12.3964 21.6687 10.4416C21.6687 8.48692 20.1112 6.9023 18.1899 6.9023C16.2686 6.9023 14.711 8.48692 14.711 10.4416C14.711 12.3964 16.2686 13.981 18.1899 13.981Z" fill="#7D7D7D"/>
<path d="M40.6666 38.2422L39.5882 36.3724H38.784V38.2422H38.3477V33.7663H39.6567C40.1429 33.7663 40.5107 33.8858 40.7601 34.1249C41.0136 34.3639 41.1403 34.6777 41.1403 35.0661C41.1403 35.3906 41.0489 35.6681 40.8661 35.8986C40.6874 36.1248 40.4214 36.2721 40.0681 36.3404L41.1902 38.2422H40.6666ZM38.784 36.0074H39.663C40.0037 36.0074 40.2593 35.9221 40.4297 35.7513C40.6042 35.5805 40.6915 35.3522 40.6915 35.0661C40.6915 34.7716 40.6084 34.5453 40.4422 34.3874C40.2759 34.2252 40.0141 34.1441 39.6567 34.1441H38.784V36.0074Z" fill="#7D7D7D"/>
<path d="M44.9361 33.7663V38.2422H44.4997V33.7663H44.9361Z" fill="#7D7D7D"/>
<path d="M50.375 38.287C49.9719 38.287 49.6062 38.1909 49.2779 37.9988C48.9496 37.8025 48.6899 37.5314 48.4987 37.1856C48.3117 36.8356 48.2182 36.4407 48.2182 36.001C48.2182 35.5613 48.3117 35.1686 48.4987 34.8228C48.6899 34.4728 48.9496 34.2017 49.2779 34.0096C49.6062 33.8132 49.9719 33.7151 50.375 33.7151C50.7823 33.7151 51.1501 33.8132 51.4784 34.0096C51.8067 34.2017 52.0644 34.4728 52.2514 34.8228C52.4384 35.1686 52.5319 35.5613 52.5319 36.001C52.5319 36.4407 52.4384 36.8356 52.2514 37.1856C52.0644 37.5314 51.8067 37.8025 51.4784 37.9988C51.1501 38.1909 50.7823 38.287 50.375 38.287ZM50.375 37.8964C50.6992 37.8964 50.9901 37.8196 51.2478 37.6659C51.5054 37.5122 51.709 37.2924 51.8587 37.0063C52.0083 36.7161 52.0831 36.381 52.0831 36.001C52.0831 35.6211 52.0083 35.2881 51.8587 35.0021C51.709 34.7161 51.5054 34.4963 51.2478 34.3426C50.9901 34.1889 50.6992 34.1121 50.375 34.1121C50.0509 34.1121 49.76 34.1889 49.5023 34.3426C49.2447 34.4963 49.041 34.7161 48.8914 35.0021C48.7418 35.2881 48.667 35.6211 48.667 36.001C48.667 36.381 48.7418 36.7161 48.8914 37.0063C49.041 37.2924 49.2447 37.5122 49.5023 37.6659C49.76 37.8196 50.0509 37.8964 50.375 37.8964Z" fill="#7D7D7D"/>
<path d="M61.3182 33.7663C61.8003 33.7663 62.2138 33.8559 62.5587 34.0352C62.9036 34.2145 63.1675 34.4728 63.3504 34.81C63.5332 35.1473 63.6247 35.5485 63.6247 36.0138C63.6247 36.4749 63.5332 36.874 63.3504 37.2112C63.1675 37.5442 62.9036 37.8003 62.5587 37.9796C62.2138 38.1547 61.8003 38.2422 61.3182 38.2422H60.0279V33.7663H61.3182ZM61.3182 37.8708C61.925 37.8708 62.3863 37.7086 62.7021 37.3841C63.0221 37.0554 63.1821 36.5987 63.1821 36.0138C63.1821 35.4247 63.0221 34.9658 62.7021 34.6371C62.3863 34.3042 61.925 34.1377 61.3182 34.1377H60.4642V37.8708H61.3182Z" fill="#7D7D7D"/>
<path d="M67.359 34.1313V35.8025H69.0109V36.1739H67.359V37.8708H69.1979V38.2422H66.9226V33.7599H69.1979V34.1313H67.359Z" fill="#7D7D7D"/>
<path d="M78.7687 33.7663V37.1536C78.7687 37.4951 78.6669 37.7705 78.4632 37.9796C78.2596 38.1845 77.9874 38.287 77.6466 38.287C77.2934 38.287 77.0108 38.1781 76.7989 37.9604C76.5911 37.7384 76.4872 37.4396 76.4872 37.064H76.9298C76.9339 37.3073 76.9921 37.5058 77.1043 37.6595C77.2207 37.8132 77.4014 37.89 77.6466 37.89C77.8794 37.89 78.0518 37.8196 78.164 37.6787C78.2762 37.5378 78.3323 37.3628 78.3323 37.1536V33.7663H78.7687Z" fill="#7D7D7D"/>
<path d="M84.8841 37.1792H82.9017L82.5215 38.2422H82.0602L83.6498 33.8239H84.1422L85.7256 38.2422H85.2643L84.8841 37.1792ZM84.7531 36.8078L83.8929 34.3874L83.0327 36.8078H84.7531Z" fill="#7D7D7D"/>
<path d="M92.2045 38.2422H91.7681L89.3557 34.477V38.2422H88.9194V33.7663H89.3557L91.7681 37.525V33.7663H92.2045V38.2422Z" fill="#7D7D7D"/>
<path d="M96.1226 34.1313V35.8025H97.7746V36.1739H96.1226V37.8708H97.9616V38.2422H95.6863V33.7599H97.9616V34.1313H96.1226Z" fill="#7D7D7D"/>
<path d="M101.751 33.7663V38.2422H101.315V33.7663H101.751Z" fill="#7D7D7D"/>
<path d="M107.552 38.2422L106.473 36.3724H105.669V38.2422H105.233V33.7663H106.542C107.028 33.7663 107.396 33.8858 107.645 34.1249C107.899 34.3639 108.025 34.6777 108.025 35.0661C108.025 35.3906 107.934 35.6681 107.751 35.8986C107.572 36.1248 107.307 36.2721 106.953 36.3404L108.075 38.2422H107.552ZM105.669 36.0074H106.548C106.889 36.0074 107.144 35.9221 107.315 35.7513C107.489 35.5805 107.577 35.3522 107.577 35.0661C107.577 34.7716 107.494 34.5453 107.327 34.3874C107.161 34.2252 106.899 34.1441 106.542 34.1441H105.669V36.0074Z" fill="#7D7D7D"/>
<path d="M113.342 38.287C112.939 38.287 112.573 38.1909 112.245 37.9988C111.917 37.8025 111.657 37.5314 111.466 37.1856C111.279 36.8356 111.185 36.4407 111.185 36.001C111.185 35.5613 111.279 35.1686 111.466 34.8228C111.657 34.4728 111.917 34.2017 112.245 34.0096C112.573 33.8132 112.939 33.7151 113.342 33.7151C113.749 33.7151 114.117 33.8132 114.446 34.0096C114.774 34.2017 115.032 34.4728 115.219 34.8228C115.406 35.1686 115.499 35.5613 115.499 36.001C115.499 36.4407 115.406 36.8356 115.219 37.1856C115.032 37.5314 114.774 37.8025 114.446 37.9988C114.117 38.1909 113.749 38.287 113.342 38.287ZM113.342 37.8964C113.666 37.8964 113.957 37.8196 114.215 37.6659C114.473 37.5122 114.676 37.2924 114.826 37.0063C114.975 36.7161 115.05 36.381 115.05 36.001C115.05 35.6211 114.975 35.2881 114.826 35.0021C114.676 34.7161 114.473 34.4963 114.215 34.3426C113.957 34.1889 113.666 34.1121 113.342 34.1121C113.018 34.1121 112.727 34.1889 112.47 34.3426C112.212 34.4963 112.008 34.7161 111.859 35.0021C111.709 35.2881 111.634 35.6211 111.634 36.001C111.634 36.381 111.709 36.7161 111.859 37.0063C112.008 37.2924 112.212 37.5122 112.47 37.6659C112.727 37.8196 113.018 37.8964 113.342 37.8964Z" fill="#7D7D7D"/>
</svg>
