<svg width="140" height="29" viewBox="0 0 140 29" fill="none" xmlns="http://www.w3.org/2000/svg">
<path d="M36.6593 4.44453V11.5034C36.6593 12.5961 36.3293 13.4379 35.6694 14.0286C35.0201 14.6193 34.1402 14.9146 33.03 14.9146C31.8673 14.9146 30.9351 14.6045 30.2333 13.9842C29.5316 13.364 29.1807 12.4829 29.1807 11.3409H31.8516C31.8516 11.7741 31.9459 12.1039 32.1344 12.3303C32.323 12.5469 32.5952 12.6552 32.9514 12.6552C33.2761 12.6552 33.5275 12.5567 33.7055 12.3598C33.8836 12.1629 33.9726 11.8774 33.9726 11.5034V4.44453H36.6593Z" fill="#7D7D7D"/>
<path d="M42.2838 14.9146C41.2554 14.9146 40.3102 14.6913 39.4481 14.2448C38.5964 13.7982 37.916 13.1769 37.407 12.3808C36.9084 11.5751 36.6592 10.6722 36.6592 9.6723C36.6592 8.67236 36.9084 7.77437 37.407 6.97833C37.916 6.18226 38.5964 5.56095 39.4481 5.11439C40.3102 4.66782 41.2554 4.44453 42.2838 4.44453C43.312 4.44453 44.2521 4.66782 45.104 5.11439C45.9661 5.56095 46.641 6.18226 47.1294 6.97833C47.628 7.77437 47.8771 8.67236 47.8771 9.6723C47.8771 10.6722 47.628 11.5751 47.1294 12.3808C46.6308 13.1769 45.9555 13.7982 45.104 14.2448C44.2521 14.6913 43.312 14.9146 42.2838 14.9146ZM42.2838 12.6429C43.1563 12.6429 43.8522 12.3711 44.3713 11.8275C44.9013 11.2838 45.1663 10.5654 45.1663 9.6723C45.1663 8.76944 44.9013 8.05105 44.3713 7.51713C43.8522 6.97346 43.1563 6.70165 42.2838 6.70165C41.4009 6.70165 40.6945 6.96863 40.1648 7.50255C39.6455 8.03648 39.3858 8.75974 39.3858 9.6723C39.3858 10.5751 39.6455 11.2984 40.1648 11.842C40.6945 12.376 41.4009 12.6429 42.2838 12.6429Z" fill="#7D7D7D"/>
<path d="M57.5993 4.44453L53.6763 14.9146H50.3048L46.3813 4.44453H49.249L51.9903 12.3493L54.7477 4.44453H57.5993Z" fill="#7D7D7D"/>
<path d="M59.5283 6.48786V8.60573H63.1129L62.1466 10.5744H59.5283V12.8713H63.5823V14.9146H56.8516V4.44453H63.5823V6.48786H59.5283Z" fill="#7D7D7D"/>
<path d="M73.3047 14.9146H70.6577L66.23 8.45658V14.9146H63.5825V4.44453H66.23L70.6577 10.9324V4.44453H73.3047V14.9146Z" fill="#7D7D7D"/>
<path d="M77.5574 14.9146C76.7611 14.9146 76.047 14.7933 75.4156 14.5505C74.7843 14.3078 74.2775 13.9486 73.8947 13.473C73.522 12.9973 73.3254 12.4245 73.3047 11.7547H76.1297C76.1711 12.1333 76.3105 12.4245 76.5486 12.6284C76.7866 12.8225 77.0972 12.9196 77.48 12.9196C77.8733 12.9196 78.1835 12.8371 78.4114 12.6721C78.6388 12.4973 78.7528 12.2594 78.7528 11.9585C78.7528 11.7061 78.6595 11.4974 78.4734 11.3324C78.2974 11.1673 78.0748 11.0314 77.806 10.9246C77.5473 10.8178 77.1746 10.6965 76.6885 10.5605C75.985 10.3567 75.4104 10.1528 74.9656 9.94894C74.5208 9.74511 74.1375 9.44416 73.8168 9.04612C73.4961 8.64808 73.3359 8.12873 73.3359 7.48798C73.3359 6.53662 73.7033 5.79396 74.438 5.26001C75.1723 4.71636 76.1297 4.44453 77.3093 4.44453C78.5095 4.44453 79.477 4.71636 80.2117 5.26001C80.9465 5.79396 81.3398 6.54145 81.3913 7.50255H78.5201C78.4994 7.17246 78.37 6.91522 78.132 6.73075C77.894 6.53662 77.5886 6.43954 77.216 6.43954C76.8953 6.43954 76.6366 6.52205 76.4399 6.68708C76.2437 6.8424 76.1451 7.07055 76.1451 7.3715C76.1451 7.70155 76.3105 7.95883 76.6418 8.14326C76.9731 8.32773 77.4905 8.52673 78.194 8.7403C78.8975 8.96361 79.4669 9.17718 79.9015 9.38105C80.3464 9.58492 80.7291 9.881 81.0499 10.2693C81.3706 10.6576 81.5312 11.1576 81.5312 11.7692C81.5312 12.3517 81.3706 12.8808 81.0499 13.3565C80.7397 13.8322 80.2843 14.2108 79.6842 14.4923C79.0841 14.7738 78.3749 14.9146 77.5574 14.9146Z" fill="#7D7D7D"/>
<path d="M37.4072 19.781C37.4072 20.3876 37.2636 20.9444 36.9766 21.4515C36.6896 21.9486 36.2488 22.3513 35.6542 22.6596C35.0596 22.9678 34.3216 23.1219 33.44 23.1219H31.8101V26.8804H29.1807V16.4103H33.44C34.3011 16.4103 35.0289 16.5545 35.6235 16.8429C36.218 17.1312 36.664 17.5289 36.9612 18.0361C37.2585 18.5431 37.4072 19.1248 37.4072 19.781ZM33.2401 21.0935C33.7424 21.0935 34.1165 20.9792 34.3626 20.7505C34.6086 20.5218 34.7316 20.1987 34.7316 19.781C34.7316 19.3634 34.6086 19.0403 34.3626 18.8116C34.1165 18.5829 33.7424 18.4686 33.2401 18.4686H31.8101V21.0935H33.2401Z" fill="#7D7D7D"/>
<path d="M42.7518 26.8804L40.572 22.928H39.9598V26.8804H37.4067V16.4103H41.6917C42.5179 16.4103 43.2196 16.5545 43.7969 16.8429C44.3843 17.1312 44.8219 17.5289 45.1106 18.0361C45.3996 18.5332 45.5439 19.09 45.5439 19.7065C45.5439 20.4025 45.3446 21.0239 44.9464 21.5708C44.5583 22.1177 43.9811 22.5055 43.2146 22.7341L45.6332 26.8804H42.7518ZM39.9598 21.1234H41.5424C42.0102 21.1234 42.3586 21.009 42.5875 20.7803C42.8264 20.5516 42.9459 20.2285 42.9459 19.8109C42.9459 19.4132 42.8264 19.1 42.5875 18.8712C42.3586 18.6426 42.0102 18.5282 41.5424 18.5282H39.9598V21.1234Z" fill="#7D7D7D"/>
<path d="M50.5104 27.6283C49.4818 27.6283 48.5367 27.3891 47.6747 26.9106C46.8228 26.4321 46.1426 25.7665 45.6339 24.9135C45.1353 24.0502 44.8857 23.0829 44.8857 22.0115C44.8857 20.9402 45.1353 19.978 45.6339 19.1251C46.1426 18.2722 46.8228 17.6065 47.6747 17.128C48.5367 16.6496 49.4818 16.4103 50.5104 16.4103C51.5385 16.4103 52.4783 16.6496 53.3302 17.128C54.1923 17.6065 54.8676 18.2722 55.3556 19.1251C55.8542 19.978 56.1037 20.9402 56.1037 22.0115C56.1037 23.0829 55.8542 24.0502 55.3556 24.9135C54.857 25.7665 54.1821 26.4321 53.3302 26.9106C52.4783 27.3891 51.5385 27.6283 50.5104 27.6283ZM50.5104 25.1944C51.3826 25.1944 52.0786 24.9031 52.598 24.3206C53.1275 23.7382 53.3925 22.9685 53.3925 22.0115C53.3925 21.0442 53.1275 20.2745 52.598 19.7024C52.0786 19.1199 51.3826 18.8287 50.5104 18.8287C49.6276 18.8287 48.921 19.1147 48.3914 19.6868C47.8721 20.2589 47.6124 21.0338 47.6124 22.0115C47.6124 22.9789 47.8721 23.7538 48.3914 24.3362C48.921 24.9083 49.6276 25.1944 50.5104 25.1944Z" fill="#7D7D7D"/>
<path d="M63.582 16.4103V18.4536H60.7639V26.8804H58.1735V18.4536H55.3555V16.4103H63.582Z" fill="#7D7D7D"/>
<path d="M80.5349 20.0189C80.3307 19.6528 80.0351 19.3756 79.6482 19.1874C79.2721 18.9886 78.8262 18.8893 78.3104 18.8893C77.4186 18.8893 76.7041 19.1769 76.1668 19.7522C75.6295 20.317 75.3609 21.0753 75.3609 22.0271C75.3609 23.0418 75.6405 23.8367 76.1993 24.4119C76.7685 24.9768 77.5475 25.2592 78.5361 25.2592C79.2132 25.2592 79.7825 25.0918 80.2448 24.7571C80.7177 24.4224 81.0612 23.9413 81.2764 23.3137H77.7786V21.3368H83.7746V23.8314C83.5704 24.5008 83.2209 25.1232 82.727 25.6985C82.2432 26.2738 81.6255 26.7392 80.8735 27.0948C80.121 27.4505 79.2721 27.6283 78.3269 27.6283C77.2094 27.6283 76.2098 27.3929 75.3289 26.9223C74.4586 26.4411 73.776 25.7769 73.2817 24.9297C72.7983 24.0825 72.5566 23.115 72.5566 22.0271C72.5566 20.9394 72.7983 19.9718 73.2817 19.1246C73.776 18.2669 74.4586 17.6027 75.3289 17.1321C76.1993 16.6509 77.1929 16.4103 78.3104 16.4103C79.6646 16.4103 80.8036 16.7293 81.7274 17.3674C82.6621 18.0054 83.2803 18.8893 83.5809 20.0189H80.5349Z" fill="#7D7D7D"/>
<path d="M88.6513 27.6283C87.6231 27.6283 86.678 27.3891 85.8159 26.9106C84.9639 26.4321 84.2838 25.7665 83.7746 24.9135C83.276 24.0502 83.0269 23.0829 83.0269 22.0115C83.0269 20.9402 83.276 19.978 83.7746 19.1251C84.2838 18.2722 84.9639 17.6065 85.8159 17.128C86.678 16.6496 87.6231 16.4103 88.6513 16.4103C89.6799 16.4103 90.6197 16.6496 91.4717 17.128C92.3338 17.6065 93.0091 18.2722 93.4971 19.1251C93.9957 19.978 94.2448 20.9402 94.2448 22.0115C94.2448 23.0829 93.9957 24.0502 93.4971 24.9135C92.9985 25.7665 92.3232 26.4321 91.4717 26.9106C90.6197 27.3891 89.6799 27.6283 88.6513 27.6283ZM88.6513 25.1944C89.524 25.1944 90.22 24.9031 90.7394 24.3206C91.2689 23.7382 91.5339 22.9685 91.5339 22.0115C91.5339 21.0442 91.2689 20.2745 90.7394 19.7024C90.22 19.1199 89.524 18.8287 88.6513 18.8287C87.7684 18.8287 87.0622 19.1147 86.5322 19.6868C86.0133 20.2589 85.7536 21.0338 85.7536 22.0115C85.7536 22.9789 86.0133 23.7538 86.5322 24.3362C87.0622 24.9083 87.7684 25.1944 88.6513 25.1944Z" fill="#7D7D7D"/>
<path d="M103.967 26.8804H101.319L96.8921 20.4224V26.8804H94.2446V16.4103H96.8921L101.319 22.8982V16.4103H103.967V26.8804Z" fill="#7D7D7D"/>
<path d="M106.959 16.4103V26.8804H103.967V16.4103H106.959Z" fill="#7D7D7D"/>
<path d="M111.211 27.6283C110.414 27.6283 109.7 27.4983 109.069 27.2383C108.438 26.9782 107.931 26.5934 107.548 26.0837C107.175 25.574 106.979 24.9604 106.958 24.2427H109.783C109.824 24.6483 109.964 24.9604 110.202 25.1787C110.44 25.3868 110.751 25.4908 111.133 25.4908C111.527 25.4908 111.837 25.4024 112.065 25.2256C112.292 25.0383 112.406 24.7835 112.406 24.461C112.406 24.1906 112.313 23.967 112.127 23.7902C111.951 23.6134 111.728 23.4677 111.459 23.3533C111.201 23.2389 110.828 23.1089 110.342 22.9632C109.638 22.7448 109.064 22.5264 108.619 22.308C108.174 22.0895 107.791 21.7671 107.47 21.3406C107.149 20.9142 106.989 20.3577 106.989 19.6712C106.989 18.6519 107.357 17.8562 108.091 17.2841C108.826 16.7016 109.783 16.4103 110.963 16.4103C112.163 16.4103 113.13 16.7016 113.865 17.2841C114.6 17.8562 114.993 18.6571 115.045 19.6868H112.173C112.153 19.3331 112.023 19.0575 111.785 18.8599C111.547 18.6519 111.242 18.5479 110.869 18.5479C110.549 18.5479 110.29 18.6363 110.093 18.8131C109.897 18.9795 109.798 19.2239 109.798 19.5464C109.798 19.9 109.964 20.1757 110.295 20.3733C110.626 20.5709 111.144 20.7841 111.847 21.013C112.551 21.2522 113.12 21.4811 113.554 21.6995C114 21.9179 114.382 22.2352 114.703 22.6512C115.024 23.0673 115.184 23.6029 115.184 24.2582C115.184 24.8823 115.024 25.4492 114.703 25.9589C114.393 26.4685 113.938 26.8742 113.338 27.1759C112.737 27.4775 112.028 27.6283 111.211 27.6283Z" fill="#7D7D7D"/>
<path d="M122.664 16.4103V18.4536H119.846V26.8804H117.255V18.4536H114.437V16.4103H122.664Z" fill="#7D7D7D"/>
<path d="M135.891 27.6283C135.094 27.6283 134.38 27.4983 133.749 27.2383C133.117 26.9782 132.611 26.5934 132.227 26.0837C131.855 25.574 131.658 24.9604 131.638 24.2427H134.463C134.504 24.6483 134.644 24.9604 134.882 25.1787C135.12 25.3868 135.43 25.4908 135.813 25.4908C136.206 25.4908 136.517 25.4024 136.744 25.2256C136.972 25.0383 137.086 24.7835 137.086 24.461C137.086 24.1906 136.993 23.967 136.807 23.7902C136.631 23.6134 136.408 23.4677 136.139 23.3533C135.881 23.2389 135.508 23.1089 135.022 22.9632C134.318 22.7448 133.743 22.5264 133.299 22.308C132.853 22.0895 132.471 21.7671 132.15 21.3406C131.829 20.9142 131.668 20.3577 131.668 19.6712C131.668 18.6519 132.036 17.8562 132.771 17.2841C133.505 16.7016 134.463 16.4103 135.642 16.4103C136.843 16.4103 137.81 16.7016 138.545 17.2841C139.28 17.8562 139.673 18.6571 139.725 19.6868H136.853C136.832 19.3331 136.703 19.0575 136.465 18.8599C136.227 18.6519 135.922 18.5479 135.549 18.5479C135.228 18.5479 134.97 18.6363 134.773 18.8131C134.576 18.9795 134.478 19.2239 134.478 19.5464C134.478 19.9 134.644 20.1757 134.975 20.3733C135.306 20.5709 135.823 20.7841 136.527 21.013C137.231 21.2522 137.8 21.4811 138.234 21.6995C138.68 21.9179 139.063 22.2352 139.383 22.6512C139.704 23.0673 139.864 23.6029 139.864 24.2582C139.864 24.8823 139.704 25.4492 139.383 25.9589C139.073 26.4685 138.617 26.8742 138.017 27.1759C137.417 27.4775 136.708 27.6283 135.891 27.6283Z" fill="#7D7D7D"/>
<path d="M65.6784 26.8804H62.8345L66.8702 16.4103H70.0163L74.0524 26.8804H71.1765L70.509 25.031L68.4277 19.2292L67.0611 23.0623L65.6784 26.8804Z" fill="#7D7D7D"/>
<path d="M124.57 26.8804H121.916L125.682 16.4103H128.619L132.386 26.8804H129.701L129.078 25.031L127.136 19.2292L125.86 23.0623L124.57 26.8804Z" fill="#7D7D7D"/>
<path d="M25.6665 11.9979L24.633 16.8964H29.0622V22.655H23.415L22.197 28.3761H16.2914L17.5094 22.655H11.3824L10.1644 28.3761H4.25879L5.47683 22.655H0.0141602V16.8964H6.69484L7.72831 11.9979H2.37639V6.23942H8.90944L10.0906 0.705215H15.9961L14.815 6.23942H20.942L22.1231 0.705215H28.0287L26.8476 6.23942H31.4244V11.9979H25.6665ZM19.7609 11.9979H13.6339L12.6004 16.8964H18.7275L19.7609 11.9979Z" fill="#7D7D7D"/>
</svg>
