<svg width="53" height="77" viewBox="0 0 53 77" fill="none" xmlns="http://www.w3.org/2000/svg">
<path fill-rule="evenodd" clip-rule="evenodd" d="M18.7888 5.80255V0.921143H0.617188V5.80255H6.28826V20.5577H13.0568V5.80255H18.7888ZM27.2404 11.9875V0.921146H20.5026V11.9875C20.5026 13.8735 20.8988 15.4729 21.6915 16.7857C22.4845 18.0985 23.5819 19.0878 24.9842 19.7534C26.4072 20.419 28.0334 20.7519 29.8626 20.7519C31.6919 20.7519 33.3486 20.419 34.8324 19.7534C36.3162 19.0878 37.4848 18.0985 38.3387 16.7857C39.1922 15.4544 39.6192 13.855 39.6192 11.9875V0.921146H32.8811V11.9875C32.8811 12.8936 32.6473 13.6147 32.1797 14.1509C31.7122 14.6686 30.9906 14.9275 30.0149 14.9275C29.0395 14.9275 28.3281 14.6686 27.8808 14.1509C27.4539 13.6147 27.2404 12.8936 27.2404 11.9875ZM12.6912 44.9648L8.63625 37.92H8.6058V44.9648H1.83724V25.3282H11.8986C13.6466 25.3282 15.1406 25.6148 16.3805 26.1881C17.6204 26.7429 18.5453 27.5102 19.155 28.4901C19.7852 29.4515 20.1002 30.5425 20.1002 31.7628C20.1002 33.0756 19.6936 34.2406 18.8806 35.2576C18.0879 36.2745 16.9394 37.0048 15.4353 37.4485L20.1307 44.9648H12.6912ZM8.6058 33.8152H11.2889C11.9392 33.8152 12.427 33.6859 12.7524 33.427C13.0776 33.1496 13.24 32.7242 13.24 32.1512C13.24 31.6335 13.0674 31.2265 12.7217 30.9307C12.3966 30.6348 11.9189 30.487 11.2889 30.487H8.6058V33.8152ZM29.0304 44.9648V25.3282H22.2618V44.9648H29.0304ZM40.5329 45.1588C37.9516 45.1588 35.8172 44.6133 34.1304 43.5226C32.4636 42.4131 31.5589 40.7951 31.4168 38.6687H38.612C38.7138 39.7967 39.2626 40.3607 40.2586 40.3607C40.6243 40.3607 40.9294 40.2867 41.1733 40.1389C41.4376 39.9723 41.5695 39.7226 41.5695 39.39C41.5695 38.9276 41.2951 38.5579 40.7464 38.2805C40.1977 37.9847 39.3438 37.6517 38.1854 37.2821C36.8031 36.8381 35.6548 36.4037 34.7401 35.9785C33.8456 35.5531 33.0732 34.9338 32.423 34.1202C31.7724 33.3066 31.4574 32.2619 31.4777 30.9861C31.4777 29.7103 31.8333 28.6286 32.5448 27.7412C33.2765 26.835 34.2624 26.151 35.5023 25.6888C36.7625 25.2263 38.1752 24.9952 39.7403 24.9952C42.3825 24.9952 44.4763 25.55 46.021 26.6595C47.586 27.769 48.4091 29.3314 48.4906 31.3468H41.2038C41.1835 30.792 41.0309 30.3943 40.7464 30.154C40.4619 29.9136 40.1161 29.7936 39.7098 29.7936C39.4253 29.7936 39.1915 29.8859 39.0085 30.071C38.8255 30.2373 38.7341 30.4776 38.7341 30.792C38.7341 31.2357 38.9984 31.6056 39.5268 31.9015C40.0755 32.1786 40.9396 32.5208 42.1183 32.9277C43.4803 33.3899 44.5981 33.8336 45.4722 34.2588C46.3664 34.6842 47.1388 35.2757 47.7893 36.0341C48.4399 36.7921 48.765 37.7443 48.765 38.8905C48.765 40.0926 48.4399 41.1743 47.7893 42.1357C47.1388 43.0786 46.1939 43.8182 44.9539 44.3544C43.714 44.8907 42.2404 45.1588 40.5329 45.1588ZM27.7832 69.3717V49.7351H19.5207L14.8865 61.5228L10.1302 49.7351H1.83724V69.3717H8.6058V59.5812L11.929 69.3717H17.7219L21.0454 59.5812V69.3717H27.7832ZM41.356 69.566C39.3234 69.566 37.4533 69.1313 35.7461 68.2624C34.059 67.3933 32.7176 66.1915 31.7216 64.6568C30.7256 63.1222 30.2276 61.3931 30.2276 59.4703C30.2276 57.5472 30.7256 55.8185 31.7216 54.2838C32.7176 52.7491 34.059 51.5563 35.7461 50.706C37.4533 49.8369 39.3234 49.4024 41.356 49.4024C43.3886 49.4024 45.2483 49.8369 46.9354 50.706C48.6225 51.5563 49.9538 52.7491 50.9295 54.2838C51.9255 55.8185 52.4235 57.5472 52.4235 59.4703C52.4235 61.3931 51.9255 63.1222 50.9295 64.6568C49.9538 66.1915 48.6124 67.3933 46.9049 68.2624C45.2178 69.1313 43.3683 69.566 41.356 69.566ZM41.356 63.8247C42.6974 63.8247 43.734 63.4363 44.4657 62.6597C45.1975 61.8649 45.5635 60.8017 45.5635 59.4703C45.5635 58.1205 45.1975 57.0573 44.4657 56.2807C43.734 55.4856 42.6974 55.0882 41.356 55.0882C39.994 55.0882 38.9472 55.4856 38.2155 56.2807C37.4837 57.0573 37.118 58.1205 37.118 59.4703C37.118 60.8017 37.4837 61.8649 38.2155 62.6597C38.9472 63.4363 39.994 63.8247 41.356 63.8247ZM16.5701 73.325C16.2956 73.6431 16.1584 74.0644 16.1584 74.589V74.6332C16.1584 75.1557 16.2956 75.5791 16.5701 75.9035C16.8469 76.228 17.204 76.3902 17.6414 76.3902C18.102 76.3902 18.4614 76.2469 18.7196 75.9604L18.751 76.327H19.3442V71.4732H18.6987V73.2554C18.4405 72.9816 18.0903 72.8447 17.6484 72.8447C17.204 72.8447 16.8446 73.0048 16.5701 73.325ZM17.0691 75.5654C16.8923 75.3463 16.8039 75.043 16.8039 74.6553C16.8039 74.2214 16.8923 73.8938 17.0691 73.6726C17.2459 73.4514 17.4925 73.3408 17.8089 73.3408C18.209 73.3408 18.5056 73.5019 18.6987 73.8242V75.3948C18.5102 75.7276 18.2113 75.8941 17.8019 75.8941C17.4902 75.8941 17.2459 75.7845 17.0691 75.5654ZM8.78512 76.327H9.43067V72.9079H8.78512V76.327ZM8.82699 71.7608C8.76418 71.8261 8.73278 71.9061 8.73278 72.0009C8.73278 72.0957 8.76418 72.1747 8.82699 72.2379C8.89213 72.3011 8.98751 72.3327 9.11313 72.3327C9.23875 72.3327 9.33413 72.3011 9.39927 72.2379C9.4644 72.1747 9.49697 72.0957 9.49697 72.0009C9.49697 71.9061 9.4644 71.8261 9.39927 71.7608C9.33413 71.6955 9.23875 71.6628 9.11313 71.6628C8.98751 71.6628 8.89213 71.6955 8.82699 71.7608ZM5.09676 74.4657H6.29016L7.39283 76.327H8.11166V76.289L6.91826 74.3362C7.22301 74.2308 7.46029 74.0718 7.63011 73.859C7.80226 73.6462 7.88833 73.3966 7.88833 73.1101C7.88833 72.6593 7.73363 72.3159 7.42423 72.0799C7.11716 71.844 6.67749 71.726 6.10522 71.726H4.4233V76.327H5.09676V74.4657ZM6.12615 73.9696H5.09676V72.2253H6.12266C6.47626 72.2274 6.74611 72.3043 6.93222 72.456C7.12065 72.6077 7.21486 72.8257 7.21486 73.1101C7.21486 73.3713 7.116 73.5799 6.91826 73.7358C6.72285 73.8917 6.45881 73.9696 6.12615 73.9696ZM10.2961 74.5858C10.2961 74.2508 10.3682 73.9496 10.5124 73.6821C10.659 73.4145 10.8614 73.2081 11.1196 73.0627C11.3801 72.9173 11.6767 72.8447 12.0094 72.8447C12.5235 72.8447 12.9387 73.0058 13.2551 73.3281C13.5738 73.6505 13.7332 74.0792 13.7332 74.6143V74.6553C13.7332 74.9882 13.6622 75.2873 13.5203 75.5528C13.3807 75.8161 13.1795 76.0215 12.9166 76.169C12.6561 76.3164 12.356 76.3902 12.0164 76.3902C11.5046 76.3902 11.0893 76.229 10.7706 75.9067C10.4542 75.5844 10.2961 75.1578 10.2961 74.6269V74.5858ZM10.9451 74.6553C10.9451 75.0345 11.0416 75.3389 11.2347 75.5686C11.4301 75.7982 11.6907 75.913 12.0164 75.913C12.3444 75.913 12.6049 75.7971 12.798 75.5654C12.9911 75.3316 13.0876 75.005 13.0876 74.5858C13.0876 74.2108 12.9888 73.9075 12.791 73.6757C12.5956 73.4419 12.3351 73.325 12.0094 73.325C11.6907 73.325 11.4336 73.4398 11.2382 73.6694C11.0428 73.899 10.9451 74.2277 10.9451 74.6553ZM21.916 76.3902C21.4042 76.3902 20.9878 76.2385 20.6667 75.9351C20.3457 75.6297 20.1852 75.222 20.1852 74.7122V74.6048C20.1852 74.2656 20.2561 73.9633 20.398 73.6979C20.5423 73.4303 20.7423 73.2217 20.9982 73.0722C21.2565 72.9205 21.5356 72.8447 21.8357 72.8447C22.3266 72.8447 22.7081 72.9911 22.9802 73.2839C23.2524 73.5767 23.3885 73.9959 23.3885 74.5416V74.7849H20.8307C20.84 75.122 20.9482 75.3948 21.1553 75.6033C21.3646 75.8098 21.6298 75.913 21.9509 75.913C22.1788 75.913 22.3719 75.8709 22.5301 75.7866C22.6883 75.7023 22.8267 75.5907 22.9454 75.4516L23.3397 75.7297C23.0233 76.17 22.5487 76.3902 21.916 76.3902ZM21.8357 73.325C21.5752 73.325 21.3565 73.4113 21.1797 73.5841C21.0029 73.7547 20.8935 73.9949 20.8517 74.3046H22.743V74.2603C22.7244 73.9633 22.636 73.7337 22.4778 73.5714C22.3196 73.4071 22.1056 73.325 21.8357 73.325ZM28.8146 71.726H28.1412V74.9934C28.1388 75.2778 28.0516 75.499 27.8794 75.6571C27.7096 75.815 27.4863 75.8941 27.2095 75.8941C26.9071 75.8941 26.6756 75.8203 26.5151 75.6728C26.3569 75.5254 26.2778 75.32 26.2778 75.0566H25.6078C25.6078 75.478 25.7486 75.8056 26.03 76.0394C26.3115 76.2732 26.7047 76.3902 27.2095 76.3902C27.6957 76.3902 28.0842 76.2659 28.375 76.0173C28.6681 75.7687 28.8146 75.4243 28.8146 74.984V71.726ZM32.1854 76.327C32.1482 76.2596 32.118 76.1395 32.0947 75.9667C31.7946 76.249 31.4364 76.3902 31.02 76.3902C30.6478 76.3902 30.3418 76.2954 30.1022 76.1058C29.865 75.9141 29.7463 75.6718 29.7463 75.379C29.7463 75.0229 29.8952 74.747 30.193 74.551C30.4931 74.353 30.9141 74.254 31.4561 74.254H32.0842V73.9854C32.0842 73.7811 32.0168 73.6189 31.8819 73.4988C31.7469 73.3766 31.548 73.3155 31.2852 73.3155C31.0549 73.3155 30.8618 73.3682 30.7059 73.4735C30.5501 73.5788 30.4721 73.7063 30.4721 73.8559H29.8231C29.8231 73.6852 29.8894 73.5209 30.022 73.3629C30.1569 73.2028 30.3384 73.0764 30.5663 72.9837C30.7966 72.891 31.049 72.8447 31.3235 72.8447C31.7586 72.8447 32.0994 72.9437 32.346 73.1417C32.5925 73.3376 32.7205 73.6083 32.7298 73.9538V75.5275C32.7298 75.8414 32.774 76.091 32.8624 76.2764V76.327H32.1854ZM31.1142 75.8814C31.3166 75.8814 31.5085 75.834 31.6899 75.7392C31.8714 75.6444 32.0028 75.5212 32.0842 75.3695V74.668H31.5783C30.7873 74.668 30.3919 74.8776 30.3919 75.2968C30.3919 75.4801 30.4593 75.6233 30.5942 75.7266C30.7292 75.8298 30.9025 75.8814 31.1142 75.8814ZM34.3733 73.3376L34.3524 72.9079H33.7417V76.327H34.3873V73.8906C34.4757 73.7263 34.599 73.5936 34.7572 73.4924C34.9154 73.3913 35.0991 73.3408 35.3085 73.3408C35.5667 73.3408 35.7563 73.3998 35.8773 73.5177C36.0006 73.6357 36.0634 73.8179 36.0657 74.0644V76.327H36.7113V74.0676C36.7043 73.2523 36.3018 72.8447 35.5039 72.8447C35.0387 72.8447 34.6618 73.009 34.3733 73.3376ZM39.2516 76.3902C38.7398 76.3902 38.3234 76.2385 38.0024 75.9351C37.6813 75.6297 37.5208 75.222 37.5208 74.7122V74.6048C37.5208 74.2656 37.5918 73.9633 37.7337 73.6979C37.8779 73.4303 38.078 73.2217 38.3339 73.0722C38.5921 72.9205 38.8713 72.8447 39.1713 72.8447C39.6622 72.8447 40.0437 72.9911 40.3159 73.2839C40.5881 73.5767 40.7242 73.9959 40.7242 74.5416V74.7849H38.1664C38.1757 75.122 38.2839 75.3948 38.4909 75.6033C38.7003 75.8098 38.9655 75.913 39.2865 75.913C39.5145 75.913 39.7076 75.8709 39.8657 75.7866C40.0239 75.7023 40.1623 75.5907 40.281 75.4516L40.6753 75.7297C40.3589 76.17 39.8844 76.3902 39.2516 76.3902ZM39.1713 73.325C38.9108 73.325 38.6921 73.4113 38.5153 73.5841C38.3385 73.7547 38.2292 73.9949 38.1873 74.3046H40.0786V74.2603C40.06 73.9633 39.9716 73.7337 39.8134 73.5714C39.6552 73.4071 39.4412 73.325 39.1713 73.325ZM41.5302 76.327H42.1758V72.9079H41.5302V76.327ZM41.5721 71.7608C41.5093 71.8261 41.4779 71.9061 41.4779 72.0009C41.4779 72.0957 41.5093 72.1747 41.5721 72.2379C41.6372 72.3011 41.7326 72.3327 41.8582 72.3327C41.9838 72.3327 42.0792 72.3011 42.1444 72.2379C42.2095 72.1747 42.2421 72.0957 42.2421 72.0009C42.2421 71.9061 42.2095 71.8261 42.1444 71.7608C42.0792 71.6955 41.9838 71.6628 41.8582 71.6628C41.7326 71.6628 41.6372 71.6955 41.5721 71.7608ZM45.0371 73.4324C44.9394 73.4177 44.8336 73.4103 44.7196 73.4103C44.2962 73.4103 44.0089 73.5736 43.8577 73.9001V76.327H43.2121V72.9079H43.8402L43.8507 73.3028C44.0624 72.9974 44.3625 72.8447 44.751 72.8447C44.8766 72.8447 44.972 72.8594 45.0371 72.8889V73.4324ZM45.6094 73.6821C45.4652 73.9496 45.3931 74.2508 45.3931 74.5858V74.6269C45.3931 75.1578 45.5512 75.5844 45.8676 75.9067C46.1863 76.229 46.6016 76.3902 47.1134 76.3902C47.453 76.3902 47.7531 76.3164 48.0136 76.169C48.2765 76.0215 48.4777 75.8161 48.6173 75.5528C48.7592 75.2873 48.8302 74.9882 48.8302 74.6553V74.6143C48.8302 74.0792 48.6708 73.6505 48.3521 73.3281C48.0357 73.0058 47.6205 72.8447 47.1064 72.8447C46.7737 72.8447 46.4771 72.9173 46.2166 73.0627C45.9583 73.2081 45.756 73.4145 45.6094 73.6821ZM46.3317 75.5686C46.1386 75.3389 46.0421 75.0345 46.0421 74.6553C46.0421 74.2277 46.1398 73.899 46.3352 73.6694C46.5306 73.4398 46.7877 73.325 47.1064 73.325C47.4321 73.325 47.6926 73.4419 47.888 73.6757C48.0858 73.9075 48.1846 74.2108 48.1846 74.5858C48.1846 75.005 48.0881 75.3316 47.895 75.5654C47.7019 75.7971 47.4414 75.913 47.1134 75.913C46.7877 75.913 46.5271 75.7982 46.3317 75.5686Z" fill="#7D7D7D"/>
</svg>
