<svg width="92" height="35" viewBox="0 0 92 35" fill="none" xmlns="http://www.w3.org/2000/svg">
<g clip-path="url(#clip0_511_275)">
<path d="M13.1152 1.03014H16.2753V15.2264H13.1152V1.03014ZM29.5913 26.9522C29.5913 31.0697 26.4313 34.1667 22.3579 34.1667C18.2846 34.1667 15.161 31.0697 15.161 26.9522C15.161 22.8348 18.2846 19.7019 22.3579 19.7019C26.4313 19.7198 29.5913 22.8348 29.5913 26.9522ZM18.3028 26.9522C18.3028 29.3153 20.0746 31.1234 22.3762 31.1234C24.6777 31.1234 26.4678 29.2974 26.4678 26.9522C26.4678 24.5713 24.6777 22.7453 22.3762 22.7453C20.0564 22.7453 18.3028 24.5713 18.3028 26.9522ZM34.6328 22.6736V29.548C34.6328 30.7116 35.473 30.9444 36.0758 30.9444L38.2677 30.9265V33.9161H35.0164C33.135 33.9161 31.4362 32.1796 31.4362 30.1746V16.6228H34.6145V19.7198H38.2495V22.6736H34.6328ZM60.041 19.7198H63.2011V33.9161H60.041V19.7198ZM43.8207 22.6557H40.6606V33.8982H43.8207V22.6557Z" fill="#7D7D7D"/>
<path d="M43.8206 19.7198H40.6605V22.6557C40.6605 22.6557 43.3091 22.423 43.8206 19.7198ZM52.7162 22.6916C52.7345 22.6916 52.7345 22.6916 52.7162 22.6916H57.8125V19.7019H52.7162C48.6428 19.7019 45.5193 22.7632 45.5193 26.809C45.5193 30.8549 48.6428 33.8982 52.7162 33.8982H57.8125V30.9265H52.7162C50.4147 30.9265 48.6428 29.1363 48.6428 26.8269C48.6611 24.4818 50.4147 22.6916 52.7162 22.6916ZM77.4486 19.7198H72.3523C68.279 19.7198 65.1555 22.7811 65.1555 26.8269C65.1555 30.8728 68.279 33.9161 72.3523 33.9161H78.5994V19.7198H77.4486ZM72.3706 30.9265C72.3523 30.9265 72.3523 30.9265 72.3706 30.9265C70.0508 30.9265 68.2972 29.1363 68.2972 26.8269C68.2972 24.4818 70.0691 22.7095 72.3706 22.7095H75.4576V30.9265H72.3706ZM3.33854 26.7854V33.9104H0.288086V26.7854H3.33854Z" fill="#7D7D7D"/>
<path d="M13.316 25.5738V33.9161H10.1377V26.254C10.1377 23.4613 9.11477 22.7094 6.7767 22.7094H3.34266V33.9161H0.182617V19.7198H3.34266C3.34266 19.7198 5.699 19.7019 7.54388 19.7019C11.1058 19.684 13.316 21.7785 13.316 25.5738ZM25.189 4.01977H30.2853V1.03014H25.189C21.1156 1.03014 17.9921 4.09138 17.9921 8.13723C17.9921 12.1831 21.1156 15.2264 25.189 15.2264H30.2853V12.2368H25.189C22.8875 12.2368 21.1156 10.4466 21.1156 8.13723C21.1156 5.79207 22.8875 4.01977 25.189 4.01977ZM10.7405 8.13723C10.7405 12.1831 7.61695 15.2264 3.54359 15.2264H0.438344V12.2368H3.54359C5.84513 12.2368 7.61695 10.4466 7.61695 8.13723V8.11932L10.7405 8.13723ZM7.63521 4.01977H10.7405V1.03014H7.61695C3.56186 1.03014 0.438344 4.09138 0.438344 8.11932H3.56186C3.56186 5.79207 5.33368 4.01977 7.63521 4.01977ZM91.1481 26.8269C91.1481 30.8728 88.0246 33.9161 83.9513 33.9161H80.846V30.9265H83.9513C86.2528 30.9265 88.0246 29.1363 88.0246 26.8269V26.809L91.1481 26.8269C91.1481 26.809 91.1481 26.809 91.1481 26.8269ZM88.0429 22.6915H91.1481V19.7019H88.0429C83.9878 19.7019 80.846 22.7632 80.846 26.7911H83.9695C83.9878 24.4638 85.7414 22.6915 88.0429 22.6915Z" fill="#7D7D7D"/>
</g>
<defs>
<clipPath id="clip0_511_275">
<rect width="91.3308" height="33.2977" fill="white" transform="translate(0 0.85112)"/>
</clipPath>
</defs>
</svg>
