<svg width="649" height="265" viewBox="0 0 649 265" fill="none" xmlns="http://www.w3.org/2000/svg">
<path d="M17.3562 246.953H14.0359C13.9412 246.408 13.7666 245.926 13.5121 245.506C13.2576 245.08 12.9409 244.719 12.5621 244.423C12.1834 244.127 11.7513 243.905 11.266 243.757C10.7866 243.603 10.2687 243.526 9.71236 243.526C8.72396 243.526 7.84801 243.775 7.08452 244.272C6.32102 244.763 5.72325 245.485 5.29119 246.438C4.85914 247.385 4.64311 248.542 4.64311 249.909C4.64311 251.3 4.85914 252.472 5.29119 253.425C5.72917 254.372 6.32694 255.088 7.08452 255.573C7.84801 256.053 8.721 256.292 9.70348 256.292C10.248 256.292 10.757 256.221 11.2305 256.079C11.7099 255.931 12.139 255.715 12.5178 255.431C12.9025 255.147 13.225 254.798 13.4854 254.384C13.7518 253.969 13.9353 253.496 14.0359 252.963L17.3562 252.981C17.2319 253.845 16.9626 254.656 16.5483 255.413C16.1399 256.171 15.6043 256.84 14.9414 257.42C14.2785 257.994 13.5032 258.444 12.6154 258.769C11.7276 259.089 10.7422 259.249 9.65909 259.249C8.06108 259.249 6.63471 258.879 5.37997 258.139C4.12524 257.399 3.13684 256.331 2.41477 254.934C1.69271 253.537 1.33168 251.862 1.33168 249.909C1.33168 247.95 1.69567 246.275 2.42365 244.884C3.15163 243.487 4.14299 242.419 5.39773 241.679C6.65246 240.94 8.07292 240.57 9.65909 240.57C10.6712 240.57 11.6122 240.712 12.4822 240.996C13.3523 241.28 14.1276 241.697 14.8082 242.248C15.4889 242.792 16.0482 243.461 16.4862 244.254C16.93 245.041 17.2201 245.941 17.3562 246.953ZM23.4442 251.01V259H20.2304V240.818H23.3731V247.681H23.5329C23.8525 246.911 24.3467 246.305 25.0155 245.861C25.6903 245.411 26.5484 245.186 27.5901 245.186C28.5371 245.186 29.3627 245.384 30.067 245.781C30.7713 246.177 31.3158 246.757 31.7006 247.521C32.0912 248.284 32.2865 249.217 32.2865 250.317V259H29.0727V250.815C29.0727 249.897 28.836 249.184 28.3625 248.675C27.8949 248.16 27.238 247.903 26.3916 247.903C25.8234 247.903 25.3144 248.027 24.8646 248.276C24.4207 248.518 24.0715 248.87 23.817 249.332C23.5684 249.794 23.4442 250.353 23.4442 251.01ZM41.5106 259.266C40.1789 259.266 39.0248 258.973 38.0482 258.387C37.0716 257.801 36.3141 256.982 35.7755 255.928C35.2428 254.875 34.9765 253.644 34.9765 252.235C34.9765 250.826 35.2428 249.592 35.7755 248.533C36.3141 247.474 37.0716 246.651 38.0482 246.065C39.0248 245.479 40.1789 245.186 41.5106 245.186C42.8422 245.186 43.9964 245.479 44.9729 246.065C45.9495 246.651 46.7041 247.474 47.2368 248.533C47.7754 249.592 48.0447 250.826 48.0447 252.235C48.0447 253.644 47.7754 254.875 47.2368 255.928C46.7041 256.982 45.9495 257.801 44.9729 258.387C43.9964 258.973 42.8422 259.266 41.5106 259.266ZM41.5283 256.692C42.2504 256.692 42.8541 256.493 43.3394 256.097C43.8247 255.694 44.1858 255.156 44.4225 254.481C44.6652 253.806 44.7865 253.055 44.7865 252.226C44.7865 251.392 44.6652 250.637 44.4225 249.962C44.1858 249.282 43.8247 248.74 43.3394 248.338C42.8541 247.935 42.2504 247.734 41.5283 247.734C40.7885 247.734 40.173 247.935 39.6817 248.338C39.1964 248.74 38.8324 249.282 38.5898 249.962C38.353 250.637 38.2346 251.392 38.2346 252.226C38.2346 253.055 38.353 253.806 38.5898 254.481C38.8324 255.156 39.1964 255.694 39.6817 256.097C40.173 256.493 40.7885 256.692 41.5283 256.692ZM56.7205 259.266C55.3888 259.266 54.2347 258.973 53.2582 258.387C52.2816 257.801 51.524 256.982 50.9854 255.928C50.4528 254.875 50.1864 253.644 50.1864 252.235C50.1864 250.826 50.4528 249.592 50.9854 248.533C51.524 247.474 52.2816 246.651 53.2582 246.065C54.2347 245.479 55.3888 245.186 56.7205 245.186C58.0522 245.186 59.2063 245.479 60.1829 246.065C61.1594 246.651 61.9141 247.474 62.4467 248.533C62.9853 249.592 63.2546 250.826 63.2546 252.235C63.2546 253.644 62.9853 254.875 62.4467 255.928C61.9141 256.982 61.1594 257.801 60.1829 258.387C59.2063 258.973 58.0522 259.266 56.7205 259.266ZM56.7383 256.692C57.4603 256.692 58.064 256.493 58.5494 256.097C59.0347 255.694 59.3957 255.156 59.6325 254.481C59.8751 253.806 59.9964 253.055 59.9964 252.226C59.9964 251.392 59.8751 250.637 59.6325 249.962C59.3957 249.282 59.0347 248.74 58.5494 248.338C58.064 247.935 57.4603 247.734 56.7383 247.734C55.9985 247.734 55.3829 247.935 54.8917 248.338C54.4064 248.74 54.0424 249.282 53.7997 249.962C53.563 250.637 53.4446 251.392 53.4446 252.226C53.4446 253.055 53.563 253.806 53.7997 254.481C54.0424 255.156 54.4064 255.694 54.8917 256.097C55.3829 256.493 55.9985 256.692 56.7383 256.692ZM76.76 248.968L73.8303 249.288C73.7475 248.992 73.6025 248.714 73.3953 248.453C73.1941 248.193 72.9218 247.983 72.5786 247.823C72.2353 247.663 71.8151 247.583 71.3179 247.583C70.6491 247.583 70.0869 247.728 69.6311 248.018C69.1813 248.308 68.9594 248.684 68.9653 249.146C68.9594 249.542 69.1044 249.865 69.4003 250.113C69.7021 250.362 70.1993 250.566 70.8918 250.726L73.2178 251.223C74.508 251.501 75.4668 251.942 76.0942 252.546C76.7275 253.15 77.0471 253.94 77.053 254.916C77.0471 255.774 76.7955 256.532 76.2984 257.189C75.8071 257.84 75.1235 258.349 74.2476 258.716C73.3717 259.083 72.3655 259.266 71.2291 259.266C69.5601 259.266 68.2166 258.917 67.1986 258.219C66.1806 257.514 65.574 256.535 65.3786 255.28L68.5125 254.978C68.6546 255.594 68.9564 256.058 69.4181 256.372C69.8797 256.686 70.4804 256.843 71.2203 256.843C71.9838 256.843 72.5963 256.686 73.058 256.372C73.5255 256.058 73.7593 255.671 73.7593 255.209C73.7593 254.819 73.6084 254.496 73.3066 254.241C73.0106 253.987 72.549 253.792 71.9216 253.656L69.5956 253.167C68.2876 252.895 67.3199 252.436 66.6926 251.791C66.0652 251.14 65.7545 250.317 65.7604 249.323C65.7545 248.483 65.9823 247.755 66.444 247.139C66.9115 246.518 67.5596 246.038 68.3882 245.701C69.2227 245.358 70.1845 245.186 71.2735 245.186C72.8715 245.186 74.1292 245.526 75.0466 246.207C75.9699 246.888 76.541 247.808 76.76 248.968ZM85.74 259.266C84.3728 259.266 83.192 258.982 82.1977 258.414C81.2093 257.84 80.4488 257.029 79.9161 255.982C79.3834 254.928 79.1171 253.688 79.1171 252.262C79.1171 250.859 79.3834 249.628 79.9161 248.569C80.4547 247.503 81.2064 246.675 82.1711 246.083C83.1358 245.485 84.2692 245.186 85.5713 245.186C86.4117 245.186 87.2048 245.322 87.9506 245.594C88.7022 245.861 89.3651 246.275 89.9392 246.837C90.5192 247.4 90.9749 248.116 91.3064 248.986C91.6378 249.85 91.8035 250.88 91.8035 252.075V253.061H80.6263V250.895H88.7229C88.717 250.279 88.5838 249.732 88.3234 249.252C88.063 248.767 87.699 248.385 87.2314 248.107C86.7698 247.829 86.2312 247.69 85.6157 247.69C84.9587 247.69 84.3817 247.849 83.8845 248.169C83.3873 248.483 82.9997 248.897 82.7215 249.412C82.4492 249.921 82.3102 250.48 82.3042 251.09V252.981C82.3042 253.774 82.4492 254.455 82.7393 255.023C83.0293 255.585 83.4347 256.017 83.9555 256.319C84.4764 256.615 85.086 256.763 85.7844 256.763C86.2519 256.763 86.6751 256.698 87.0539 256.567C87.4327 256.431 87.7612 256.233 88.0393 255.973C88.3175 255.712 88.5276 255.39 88.6697 255.005L91.6704 255.342C91.481 256.135 91.1199 256.828 90.5873 257.42C90.0605 258.006 89.3858 258.461 88.5631 258.787C87.7404 259.107 86.7994 259.266 85.74 259.266ZM107.533 245.364V247.849H99.6937V245.364H107.533ZM101.629 242.097H104.843V254.898C104.843 255.33 104.908 255.662 105.038 255.893C105.174 256.118 105.352 256.272 105.571 256.354C105.79 256.437 106.032 256.479 106.299 256.479C106.5 256.479 106.684 256.464 106.849 256.434C107.021 256.405 107.151 256.378 107.24 256.354L107.781 258.867C107.61 258.926 107.364 258.991 107.045 259.062C106.731 259.133 106.346 259.175 105.89 259.186C105.086 259.21 104.36 259.089 103.715 258.822C103.07 258.55 102.558 258.13 102.18 257.562C101.807 256.994 101.623 256.283 101.629 255.431V242.097ZM113.727 251.01V259H110.514V240.818H113.656V247.681H113.816C114.136 246.911 114.63 246.305 115.299 245.861C115.973 245.411 116.832 245.186 117.873 245.186C118.82 245.186 119.646 245.384 120.35 245.781C121.055 246.177 121.599 246.757 121.984 247.521C122.374 248.284 122.57 249.217 122.57 250.317V259H119.356V250.815C119.356 249.897 119.119 249.184 118.646 248.675C118.178 248.16 117.521 247.903 116.675 247.903C116.107 247.903 115.598 248.027 115.148 248.276C114.704 248.518 114.355 248.87 114.1 249.332C113.852 249.794 113.727 250.353 113.727 251.01ZM131.883 259.266C130.515 259.266 129.335 258.982 128.34 258.414C127.352 257.84 126.591 257.029 126.059 255.982C125.526 254.928 125.26 253.688 125.26 252.262C125.26 250.859 125.526 249.628 126.059 248.569C126.597 247.503 127.349 246.675 128.314 246.083C129.278 245.485 130.412 245.186 131.714 245.186C132.554 245.186 133.347 245.322 134.093 245.594C134.845 245.861 135.508 246.275 136.082 246.837C136.662 247.4 137.118 248.116 137.449 248.986C137.78 249.85 137.946 250.88 137.946 252.075V253.061H126.769V250.895H134.866C134.86 250.279 134.726 249.732 134.466 249.252C134.206 248.767 133.842 248.385 133.374 248.107C132.912 247.829 132.374 247.69 131.758 247.69C131.101 247.69 130.524 247.849 130.027 248.169C129.53 248.483 129.142 248.897 128.864 249.412C128.592 249.921 128.453 250.48 128.447 251.09V252.981C128.447 253.774 128.592 254.455 128.882 255.023C129.172 255.585 129.577 256.017 130.098 256.319C130.619 256.615 131.229 256.763 131.927 256.763C132.395 256.763 132.818 256.698 133.196 256.567C133.575 256.431 133.904 256.233 134.182 255.973C134.46 255.712 134.67 255.39 134.812 255.005L137.813 255.342C137.624 256.135 137.263 256.828 136.73 257.42C136.203 258.006 135.528 258.461 134.706 258.787C133.883 259.107 132.942 259.266 131.883 259.266ZM147.008 259V240.818H150.222V247.619H150.355C150.521 247.287 150.755 246.935 151.056 246.562C151.358 246.183 151.767 245.861 152.282 245.594C152.797 245.322 153.453 245.186 154.252 245.186C155.306 245.186 156.256 245.455 157.102 245.994C157.955 246.527 158.629 247.317 159.126 248.364C159.629 249.406 159.881 250.684 159.881 252.2C159.881 253.697 159.635 254.969 159.144 256.017C158.653 257.065 157.984 257.864 157.138 258.414C156.291 258.964 155.333 259.24 154.261 259.24C153.48 259.24 152.832 259.109 152.317 258.849C151.802 258.589 151.388 258.275 151.074 257.908C150.766 257.535 150.527 257.183 150.355 256.852H150.169V259H147.008ZM150.16 252.182C150.16 253.064 150.284 253.836 150.533 254.499C150.787 255.162 151.151 255.68 151.625 256.053C152.104 256.42 152.684 256.603 153.365 256.603C154.075 256.603 154.67 256.414 155.149 256.035C155.629 255.65 155.99 255.126 156.232 254.463C156.481 253.795 156.605 253.034 156.605 252.182C156.605 251.335 156.484 250.584 156.241 249.927C155.998 249.27 155.637 248.755 155.158 248.382C154.679 248.009 154.081 247.823 153.365 247.823C152.678 247.823 152.095 248.003 151.616 248.364C151.136 248.725 150.772 249.231 150.524 249.882C150.281 250.533 150.16 251.3 150.16 252.182ZM168.65 259.266C167.283 259.266 166.102 258.982 165.108 258.414C164.119 257.84 163.359 257.029 162.826 255.982C162.294 254.928 162.027 253.688 162.027 252.262C162.027 250.859 162.294 249.628 162.826 248.569C163.365 247.503 164.117 246.675 165.081 246.083C166.046 245.485 167.179 245.186 168.481 245.186C169.322 245.186 170.115 245.322 170.861 245.594C171.612 245.861 172.275 246.275 172.849 246.837C173.429 247.4 173.885 248.116 174.217 248.986C174.548 249.85 174.714 250.88 174.714 252.075V253.061H163.536V250.895H171.633C171.627 250.279 171.494 249.732 171.234 249.252C170.973 248.767 170.609 248.385 170.142 248.107C169.68 247.829 169.141 247.69 168.526 247.69C167.869 247.69 167.292 247.849 166.795 248.169C166.297 248.483 165.91 248.897 165.632 249.412C165.359 249.921 165.22 250.48 165.214 251.09V252.981C165.214 253.774 165.359 254.455 165.649 255.023C165.939 255.585 166.345 256.017 166.866 256.319C167.387 256.615 167.996 256.763 168.695 256.763C169.162 256.763 169.585 256.698 169.964 256.567C170.343 256.431 170.671 256.233 170.949 255.973C171.228 255.712 171.438 255.39 171.58 255.005L174.581 255.342C174.391 256.135 174.03 256.828 173.497 257.42C172.971 258.006 172.296 258.461 171.473 258.787C170.651 259.107 169.71 259.266 168.65 259.266ZM188.21 248.968L185.281 249.288C185.198 248.992 185.053 248.714 184.846 248.453C184.644 248.193 184.372 247.983 184.029 247.823C183.685 247.663 183.265 247.583 182.768 247.583C182.099 247.583 181.537 247.728 181.081 248.018C180.632 248.308 180.41 248.684 180.415 249.146C180.41 249.542 180.555 249.865 180.85 250.113C181.152 250.362 181.65 250.566 182.342 250.726L184.668 251.223C185.958 251.501 186.917 251.942 187.544 252.546C188.178 253.15 188.497 253.94 188.503 254.916C188.497 255.774 188.246 256.532 187.749 257.189C187.257 257.84 186.574 258.349 185.698 258.716C184.822 259.083 183.816 259.266 182.679 259.266C181.01 259.266 179.667 258.917 178.649 258.219C177.631 257.514 177.024 256.535 176.829 255.28L179.963 254.978C180.105 255.594 180.407 256.058 180.868 256.372C181.33 256.686 181.931 256.843 182.67 256.843C183.434 256.843 184.047 256.686 184.508 256.372C184.976 256.058 185.21 255.671 185.21 255.209C185.21 254.819 185.059 254.496 184.757 254.241C184.461 253.987 183.999 253.792 183.372 253.656L181.046 253.167C179.738 252.895 178.77 252.436 178.143 251.791C177.515 251.14 177.205 250.317 177.211 249.323C177.205 248.483 177.433 247.755 177.894 247.139C178.362 246.518 179.01 246.038 179.838 245.701C180.673 245.358 181.635 245.186 182.724 245.186C184.322 245.186 185.579 245.526 186.497 246.207C187.42 246.888 187.991 247.808 188.21 248.968ZM197.963 245.364V247.849H190.123V245.364H197.963ZM192.059 242.097H195.273V254.898C195.273 255.33 195.338 255.662 195.468 255.893C195.604 256.118 195.782 256.272 196.001 256.354C196.22 256.437 196.462 256.479 196.729 256.479C196.93 256.479 197.113 256.464 197.279 256.434C197.451 256.405 197.581 256.378 197.67 256.354L198.211 258.867C198.039 258.926 197.794 258.991 197.474 259.062C197.161 259.133 196.776 259.175 196.32 259.186C195.515 259.21 194.79 259.089 194.145 258.822C193.5 258.55 192.988 258.13 192.609 257.562C192.236 256.994 192.053 256.283 192.059 255.431V242.097ZM210.065 240.818V259H206.851V240.818H210.065ZM217.294 259.275C216.43 259.275 215.652 259.121 214.959 258.814C214.273 258.5 213.728 258.038 213.326 257.429C212.929 256.819 212.731 256.067 212.731 255.174C212.731 254.404 212.873 253.768 213.157 253.265C213.441 252.762 213.829 252.359 214.32 252.058C214.811 251.756 215.365 251.528 215.98 251.374C216.602 251.214 217.244 251.099 217.907 251.028C218.706 250.945 219.354 250.871 219.851 250.806C220.348 250.735 220.709 250.628 220.934 250.486C221.165 250.338 221.28 250.11 221.28 249.803V249.749C221.28 249.08 221.082 248.563 220.685 248.196C220.289 247.829 219.718 247.645 218.972 247.645C218.185 247.645 217.56 247.817 217.099 248.16C216.643 248.503 216.335 248.909 216.175 249.376L213.175 248.95C213.411 248.122 213.802 247.429 214.347 246.873C214.891 246.311 215.557 245.89 216.344 245.612C217.131 245.328 218.001 245.186 218.954 245.186C219.611 245.186 220.265 245.263 220.916 245.417C221.567 245.571 222.162 245.825 222.701 246.18C223.239 246.53 223.671 247.006 223.997 247.61C224.328 248.213 224.494 248.968 224.494 249.874V259H221.404V257.127H221.298C221.103 257.506 220.827 257.861 220.472 258.192C220.123 258.518 219.682 258.781 219.15 258.982C218.623 259.178 218.004 259.275 217.294 259.275ZM218.129 256.914C218.774 256.914 219.333 256.786 219.806 256.532C220.28 256.272 220.644 255.928 220.898 255.502C221.159 255.076 221.289 254.611 221.289 254.108V252.501C221.188 252.584 221.017 252.661 220.774 252.732C220.537 252.803 220.271 252.865 219.975 252.919C219.679 252.972 219.386 253.019 219.096 253.061C218.806 253.102 218.555 253.138 218.342 253.167C217.862 253.232 217.433 253.339 217.054 253.487C216.676 253.635 216.377 253.842 216.158 254.108C215.939 254.369 215.829 254.706 215.829 255.12C215.829 255.712 216.045 256.159 216.477 256.461C216.909 256.763 217.46 256.914 218.129 256.914ZM230.939 251.01V259H227.725V245.364H230.797V247.681H230.957C231.271 246.917 231.771 246.311 232.457 245.861C233.15 245.411 234.005 245.186 235.023 245.186C235.964 245.186 236.784 245.387 237.482 245.79C238.187 246.192 238.731 246.775 239.116 247.539C239.506 248.302 239.699 249.228 239.693 250.317V259H236.479V250.815C236.479 249.903 236.242 249.19 235.769 248.675C235.301 248.16 234.653 247.903 233.825 247.903C233.262 247.903 232.762 248.027 232.324 248.276C231.892 248.518 231.552 248.87 231.303 249.332C231.061 249.794 230.939 250.353 230.939 251.01ZM248.89 264.398C247.736 264.398 246.745 264.241 245.916 263.927C245.088 263.619 244.422 263.205 243.919 262.684C243.416 262.163 243.066 261.586 242.871 260.953L245.765 260.252C245.895 260.518 246.085 260.781 246.333 261.042C246.582 261.308 246.916 261.527 247.337 261.699C247.763 261.876 248.298 261.965 248.944 261.965C249.855 261.965 250.61 261.743 251.207 261.299C251.805 260.861 252.104 260.139 252.104 259.133V256.55H251.944C251.779 256.881 251.536 257.221 251.216 257.571C250.903 257.92 250.485 258.213 249.964 258.45C249.45 258.686 248.801 258.805 248.02 258.805C246.973 258.805 246.023 258.559 245.17 258.068C244.324 257.571 243.649 256.831 243.146 255.848C242.649 254.86 242.401 253.623 242.401 252.137C242.401 250.64 242.649 249.376 243.146 248.347C243.649 247.311 244.327 246.527 245.179 245.994C246.032 245.455 246.982 245.186 248.029 245.186C248.828 245.186 249.485 245.322 250 245.594C250.521 245.861 250.935 246.183 251.243 246.562C251.551 246.935 251.784 247.287 251.944 247.619H252.122V245.364H255.291V259.222C255.291 260.388 255.013 261.353 254.457 262.116C253.9 262.88 253.14 263.451 252.175 263.83C251.21 264.208 250.115 264.398 248.89 264.398ZM248.917 256.283C249.598 256.283 250.178 256.118 250.657 255.786C251.136 255.455 251.5 254.978 251.749 254.357C251.998 253.735 252.122 252.99 252.122 252.12C252.122 251.261 251.998 250.51 251.749 249.865C251.506 249.22 251.145 248.719 250.666 248.364C250.192 248.003 249.609 247.823 248.917 247.823C248.201 247.823 247.603 248.009 247.124 248.382C246.644 248.755 246.283 249.267 246.04 249.918C245.798 250.563 245.676 251.297 245.676 252.12C245.676 252.954 245.798 253.685 246.04 254.312C246.289 254.934 246.653 255.419 247.132 255.768C247.618 256.112 248.213 256.283 248.917 256.283ZM267.276 253.265V245.364H270.49V259H267.374V256.576H267.232C266.924 257.34 266.418 257.964 265.714 258.45C265.015 258.935 264.154 259.178 263.13 259.178C262.237 259.178 261.446 258.979 260.76 258.583C260.079 258.18 259.547 257.597 259.162 256.834C258.777 256.064 258.585 255.135 258.585 254.046V245.364H261.799V253.549C261.799 254.413 262.035 255.1 262.509 255.609C262.982 256.118 263.604 256.372 264.373 256.372C264.847 256.372 265.305 256.257 265.749 256.026C266.193 255.795 266.557 255.452 266.841 254.996C267.131 254.534 267.276 253.957 267.276 253.265ZM277.719 259.275C276.855 259.275 276.076 259.121 275.384 258.814C274.697 258.5 274.153 258.038 273.75 257.429C273.354 256.819 273.156 256.067 273.156 255.174C273.156 254.404 273.298 253.768 273.582 253.265C273.866 252.762 274.254 252.359 274.745 252.058C275.236 251.756 275.789 251.528 276.405 251.374C277.026 251.214 277.669 251.099 278.331 251.028C279.13 250.945 279.778 250.871 280.276 250.806C280.773 250.735 281.134 250.628 281.359 250.486C281.59 250.338 281.705 250.11 281.705 249.803V249.749C281.705 249.08 281.507 248.563 281.11 248.196C280.714 247.829 280.142 247.645 279.397 247.645C278.61 247.645 277.985 247.817 277.524 248.16C277.068 248.503 276.76 248.909 276.6 249.376L273.6 248.95C273.836 248.122 274.227 247.429 274.771 246.873C275.316 246.311 275.982 245.89 276.769 245.612C277.556 245.328 278.426 245.186 279.379 245.186C280.036 245.186 280.69 245.263 281.341 245.417C281.992 245.571 282.587 245.825 283.125 246.18C283.664 246.53 284.096 247.006 284.422 247.61C284.753 248.213 284.919 248.968 284.919 249.874V259H281.829V257.127H281.723C281.527 257.506 281.252 257.861 280.897 258.192C280.548 258.518 280.107 258.781 279.574 258.982C279.048 259.178 278.429 259.275 277.719 259.275ZM278.553 256.914C279.198 256.914 279.758 256.786 280.231 256.532C280.705 256.272 281.069 255.928 281.323 255.502C281.584 255.076 281.714 254.611 281.714 254.108V252.501C281.613 252.584 281.442 252.661 281.199 252.732C280.962 252.803 280.696 252.865 280.4 252.919C280.104 252.972 279.811 253.019 279.521 253.061C279.231 253.102 278.979 253.138 278.766 253.167C278.287 253.232 277.858 253.339 277.479 253.487C277.1 253.635 276.801 253.842 276.582 254.108C276.363 254.369 276.254 254.706 276.254 255.12C276.254 255.712 276.47 256.159 276.902 256.461C277.334 256.763 277.885 256.914 278.553 256.914ZM294.081 264.398C292.927 264.398 291.935 264.241 291.107 263.927C290.278 263.619 289.612 263.205 289.109 262.684C288.606 262.163 288.257 261.586 288.062 260.953L290.956 260.252C291.086 260.518 291.275 260.781 291.524 261.042C291.772 261.308 292.107 261.527 292.527 261.699C292.953 261.876 293.489 261.965 294.134 261.965C295.045 261.965 295.8 261.743 296.398 261.299C296.996 260.861 297.294 260.139 297.294 259.133V256.55H297.135C296.969 256.881 296.726 257.221 296.407 257.571C296.093 257.92 295.676 258.213 295.155 258.45C294.64 258.686 293.992 258.805 293.211 258.805C292.163 258.805 291.213 258.559 290.361 258.068C289.515 257.571 288.84 256.831 288.337 255.848C287.84 254.86 287.591 253.623 287.591 252.137C287.591 250.64 287.84 249.376 288.337 248.347C288.84 247.311 289.517 246.527 290.37 245.994C291.222 245.455 292.172 245.186 293.22 245.186C294.019 245.186 294.676 245.322 295.19 245.594C295.711 245.861 296.126 246.183 296.433 246.562C296.741 246.935 296.975 247.287 297.135 247.619H297.312V245.364H300.482V259.222C300.482 260.388 300.203 261.353 299.647 262.116C299.091 262.88 298.33 263.451 297.366 263.83C296.401 264.208 295.306 264.398 294.081 264.398ZM294.107 256.283C294.788 256.283 295.368 256.118 295.847 255.786C296.327 255.455 296.691 254.978 296.939 254.357C297.188 253.735 297.312 252.99 297.312 252.12C297.312 251.261 297.188 250.51 296.939 249.865C296.697 249.22 296.336 248.719 295.856 248.364C295.383 248.003 294.8 247.823 294.107 247.823C293.391 247.823 292.793 248.009 292.314 248.382C291.835 248.755 291.474 249.267 291.231 249.918C290.988 250.563 290.867 251.297 290.867 252.12C290.867 252.954 290.988 253.685 291.231 254.312C291.479 254.934 291.843 255.419 292.323 255.768C292.808 256.112 293.403 256.283 294.107 256.283ZM309.812 259.266C308.445 259.266 307.264 258.982 306.27 258.414C305.282 257.84 304.521 257.029 303.988 255.982C303.456 254.928 303.189 253.688 303.189 252.262C303.189 250.859 303.456 249.628 303.988 248.569C304.527 247.503 305.279 246.675 306.243 246.083C307.208 245.485 308.341 245.186 309.644 245.186C310.484 245.186 311.277 245.322 312.023 245.594C312.774 245.861 313.437 246.275 314.011 246.837C314.591 247.4 315.047 248.116 315.379 248.986C315.71 249.85 315.876 250.88 315.876 252.075V253.061H304.699V250.895H312.795C312.789 250.279 312.656 249.732 312.396 249.252C312.135 248.767 311.771 248.385 311.304 248.107C310.842 247.829 310.303 247.69 309.688 247.69C309.031 247.69 308.454 247.849 307.957 248.169C307.46 248.483 307.072 248.897 306.794 249.412C306.522 249.921 306.382 250.48 306.377 251.09V252.981C306.377 253.774 306.522 254.455 306.812 255.023C307.102 255.585 307.507 256.017 308.028 256.319C308.549 256.615 309.158 256.763 309.857 256.763C310.324 256.763 310.747 256.698 311.126 256.567C311.505 256.431 311.833 256.233 312.112 255.973C312.39 255.712 312.6 255.39 312.742 255.005L315.743 255.342C315.553 256.135 315.192 256.828 314.66 257.42C314.133 258.006 313.458 258.461 312.635 258.787C311.813 259.107 310.872 259.266 309.812 259.266ZM331.703 245.364V247.849H323.642V245.364H331.703ZM325.657 259V244.076C325.657 243.159 325.846 242.395 326.225 241.786C326.61 241.176 327.125 240.721 327.77 240.419C328.415 240.117 329.131 239.966 329.918 239.966C330.475 239.966 330.969 240.01 331.401 240.099C331.833 240.188 332.153 240.268 332.36 240.339L331.721 242.825C331.584 242.783 331.413 242.742 331.206 242.7C330.998 242.653 330.768 242.629 330.513 242.629C329.915 242.629 329.492 242.774 329.244 243.064C329.001 243.348 328.88 243.757 328.88 244.289V259H325.657ZM339.655 259.266C338.323 259.266 337.169 258.973 336.193 258.387C335.216 257.801 334.459 256.982 333.92 255.928C333.387 254.875 333.121 253.644 333.121 252.235C333.121 250.826 333.387 249.592 333.92 248.533C334.459 247.474 335.216 246.651 336.193 246.065C337.169 245.479 338.323 245.186 339.655 245.186C340.987 245.186 342.141 245.479 343.117 246.065C344.094 246.651 344.849 247.474 345.381 248.533C345.92 249.592 346.189 250.826 346.189 252.235C346.189 253.644 345.92 254.875 345.381 255.928C344.849 256.982 344.094 257.801 343.117 258.387C342.141 258.973 340.987 259.266 339.655 259.266ZM339.673 256.692C340.395 256.692 340.999 256.493 341.484 256.097C341.969 255.694 342.33 255.156 342.567 254.481C342.81 253.806 342.931 253.055 342.931 252.226C342.931 251.392 342.81 250.637 342.567 249.962C342.33 249.282 341.969 248.74 341.484 248.338C340.999 247.935 340.395 247.734 339.673 247.734C338.933 247.734 338.318 247.935 337.826 248.338C337.341 248.74 336.977 249.282 336.734 249.962C336.498 250.637 336.379 251.392 336.379 252.226C336.379 253.055 336.498 253.806 336.734 254.481C336.977 255.156 337.341 255.694 337.826 256.097C338.318 256.493 338.933 256.692 339.673 256.692ZM348.917 259V245.364H352.033V247.636H352.175C352.424 246.849 352.85 246.243 353.453 245.816C354.063 245.384 354.759 245.168 355.54 245.168C355.717 245.168 355.916 245.177 356.135 245.195C356.359 245.207 356.546 245.228 356.694 245.257V248.213C356.558 248.166 356.342 248.125 356.046 248.089C355.756 248.048 355.475 248.027 355.202 248.027C354.616 248.027 354.09 248.154 353.622 248.409C353.161 248.657 352.797 249.004 352.53 249.447C352.264 249.891 352.131 250.403 352.131 250.983V259H348.917ZM367.028 264.114C366.59 264.114 366.184 264.078 365.811 264.007C365.444 263.942 365.152 263.865 364.933 263.776L365.678 261.273C366.146 261.409 366.563 261.474 366.93 261.468C367.297 261.462 367.62 261.347 367.898 261.122C368.182 260.903 368.422 260.536 368.617 260.021L368.892 259.284L363.947 245.364H367.356L370.499 255.662H370.641L373.793 245.364H377.211L371.751 260.651C371.496 261.373 371.159 261.992 370.739 262.507C370.318 263.028 369.804 263.424 369.194 263.696C368.59 263.975 367.868 264.114 367.028 264.114ZM384.919 259.266C383.587 259.266 382.433 258.973 381.456 258.387C380.48 257.801 379.722 256.982 379.184 255.928C378.651 254.875 378.385 253.644 378.385 252.235C378.385 250.826 378.651 249.592 379.184 248.533C379.722 247.474 380.48 246.651 381.456 246.065C382.433 245.479 383.587 245.186 384.919 245.186C386.25 245.186 387.405 245.479 388.381 246.065C389.358 246.651 390.112 247.474 390.645 248.533C391.184 249.592 391.453 250.826 391.453 252.235C391.453 253.644 391.184 254.875 390.645 255.928C390.112 256.982 389.358 257.801 388.381 258.387C387.405 258.973 386.25 259.266 384.919 259.266ZM384.937 256.692C385.659 256.692 386.262 256.493 386.748 256.097C387.233 255.694 387.594 255.156 387.831 254.481C388.073 253.806 388.195 253.055 388.195 252.226C388.195 251.392 388.073 250.637 387.831 249.962C387.594 249.282 387.233 248.74 386.748 248.338C386.262 247.935 385.659 247.734 384.937 247.734C384.197 247.734 383.581 247.935 383.09 248.338C382.605 248.74 382.241 249.282 381.998 249.962C381.761 250.637 381.643 251.392 381.643 252.226C381.643 253.055 381.761 253.806 381.998 254.481C382.241 255.156 382.605 255.694 383.09 256.097C383.581 256.493 384.197 256.692 384.937 256.692ZM402.872 253.265V245.364H406.086V259H402.97V256.576H402.828C402.52 257.34 402.014 257.964 401.309 258.45C400.611 258.935 399.75 259.178 398.726 259.178C397.832 259.178 397.042 258.979 396.356 258.583C395.675 258.18 395.142 257.597 394.758 256.834C394.373 256.064 394.181 255.135 394.181 254.046V245.364H397.394V253.549C397.394 254.413 397.631 255.1 398.105 255.609C398.578 256.118 399.2 256.372 399.969 256.372C400.442 256.372 400.901 256.257 401.345 256.026C401.789 255.795 402.153 255.452 402.437 254.996C402.727 254.534 402.872 253.957 402.872 253.265Z" fill="white"/>
<path d="M645.356 0.148663C645.162 -0.0478155 644.845 -0.0497941 644.649 0.144244L641.447 3.30628C641.25 3.50031 641.248 3.81689 641.442 4.01337C641.636 4.20985 641.953 4.21183 642.15 4.01779L644.996 1.20709L647.806 4.05314C648 4.24962 648.317 4.2516 648.513 4.05756C648.71 3.86352 648.712 3.54695 648.518 3.35047L645.356 0.148663ZM428.497 256.305L428.995 256.262L428.909 255.266L428.411 255.309L428.497 256.305ZM433.432 254.806L432.935 254.863L433.049 255.856L433.546 255.799L433.432 254.806ZM438.515 255.167L439.01 255.097L438.871 254.107L438.376 254.176L438.515 255.167ZM443.323 253.42L442.83 253.502L442.993 254.489L443.486 254.407L443.323 253.42ZM448.483 253.521L448.974 253.428L448.788 252.446L448.297 252.539L448.483 253.521ZM453.176 251.559L452.687 251.662L452.895 252.641L453.384 252.537L453.176 251.559ZM458.306 251.435L458.792 251.321L458.564 250.348L458.077 250.462L458.306 251.435ZM462.951 249.261L462.467 249.386L462.717 250.354L463.201 250.23L462.951 249.261ZM468.048 248.928L468.53 248.793L468.26 247.83L467.779 247.965L468.048 248.928ZM472.623 246.556L472.145 246.701L472.434 247.658L472.912 247.513L472.623 246.556ZM477.686 246.02L478.162 245.866L477.854 244.915L477.378 245.069L477.686 246.02ZM482.158 243.468L481.685 243.631L482.012 244.576L482.485 244.413L482.158 243.468ZM487.202 242.728L487.671 242.555L487.325 241.617L486.856 241.789L487.202 242.728ZM491.56 240.003L491.094 240.185L491.458 241.117L491.924 240.934L491.56 240.003ZM496.579 239.061L497.041 238.869L496.658 237.945L496.196 238.137L496.579 239.061ZM500.821 236.168L500.363 236.368L500.764 237.284L501.222 237.084L500.821 236.168ZM505.803 235.025L506.257 234.816L505.838 233.908L505.384 234.117L505.803 235.025ZM509.925 231.968L509.475 232.186L509.912 233.086L510.362 232.867L509.925 231.968ZM514.858 230.627L515.303 230.4L514.849 229.509L514.403 229.737L514.858 230.627ZM518.855 227.407L518.414 227.643L518.887 228.524L519.328 228.288L518.855 227.407ZM523.729 225.87L524.165 225.625L523.675 224.753L523.239 224.998L523.729 225.87ZM527.595 222.489L527.164 222.743L527.672 223.604L528.103 223.35L527.595 222.489ZM532.399 220.756L532.825 220.493L532.299 219.642L531.874 219.905L532.399 220.756ZM536.126 217.216L535.707 217.488L536.25 218.327L536.67 218.056L536.126 217.216ZM540.851 215.288L541.266 215.008L540.705 214.18L540.291 214.46L540.851 215.288ZM544.432 211.594L544.024 211.883L544.601 212.699L545.009 212.41L544.432 211.594ZM549.068 209.472L549.47 209.174L548.875 208.37L548.473 208.668L549.068 209.472ZM552.482 205.633L552.087 205.939L552.699 206.73L553.094 206.424L552.482 205.633ZM557.031 203.31L557.42 202.995L556.791 202.218L556.402 202.532L557.031 203.31ZM560.271 199.334L559.889 199.656L560.534 200.42L560.916 200.097L560.271 199.334ZM564.722 196.808L565.097 196.477L564.435 195.728L564.06 196.059L564.722 196.808ZM567.778 192.701L567.411 193.041L568.089 193.775L568.457 193.436L567.778 192.701ZM572.124 189.974L572.484 189.627L571.79 188.908L571.43 189.255L572.124 189.974ZM574.988 185.745L574.636 186.1L575.346 186.804L575.698 186.449L574.988 185.745ZM579.221 182.816L579.565 182.453L578.839 181.765L578.495 182.128L579.221 182.816ZM581.884 178.473L581.549 178.843L582.289 179.515L582.625 179.144L581.884 178.473ZM585.974 175.367L586.301 174.989L585.546 174.334L585.218 174.712L585.974 175.367ZM588.452 170.896L588.133 171.281L588.903 171.919L589.222 171.534L588.452 170.896ZM592.388 167.622L592.699 167.23L591.914 166.61L591.604 167.002L592.388 167.622ZM594.678 163.025L594.376 163.424L595.174 164.027L595.476 163.628L594.678 163.025ZM598.452 159.594L598.745 159.188L597.933 158.603L597.641 159.009L598.452 159.594ZM600.539 154.891L600.256 155.303L601.08 155.869L601.364 155.457L600.539 154.891ZM604.156 151.295L604.43 150.877L603.593 150.329L603.319 150.747L604.156 151.295ZM606.02 146.522L605.756 146.946L606.604 147.476L606.869 147.051L606.02 146.522ZM609.492 142.739L609.747 142.309L608.887 141.799L608.632 142.229L609.492 142.739ZM611.131 137.912L610.885 138.347L611.756 138.839L612.002 138.403L611.131 137.912ZM614.44 133.969L614.676 133.528L613.795 133.056L613.558 133.497L614.44 133.969ZM615.868 129.072L615.641 129.518L616.533 129.971L616.759 129.525L615.868 129.072ZM618.991 125.018L619.208 124.567L618.307 124.133L618.09 124.584L618.991 125.018ZM620.232 120.014L620.024 120.469L620.934 120.884L621.142 120.429L620.232 120.014ZM623.165 115.865L623.363 115.406L622.445 115.01L622.247 115.469L623.165 115.865ZM624.188 110.833L624 111.296L624.926 111.673L625.115 111.21L624.188 110.833ZM626.966 106.52L627.145 106.053L626.211 105.695L626.032 106.162L626.966 106.52ZM627.769 101.49L627.599 101.961L628.54 102.3L628.709 101.829L627.769 101.49ZM630.377 97.0508L630.538 96.5772L629.59 96.257L629.43 96.7307L630.377 97.0508ZM630.985 91.9768L630.834 92.4535L631.788 92.7552L631.939 92.2785L630.985 91.9768ZM633.405 87.4861L633.547 87.0066L632.588 86.7232L632.446 87.2027L633.405 87.4861ZM633.832 82.3445L633.699 82.8266L634.663 83.0917L634.796 82.6096L633.832 82.3445ZM636.079 77.7695L636.202 77.2851L635.233 77.0377L635.11 77.5222L636.079 77.7695ZM636.301 72.6704L636.187 73.157L637.16 73.3868L637.275 72.9002L636.301 72.6704ZM638.396 67.9508L638.502 67.4621L637.525 67.2499L637.419 67.7386L638.396 67.9508ZM638.434 62.8561L638.337 63.3465L639.318 63.5417L639.415 63.0513L638.434 62.8561ZM640.351 58.1292L640.44 57.6373L639.456 57.4589L639.367 57.9509L640.351 58.1292ZM640.226 52.9697L640.145 53.4631L641.132 53.6248L641.213 53.1314L640.226 52.9697ZM641.983 48.1743L642.056 47.6796L641.067 47.5342L640.994 48.0289L641.983 48.1743ZM641.679 43.093L641.614 43.5888L642.606 43.7184L642.671 43.2226L641.679 43.093ZM643.287 38.1994L643.343 37.7027L642.35 37.5888L642.293 38.0856L643.287 38.1994ZM642.827 33.0815L642.778 33.5791L643.773 33.6775L643.822 33.18L642.827 33.0815ZM644.275 28.2199L644.317 27.7217L643.321 27.6381L643.279 28.1364L644.275 28.2199ZM643.662 23.124L643.627 23.6229L644.625 23.6917L644.66 23.1929L643.662 23.124ZM644.973 18.0999L645 17.6007L644.002 17.5465L643.975 18.0457L644.973 18.0999ZM644.208 13.1106L644.188 13.6102L645.187 13.6506L645.207 13.151L644.208 13.1106ZM645.375 8.13927L645.388 7.63945L644.389 7.61286L644.375 8.11268L645.375 8.13927ZM644.475 3.05148L644.469 3.55144L645.469 3.56443L645.475 3.06447L644.475 3.05148ZM426.036 256.499C426.847 256.441 427.668 256.376 428.497 256.305L428.411 255.309C427.587 255.38 426.771 255.444 425.964 255.501L426.036 256.499ZM433.546 255.799C435.174 255.614 436.831 255.403 438.515 255.167L438.376 254.176C436.7 254.411 435.052 254.621 433.432 254.806L433.546 255.799ZM443.486 254.407C445.13 254.136 446.796 253.841 448.483 253.521L448.297 252.539C446.617 252.857 444.959 253.15 443.323 253.42L443.486 254.407ZM453.384 252.537C455.008 252.192 456.649 251.825 458.306 251.435L458.077 250.462C456.427 250.85 454.793 251.215 453.176 251.559L453.384 252.537ZM463.201 250.23C464.804 249.817 466.42 249.383 468.048 248.928L467.779 247.965C466.158 248.418 464.548 248.85 462.951 249.261L463.201 250.23ZM472.912 247.513C474.495 247.036 476.086 246.538 477.686 246.02L477.378 245.069C475.784 245.585 474.199 246.081 472.623 246.556L472.912 247.513ZM482.485 244.413C484.051 243.871 485.623 243.309 487.202 242.728L486.856 241.789C485.284 242.369 483.717 242.928 482.158 243.468L482.485 244.413ZM491.924 240.934C493.471 240.329 495.023 239.705 496.579 239.061L496.196 238.137C494.647 238.778 493.101 239.4 491.56 240.003L491.924 240.934ZM501.222 237.084C502.746 236.417 504.274 235.731 505.803 235.025L505.384 234.117C503.861 234.82 502.34 235.503 500.821 236.168L501.222 237.084ZM510.362 232.867C511.86 232.139 513.359 231.393 514.858 230.627L514.403 229.737C512.91 230.499 511.417 231.243 509.925 231.968L510.362 232.867ZM519.328 228.288C520.796 227.501 522.263 226.695 523.729 225.87L523.239 224.998C521.779 225.82 520.317 226.622 518.855 227.407L519.328 228.288ZM528.103 223.35C529.537 222.504 530.97 221.639 532.399 220.756L531.874 219.905C530.45 220.785 529.023 221.646 527.595 222.489L528.103 223.35ZM536.67 218.056C538.067 217.152 539.461 216.229 540.851 215.288L540.291 214.46C538.907 215.397 537.518 216.316 536.126 217.216L536.67 218.056ZM545.009 212.41C546.367 211.449 547.72 210.469 549.068 209.472L548.473 208.668C547.131 209.661 545.783 210.637 544.432 211.594L545.009 212.41ZM553.094 206.424C554.412 205.404 555.725 204.366 557.031 203.31L556.402 202.532C555.102 203.584 553.795 204.618 552.482 205.633L553.094 206.424ZM560.916 200.097C562.192 199.019 563.461 197.923 564.722 196.808L564.06 196.059C562.804 197.169 561.541 198.26 560.271 199.334L560.916 200.097ZM568.457 193.436C569.687 192.3 570.91 191.146 572.124 189.974L571.43 189.255C570.221 190.422 569.003 191.57 567.778 192.701L568.457 193.436ZM575.698 186.449C576.881 185.256 578.056 184.045 579.221 182.816L578.495 182.128C577.335 183.351 576.166 184.557 574.988 185.745L575.698 186.449ZM582.625 179.144C583.751 177.903 584.867 176.644 585.974 175.367L585.218 174.712C584.117 175.983 583.005 177.237 581.884 178.473L582.625 179.144ZM589.222 171.534C590.287 170.247 591.343 168.943 592.388 167.622L591.604 167.002C590.563 168.317 589.513 169.615 588.452 170.896L589.222 171.534ZM595.476 163.628C596.478 162.3 597.471 160.956 598.452 159.594L597.641 159.009C596.664 160.365 595.676 161.703 594.678 163.025L595.476 163.628ZM601.364 155.457C602.305 154.086 603.236 152.699 604.156 151.295L603.319 150.747C602.404 152.145 601.477 153.526 600.539 154.891L601.364 155.457ZM606.869 147.051C607.755 145.631 608.629 144.193 609.492 142.739L608.632 142.229C607.773 143.677 606.902 145.108 606.02 146.522L606.869 147.051ZM612.002 138.403C612.826 136.941 613.639 135.463 614.44 133.969L613.558 133.497C612.761 134.985 611.952 136.456 611.131 137.912L612.002 138.403ZM616.759 129.525C617.515 128.039 618.259 126.536 618.991 125.018L618.09 124.584C617.361 126.096 616.621 127.592 615.868 129.072L616.759 129.525ZM621.142 120.429C621.828 118.923 622.503 117.402 623.165 115.865L622.247 115.469C621.587 117 620.916 118.515 620.232 120.014L621.142 120.429ZM625.115 111.21C625.744 109.662 626.362 108.098 626.966 106.52L626.032 106.162C625.43 107.734 624.815 109.291 624.188 110.833L625.115 111.21ZM628.709 101.829C629.278 100.251 629.834 98.6584 630.377 97.0508L629.43 96.7307C628.889 98.3319 628.335 99.9184 627.769 101.49L628.709 101.829ZM631.939 92.2785C632.44 90.695 632.929 89.0976 633.405 87.4861L632.446 87.2027C631.971 88.8081 631.484 90.3994 630.985 91.9768L631.939 92.2785ZM634.796 82.6096C635.236 81.0097 635.663 79.3964 636.079 77.7695L635.11 77.5222C634.696 79.1431 634.27 80.7505 633.832 82.3445L634.796 82.6096ZM637.275 72.9002C637.661 71.2637 638.035 69.614 638.396 67.9508L637.419 67.7386C637.059 69.3959 636.686 71.0398 636.301 72.6704L637.275 72.9002ZM639.415 63.0513C639.739 61.4232 640.051 59.7825 640.351 58.1292L639.367 57.9509C639.068 59.5986 638.757 61.2336 638.434 62.8561L639.415 63.0513ZM641.213 53.1314C641.482 51.4912 641.739 49.8389 641.983 48.1743L640.994 48.0289C640.75 49.688 640.494 51.3349 640.226 52.9697L641.213 53.1314ZM642.671 43.2226C642.888 41.5602 643.093 39.8858 643.287 38.1994L642.293 38.0856C642.1 39.7667 641.896 41.4358 641.679 43.093L642.671 43.2226ZM643.822 33.18C643.985 31.5378 644.136 29.8844 644.275 28.2199L643.279 28.1364C643.14 29.7959 642.989 31.4443 642.827 33.0815L643.822 33.18ZM644.66 23.1929C644.776 21.5065 644.881 19.8089 644.973 18.0999L643.975 18.0457C643.882 19.7498 643.778 21.4426 643.662 23.124L644.66 23.1929ZM645.207 13.151C645.274 11.4909 645.33 9.82033 645.375 8.13927L644.375 8.11268C644.331 9.78919 644.275 11.4552 644.208 13.1106L645.207 13.151ZM645.475 3.06447C645.486 2.21333 645.495 1.35955 645.5 0.503125L644.5 0.496875C644.495 1.35106 644.486 2.20259 644.475 3.05148L645.475 3.06447Z" fill="white"/>
</svg>
