<svg width="129" height="39" viewBox="0 0 129 39" fill="none" xmlns="http://www.w3.org/2000/svg">
<path d="M123.811 37.3343H5.06735C2.66095 37.3343 0.710938 35.383 0.710938 32.975V4.82656C0.710938 2.41858 2.66095 0.467285 5.06735 0.467285H123.811C126.217 0.467285 128.167 2.41858 128.167 4.82656V32.975C128.167 35.383 126.217 37.3343 123.811 37.3343Z" fill="black"/>
<path d="M44.782 9.95688L44.3166 8.47534C44.2024 8.10942 44.1058 7.70111 44.018 7.35303H44.0004C43.9148 7.70111 43.8248 8.11835 43.7216 8.47534L43.265 9.95688H44.782ZM43.0894 10.7847L42.5801 12.4893H41.4648L43.3616 6.47839H44.7381L46.659 12.4893H45.5021L44.9664 10.7847" fill="white"/>
<path d="M48.3667 8.08118L49.1436 10.3146C49.2813 10.7042 49.3772 11.0576 49.4657 11.42H49.4952C49.5837 11.0576 49.6919 10.7133 49.8198 10.3146L50.5869 8.08118H51.8532L50.0263 12.4892H48.8387L47.0586 8.08118" fill="white"/>
<path d="M55.0317 10.5364C54.2031 10.5269 53.4125 10.6972 53.4125 11.3974C53.4125 11.8515 53.7078 12.0597 54.0792 12.0597C54.5531 12.0597 54.8888 11.7569 55.0007 11.4258C55.0317 11.3406 55.0317 11.2555 55.0317 11.1703V10.5364ZM56.1722 11.6812C56.1722 12.0975 56.1913 12.5044 56.2484 12.7858H55.1912L55.1079 12.2773H55.0769C54.8031 12.6345 54.3173 12.8899 53.7078 12.8899C52.7744 12.8899 52.2529 12.2205 52.2529 11.5204C52.2529 10.3661 53.2887 9.7724 55.0007 9.78186V9.70617C55.0007 9.4034 54.8793 8.90195 54.0602 8.90195C53.603 8.90195 53.1268 9.04387 52.8125 9.24256L52.5839 8.48565C52.9268 8.2775 53.5268 8.08118 54.2602 8.08118C55.7436 8.08118 56.1722 9.01549 56.1722 10.0279" fill="white"/>
<path d="M57.9066 8.24811H58.9747V12.4893H57.9066V8.24811ZM58.4352 7.63786C58.0806 7.63786 57.8457 7.37633 57.8457 7.06249C57.8457 6.73121 58.0872 6.47839 58.4461 6.47839C58.8094 6.47839 59.0357 6.73121 59.0444 7.06249C59.0444 7.37633 58.8094 7.63786 58.4461 7.63786" fill="white"/>
<path d="M60.6426 12.4893H61.8412V6.07764H60.6426V12.4893Z" fill="white"/>
<path d="M65.8198 10.5364C64.9911 10.5269 64.2006 10.6972 64.2006 11.3974C64.2006 11.8515 64.4959 12.0597 64.8673 12.0597C65.3435 12.0597 65.6769 11.7569 65.7912 11.4258C65.8198 11.3406 65.8198 11.2555 65.8198 11.1703V10.5364ZM66.9603 11.6812C66.9603 12.0975 66.9794 12.5044 67.0365 12.7858H65.9817L65.896 12.2773H65.8674C65.5912 12.6345 65.1054 12.8899 64.4959 12.8899C63.5649 12.8899 63.041 12.2205 63.041 11.5204C63.041 10.3661 64.0792 9.7724 65.7912 9.78186V9.70617C65.7912 9.4034 65.6674 8.90195 64.8483 8.90195C64.3911 8.90195 63.9149 9.04387 63.603 9.24256L63.3744 8.48565C63.7172 8.2775 64.3149 8.08118 65.0483 8.08118C66.5317 8.08118 66.9603 9.01549 66.9603 10.0279" fill="white"/>
<path d="M69.4824 10.8883C69.4824 10.9827 69.4923 11.0772 69.5119 11.1621C69.6398 11.6342 70.0627 11.9741 70.5815 11.9741C71.3388 11.9741 71.801 11.3982 71.801 10.4658C71.801 9.65378 71.3978 8.99285 70.5913 8.99285C70.0996 8.99285 69.6496 9.33276 69.5218 9.84262C69.5021 9.9276 69.4824 10.0315 69.4824 10.1448V10.8883ZM68.2727 6.07764H69.4824V8.82289H69.5021C69.7971 8.37912 70.3159 8.08878 71.0339 8.08878C72.2042 8.08878 73.0377 9.02117 73.0279 10.4186C73.0279 12.0686 71.9387 12.89 70.8569 12.89C70.2373 12.89 69.689 12.6634 69.3447 12.0969H69.3251L69.2661 12.7862H68.2334C68.2531 12.4746 68.2727 11.9647 68.2727 11.502" fill="white"/>
<path d="M74.2275 12.4893H75.4262V6.07764H74.2275V12.4893Z" fill="white"/>
<path d="M79.5844 10.0033C79.5933 9.57665 79.4148 8.87513 78.6854 8.87513C78.0072 8.87513 77.7216 9.52925 77.677 10.0033H79.5844ZM77.677 10.8162C77.7038 11.6504 78.3195 12.0106 79.0155 12.0106C79.5219 12.0106 79.8789 11.9253 80.218 11.8021L80.3786 12.596C80.0038 12.769 79.4862 12.8899 78.8638 12.8899C77.4539 12.8899 76.624 11.9727 76.624 10.5626C76.624 9.28277 77.3558 8.08118 78.7478 8.08118C80.1555 8.08118 80.6195 9.31121 80.6195 10.3256C80.6195 10.5436 80.6017 10.7143 80.5838 10.8162" fill="white"/>
<path d="M86.4222 12.0483C87.0434 12.0483 87.4798 11.4052 87.4798 10.4714C87.4798 9.75265 87.177 8.92046 86.4312 8.92046C85.6563 8.92046 85.3446 9.72428 85.3446 10.4903C85.3446 11.3768 85.7632 12.0483 86.4111 12.0483H86.4222ZM86.3866 12.8899C85.1665 12.8899 84.2158 12.001 84.2158 10.5186C84.2158 9.00557 85.1487 8.08118 86.4579 8.08118C87.747 8.08118 88.6109 9.0434 88.6109 10.443C88.6109 12.1334 87.4887 12.8899 86.3955 12.8899" fill="white"/>
<path d="M89.8466 9.46187C89.8466 8.96544 89.8293 8.54879 89.8096 8.17647H90.8651L90.9244 8.8236H90.9541C91.1716 8.48674 91.6956 8.08118 92.4965 8.08118C93.3345 8.08118 94.2046 8.56652 94.2046 9.9317V12.4892H92.9884V10.0558C92.9884 9.43527 92.7314 8.96544 92.0714 8.96544C91.5869 8.96544 91.2507 9.27571 91.1222 9.6037C91.0826 9.69235 91.0628 9.82532 91.0628 9.94943V12.4892H89.8466" fill="white"/>
<path d="M99.1337 6.87903V8.08605H100.198V8.9762H99.1337V11.0443C99.1337 11.6249 99.2796 11.9151 99.7059 11.9151C99.9064 11.9151 100.016 11.9055 100.144 11.8668L100.162 12.7642C99.9976 12.8343 99.6967 12.89 99.3503 12.89C98.9331 12.89 98.5958 12.7448 98.3861 12.5054C98.1399 12.2344 98.0305 11.799 98.0305 11.1798V8.9762H97.4014V8.08605H98.0305V7.208" fill="white"/>
<path d="M101.396 6.07764H102.624V8.69238H102.644C102.793 8.48483 103.003 8.31337 103.252 8.19605C103.502 8.07197 103.789 7.99978 104.098 7.99978C104.926 7.99978 105.792 8.49385 105.792 9.90162V12.4893H104.567V10.0189C104.567 9.38724 104.307 8.89994 103.629 8.89994C103.153 8.89994 102.813 9.18871 102.674 9.5226C102.634 9.62187 102.624 9.73918 102.624 9.8565V12.4893H101.396" fill="white"/>
<path d="M109.952 10.0033C109.961 9.57665 109.783 8.87513 109.05 8.87513C108.372 8.87513 108.088 9.52925 108.044 10.0033H109.952ZM108.044 10.8162C108.071 11.6504 108.684 12.0106 109.381 12.0106C109.89 12.0106 110.247 11.9253 110.584 11.8021L110.747 12.596C110.372 12.769 109.854 12.8899 109.229 12.8899C107.821 12.8899 106.99 11.9727 106.99 10.5626C106.99 9.28277 107.722 8.08118 109.113 8.08118C110.521 8.08118 110.986 9.31121 110.986 10.3256C110.986 10.5436 110.968 10.7143 110.95 10.8162" fill="white"/>
<path d="M28.9847 18.7473C28.9545 15.6787 31.5237 14.1846 31.6423 14.1155C30.1879 12.016 27.9328 11.7306 27.1393 11.7075C25.2473 11.5119 23.4112 12.831 22.4477 12.831C21.4633 12.831 19.9763 11.7283 18.3775 11.7605C16.3156 11.7927 14.3887 12.9737 13.3322 14.8039C11.154 18.5402 12.7783 24.0283 14.8681 27.0487C15.9154 28.5266 17.1348 30.1795 18.7336 30.1197C20.2974 30.0552 20.8815 29.1344 22.7689 29.1344C24.6399 29.1344 25.1891 30.1197 26.8205 30.0828C28.4983 30.0552 29.5549 28.598 30.5625 27.1039C31.7727 25.4096 32.2567 23.7406 32.2753 23.6554C32.2358 23.6416 29.0173 22.4261 28.9847 18.7473Z" fill="white"/>
<path d="M25.839 9.57228C26.6507 8.53167 27.2106 7.11348 27.0532 5.67688C25.8772 5.73213 24.4067 6.51029 23.559 7.52789C22.8102 8.42576 22.1379 9.8969 22.3133 11.2782C23.6354 11.3795 24.9913 10.5968 25.839 9.57228Z" fill="white"/>
<path d="M47.718 24.5392L46.6376 21.2955C46.5235 20.965 46.3093 20.1841 45.9926 18.9572H45.9553C45.8296 19.4846 45.6247 20.2655 45.3476 21.2955L44.2858 24.5392H47.718ZM51.4529 29.7206H49.2711L48.0766 26.0716H43.9272L42.7886 29.7206H40.665L44.7818 17.298H47.3198" fill="white"/>
<path d="M59.7752 25.2871C59.7752 24.3838 59.5746 23.642 59.1732 23.057C58.735 22.4485 58.1468 22.142 57.4087 22.142C56.9082 22.142 56.4515 22.3128 56.0479 22.6475C55.642 22.9868 55.3744 23.4267 55.2476 23.9743C55.1853 24.227 55.1553 24.4353 55.1553 24.5991V26.1436C55.1553 26.8176 55.3583 27.3862 55.7642 27.8496C56.1725 28.3152 56.7007 28.5446 57.3511 28.5446C58.1168 28.5446 58.7119 28.2474 59.134 27.6483C59.563 27.0516 59.7752 26.2653 59.7752 25.2871ZM61.8419 25.2099C61.8419 26.7848 61.4221 28.0321 60.5825 28.9447C59.8306 29.7591 58.8964 30.1639 57.7847 30.1639C56.5807 30.1639 55.7181 29.724 55.1922 28.8488H55.1553V33.7279H53.1256V23.7426C53.1256 22.7528 53.1025 21.7372 53.0518 20.6935H54.8347L54.9477 22.1631H54.9869C55.6627 21.0562 56.6891 20.5039 58.0661 20.5039C59.1409 20.5039 60.0428 20.9368 60.7601 21.8003C61.4797 22.6662 61.8419 23.8011 61.8419 25.2099Z" fill="white"/>
<path d="M70.1641 25.2871C70.1641 24.3838 69.9634 23.642 69.5618 23.057C69.1234 22.4485 68.5349 22.142 67.7964 22.142C67.2956 22.142 66.841 22.3128 66.4349 22.6475C66.0264 22.9868 65.7633 23.4267 65.6387 23.9743C65.5741 24.227 65.5441 24.4353 65.5441 24.5991V26.1436C65.5441 26.8176 65.7449 27.3862 66.151 27.8496C66.5595 28.3152 67.088 28.5446 67.741 28.5446C68.5049 28.5446 69.1003 28.2474 69.5249 27.6483C69.9495 27.0516 70.1641 26.2653 70.1641 25.2871ZM72.2295 25.2099C72.2295 26.7848 71.8118 28.0321 70.9718 28.9447C70.2195 29.7591 69.2872 30.1639 68.1726 30.1639C66.9703 30.1639 66.1072 29.724 65.5787 28.8488H65.5441V33.7279H63.5133V23.7426C63.5133 22.7528 63.4879 21.7372 63.4395 20.6935H65.2233L65.3364 22.1631H65.3756C66.0495 21.0562 67.0764 20.5039 68.4541 20.5039C69.5318 20.5039 70.4295 20.9368 71.1518 21.8003C71.8718 22.6662 72.2295 23.8011 72.2295 25.2099Z" fill="white"/>
<path d="M83.8161 26.3303C83.8161 27.4208 83.455 28.31 82.7284 28.998C81.9304 29.7468 80.8227 30.1213 79.3985 30.1213C78.0812 30.1213 77.0248 29.8545 76.2246 29.3209L76.6793 27.608C77.5419 28.1532 78.4847 28.4247 79.5144 28.4247C80.2521 28.4247 80.8272 28.2515 81.2395 27.9028C81.6496 27.5518 81.8547 27.0838 81.8547 26.4987C81.8547 25.9792 81.6875 25.537 81.3487 25.1813C81.0099 24.8256 80.446 24.4956 79.6593 24.189C77.5173 23.3489 76.4475 22.1204 76.4475 20.5057C76.4475 19.4503 76.8219 18.5844 77.5731 17.9105C78.322 17.2365 79.3205 16.8972 80.5664 16.8972C81.6808 16.8972 82.6058 17.1031 83.3435 17.508L82.8532 19.1859C82.1645 18.7927 81.3844 18.5938 80.5129 18.5938C79.822 18.5938 79.2848 18.7717 78.8992 19.1274C78.5738 19.4456 78.4089 19.8341 78.4089 20.2904C78.4089 20.7982 78.5939 21.2171 78.9705 21.547C79.296 21.8513 79.8888 22.1812 80.7492 22.5393C81.8012 22.9839 82.5746 23.5034 83.0716 24.1001C83.5664 24.6968 83.8161 25.441 83.8161 26.3303Z" fill="white"/>
<path d="M90.6093 22.3053H88.3602V26.7488C88.3602 27.88 88.7571 28.4444 89.5532 28.4444C89.9153 28.4444 90.2194 28.4143 90.4585 28.3518L90.5142 29.8947C90.1149 30.0474 89.5834 30.1214 88.9289 30.1214C88.1235 30.1214 87.4922 29.8762 87.0372 29.3881C86.5846 28.8977 86.3572 28.0743 86.3572 26.92V22.3053H85.0156V20.7787H86.3572V19.104L88.3602 18.5002V20.7787H90.6093" fill="white"/>
<path d="M98.5289 25.294C98.5289 24.4436 98.3497 23.7167 97.9913 23.1063C97.5762 22.3701 96.9773 22.002 96.2015 22.002C95.4008 22.002 94.7906 22.3701 94.3732 23.1063C94.0148 23.7167 93.8401 24.4576 93.8401 25.3336C93.8401 26.184 94.0148 26.9109 94.3732 27.519C94.8042 28.2552 95.4076 28.6233 96.1857 28.6233C96.9456 28.6233 97.5444 28.2505 97.9754 27.5003C98.3452 26.8806 98.5289 26.1444 98.5289 25.294ZM100.598 25.2288C100.598 26.6453 100.205 27.8079 99.4159 28.7188C98.5902 29.6554 97.4945 30.1214 96.1289 30.1214C94.8087 30.1214 93.7607 29.6717 92.9781 28.7748C92.1978 27.8778 91.8076 26.7455 91.8076 25.3802C91.8076 23.9497 92.2091 22.7801 93.0167 21.8715C93.822 20.9582 94.9085 20.5039 96.2741 20.5039C97.5921 20.5039 98.6537 20.9536 99.4522 21.8505C100.217 22.7266 100.598 23.8495 100.598 25.2288Z" fill="white"/>
<path d="M107.39 22.455C107.177 22.4185 106.951 22.4002 106.711 22.4002C105.953 22.4002 105.364 22.6672 104.952 23.1989C104.593 23.6712 104.414 24.2645 104.414 24.9811V29.7207H102.258L102.275 23.5343C102.275 22.4915 102.248 21.5445 102.196 20.6887H104.076L104.154 22.4185H104.211C104.439 21.8251 104.799 21.3459 105.29 20.9877C105.771 20.6659 106.291 20.5039 106.851 20.5039C107.049 20.5039 107.231 20.5176 107.39 20.5404" fill="white"/>
<path d="M114.277 24.3616C114.29 23.7549 114.161 23.2274 113.89 22.784C113.545 22.2146 113.011 21.9275 112.297 21.9275C111.645 21.9275 111.113 22.2076 110.706 22.7653C110.375 23.2088 110.175 23.7409 110.118 24.3616H114.277ZM116.181 24.8937C116.181 25.2625 116.159 25.5705 116.111 25.8249H110.118C110.138 26.7374 110.429 27.4352 110.986 27.916C111.49 28.3477 112.145 28.5601 112.947 28.5601C113.834 28.5601 114.643 28.4154 115.372 28.1237L115.686 29.5496C114.834 29.9277 113.829 30.1214 112.668 30.1214C111.275 30.1214 110.179 29.699 109.384 28.8541C108.59 28.014 108.19 26.8821 108.19 25.4632C108.19 24.0699 108.559 22.91 109.302 21.9859C110.077 20.9963 111.127 20.5039 112.445 20.5039C113.74 20.5039 114.725 20.9963 115.391 21.9859C115.92 22.77 116.181 23.7409 116.181 24.8937Z" fill="white"/>
</svg>
