<svg width="113" height="55" viewBox="0 0 113 55" fill="none" xmlns="http://www.w3.org/2000/svg">
<path d="M5.30398 37L0.616477 0.636363H11.625L12.9034 23.0085H13.1875L22.7756 0.636363H31.4403L33.642 23.0795H33.9261L42.5909 0.636363H53.5994L36.8381 37H27.392L24.6222 16.6875H24.3381L14.75 37H5.30398ZM47.2585 37L53.2955 0.636363H63.1676L60.8239 14.8409H73.892L76.2358 0.636363H86.108L80.071 37H70.1989L72.5426 22.7955H59.4744L57.1307 37H47.2585ZM81.2585 37L87.2955 0.636363H112.864L111.514 8.59091H95.8182L94.8239 14.8409H108.957L107.608 22.7955H93.4744L91.1307 37H81.2585Z" fill="white"/>
<path d="M15.0483 54H11.6392L13.4503 43.0909H16.9233C17.9815 43.0909 18.8533 43.3129 19.5387 43.7567C20.2276 44.2006 20.707 44.8345 20.9769 45.6584C21.2504 46.4822 21.2912 47.4659 21.0994 48.6094C20.9148 49.7315 20.5561 50.6957 20.0234 51.5018C19.4943 52.3043 18.8089 52.9222 17.9673 53.3555C17.1293 53.7852 16.1563 54 15.0483 54ZM13.1573 52.8281H15.0909C15.9929 52.8281 16.7706 52.6506 17.424 52.2955C18.081 51.9403 18.6101 51.4343 19.0114 50.7773C19.4162 50.1204 19.6932 49.3409 19.8423 48.4389C19.9915 47.5724 19.9773 46.8285 19.7997 46.207C19.6257 45.582 19.283 45.1026 18.7717 44.7688C18.2638 44.4315 17.5838 44.2628 16.7315 44.2628H14.5742L13.1573 52.8281ZM22.4205 54L24.2315 43.0909H30.8153L30.6236 44.2628H25.3608L24.7429 47.9489H29.6648L29.473 49.1207H24.5511L23.9332 52.8281H29.2812L29.0895 54H22.4205ZM33.6438 43.0909L35.3697 52.2741H35.4975L40.2489 43.0909H41.6339L35.8171 54H34.4535L32.2589 43.0909H33.6438ZM41.522 54L43.3331 43.0909H49.9169L49.7251 44.2628H44.4624L43.8445 47.9489H48.7663L48.5746 49.1207H43.6527L43.0348 52.8281H48.3828L48.1911 54H41.522ZM50.4869 54L52.2979 43.0909H53.619L51.9996 52.8281H57.0707L56.8789 54H50.4869ZM68.599 48.6307C68.4072 49.767 68.0397 50.7489 67.4964 51.5763C66.953 52.4002 66.289 53.0359 65.5042 53.4833C64.7194 53.9272 63.8689 54.1491 62.9527 54.1491C62.0081 54.1491 61.2037 53.9183 60.5397 53.4567C59.8792 52.9915 59.4069 52.3345 59.1228 51.4858C58.8422 50.6335 58.7979 49.625 58.9896 48.4602C59.1814 47.3239 59.5489 46.3437 60.0922 45.5199C60.6356 44.6925 61.3014 44.0568 62.0898 43.6129C62.8781 43.1655 63.7339 42.9418 64.6572 42.9418C65.5947 42.9418 66.392 43.1744 67.0489 43.6396C67.7094 44.1012 68.18 44.7582 68.4605 45.6104C68.7446 46.4592 68.7907 47.4659 68.599 48.6307ZM67.3419 48.4602C67.4981 47.5298 67.4751 46.7468 67.2726 46.1112C67.0702 45.4755 66.7346 44.9943 66.2659 44.6676C65.7971 44.3409 65.2396 44.1776 64.5933 44.1776C63.9186 44.1776 63.2794 44.3498 62.6757 44.6942C62.072 45.0352 61.5553 45.5376 61.1256 46.2017C60.6959 46.8622 60.403 47.6719 60.2467 48.6307C60.0905 49.5611 60.1135 50.3441 60.316 50.9798C60.5184 51.6154 60.854 52.0966 61.3227 52.4233C61.7915 52.75 62.349 52.9134 62.9953 52.9134C63.67 52.9134 64.3092 52.7429 64.9129 52.402C65.5166 52.0575 66.0333 51.555 66.463 50.8945C66.8927 50.2305 67.1856 49.419 67.3419 48.4602ZM69.9253 54L71.7364 43.0909H75.4225C76.2748 43.0909 76.9477 43.2436 77.4413 43.549C77.9385 43.8544 78.2741 44.2681 78.4481 44.7901C78.6256 45.3121 78.6611 45.8963 78.5546 46.5426C78.4481 47.1818 78.219 47.7642 77.8675 48.2898C77.5194 48.8153 77.0471 49.2344 76.4506 49.5469C75.8575 49.8594 75.1384 50.0156 74.2932 50.0156H71.6512L71.843 48.8438H74.4424C75.0248 48.8438 75.5113 48.7425 75.9019 48.5401C76.2925 48.3377 76.5979 48.0625 76.8181 47.7145C77.0383 47.3665 77.1839 46.9759 77.2549 46.5426C77.3259 46.1023 77.3082 45.7116 77.2016 45.3707C77.0986 45.0263 76.8838 44.7564 76.5571 44.5611C76.2339 44.3622 75.7776 44.2628 75.1881 44.2628H72.8657L71.2464 54H69.9253ZM79.4322 54L81.2433 43.0909H87.8271L87.6353 44.2628H82.3725L81.7546 47.9489H86.6765L86.4847 49.1207H81.5629L80.945 52.8281H86.293L86.1012 54H79.4322ZM88.397 54L90.2081 43.0909H93.8942C94.7464 43.0909 95.4212 43.2347 95.9183 43.5224C96.419 43.81 96.7582 44.206 96.9357 44.7102C97.1168 45.2145 97.1541 45.7898 97.0476 46.4361C96.9411 47.0753 96.7138 47.6435 96.3658 48.1406C96.0213 48.6378 95.5526 49.0284 94.9595 49.3125C94.37 49.5966 93.6527 49.7386 92.8075 49.7386H89.8246L90.0376 48.5455H92.978C93.5604 48.5455 94.0433 48.4602 94.4268 48.2898C94.8104 48.1193 95.1087 47.8761 95.3217 47.56C95.5348 47.244 95.6768 46.8693 95.7479 46.4361C95.8189 45.9957 95.7994 45.614 95.6893 45.2908C95.5827 44.9641 95.3643 44.712 95.0341 44.5344C94.7074 44.3533 94.2493 44.2628 93.6598 44.2628H91.3374L89.718 54H88.397ZM94.3416 49.0994L96.2166 54H94.6825L92.8501 49.0994H94.3416Z" fill="white"/>
</svg>
