<svg width="106" height="53" viewBox="0 0 106 53" fill="none" xmlns="http://www.w3.org/2000/svg">
<path d="M105.854 41.5437L102.202 52.4127H97.6738L94.0225 41.5437H98.1266L99.8815 48.7331H99.9947L101.75 41.5437H105.854Z" fill="#343541"/>
<path d="M90.449 52.6107C89.2885 52.6107 88.2885 52.389 87.4488 51.9456C86.6138 51.4974 85.9698 50.8558 85.517 50.0209C85.0688 49.1811 84.8447 48.1763 84.8447 47.0064C84.8447 45.8837 85.0712 44.9024 85.524 44.0627C85.9769 43.223 86.6161 42.5697 87.4417 42.1026C88.2672 41.6356 89.2414 41.4021 90.3641 41.4021C91.185 41.4021 91.928 41.5295 92.5931 41.7842C93.2583 42.039 93.8267 42.4093 94.2985 42.8952C94.7702 43.3763 95.1335 43.9613 95.3882 44.6501C95.6429 45.3388 95.7703 46.1148 95.7703 46.9781V47.8839H86.0618V45.7327H92.1756C92.1709 45.4214 92.0907 45.1477 91.935 44.9119C91.7841 44.6713 91.5789 44.4849 91.3194 44.3529C91.0647 44.216 90.7745 44.1476 90.449 44.1476C90.133 44.1476 89.8428 44.216 89.5787 44.3529C89.3145 44.4849 89.1022 44.6689 88.9418 44.9048C88.7861 45.1407 88.7036 45.4166 88.6942 45.7327V48.0537C88.6942 48.4028 88.7673 48.7141 88.9135 48.9877C89.0598 49.2613 89.2697 49.476 89.5433 49.6317C89.8169 49.7873 90.1471 49.8652 90.534 49.8652C90.8028 49.8652 91.0482 49.8274 91.2699 49.752C91.4963 49.6765 91.6897 49.568 91.8501 49.4265C92.0105 49.2802 92.1284 49.1057 92.2039 48.9028H95.7703C95.6477 49.6576 95.3575 50.3133 94.8999 50.87C94.4423 51.4219 93.8362 51.8512 93.0814 52.1578C92.3313 52.4598 91.4539 52.6107 90.449 52.6107Z" fill="#343541"/>
<path d="M78.524 52.5541C77.7503 52.5541 77.038 52.3513 76.387 51.9456C75.7407 51.5399 75.2218 50.9243 74.8302 50.0987C74.4434 49.2732 74.25 48.233 74.25 46.9781C74.25 45.6667 74.4528 44.6005 74.8585 43.7797C75.269 42.9589 75.7973 42.3574 76.4436 41.9753C77.0946 41.5932 77.7786 41.4021 78.4957 41.4021C79.0335 41.4021 79.5052 41.4965 79.9109 41.6852C80.3166 41.8691 80.6563 42.1168 80.9299 42.4282C81.2035 42.7348 81.4111 43.0721 81.5526 43.4401H81.6092V37.9207H85.5152V52.4126H81.6375V50.6294H81.5526C81.4016 50.9974 81.1846 51.3276 80.9016 51.6201C80.6233 51.9078 80.2836 52.1366 79.8826 52.3065C79.4864 52.4716 79.0335 52.5541 78.524 52.5541ZM79.9675 49.5538C80.3261 49.5538 80.6327 49.4501 80.8874 49.2425C81.1469 49.0302 81.345 48.733 81.4818 48.3509C81.6233 47.9641 81.6941 47.5065 81.6941 46.9781C81.6941 46.4403 81.6233 45.9804 81.4818 45.5983C81.345 45.2114 81.1469 44.9166 80.8874 44.7138C80.6327 44.5062 80.3261 44.4024 79.9675 44.4024C79.609 44.4024 79.3024 44.5062 79.0476 44.7138C78.7976 44.9166 78.6042 45.2114 78.4674 45.5983C78.3353 45.9804 78.2693 46.4403 78.2693 46.9781C78.2693 47.5159 78.3353 47.9782 78.4674 48.3651C78.6042 48.7472 78.7976 49.042 79.0476 49.2496C79.3024 49.4524 79.609 49.5538 79.9675 49.5538Z" fill="#343541"/>
<path d="M80.6025 33.8146V0H104.378V7.39694H89.7827V13.2088H102.925V20.6058H89.7827V33.8146H80.6025Z" fill="#343541"/>
<path d="M48.9863 33.8146V0H58.1665V13.2088H70.3186V0H79.4987V33.8146H70.3186V20.6058H58.1665V33.8146H48.9863Z" fill="#343541"/>
<path d="M9.97266 33.8146L0 0H10.2368L14.8599 20.8039H15.1241L20.6058 0H28.6631L34.1448 20.8699H34.409L39.0321 0H49.2689L39.2962 33.8146H30.5124L24.7665 14.926H24.5024L18.7565 33.8146H9.97266Z" fill="#343541"/>
</svg>
