<svg width="839" height="417" viewBox="0 0 839 417" fill="none" xmlns="http://www.w3.org/2000/svg">
<path d="M838.148 328.943L809.237 415.004H773.378L744.467 328.943H776.964L790.859 385.869H791.756L805.651 328.943H838.148Z" fill="white"/>
<path d="M716.181 416.572C706.992 416.572 699.073 414.817 692.424 411.306C685.813 407.757 680.714 402.677 677.128 396.066C673.58 389.417 671.806 381.461 671.806 372.197C671.806 363.307 673.599 355.538 677.184 348.889C680.77 342.24 685.832 337.067 692.368 333.369C698.905 329.671 706.618 327.822 715.508 327.822C722.008 327.822 727.891 328.831 733.157 330.848C738.424 332.865 742.925 335.797 746.66 339.644C750.396 343.454 753.272 348.086 755.289 353.54C757.306 358.993 758.315 365.138 758.315 371.973V379.145H681.443V362.112H729.852C729.814 359.647 729.179 357.48 727.947 355.613C726.751 353.708 725.127 352.232 723.072 351.186C721.055 350.103 718.758 349.562 716.181 349.562C713.678 349.562 711.381 350.103 709.289 351.186C707.197 352.232 705.516 353.689 704.246 355.557C703.014 357.424 702.36 359.609 702.285 362.112V380.49C702.285 383.254 702.864 385.719 704.022 387.885C705.18 390.052 706.842 391.751 709.009 392.984C711.175 394.217 713.79 394.833 716.853 394.833C718.982 394.833 720.924 394.534 722.68 393.937C724.473 393.339 726.004 392.48 727.274 391.359C728.544 390.201 729.478 388.819 730.076 387.213H758.315C757.343 393.189 755.046 398.382 751.423 402.789C747.8 407.159 743 410.559 737.023 412.986C731.084 415.377 724.137 416.572 716.181 416.572Z" fill="white"/>
<path d="M621.754 416.124C615.628 416.124 609.988 414.518 604.833 411.306C599.716 408.093 595.607 403.219 592.507 396.682C589.444 390.145 587.913 381.909 587.913 371.973C587.913 361.589 589.519 353.148 592.731 346.648C595.981 340.149 600.164 335.386 605.282 332.361C610.436 329.335 615.852 327.822 621.53 327.822C625.788 327.822 629.524 328.569 632.736 330.064C635.948 331.52 638.638 333.481 640.804 335.947C642.97 338.375 644.614 341.045 645.735 343.959H646.183V300.256H677.111V415.004H646.407V400.884H645.735C644.539 403.798 642.821 406.412 640.58 408.728C638.376 411.007 635.687 412.818 632.512 414.163C629.374 415.471 625.788 416.124 621.754 416.124ZM633.184 392.368C636.023 392.368 638.451 391.546 640.468 389.903C642.522 388.222 644.091 385.868 645.174 382.843C646.295 379.78 646.855 376.157 646.855 371.973C646.855 367.715 646.295 364.073 645.174 361.048C644.091 357.985 642.522 355.65 640.468 354.044C638.451 352.4 636.023 351.579 633.184 351.579C630.345 351.579 627.917 352.4 625.9 354.044C623.921 355.65 622.389 357.985 621.306 361.048C620.26 364.073 619.737 367.715 619.737 371.973C619.737 376.231 620.26 379.892 621.306 382.955C622.389 385.981 623.921 388.315 625.9 389.959C627.917 391.565 630.345 392.368 633.184 392.368Z" fill="white"/>
<path d="M638.215 267.744V0H826.473V58.569H710.904V104.588H814.968V163.157H710.904V267.744H638.215Z" fill="white"/>
<path d="M387.874 267.744V0H460.562V104.588H556.783V0H629.471V267.744H556.783V163.157H460.562V267.744H387.874Z" fill="white"/>
<path d="M78.9636 267.744L0 0H81.0554L117.661 164.725H119.753L163.157 0H226.955L270.359 165.248H272.451L309.056 0H390.112L311.148 267.744H241.597L196.102 118.184H194.01L148.514 267.744H78.9636Z" fill="white"/>
</svg>
